<?xml version="1.0" encoding="utf-8" standalone="no"?>
<!DOCTYPE svg PUBLIC "-//W3C//DTD SVG 1.1//EN"
  "http://www.w3.org/Graphics/SVG/1.1/DTD/svg11.dtd">
<!-- Created with matplotlib (https://matplotlib.org/) -->
<svg height="288pt" version="1.1" viewBox="0 0 360 288" width="360pt" xmlns="http://www.w3.org/2000/svg" xmlns:xlink="http://www.w3.org/1999/xlink">
 <defs>
  <style type="text/css">
*{stroke-linecap:butt;stroke-linejoin:round;}
  </style>
 </defs>
 <g id="figure_1">
  <g id="patch_1">
   <path d="M 0 288 
L 360 288 
L 360 0 
L 0 0 
z
" style="fill:#ffffff;"/>
  </g>
  <g id="axes_1">
   <g id="patch_2">
    <path d="M 0 288 
L 360 288 
L 360 23.04 
L 0 23.04 
z
" style="fill:#ffffff;"/>
   </g>
   <g id="matplotlib.axis_1"/>
   <g id="matplotlib.axis_2"/>
   <g id="LineCollection_1">
    <path clip-path="url(#pdfe7ddd0d0)" d="M 120 265.27596 
L 120 46.110091 
" style="fill:none;stroke:#000000;stroke-dasharray:1,1.65;stroke-dashoffset:0;stroke-opacity:0.7;"/>
   </g>
   <g id="LineCollection_2">
    <path clip-path="url(#pdfe7ddd0d0)" d="M 240 265.27596 
L 240 46.110091 
" style="fill:none;stroke:#000000;stroke-dasharray:1,1.65;stroke-dashoffset:0;stroke-opacity:0.7;"/>
   </g>
   <g id="line2d_1">
    <path clip-path="url(#pdfe7ddd0d0)" d="M 120 57.645137 
L 240 57.645137 
" style="fill:none;stroke:#008000;stroke-linecap:square;stroke-width:1.5;"/>
    <defs>
     <path d="M 0 3 
C 0.795609 3 1.55874 2.683901 2.12132 2.12132 
C 2.683901 1.55874 3 0.795609 3 0 
C 3 -0.795609 2.683901 -1.55874 2.12132 -2.12132 
C 1.55874 -2.683901 0.795609 -3 0 -3 
C -0.795609 -3 -1.55874 -2.683901 -2.12132 -2.12132 
C -2.683901 -1.55874 -3 -0.795609 -3 0 
C -3 0.795609 -2.683901 1.55874 -2.12132 2.12132 
C -1.55874 2.683901 -0.795609 3 0 3 
z
" id="m8b4bf81583" style="stroke:#008000;"/>
    </defs>
    <g clip-path="url(#pdfe7ddd0d0)">
     <use style="fill:#008000;stroke:#008000;" x="120" xlink:href="#m8b4bf81583" y="57.645137"/>
     <use style="fill:#008000;stroke:#008000;" x="240" xlink:href="#m8b4bf81583" y="57.645137"/>
    </g>
   </g>
   <g id="line2d_2">
    <path clip-path="url(#pdfe7ddd0d0)" d="M 120 80.715229 
L 240 80.715229 
" style="fill:none;stroke:#008000;stroke-linecap:square;stroke-width:1.5;"/>
    <g clip-path="url(#pdfe7ddd0d0)">
     <use style="fill:#008000;stroke:#008000;" x="120" xlink:href="#m8b4bf81583" y="80.715229"/>
     <use style="fill:#008000;stroke:#008000;" x="240" xlink:href="#m8b4bf81583" y="80.715229"/>
    </g>
   </g>
   <g id="line2d_3">
    <path clip-path="url(#pdfe7ddd0d0)" d="M 120 103.78532 
" style="fill:none;stroke:#ff0000;stroke-linecap:square;stroke-width:1.5;"/>
    <defs>
     <path d="M 0 3 
C 0.795609 3 1.55874 2.683901 2.12132 2.12132 
C 2.683901 1.55874 3 0.795609 3 0 
C 3 -0.795609 2.683901 -1.55874 2.12132 -2.12132 
C 1.55874 -2.683901 0.795609 -3 0 -3 
C -0.795609 -3 -1.55874 -2.683901 -2.12132 -2.12132 
C -2.683901 -1.55874 -3 -0.795609 -3 0 
C -3 0.795609 -2.683901 1.55874 -2.12132 2.12132 
C -1.55874 2.683901 -0.795609 3 0 3 
z
" id="ma87f25f8b0" style="stroke:#ff0000;"/>
    </defs>
    <g clip-path="url(#pdfe7ddd0d0)">
     <use style="fill:#ff0000;stroke:#ff0000;" x="120" xlink:href="#ma87f25f8b0" y="103.78532"/>
    </g>
   </g>
   <g id="line2d_4">
    <path clip-path="url(#pdfe7ddd0d0)" d="M 120 126.855411 
" style="fill:none;stroke:#ff0000;stroke-linecap:square;stroke-width:1.5;"/>
    <g clip-path="url(#pdfe7ddd0d0)">
     <use style="fill:#ff0000;stroke:#ff0000;" x="120" xlink:href="#ma87f25f8b0" y="126.855411"/>
    </g>
   </g>
   <g id="line2d_5">
    <path clip-path="url(#pdfe7ddd0d0)" d="M 240 126.855411 
" style="fill:none;stroke:#ff0000;stroke-linecap:square;stroke-width:1.5;"/>
    <g clip-path="url(#pdfe7ddd0d0)">
     <use style="fill:#ff0000;stroke:#ff0000;" x="240" xlink:href="#ma87f25f8b0" y="126.855411"/>
    </g>
   </g>
   <g id="line2d_6">
    <path clip-path="url(#pdfe7ddd0d0)" d="M 120 149.925503 
L 240 103.78532 
" style="fill:none;stroke:#808080;stroke-dasharray:1.5,2.475;stroke-dashoffset:0;stroke-width:1.5;"/>
    <defs>
     <path d="M 0 3 
C 0.795609 3 1.55874 2.683901 2.12132 2.12132 
C 2.683901 1.55874 3 0.795609 3 0 
C 3 -0.795609 2.683901 -1.55874 2.12132 -2.12132 
C 1.55874 -2.683901 0.795609 -3 0 -3 
C -0.795609 -3 -1.55874 -2.683901 -2.12132 -2.12132 
C -2.683901 -1.55874 -3 -0.795609 -3 0 
C -3 0.795609 -2.683901 1.55874 -2.12132 2.12132 
C -1.55874 2.683901 -0.795609 3 0 3 
z
" id="m9909fc6de3" style="stroke:#808080;"/>
    </defs>
    <g clip-path="url(#pdfe7ddd0d0)">
     <use style="fill:#808080;stroke:#808080;" x="120" xlink:href="#m9909fc6de3" y="149.925503"/>
     <use style="fill:#808080;stroke:#808080;" x="240" xlink:href="#m9909fc6de3" y="103.78532"/>
    </g>
   </g>
   <g id="line2d_7">
    <path clip-path="url(#pdfe7ddd0d0)" d="M 240 149.925503 
" style="fill:none;stroke:#ff0000;stroke-linecap:square;stroke-width:1.5;"/>
    <g clip-path="url(#pdfe7ddd0d0)">
     <use style="fill:#ff0000;stroke:#ff0000;" x="240" xlink:href="#ma87f25f8b0" y="149.925503"/>
    </g>
   </g>
   <g id="line2d_8">
    <path clip-path="url(#pdfe7ddd0d0)" d="M 120 172.995594 
" style="fill:none;stroke:#ff0000;stroke-linecap:square;stroke-width:1.5;"/>
    <g clip-path="url(#pdfe7ddd0d0)">
     <use style="fill:#ff0000;stroke:#ff0000;" x="120" xlink:href="#ma87f25f8b0" y="172.995594"/>
    </g>
   </g>
   <g id="line2d_9">
    <path clip-path="url(#pdfe7ddd0d0)" d="M 240 172.995594 
" style="fill:none;stroke:#ff0000;stroke-linecap:square;stroke-width:1.5;"/>
    <g clip-path="url(#pdfe7ddd0d0)">
     <use style="fill:#ff0000;stroke:#ff0000;" x="240" xlink:href="#ma87f25f8b0" y="172.995594"/>
    </g>
   </g>
   <g id="line2d_10">
    <path clip-path="url(#pdfe7ddd0d0)" d="M 120 196.065686 
" style="fill:none;stroke:#ff0000;stroke-linecap:square;stroke-width:1.5;"/>
    <g clip-path="url(#pdfe7ddd0d0)">
     <use style="fill:#ff0000;stroke:#ff0000;" x="120" xlink:href="#ma87f25f8b0" y="196.065686"/>
    </g>
   </g>
   <g id="line2d_11">
    <path clip-path="url(#pdfe7ddd0d0)" d="M 240 196.065686 
" style="fill:none;stroke:#ff0000;stroke-linecap:square;stroke-width:1.5;"/>
    <g clip-path="url(#pdfe7ddd0d0)">
     <use style="fill:#ff0000;stroke:#ff0000;" x="240" xlink:href="#ma87f25f8b0" y="196.065686"/>
    </g>
   </g>
   <g id="line2d_12">
    <path clip-path="url(#pdfe7ddd0d0)" d="M 120 219.135777 
" style="fill:none;stroke:#ff0000;stroke-linecap:square;stroke-width:1.5;"/>
    <g clip-path="url(#pdfe7ddd0d0)">
     <use style="fill:#ff0000;stroke:#ff0000;" x="120" xlink:href="#ma87f25f8b0" y="219.135777"/>
    </g>
   </g>
   <g id="line2d_13">
    <path clip-path="url(#pdfe7ddd0d0)" d="M 240 219.135777 
" style="fill:none;stroke:#ff0000;stroke-linecap:square;stroke-width:1.5;"/>
    <g clip-path="url(#pdfe7ddd0d0)">
     <use style="fill:#ff0000;stroke:#ff0000;" x="240" xlink:href="#ma87f25f8b0" y="219.135777"/>
    </g>
   </g>
   <g id="line2d_14">
    <path clip-path="url(#pdfe7ddd0d0)" d="M 120 242.205869 
" style="fill:none;stroke:#ff0000;stroke-linecap:square;stroke-width:1.5;"/>
    <g clip-path="url(#pdfe7ddd0d0)">
     <use style="fill:#ff0000;stroke:#ff0000;" x="120" xlink:href="#ma87f25f8b0" y="242.205869"/>
    </g>
   </g>
   <g id="line2d_15">
    <path clip-path="url(#pdfe7ddd0d0)" d="M 240 242.205869 
" style="fill:none;stroke:#ff0000;stroke-linecap:square;stroke-width:1.5;"/>
    <g clip-path="url(#pdfe7ddd0d0)">
     <use style="fill:#ff0000;stroke:#ff0000;" x="240" xlink:href="#ma87f25f8b0" y="242.205869"/>
    </g>
   </g>
   <g id="line2d_16">
    <path clip-path="url(#pdfe7ddd0d0)" d="M 120 265.27596 
" style="fill:none;stroke:#ff0000;stroke-linecap:square;stroke-width:1.5;"/>
    <g clip-path="url(#pdfe7ddd0d0)">
     <use style="fill:#ff0000;stroke:#ff0000;" x="120" xlink:href="#ma87f25f8b0" y="265.27596"/>
    </g>
   </g>
   <g id="line2d_17">
    <path clip-path="url(#pdfe7ddd0d0)" d="M 240 265.27596 
" style="fill:none;stroke:#ff0000;stroke-linecap:square;stroke-width:1.5;"/>
    <g clip-path="url(#pdfe7ddd0d0)">
     <use style="fill:#ff0000;stroke:#ff0000;" x="240" xlink:href="#ma87f25f8b0" y="265.27596"/>
    </g>
   </g>
   <g id="patch_3">
    <path d="M 0 288 
L 0 23.04 
" style="fill:none;opacity:0;"/>
   </g>
   <g id="patch_4">
    <path d="M 360 288 
L 360 23.04 
" style="fill:none;opacity:0;"/>
   </g>
   <g id="patch_5">
    <path d="M 0 288 
L 360 288 
" style="fill:none;opacity:0;"/>
   </g>
   <g id="patch_6">
    <path d="M 0 23.04 
L 360 23.04 
" style="fill:none;opacity:0;"/>
   </g>
   <g id="text_1">
    <!--  1.8350 -->
    <defs>
     <path d="M 28.40625 67 
L 26.5 67 
C 21.09375 61.5625 14.796875 60.78125 8.40625 60.78125 
L 8.40625 55 
C 11.296875 55 16 55 20.703125 57.296875 
L 20.703125 5.765625 
L 8.90625 5.765625 
L 8.90625 0 
L 40.203125 0 
L 40.203125 5.765625 
L 28.40625 5.765625 
z
" id="CMSS17-49"/>
     <path d="M 17 7.96875 
L 9 7.96875 
L 9 0 
L 17 0 
z
" id="CMSS17-46"/>
     <path d="M 30.203125 34.71875 
C 37.796875 37.1875 41.703125 43.125 41.703125 48.96875 
C 41.703125 58.15625 33.703125 66.078125 23.5 66.078125 
C 12.90625 66.078125 5.203125 57.9375 5.203125 49.125 
C 5.203125 43.4375 9 37.546875 16.703125 35.015625 
C 6.90625 31.203125 3.90625 23.625 3.90625 17.953125 
C 3.90625 6.96875 12.796875 -2 23.40625 -2 
C 34.40625 -2 43 7.109375 43 17.78125 
C 43 24.328125 39.09375 31.25 30.203125 34.71875 
z
M 23.5 38 
C 16.796875 38 12.296875 42.375 12.296875 49 
C 12.296875 55.71875 16.796875 60 23.5 60 
C 29.703125 60 34.59375 56.109375 34.59375 49 
C 34.59375 41.984375 29.796875 38 23.5 38 
z
M 23.5 4.171875 
C 17.796875 4.171875 11.703125 8.078125 11.703125 18.0625 
C 11.703125 28.328125 18.5 31.921875 23.40625 31.921875 
C 28.796875 31.921875 35.203125 28.125 35.203125 18.0625 
C 35.203125 7.671875 28.59375 4.171875 23.5 4.171875 
z
" id="CMSS17-56"/>
     <path d="M 15.703125 31.640625 
L 22.5 31.640625 
C 31.90625 31.640625 34.59375 23.546875 34.59375 17.90625 
C 34.59375 10.203125 30.203125 4.171875 23 4.171875 
C 17.40625 4.171875 9.5 6.9375 5 14.25 
C 4.296875 10.796875 4.296875 10.59375 3.90625 8.21875 
C 8.59375 1.375 16.203125 -2 23.203125 -2 
C 34.59375 -2 43 7.390625 43 17.78125 
C 43 25.59375 37.5 32.140625 30 34.609375 
C 36 37.875 40.40625 44 40.40625 51.140625 
C 40.40625 59.453125 32.703125 66.078125 23.296875 66.078125 
C 14.703125 66.078125 8 60.8125 5.203125 55.15625 
C 5.90625 54.1875 7.703125 51.3125 8.59375 49.828125 
C 10.796875 55.65625 16.5 60 23.203125 60 
C 28.796875 60 32.5 56.359375 32.5 51.109375 
C 32.5 45.671875 29 39.734375 23.09375 38.359375 
C 22.703125 38.359375 16.5 37.765625 15.703125 37.671875 
z
" id="CMSS17-51"/>
     <path d="M 14.59375 58.625 
L 39.09375 58.625 
L 39.09375 65 
L 7.296875 65 
L 7.296875 27.828125 
L 14 27.828125 
C 15.796875 31.96875 19.5 35 24.296875 35 
C 28.796875 35 33.796875 31.078125 33.796875 19.78125 
C 33.796875 7.703125 26.703125 4.171875 21.5 4.171875 
C 15.09375 4.171875 9.203125 8 6.59375 13.296875 
L 3.40625 7.796875 
C 8 0.765625 15.5 -2 21.5 -2 
C 33.09375 -2 42.203125 7.765625 42.203125 19.578125 
C 42.203125 31.71875 34.09375 41.078125 24.40625 41.078125 
C 20.90625 41.078125 17.5 39.890625 14.59375 37.484375 
z
" id="CMSS17-53"/>
     <path d="M 43.09375 31.9375 
C 43.09375 37.578125 43 48.078125 38.90625 56.1875 
C 34.796875 64 28.203125 66.078125 23.5 66.078125 
C 16.703125 66.078125 10.90625 62.109375 7.90625 55.78125 
C 4.703125 49.15625 3.796875 42.328125 3.796875 31.9375 
C 3.796875 24.828125 4.09375 16.109375 7.703125 8.484375 
C 11.796875 0.078125 18.703125 -2 23.40625 -2 
C 29.59375 -2 35.59375 1.265625 39 8.09375 
C 42.5 15.21875 43.09375 23.03125 43.09375 31.9375 
z
M 23.40625 4.078125 
C 15.796875 4.078125 13.5 12.671875 12.796875 15.546875 
C 11.59375 20.46875 11.40625 25.21875 11.40625 33.03125 
C 11.40625 39.15625 11.40625 46.0625 13.296875 51.515625 
C 15.59375 57.828125 19.59375 60 23.40625 60 
C 30.796875 60 33.203125 52.6875 34 50.125 
C 35.5 44.890625 35.5 38.765625 35.5 33.03125 
C 35.5 23.84375 35.5 4.078125 23.40625 4.078125 
z
" id="CMSS17-48"/>
    </defs>
    <g transform="translate(17.558522 268.015686)scale(0.11 -0.11)">
     <use transform="scale(0.996264)" xlink:href="#CMSS17-49"/>
     <use transform="translate(46.843624 0)scale(0.996264)" xlink:href="#CMSS17-46"/>
     <use transform="translate(72.867828 0)scale(0.996264)" xlink:href="#CMSS17-56"/>
     <use transform="translate(119.711452 0)scale(0.996264)" xlink:href="#CMSS17-51"/>
     <use transform="translate(166.555075 0)scale(0.996264)" xlink:href="#CMSS17-53"/>
     <use transform="translate(213.398699 0)scale(0.996264)" xlink:href="#CMSS17-48"/>
    </g>
   </g>
   <g id="text_2">
    <!-- $\hslash $ -->
    <defs>
     <path d="M 24.671875 51.90625 
L 48.078125 59.203125 
C 49.28125 59.59375 49.984375 59.796875 49.984375 60.703125 
C 49.984375 61.40625 49.484375 61.90625 48.78125 61.90625 
C 48.671875 61.90625 48.484375 61.90625 47.375 61.59375 
L 25.375 54.703125 
L 28.78125 68.203125 
C 28.78125 69.09375 28.171875 69.40625 27.375 69.40625 
C 25.484375 69.40625 17.578125 68.59375 15.171875 68.40625 
C 14.375 68.296875 13.28125 68.203125 13.28125 66.296875 
C 13.28125 65.203125 14.28125 65.203125 15.671875 65.203125 
C 20.484375 65.203125 20.671875 64.5 20.671875 63.5 
C 20.671875 63.203125 19.28125 57.296875 18.078125 52.40625 
C 15.875 51.703125 11.984375 50.59375 10.375 50.09375 
C 9.375 49.703125 8.671875 49.5 8.671875 48.59375 
C 8.671875 47.40625 9.78125 47.40625 9.875 47.40625 
C 10.375 47.40625 16.375 49.3125 17.28125 49.609375 
L 5.875 4 
C 5.484375 2.5 5.484375 2.296875 5.484375 1.703125 
C 5.484375 -0.5 7.171875 -1.09375 8.375 -1.09375 
C 10.28125 -1.09375 11.671875 0.296875 12.078125 1.59375 
C 12.28125 2.09375 13.375 6.59375 13.984375 9.09375 
L 16.28125 18 
C 16.578125 19.5 17.578125 23.296875 17.875 24.796875 
C 18.375 26.40625 19.078125 29.5 19.171875 29.796875 
C 19.984375 31.5 25.375 42 35.375 42 
C 39.78125 42 40.78125 38.40625 40.78125 35.09375 
C 40.78125 28.90625 36.171875 16.703125 34.375 12.09375 
C 33.78125 10.5 33.28125 9.09375 33.28125 7.203125 
C 33.28125 2 36.984375 -1.09375 41.484375 -1.09375 
C 51.078125 -1.09375 54.578125 13.703125 54.578125 14.296875 
C 54.578125 15.296875 53.671875 15.296875 53.375 15.296875 
C 52.375 15.296875 52.375 15 51.875 13.5 
C 48.984375 3.296875 44.484375 1.09375 41.78125 1.09375 
C 39.875 1.09375 39.28125 2.296875 39.28125 4.40625 
C 39.28125 6.90625 40.375 9.703125 40.984375 11.40625 
C 42.671875 15.796875 47.171875 27.796875 47.171875 33.40625 
C 47.171875 40.703125 42.578125 44.203125 35.671875 44.203125 
C 32.578125 44.203125 26.578125 43.5 20.875 36.59375 
z
" id="MSBM10-125"/>
    </defs>
    <g transform="translate(101.002604 268.513818)scale(0.13 -0.13)">
     <use transform="scale(0.996264)" xlink:href="#MSBM10-125"/>
    </g>
   </g>
   <g id="text_3">
    <!-- $c$ -->
    <defs>
     <path d="M 39.09375 37.984375 
C 37.203125 37.984375 36.296875 37.984375 34.90625 36.796875 
C 34.296875 36.296875 33.203125 34.796875 33.203125 33.203125 
C 33.203125 31.203125 34.703125 30 36.59375 30 
C 39 30 41.703125 31.9375 41.703125 35.8125 
C 41.703125 40.4375 37.09375 44 30.203125 44 
C 17.09375 44 4 29.734375 4 15.5625 
C 4 6.890625 9.40625 -1 19.59375 -1 
C 33.203125 -1 41.796875 9.71875 41.796875 11.03125 
C 41.796875 11.625 41.203125 12.125 40.796875 12.125 
C 40.5 12.125 40.40625 12.03125 39.5 11.140625 
C 33.09375 2.53125 23.59375 1 19.796875 1 
C 12.90625 1 10.703125 6.96875 10.703125 11.9375 
C 10.703125 15.4375 12.40625 25.078125 16 31.859375 
C 18.59375 36.53125 24 41.90625 30.296875 41.90625 
C 31.59375 41.90625 37.09375 41.90625 39.09375 37.984375 
z
" id="CMMI12-99"/>
    </defs>
    <g transform="translate(252 268.513818)scale(0.13 -0.13)">
     <use transform="scale(0.996264)" xlink:href="#CMMI12-99"/>
    </g>
   </g>
   <g id="text_4">
    <!--  3.3889 -->
    <defs>
     <path d="M 6.796875 2.71875 
C 9.59375 0.328125 13.203125 -2 19.296875 -2 
C 31.40625 -2 43 11.265625 43 32.734375 
C 43 61.4375 30.5 66.078125 23.796875 66.078125 
C 17.09375 66.078125 12.796875 63.140625 9.09375 58.453125 
C 4.703125 53.078125 3.90625 48.28125 3.90625 42.703125 
C 3.90625 36.046875 5.09375 31.953125 7.90625 27.265625 
C 11.703125 21.203125 15.203125 19.921875 19.09375 19.921875 
C 25 19.921875 30.90625 22.796875 34.90625 27.75 
C 34.203125 14.09375 28.09375 4.171875 19.296875 4.171875 
C 15.703125 4.171875 12.796875 5.296875 9.90625 8.0625 
z
M 34.59375 42.90625 
C 34.703125 42.234375 34.703125 40.96875 34.703125 40.5625 
C 34.703125 32.40625 29.90625 26 22.90625 26 
C 18.296875 26 15.90625 28.328125 14.09375 31.34375 
C 11.90625 35.140625 11.796875 38.828125 11.796875 42.703125 
C 11.796875 46.5 11.796875 50.6875 14.59375 54.859375 
C 16.703125 57.859375 19.296875 60 23.796875 60 
C 33 60 34.5 46.875 34.59375 42.90625 
z
" id="CMSS17-57"/>
    </defs>
    <g transform="translate(312 268.015686)scale(0.11 -0.11)">
     <use transform="scale(0.996264)" xlink:href="#CMSS17-51"/>
     <use transform="translate(46.843624 0)scale(0.996264)" xlink:href="#CMSS17-46"/>
     <use transform="translate(72.867828 0)scale(0.996264)" xlink:href="#CMSS17-51"/>
     <use transform="translate(119.711452 0)scale(0.996264)" xlink:href="#CMSS17-56"/>
     <use transform="translate(166.555075 0)scale(0.996264)" xlink:href="#CMSS17-56"/>
     <use transform="translate(213.398699 0)scale(0.996264)" xlink:href="#CMSS17-57"/>
    </g>
   </g>
   <g id="text_5">
    <!--  2.1711 -->
    <defs>
     <path d="M 25.796875 21.203125 
C 28.59375 24.078125 32.796875 27.5625 35.703125 31.046875 
C 38.5 34.4375 42.203125 39.234375 42.203125 46.203125 
C 42.203125 57.140625 34.796875 67 22.203125 67 
C 12.296875 67 6.59375 60.828125 3.90625 51.15625 
L 7.796875 45.765625 
C 10 54.84375 13.09375 60.625 20.90625 60.625 
C 29.5 60.625 34.296875 53.640625 34.296875 45.96875 
C 34.296875 36.796875 27.296875 29.703125 22 24.421875 
C 16.09375 18.546875 10.296875 12.5625 4.703125 6.375 
L 4.703125 0 
L 42.203125 0 
L 42.203125 6.765625 
L 25.203125 6.765625 
C 24 6.765625 22.796875 6.765625 21.59375 6.765625 
L 11.59375 6.765625 
L 11.59375 6.859375 
z
" id="CMSS17-50"/>
     <path d="M 21.703125 59 
C 22.90625 59 24.09375 59 25.296875 59 
L 36.796875 59 
C 22.5 42.359375 14.296875 21.328125 14.296875 -0.5 
L 22.296875 -0.5 
C 22.296875 20.671875 29.296875 42.125 43 59.296875 
L 43 65.765625 
L 3.90625 65.765625 
L 3.90625 59 
z
" id="CMSS17-55"/>
    </defs>
    <g transform="translate(17.558522 244.945595)scale(0.11 -0.11)">
     <use transform="scale(0.996264)" xlink:href="#CMSS17-50"/>
     <use transform="translate(46.843624 0)scale(0.996264)" xlink:href="#CMSS17-46"/>
     <use transform="translate(72.867828 0)scale(0.996264)" xlink:href="#CMSS17-49"/>
     <use transform="translate(119.711452 0)scale(0.996264)" xlink:href="#CMSS17-55"/>
     <use transform="translate(166.555075 0)scale(0.996264)" xlink:href="#CMSS17-49"/>
     <use transform="translate(213.398699 0)scale(0.996264)" xlink:href="#CMSS17-49"/>
    </g>
   </g>
   <g id="text_6">
    <!-- ${e}^{2}$ -->
    <defs>
     <path d="M 17.90625 23.109375 
C 20.59375 23.109375 27.40625 23.109375 32.203125 24.921875 
C 39.796875 27.859375 40.5 33.71875 40.5 35.53125 
C 40.5 39.96875 36.703125 44 30.09375 44 
C 19.59375 44 4.5 34.53125 4.5 16.765625 
C 4.5 6.28125 10.5 -1 19.59375 -1 
C 33.203125 -1 41.796875 9.515625 41.796875 10.8125 
C 41.796875 11.40625 41.203125 11.90625 40.796875 11.90625 
C 40.5 11.90625 40.40625 11.8125 39.5 10.921875 
C 33.09375 2.484375 23.59375 1 19.796875 1 
C 14.09375 1 11.09375 5.46875 11.09375 12.84375 
C 11.09375 14.234375 11.09375 16.734375 12.59375 23.109375 
z
M 13.09375 25 
C 17.40625 40.5 26.90625 42.015625 30.09375 42.015625 
C 34.5 42.015625 37.5 39.40625 37.5 35.578125 
C 37.5 25 21.5 25 17.296875 25 
z
" id="CMMI12-101"/>
     <path d="M 41.703125 15.453125 
L 39.90625 15.453125 
C 38.90625 8.375 38.09375 7.171875 37.703125 6.5625 
C 37.203125 5.765625 30 5.765625 28.59375 5.765625 
L 9.40625 5.765625 
C 13 9.671875 20 16.75 28.5 24.953125 
C 34.59375 30.734375 41.703125 37.53125 41.703125 47.421875 
C 41.703125 59.21875 32.296875 66 21.796875 66 
C 10.796875 66 4.09375 56.3125 4.09375 47.34375 
C 4.09375 43.4375 7 42.9375 8.203125 42.9375 
C 9.203125 42.9375 12.203125 43.546875 12.203125 47.03125 
C 12.203125 50.109375 9.59375 51 8.203125 51 
C 7.59375 51 7 50.90625 6.59375 50.703125 
C 8.5 59.21875 14.296875 63.40625 20.40625 63.40625 
C 29.09375 63.40625 34.796875 56.515625 34.796875 47.421875 
C 34.796875 38.734375 29.703125 31.25 24 24.75 
L 4.09375 2.28125 
L 4.09375 0 
L 39.296875 0 
z
" id="CMR17-50"/>
    </defs>
    <g transform="translate(97.463584 245.443727)scale(0.13 -0.13)">
     <use transform="scale(0.996264)" xlink:href="#CMMI12-101"/>
     <use transform="translate(45.212001 36.153639)scale(0.697382)" xlink:href="#CMR17-50"/>
    </g>
   </g>
   <g id="text_7">
    <!-- $g$ -->
    <defs>
     <path d="M 33.796875 12.671875 
C 33.40625 11.078125 33.203125 10.671875 31.90625 9.1875 
C 27.796875 3.890625 23.59375 2 20.5 2 
C 17.203125 2 14.09375 4.59375 14.09375 11.46875 
C 14.09375 16.765625 17.09375 27.9375 19.296875 32.4375 
C 22.203125 38.015625 26.703125 42.015625 30.90625 42.015625 
C 37.5 42.015625 38.796875 33.828125 38.796875 33.234375 
L 38.5 31.828125 
z
M 40 37.421875 
C 38.703125 40.3125 35.90625 44 30.90625 44 
C 20 44 7.59375 30.328125 7.59375 15.46875 
C 7.59375 5.09375 13.90625 0 20.296875 0 
C 25.59375 0 30.296875 4.1875 32.09375 6.1875 
L 29.90625 -2.671875 
C 28.5 -8.0625 27.90625 -10.53125 24.296875 -13.96875 
C 20.203125 -18 16.40625 -18 14.203125 -18 
C 11.203125 -18 8.703125 -17.796875 6.203125 -17.015625 
C 9.40625 -16.140625 10.203125 -13.40625 10.203125 -12.328125 
C 10.203125 -10.765625 9 -9.1875 6.796875 -9.1875 
C 4.40625 -9.1875 1.796875 -11.15625 1.796875 -14.40625 
C 1.796875 -18.4375 5.90625 -20 14.40625 -20 
C 27.296875 -20 34 -11.765625 35.296875 -6.40625 
L 46.40625 38.046875 
C 46.703125 39.234375 46.703125 39.4375 46.703125 39.625 
C 46.703125 41.015625 45.59375 42.109375 44.09375 42.109375 
C 41.703125 42.109375 40.296875 40.109375 40 37.421875 
z
" id="CMMI12-103"/>
    </defs>
    <g transform="translate(252 245.443727)scale(0.13 -0.13)">
     <use transform="scale(0.996264)" xlink:href="#CMMI12-103"/>
    </g>
   </g>
   <g id="text_8">
    <!--  3.3898 -->
    <g transform="translate(312 244.945595)scale(0.11 -0.11)">
     <use transform="scale(0.996264)" xlink:href="#CMSS17-51"/>
     <use transform="translate(46.843624 0)scale(0.996264)" xlink:href="#CMSS17-46"/>
     <use transform="translate(72.867828 0)scale(0.996264)" xlink:href="#CMSS17-51"/>
     <use transform="translate(119.711452 0)scale(0.996264)" xlink:href="#CMSS17-56"/>
     <use transform="translate(166.555075 0)scale(0.996264)" xlink:href="#CMSS17-57"/>
     <use transform="translate(213.398699 0)scale(0.996264)" xlink:href="#CMSS17-56"/>
    </g>
   </g>
   <g id="text_9">
    <!--  2.1742 -->
    <defs>
     <path d="M 35.203125 17 
L 44.296875 17 
L 44.296875 23.078125 
L 35.203125 23.078125 
L 35.203125 65.5 
L 26.40625 65.5 
L 2.59375 23.078125 
L 2.59375 17 
L 27.296875 17 
L 27.296875 0 
L 35.203125 0 
z
M 10.296875 23.078125 
C 16.09375 33.234375 27.59375 53.734375 27.59375 60.703125 
L 27.59375 23.078125 
z
" id="CMSS17-52"/>
    </defs>
    <g transform="translate(17.558522 221.875503)scale(0.11 -0.11)">
     <use transform="scale(0.996264)" xlink:href="#CMSS17-50"/>
     <use transform="translate(46.843624 0)scale(0.996264)" xlink:href="#CMSS17-46"/>
     <use transform="translate(72.867828 0)scale(0.996264)" xlink:href="#CMSS17-49"/>
     <use transform="translate(119.711452 0)scale(0.996264)" xlink:href="#CMSS17-55"/>
     <use transform="translate(166.555075 0)scale(0.996264)" xlink:href="#CMSS17-52"/>
     <use transform="translate(213.398699 0)scale(0.996264)" xlink:href="#CMSS17-50"/>
    </g>
   </g>
   <g id="text_10">
    <!-- ${E}_{0}$ -->
    <defs>
     <path d="M 69.5 23.265625 
C 69.59375 23.5625 69.90625 24.28125 69.90625 24.671875 
C 69.90625 25.171875 69.5 25.671875 68.90625 25.671875 
C 68.5 25.671875 68.296875 25.578125 68 25.265625 
C 67.796875 25.171875 67.796875 24.96875 66.90625 22.953125 
C 61 8.90625 56.703125 2.890625 40.703125 2.890625 
L 26.09375 2.890625 
C 24.703125 2.890625 24.5 2.890625 23.90625 3 
C 22.796875 3.09375 22.703125 3.296875 22.703125 4.09375 
C 22.703125 4.796875 22.90625 5.390625 23.09375 6.296875 
L 30 34 
L 39.90625 34 
C 47.703125 34 48.296875 32.28125 48.296875 29.28125 
C 48.296875 28.28125 48.296875 27.375 47.59375 24.375 
C 47.40625 23.96875 47.296875 23.5625 47.296875 23.265625 
C 47.296875 22.5625 47.796875 22.265625 48.40625 22.265625 
C 49.296875 22.265625 49.40625 22.953125 49.796875 24.359375 
L 55.5 47.53125 
C 55.5 48.015625 55.09375 48.515625 54.5 48.515625 
C 53.59375 48.515625 53.5 48.125 53.09375 46.71875 
C 51.09375 39.078125 49.09375 36.890625 40.203125 36.890625 
L 30.703125 36.890625 
L 36.90625 61.40625 
C 37.796875 64.90625 38 64.90625 42.09375 64.90625 
L 56.40625 64.90625 
C 68.703125 64.90625 71.203125 61.609375 71.203125 54.03125 
C 71.203125 53.921875 71.203125 51.140625 70.796875 47.84375 
C 70.703125 47.4375 70.59375 46.84375 70.59375 46.640625 
C 70.59375 45.84375 71.09375 45.546875 71.703125 45.546875 
C 72.40625 45.546875 72.796875 45.953125 73 47.734375 
L 75.09375 65.21875 
C 75.09375 65.546875 75.296875 66.609375 75.296875 66.828125 
C 75.296875 68 74.40625 68 72.59375 68 
L 23.796875 68 
C 21.90625 68 20.90625 68 20.90625 66.078125 
C 20.90625 64.90625 21.59375 64.90625 23.296875 64.90625 
C 29.5 64.90625 29.5 64.28125 29.5 63.3125 
C 29.5 62.8125 29.40625 62.40625 29.09375 61.3125 
L 15.59375 7.390625 
C 14.703125 3.890625 14.5 2.890625 7.5 2.890625 
C 5.59375 2.890625 4.59375 2.890625 4.59375 1.09375 
C 4.59375 0 5.203125 0 7.203125 0 
L 57.40625 0 
C 59.59375 0 59.703125 0.09375 60.40625 1.71875 
z
" id="CMMI12-69"/>
     <path d="M 42 31.640625 
C 42 37.75 41.90625 48.125 37.703125 56.109375 
C 34 63.109375 28.09375 65.59375 22.90625 65.59375 
C 18.09375 65.59375 12 63.40625 8.203125 56.203125 
C 4.203125 48.71875 3.796875 39.4375 3.796875 31.640625 
C 3.796875 25.953125 3.90625 17.28125 7 9.671875 
C 11.296875 -0.609375 19 -2 22.90625 -2 
C 27.5 -2 34.5 -0.109375 38.59375 9.375 
C 41.59375 16.28125 42 24.359375 42 31.640625 
z
M 22.90625 -0.40625 
C 16.5 -0.40625 12.703125 5.078125 11.296875 12.6875 
C 10.203125 18.5625 10.203125 27.15625 10.203125 32.75 
C 10.203125 40.4375 10.203125 46.828125 11.5 52.921875 
C 13.40625 61.390625 19 64 22.90625 64 
C 27 64 32.296875 61.296875 34.203125 53.125 
C 35.5 47.4375 35.59375 40.734375 35.59375 32.75 
C 35.59375 26.25 35.59375 18.265625 34.40625 12.375 
C 32.296875 1.484375 26.40625 -0.40625 22.90625 -0.40625 
z
" id="CMR17-48"/>
    </defs>
    <g transform="translate(93.95369 222.373635)scale(0.13 -0.13)">
     <use transform="translate(0 14.943915)scale(0.996264)" xlink:href="#CMMI12-69"/>
     <use transform="translate(72.211218 0)scale(0.697382)" xlink:href="#CMR17-48"/>
    </g>
   </g>
   <g id="text_11">
    <!-- $E$ -->
    <g transform="translate(252 222.373635)scale(0.13 -0.13)">
     <use transform="scale(0.996264)" xlink:href="#CMMI12-69"/>
    </g>
   </g>
   <g id="text_12">
    <!--  3.4739 -->
    <g transform="translate(312 221.875503)scale(0.11 -0.11)">
     <use transform="scale(0.996264)" xlink:href="#CMSS17-51"/>
     <use transform="translate(46.843624 0)scale(0.996264)" xlink:href="#CMSS17-46"/>
     <use transform="translate(72.867828 0)scale(0.996264)" xlink:href="#CMSS17-52"/>
     <use transform="translate(119.711452 0)scale(0.996264)" xlink:href="#CMSS17-55"/>
     <use transform="translate(166.555075 0)scale(0.996264)" xlink:href="#CMSS17-51"/>
     <use transform="translate(213.398699 0)scale(0.996264)" xlink:href="#CMSS17-57"/>
    </g>
   </g>
   <g id="text_13">
    <!--  2.3098 -->
    <g transform="translate(17.558522 198.805412)scale(0.11 -0.11)">
     <use transform="scale(0.996264)" xlink:href="#CMSS17-50"/>
     <use transform="translate(46.843624 0)scale(0.996264)" xlink:href="#CMSS17-46"/>
     <use transform="translate(72.867828 0)scale(0.996264)" xlink:href="#CMSS17-51"/>
     <use transform="translate(119.711452 0)scale(0.996264)" xlink:href="#CMSS17-48"/>
     <use transform="translate(166.555075 0)scale(0.996264)" xlink:href="#CMSS17-57"/>
     <use transform="translate(213.398699 0)scale(0.996264)" xlink:href="#CMSS17-56"/>
    </g>
   </g>
   <g id="text_14">
    <!-- ${v}^{2}$ -->
    <defs>
     <path d="M 45.703125 37.328125 
C 45.703125 43.609375 42.5 44 41.703125 44 
C 39.296875 44 37.09375 41.609375 37.09375 39.609375 
C 37.09375 38.421875 37.796875 37.71875 38.203125 37.328125 
C 39.203125 36.421875 41.796875 33.734375 41.796875 28.546875 
C 41.796875 24.34375 35.796875 1 23.796875 1 
C 17.703125 1 16.5 6.09375 16.5 9.78125 
C 16.5 14.765625 18.796875 21.75 21.5 28.9375 
C 23.09375 33.03125 23.5 34.03125 23.5 36.015625 
C 23.5 40.21875 20.5 44 15.59375 44 
C 6.40625 44 2.703125 29.53125 2.703125 28.734375 
C 2.703125 28.34375 3.09375 27.84375 3.796875 27.84375 
C 4.703125 27.84375 4.796875 28.234375 5.203125 29.640625 
C 7.59375 38.21875 11.5 42.015625 15.296875 42.015625 
C 16.203125 42.015625 17.90625 42.015625 17.90625 38.71875 
C 17.90625 36.125 16.796875 33.234375 15.296875 29.4375 
C 10.5 16.671875 10.5 13.578125 10.5 11.171875 
C 10.5 8.984375 10.796875 4.890625 13.90625 2.09375 
C 17.5 -1 22.5 -1 23.40625 -1 
C 40 -1 45.703125 31.625 45.703125 37.328125 
z
" id="CMMI12-118"/>
    </defs>
    <g transform="translate(96.745588 199.303544)scale(0.13 -0.13)">
     <use transform="scale(0.996264)" xlink:href="#CMMI12-118"/>
     <use transform="translate(50.735173 36.153639)scale(0.697382)" xlink:href="#CMR17-50"/>
    </g>
   </g>
   <g id="text_15">
    <!-- $e$ -->
    <g transform="translate(252 199.303544)scale(0.13 -0.13)">
     <use transform="scale(0.996264)" xlink:href="#CMMI12-101"/>
    </g>
   </g>
   <g id="text_16">
    <!--  3.6864 -->
    <defs>
     <path d="M 39 64.078125 
C 34.796875 65.78125 31.796875 66.078125 29 66.078125 
C 16 66.078125 3.90625 52.625 3.90625 31.34375 
C 3.90625 4.140625 15.40625 -2 23.59375 -2 
C 28.09375 -2 32.59375 -0.609375 36.90625 4.375 
C 41.296875 9.640625 43 14.03125 43 21.703125 
C 43 34.046875 36.90625 45 27.796875 45 
C 21.203125 45 15.5 41.515625 12 37.125 
C 13 50.90625 19.59375 60 29.09375 60 
C 31.703125 60 35.09375 59.625 39 57.96875 
z
M 12.09375 21.390625 
C 12.09375 22.1875 12.09375 22.6875 12.203125 24.1875 
C 12.203125 31.953125 16.703125 38.921875 24 38.921875 
C 28.703125 38.921875 31.09375 36.4375 32.90625 33.359375 
C 35 29.46875 35.09375 25.78125 35.09375 21.6875 
C 35.09375 17.8125 35.09375 13.921875 32.796875 9.953125 
C 30.90625 6.859375 28.40625 4.171875 23.59375 4.171875 
C 14.09375 4.171875 12.5 17.40625 12.09375 21.390625 
z
" id="CMSS17-54"/>
    </defs>
    <g transform="translate(312 198.805412)scale(0.11 -0.11)">
     <use transform="scale(0.996264)" xlink:href="#CMSS17-51"/>
     <use transform="translate(46.843624 0)scale(0.996264)" xlink:href="#CMSS17-46"/>
     <use transform="translate(72.867828 0)scale(0.996264)" xlink:href="#CMSS17-54"/>
     <use transform="translate(119.711452 0)scale(0.996264)" xlink:href="#CMSS17-56"/>
     <use transform="translate(166.555075 0)scale(0.996264)" xlink:href="#CMSS17-54"/>
     <use transform="translate(213.398699 0)scale(0.996264)" xlink:href="#CMSS17-52"/>
    </g>
   </g>
   <g id="text_17">
    <!--  2.8819 -->
    <g transform="translate(17.558522 175.73532)scale(0.11 -0.11)">
     <use transform="scale(0.996264)" xlink:href="#CMSS17-50"/>
     <use transform="translate(46.843624 0)scale(0.996264)" xlink:href="#CMSS17-46"/>
     <use transform="translate(72.867828 0)scale(0.996264)" xlink:href="#CMSS17-56"/>
     <use transform="translate(119.711452 0)scale(0.996264)" xlink:href="#CMSS17-56"/>
     <use transform="translate(166.555075 0)scale(0.996264)" xlink:href="#CMSS17-49"/>
     <use transform="translate(213.398699 0)scale(0.996264)" xlink:href="#CMSS17-57"/>
    </g>
   </g>
   <g id="text_18">
    <!-- ${m}_{0}$ -->
    <defs>
     <path d="M 20.59375 29.234375 
C 20.796875 29.84375 23.296875 34.828125 27 38.015625 
C 29.59375 40.40625 33 42.015625 36.90625 42.015625 
C 40.90625 42.015625 42.296875 39.015625 42.296875 35.03125 
C 42.296875 34.421875 42.296875 32.4375 41.09375 27.734375 
L 38.59375 17.46875 
C 37.796875 14.46875 35.90625 7.078125 35.703125 5.984375 
C 35.296875 4.484375 34.703125 1.890625 34.703125 1.5 
C 34.703125 0.09375 35.796875 -1 37.296875 -1 
C 40.296875 -1 40.796875 1.296875 41.703125 4.890625 
L 47.703125 28.734375 
C 47.90625 29.53125 53.09375 42.015625 64.09375 42.015625 
C 68.09375 42.015625 69.5 39.015625 69.5 35.03125 
C 69.5 29.4375 65.59375 18.5625 63.40625 12.578125 
C 62.5 10.171875 62 8.875 62 7.078125 
C 62 2.59375 65.09375 -1 69.90625 -1 
C 79.203125 -1 82.703125 13.671875 82.703125 14.265625 
C 82.703125 14.765625 82.296875 15.171875 81.703125 15.171875 
C 80.796875 15.171875 80.703125 14.875 80.203125 13.171875 
C 77.90625 5.1875 74.203125 1 70.203125 1 
C 69.203125 1 67.59375 1 67.59375 4.203125 
C 67.59375 6.8125 68.796875 10 69.203125 11.09375 
C 71 15.90625 75.5 27.703125 75.5 33.515625 
C 75.5 39.5 72 44 64.40625 44 
C 57.703125 44 52.296875 40.21875 48.296875 34.328125 
C 48 39.71875 44.703125 44 37.203125 44 
C 28.296875 44 23.59375 37.734375 21.796875 35.234375 
C 21.5 40.90625 17.40625 44 13 44 
C 10.09375 44 7.796875 42.609375 5.90625 38.8125 
C 4.09375 35.21875 2.703125 29.140625 2.703125 28.734375 
C 2.703125 28.34375 3.09375 27.84375 3.796875 27.84375 
C 4.59375 27.84375 4.703125 27.9375 5.296875 30.234375 
C 6.796875 36.125 8.703125 42.015625 12.703125 42.015625 
C 15 42.015625 15.796875 40.40625 15.796875 37.421875 
C 15.796875 35.21875 14.796875 31.328125 14.09375 28.234375 
L 11.296875 17.46875 
C 10.90625 15.5625 9.796875 11.078125 9.296875 9.28125 
C 8.59375 6.6875 7.5 2 7.5 1.5 
C 7.5 0.09375 8.59375 -1 10.09375 -1 
C 11.296875 -1 12.703125 -0.40625 13.5 1.09375 
C 13.703125 1.59375 14.59375 5.09375 15.09375 7.078125 
L 17.296875 16.0625 
z
" id="CMMI12-109"/>
    </defs>
    <g transform="translate(92.248612 176.233452)scale(0.13 -0.13)">
     <use transform="translate(0 14.943915)scale(0.996264)" xlink:href="#CMMI12-109"/>
     <use transform="translate(85.327224 0)scale(0.697382)" xlink:href="#CMR17-48"/>
    </g>
   </g>
   <g id="text_19">
    <!-- $V$ -->
    <defs>
     <path d="M 61.90625 56.875 
C 65.296875 62.25 68.40625 64.625 73.5 65.03125 
C 74.5 65.125 75.296875 65.125 75.296875 66.90625 
C 75.296875 67.3125 75.09375 67.90625 74.203125 67.90625 
C 72.40625 67.90625 68.09375 67.90625 66.296875 67.90625 
C 63.40625 67.90625 60.40625 67.90625 57.59375 67.90625 
C 56.796875 67.90625 55.796875 67.90625 55.796875 66.03125 
C 55.796875 65.125 56.703125 65.03125 57.09375 65.03125 
C 60.796875 64.734375 61.203125 62.953125 61.203125 61.75 
C 61.203125 60.265625 59.796875 57.96875 59.703125 57.875 
L 28.296875 8.4375 
L 21.296875 62.015625 
C 21.296875 65 26.5 65 27.59375 65 
C 29.09375 65 30 65 30 66.90625 
C 30 67.90625 28.90625 67.90625 28.59375 67.90625 
C 26.90625 67.90625 24.90625 67.90625 23.203125 67.90625 
L 17.59375 67.90625 
C 10.296875 67.90625 7.296875 67.90625 7.203125 67.90625 
C 6.59375 67.90625 5.40625 67.90625 5.40625 66.09375 
C 5.40625 65 6.09375 65 7.703125 65 
C 12.796875 65 13.09375 64.09375 13.40625 61.625 
L 21.40625 0.375 
C 21.703125 -1.703125 21.703125 -2 23.09375 -2 
C 24.296875 -2 24.796875 -1.703125 25.796875 -0.125 
z
" id="CMMI12-86"/>
    </defs>
    <g transform="translate(252 176.233452)scale(0.13 -0.13)">
     <use transform="scale(0.996264)" xlink:href="#CMMI12-86"/>
    </g>
   </g>
   <g id="text_20">
    <!--  3.7099 -->
    <g transform="translate(312 175.73532)scale(0.11 -0.11)">
     <use transform="scale(0.996264)" xlink:href="#CMSS17-51"/>
     <use transform="translate(46.843624 0)scale(0.996264)" xlink:href="#CMSS17-46"/>
     <use transform="translate(72.867828 0)scale(0.996264)" xlink:href="#CMSS17-55"/>
     <use transform="translate(119.711452 0)scale(0.996264)" xlink:href="#CMSS17-48"/>
     <use transform="translate(166.555075 0)scale(0.996264)" xlink:href="#CMSS17-57"/>
     <use transform="translate(213.398699 0)scale(0.996264)" xlink:href="#CMSS17-57"/>
    </g>
   </g>
   <g id="text_21">
    <!--  2.9382 -->
    <g transform="translate(17.558522 152.665229)scale(0.11 -0.11)">
     <use transform="scale(0.996264)" xlink:href="#CMSS17-50"/>
     <use transform="translate(46.843624 0)scale(0.996264)" xlink:href="#CMSS17-46"/>
     <use transform="translate(72.867828 0)scale(0.996264)" xlink:href="#CMSS17-57"/>
     <use transform="translate(119.711452 0)scale(0.996264)" xlink:href="#CMSS17-51"/>
     <use transform="translate(166.555075 0)scale(0.996264)" xlink:href="#CMSS17-56"/>
     <use transform="translate(213.398699 0)scale(0.996264)" xlink:href="#CMSS17-50"/>
    </g>
   </g>
   <g id="text_22">
    <!-- ${c}^{2}$ -->
    <g transform="translate(97.88332 153.163361)scale(0.13 -0.13)">
     <use transform="scale(0.996264)" xlink:href="#CMMI12-99"/>
     <use transform="translate(41.983234 36.153639)scale(0.697382)" xlink:href="#CMR17-50"/>
    </g>
   </g>
   <g id="text_23">
    <!-- $\mu $ -->
    <defs>
     <path d="M 14.40625 2.1875 
C 16.90625 -0.09375 20.59375 -1 24 -1 
C 30.40625 -1 34.796875 3.25 37.09375 6.328125 
C 38.09375 1.078125 42.296875 -1 45.796875 -1 
C 48.796875 -1 51.203125 0.78125 53 4.328125 
C 54.59375 7.703125 56 13.734375 56 14.109375 
C 56 14.609375 55.59375 15 55 15 
C 54.09375 15 54 14.5 53.59375 13.03125 
C 52.09375 7.203125 50.203125 1 46.09375 1 
C 43.203125 1 43 3.578125 43 5.59375 
C 43 7.875 43.90625 11.484375 44.59375 14.46875 
L 47.40625 25.234375 
C 47.796875 27.140625 48.90625 31.609375 49.40625 33.421875 
C 50 35.8125 51.09375 40.109375 51.09375 40.5 
C 51.09375 42 49.90625 43 48.40625 43 
C 47.5 43 45.40625 42.59375 44.59375 39.609375 
L 37.59375 11.875 
C 37.09375 9.875 37.09375 9.671875 35.796875 8.078125 
C 34.59375 6.390625 30.703125 1 24.40625 1 
C 18.796875 1 17 5.09375 17 9.765625 
C 17 12.671875 17.90625 16.15625 18.296875 17.859375 
L 22.796875 35.828125 
C 23.296875 37.71875 24.09375 40.90625 24.09375 41.515625 
C 24.09375 43.109375 22.796875 44 21.5 44 
C 20.59375 44 18.40625 43.703125 17.59375 40.5 
L 3.09375 -17.296875 
C 3 -17.796875 2.796875 -18.390625 2.796875 -19 
C 2.796875 -20.5 4 -21.5 5.5 -21.5 
C 8.40625 -21.5 9 -19.1875 9.703125 -16.40625 
z
" id="CMMI12-22"/>
    </defs>
    <g transform="translate(252 153.163361)scale(0.13 -0.13)">
     <use transform="scale(0.996264)" xlink:href="#CMMI12-22"/>
    </g>
   </g>
   <g id="text_24">
    <!--  3.8544 -->
    <g transform="translate(312 152.665229)scale(0.11 -0.11)">
     <use transform="scale(0.996264)" xlink:href="#CMSS17-51"/>
     <use transform="translate(46.843624 0)scale(0.996264)" xlink:href="#CMSS17-46"/>
     <use transform="translate(72.867828 0)scale(0.996264)" xlink:href="#CMSS17-56"/>
     <use transform="translate(119.711452 0)scale(0.996264)" xlink:href="#CMSS17-53"/>
     <use transform="translate(166.555075 0)scale(0.996264)" xlink:href="#CMSS17-52"/>
     <use transform="translate(213.398699 0)scale(0.996264)" xlink:href="#CMSS17-52"/>
    </g>
   </g>
   <g id="text_25">
    <!--  3.3684 -->
    <g transform="translate(17.558522 129.595137)scale(0.11 -0.11)">
     <use transform="scale(0.996264)" xlink:href="#CMSS17-51"/>
     <use transform="translate(46.843624 0)scale(0.996264)" xlink:href="#CMSS17-46"/>
     <use transform="translate(72.867828 0)scale(0.996264)" xlink:href="#CMSS17-51"/>
     <use transform="translate(119.711452 0)scale(0.996264)" xlink:href="#CMSS17-54"/>
     <use transform="translate(166.555075 0)scale(0.996264)" xlink:href="#CMSS17-56"/>
     <use transform="translate(213.398699 0)scale(0.996264)" xlink:href="#CMSS17-52"/>
    </g>
   </g>
   <g id="text_26">
    <!-- ${c}^{4}$ -->
    <defs>
     <path d="M 33.59375 64.40625 
C 33.59375 66.5 33.5 66.5 31.703125 66.5 
L 2 19.59375 
L 2 17 
L 27.796875 17 
L 27.796875 7.140625 
C 27.796875 3.5 27.59375 2.5 20.59375 2.5 
L 18.703125 2.5 
L 18.703125 0 
C 21.90625 0 27.296875 0 30.703125 0 
C 34.09375 0 39.5 0 42.703125 0 
L 42.703125 2.5 
L 40.796875 2.5 
C 33.796875 2.5 33.59375 3.5 33.59375 7.140625 
L 33.59375 17 
L 43.796875 17 
L 43.796875 19.59375 
L 33.59375 19.59375 
z
M 28.09375 57.859375 
L 28.09375 19.59375 
L 4 19.59375 
z
" id="CMR17-52"/>
    </defs>
    <g transform="translate(97.88332 130.093269)scale(0.13 -0.13)">
     <use transform="scale(0.996264)" xlink:href="#CMMI12-99"/>
     <use transform="translate(41.983234 36.153639)scale(0.697382)" xlink:href="#CMR17-52"/>
    </g>
   </g>
   <g id="text_27">
    <!-- $\sigma $ -->
    <defs>
     <path d="M 50.796875 37.625 
C 52.09375 37.625 55.40625 37.625 55.40625 40.8125 
C 55.40625 43 53.5 43 51.703125 43 
L 29.59375 43 
C 14.59375 43 3.796875 26.34375 3.796875 14.5625 
C 3.796875 6.09375 9.296875 -1 18.296875 -1 
C 30.09375 -1 43 11.671875 43 26.640625 
C 43 30.53125 42.09375 34.3125 39.703125 37.625 
z
M 18.40625 1 
C 13.296875 1 9.59375 4.890625 9.59375 11.78125 
C 9.59375 17.765625 13.203125 37.625 27.90625 37.625 
C 32.203125 37.625 37 35.53125 37 27.828125 
C 37 24.34375 35.40625 15.953125 31.90625 10.1875 
C 28.296875 4.296875 22.90625 1 18.40625 1 
z
" id="CMMI12-27"/>
    </defs>
    <g transform="translate(252 130.093269)scale(0.13 -0.13)">
     <use transform="scale(0.996264)" xlink:href="#CMMI12-27"/>
    </g>
   </g>
   <g id="text_28">
    <!--  3.9427 -->
    <g transform="translate(312 129.595137)scale(0.11 -0.11)">
     <use transform="scale(0.996264)" xlink:href="#CMSS17-51"/>
     <use transform="translate(46.843624 0)scale(0.996264)" xlink:href="#CMSS17-46"/>
     <use transform="translate(72.867828 0)scale(0.996264)" xlink:href="#CMSS17-57"/>
     <use transform="translate(119.711452 0)scale(0.996264)" xlink:href="#CMSS17-52"/>
     <use transform="translate(166.555075 0)scale(0.996264)" xlink:href="#CMSS17-50"/>
     <use transform="translate(213.398699 0)scale(0.996264)" xlink:href="#CMSS17-55"/>
    </g>
   </g>
   <g id="text_29">
    <!--  4.4396 -->
    <g transform="translate(17.558522 106.525046)scale(0.11 -0.11)">
     <use transform="scale(0.996264)" xlink:href="#CMSS17-52"/>
     <use transform="translate(46.843624 0)scale(0.996264)" xlink:href="#CMSS17-46"/>
     <use transform="translate(72.867828 0)scale(0.996264)" xlink:href="#CMSS17-52"/>
     <use transform="translate(119.711452 0)scale(0.996264)" xlink:href="#CMSS17-51"/>
     <use transform="translate(166.555075 0)scale(0.996264)" xlink:href="#CMSS17-57"/>
     <use transform="translate(213.398699 0)scale(0.996264)" xlink:href="#CMSS17-54"/>
    </g>
   </g>
   <g id="text_30">
    <!-- ${v}^{2}/{c}^{2}$ -->
    <defs>
     <path d="M 42.90625 71.28125 
C 42.90625 71.390625 43.5 72.90625 43.5 73.09375 
C 43.5 74.296875 42.5 75 41.703125 75 
C 41.203125 75 40.296875 75 39.5 72.796875 
L 6 -21.296875 
C 6 -21.40625 5.40625 -22.890625 5.40625 -23.09375 
C 5.40625 -24.296875 6.40625 -25 7.203125 -25 
C 7.796875 -25 8.703125 -24.890625 9.40625 -22.796875 
z
" id="CMMI12-61"/>
    </defs>
    <g transform="translate(79.790037 107.437624)scale(0.13 -0.13)">
     <use transform="scale(0.996264)" xlink:href="#CMMI12-118"/>
     <use transform="translate(50.735173 36.153639)scale(0.697382)" xlink:href="#CMR17-50"/>
     <use transform="translate(83.216487 0)scale(0.996264)" xlink:href="#CMMI12-61"/>
     <use transform="translate(131.991406 0)scale(0.996264)" xlink:href="#CMMI12-99"/>
     <use transform="translate(173.97464 36.153639)scale(0.697382)" xlink:href="#CMR17-50"/>
    </g>
   </g>
   <g id="text_31">
    <!-- ${c}^{2}$ -->
    <g transform="translate(252 107.023178)scale(0.13 -0.13)">
     <use transform="scale(0.996264)" xlink:href="#CMMI12-99"/>
     <use transform="translate(41.983234 36.153639)scale(0.697382)" xlink:href="#CMR17-50"/>
    </g>
   </g>
   <g id="text_32">
    <!--  7.2749 -->
    <g transform="translate(312 106.525046)scale(0.11 -0.11)">
     <use transform="scale(0.996264)" xlink:href="#CMSS17-55"/>
     <use transform="translate(46.843624 0)scale(0.996264)" xlink:href="#CMSS17-46"/>
     <use transform="translate(72.867828 0)scale(0.996264)" xlink:href="#CMSS17-50"/>
     <use transform="translate(119.711452 0)scale(0.996264)" xlink:href="#CMSS17-55"/>
     <use transform="translate(166.555075 0)scale(0.996264)" xlink:href="#CMSS17-52"/>
     <use transform="translate(213.398699 0)scale(0.996264)" xlink:href="#CMSS17-57"/>
    </g>
   </g>
   <g id="text_33">
    <!--  4.8603 -->
    <g transform="translate(17.558522 83.454955)scale(0.11 -0.11)">
     <use transform="scale(0.996264)" xlink:href="#CMSS17-52"/>
     <use transform="translate(46.843624 0)scale(0.996264)" xlink:href="#CMSS17-46"/>
     <use transform="translate(72.867828 0)scale(0.996264)" xlink:href="#CMSS17-56"/>
     <use transform="translate(119.711452 0)scale(0.996264)" xlink:href="#CMSS17-54"/>
     <use transform="translate(166.555075 0)scale(0.996264)" xlink:href="#CMSS17-48"/>
     <use transform="translate(213.398699 0)scale(0.996264)" xlink:href="#CMSS17-51"/>
    </g>
   </g>
   <g id="text_34">
    <!-- $m{c}^{2}$ -->
    <g transform="translate(86.790792 83.953087)scale(0.13 -0.13)">
     <use transform="scale(0.996264)" xlink:href="#CMMI12-109"/>
     <use transform="translate(85.327224 0)scale(0.996264)" xlink:href="#CMMI12-99"/>
     <use transform="translate(127.310458 36.153639)scale(0.697382)" xlink:href="#CMR17-50"/>
    </g>
   </g>
   <g id="text_35">
    <!-- $m{c}^{2}$ -->
    <g transform="translate(252 83.953087)scale(0.13 -0.13)">
     <use transform="scale(0.996264)" xlink:href="#CMMI12-109"/>
     <use transform="translate(85.327224 0)scale(0.996264)" xlink:href="#CMMI12-99"/>
     <use transform="translate(127.310458 36.153639)scale(0.697382)" xlink:href="#CMR17-50"/>
    </g>
   </g>
   <g id="text_36">
    <!--  10.1678 -->
    <g transform="translate(312 83.454955)scale(0.11 -0.11)">
     <use transform="scale(0.996264)" xlink:href="#CMSS17-49"/>
     <use transform="translate(46.843624 0)scale(0.996264)" xlink:href="#CMSS17-48"/>
     <use transform="translate(93.687247 0)scale(0.996264)" xlink:href="#CMSS17-46"/>
     <use transform="translate(119.711452 0)scale(0.996264)" xlink:href="#CMSS17-49"/>
     <use transform="translate(166.555075 0)scale(0.996264)" xlink:href="#CMSS17-54"/>
     <use transform="translate(213.398699 0)scale(0.996264)" xlink:href="#CMSS17-55"/>
     <use transform="translate(260.242322 0)scale(0.996264)" xlink:href="#CMSS17-56"/>
    </g>
   </g>
   <g id="text_37">
    <!--  7.5066 -->
    <g transform="translate(17.558522 60.384863)scale(0.11 -0.11)">
     <use transform="scale(0.996264)" xlink:href="#CMSS17-55"/>
     <use transform="translate(46.843624 0)scale(0.996264)" xlink:href="#CMSS17-46"/>
     <use transform="translate(72.867828 0)scale(0.996264)" xlink:href="#CMSS17-53"/>
     <use transform="translate(119.711452 0)scale(0.996264)" xlink:href="#CMSS17-48"/>
     <use transform="translate(166.555075 0)scale(0.996264)" xlink:href="#CMSS17-54"/>
     <use transform="translate(213.398699 0)scale(0.996264)" xlink:href="#CMSS17-54"/>
    </g>
   </g>
   <g id="text_38">
    <!-- $E=m{c}^{2}$ -->
    <defs>
     <path d="M 64.296875 31.515625 
C 65.796875 31.515625 67.296875 31.515625 67.296875 33.203125 
C 67.296875 35 65.59375 35 63.90625 35 
L 8 35 
C 6.296875 35 4.59375 35 4.59375 33.203125 
C 4.59375 31.515625 6.09375 31.515625 7.59375 31.515625 
z
M 63.90625 14 
C 65.59375 14 67.296875 14 67.296875 15.796875 
C 67.296875 17.484375 65.796875 17.484375 64.296875 17.484375 
L 7.59375 17.484375 
C 6.09375 17.484375 4.59375 17.484375 4.59375 15.796875 
C 4.59375 14 6.296875 14 8 14 
z
" id="CMR17-61"/>
    </defs>
    <g transform="translate(59.585561 60.882995)scale(0.13 -0.13)">
     <use transform="scale(0.996264)" xlink:href="#CMMI12-69"/>
     <use transform="translate(105.725645 0)scale(0.996264)" xlink:href="#CMR17-61"/>
     <use transform="translate(205.114442 0)scale(0.996264)" xlink:href="#CMMI12-109"/>
     <use transform="translate(290.441667 0)scale(0.996264)" xlink:href="#CMMI12-99"/>
     <use transform="translate(332.4249 36.153639)scale(0.697382)" xlink:href="#CMR17-50"/>
    </g>
   </g>
   <g id="text_39">
    <!-- $E=m{c}^{2}$ -->
    <g transform="translate(252 60.882995)scale(0.13 -0.13)">
     <use transform="scale(0.996264)" xlink:href="#CMMI12-69"/>
     <use transform="translate(105.725645 0)scale(0.996264)" xlink:href="#CMR17-61"/>
     <use transform="translate(205.114442 0)scale(0.996264)" xlink:href="#CMMI12-109"/>
     <use transform="translate(290.441667 0)scale(0.996264)" xlink:href="#CMMI12-99"/>
     <use transform="translate(332.4249 36.153639)scale(0.697382)" xlink:href="#CMR17-50"/>
    </g>
   </g>
   <g id="text_40">
    <!--  10.9581 -->
    <g transform="translate(312 60.384863)scale(0.11 -0.11)">
     <use transform="scale(0.996264)" xlink:href="#CMSS17-49"/>
     <use transform="translate(46.843624 0)scale(0.996264)" xlink:href="#CMSS17-48"/>
     <use transform="translate(93.687247 0)scale(0.996264)" xlink:href="#CMSS17-46"/>
     <use transform="translate(119.711452 0)scale(0.996264)" xlink:href="#CMSS17-57"/>
     <use transform="translate(166.555075 0)scale(0.996264)" xlink:href="#CMSS17-53"/>
     <use transform="translate(213.398699 0)scale(0.996264)" xlink:href="#CMSS17-56"/>
     <use transform="translate(260.242322 0)scale(0.996264)" xlink:href="#CMSS17-49"/>
    </g>
   </g>
   <g id="text_41">
    <!-- arXMLiv -->
    <defs>
     <path d="M 37.59375 27.984375 
C 37.59375 37.375 30.90625 43.875 21.90625 43.875 
C 17.5 43.875 12.703125 43.078125 7.203125 39.890625 
L 7.796875 33.359375 
C 10.296875 35.125 14.59375 38 21.796875 38 
C 26.90625 38 30 34.0625 30 27.84375 
L 30 24 
C 14 24 4 19.34375 4 11.34375 
C 4 7.203125 6.5 -1 14.796875 -1 
C 16.296875 -1 24.40625 -1 30.203125 3.390625 
L 30.203125 -0.296875 
L 37.59375 -0.296875 
z
M 30 12.75 
C 30 10.953125 30 8.5625 27 6.78125 
C 24.40625 5.078125 21.09375 5.078125 19.703125 5.078125 
C 14.703125 5.078125 11.296875 7.984375 11.296875 11.625 
C 11.296875 18.921875 26.90625 18.921875 30 18.921875 
z
" id="CMSS17-97"/>
     <path d="M 14.90625 21.296875 
C 14.90625 30.703125 21.796875 37 30.59375 37 
L 30.59375 43.578125 
C 24.203125 43.578125 18.203125 40.390625 14.59375 35.203125 
L 14.59375 43.09375 
L 7.5 43.09375 
L 7.5 0 
L 14.90625 0 
z
" id="CMSS17-114"/>
     <path d="M 34.59375 36.390625 
L 57.203125 69 
L 48 69 
L 30.5 43.15625 
L 12.5 69 
L 2.59375 69 
L 26.40625 36.390625 
L 1.296875 0 
L 10.5 0 
L 30.5 30.328125 
L 51.203125 0 
L 61.09375 0 
z
" id="CMSS17-88"/>
     <path d="M 49.90625 37.046875 
L 45.09375 23.015625 
C 44.296875 20.421875 41.59375 12.359375 41 9.171875 
L 40.90625 9.171875 
C 40.59375 11.171875 40 13.265625 38.40625 18.34375 
C 37.5 21.328125 36.5 24.40625 35.5 27.203125 
L 20.703125 69 
L 9 69 
L 9 0 
L 16.796875 0 
L 16.796875 60.9375 
L 16.90625 60.9375 
C 16.90625 60.84375 17.796875 56.453125 23.90625 39.046875 
L 37.09375 1.5 
L 44.5 1.5 
L 56.40625 34.859375 
C 57.203125 37.15625 59.703125 44.421875 60.796875 47.90625 
C 61.796875 50.890625 64.296875 58.25 64.90625 61.140625 
L 65 61.140625 
L 65 0 
L 72.90625 0 
L 72.90625 69 
L 61.296875 69 
z
" id="CMSS17-77"/>
     <path d="M 26.09375 6.46875 
C 24.90625 6.46875 23.703125 6.46875 22.5 6.46875 
L 17.203125 6.46875 
L 17.203125 69 
L 8.796875 69 
L 8.796875 0 
L 46.90625 0 
L 46.90625 6.46875 
z
" id="CMSS17-76"/>
     <path d="M 15.296875 65.359375 
L 6.90625 65.359375 
L 6.90625 57 
L 15.296875 57 
z
M 14.796875 42.796875 
L 7.40625 42.796875 
L 7.40625 0 
L 14.796875 0 
z
" id="CMSS17-105"/>
     <path d="M 41.796875 43 
L 34 43 
L 27.296875 24.3125 
C 25.203125 18.203125 22.203125 9.796875 21.703125 5.5 
L 21.59375 5.5 
C 21.40625 7.3125 20.59375 9.90625 20.09375 11.703125 
C 19.5 13.90625 18.703125 16.5 18.09375 18.3125 
L 9.296875 43 
L 1.296875 43 
L 17.09375 0 
L 26 0 
z
" id="CMSS17-118"/>
    </defs>
    <g transform="translate(99.210172 37.563838)scale(0.12 -0.12)">
     <use transform="scale(0.996264)" xlink:href="#CMSS17-97"/>
     <use transform="translate(42.319467 0)scale(0.996264)" xlink:href="#CMSS17-114"/>
     <use transform="translate(74.229239 0)scale(0.996264)" xlink:href="#CMSS17-88"/>
     <use transform="translate(136.447094 0)scale(0.996264)" xlink:href="#CMSS17-77"/>
     <use transform="translate(218.123124 0)scale(0.996264)" xlink:href="#CMSS17-76"/>
     <use transform="translate(268.810229 0)scale(0.996264)" xlink:href="#CMSS17-105"/>
     <use transform="translate(290.990953 0)scale(0.996264)" xlink:href="#CMSS17-118"/>
    </g>
   </g>
   <g id="text_42">
    <!-- TF-IDF -->
    <defs>
     <path d="M 36.203125 62 
L 44.5 62 
C 45.703125 62 46.90625 62 48.09375 62 
L 60.59375 62 
L 60.59375 68.375 
L 3.40625 68.375 
L 3.40625 62 
L 15.90625 62 
C 17.09375 62 18.296875 62 19.5 62 
L 27.796875 62 
L 27.796875 -0.5 
L 36.203125 -0.5 
z
" id="CMSS17-84"/>
     <path d="M 45.59375 31 
L 45.59375 37.078125 
L 17.203125 37.078125 
L 17.203125 62 
L 29.40625 62 
C 30.59375 62 31.796875 62 33 62 
L 49.5 62 
L 49.5 68.359375 
L 8.796875 68.359375 
L 8.796875 -0.5 
L 17.203125 -0.5 
L 17.203125 31 
z
" id="CMSS17-70"/>
     <path d="M 26 19 
L 26 24.765625 
L 1 24.765625 
L 1 19 
z
" id="CMSS17-45"/>
     <path d="M 17.09375 69 
L 8.703125 69 
L 8.703125 0 
L 17.09375 0 
z
" id="CMSS17-73"/>
     <path d="M 8.90625 69 
L 8.90625 0 
L 33.5 0 
C 49.90625 0 62.5 15.3125 62.5 33.90625 
C 62.5 53.09375 49.90625 69 33.5 69 
z
M 17.09375 5.578125 
L 17.09375 63.421875 
L 31.296875 63.421875 
C 44.703125 63.421875 54.296875 51.203125 54.296875 33.90625 
C 54.296875 17.296875 44.796875 5.578125 31.296875 5.578125 
z
" id="CMSS17-68"/>
    </defs>
    <g transform="translate(11.214833 37.563838)scale(0.12 -0.12)">
     <use transform="scale(0.996264)" xlink:href="#CMSS17-84"/>
     <use transform="translate(63.819454 0)scale(0.996264)" xlink:href="#CMSS17-70"/>
     <use transform="translate(117.109013 0)scale(0.996264)" xlink:href="#CMSS17-45"/>
     <use transform="translate(148.338126 0)scale(0.996264)" xlink:href="#CMSS17-73"/>
     <use transform="translate(174.122051 0)scale(0.996264)" xlink:href="#CMSS17-68"/>
     <use transform="translate(241.664893 0)scale(0.996264)" xlink:href="#CMSS17-70"/>
    </g>
   </g>
   <g id="text_43">
    <!-- zbMATH -->
    <defs>
     <path d="M 37.5 39.09375 
L 37.5 42.96875 
L 3.90625 42.96875 
L 3.90625 37 
L 16.703125 37 
C 17.90625 37 19.09375 37 20.296875 37 
L 27.296875 37 
L 2.59375 4.078125 
L 2.59375 0 
L 37.796875 0 
L 37.796875 6.171875 
L 24.203125 6.171875 
C 23 6.171875 21.796875 6.171875 20.59375 6.171875 
L 12.90625 6.171875 
z
" id="CMSS17-122"/>
     <path d="M 14.90625 69 
L 7.5 69 
L 7.5 -0.203125 
L 15.09375 -0.203125 
L 15.09375 4.28125 
C 18.90625 0.59375 23.5 -1 27.59375 -1 
C 37.203125 -1 45 8.578125 45 21.125 
C 45 32.59375 39 43.0625 30.09375 43.0625 
C 23.796875 43.0625 18.203125 40.484375 14.90625 37.796875 
z
M 15.09375 31.96875 
C 17.296875 34.71875 20.40625 37 24.796875 37 
C 30.703125 37 37.40625 32.765625 37.40625 21.125 
C 37.40625 8.71875 29.40625 5.078125 23.90625 5.078125 
C 21.90625 5.078125 19.796875 5.5625 17.796875 7.25 
C 15.09375 9.609375 15.09375 11.078125 15.09375 12.453125 
z
" id="CMSS17-98"/>
     <path d="M 35.5 69 
L 26.90625 69 
L 2.59375 0 
L 10.203125 0 
L 17.203125 20 
L 44 20 
L 51.09375 0 
L 59.796875 0 
z
M 42.09375 25.578125 
L 19.09375 25.578125 
C 23.90625 39.5 29.90625 56.84375 30.59375 61.328125 
L 30.703125 61.328125 
C 31.40625 57.234375 33.40625 51.265625 35.09375 46.1875 
z
" id="CMSS17-65"/>
     <path d="M 57.40625 69 
L 49 69 
L 49 39.078125 
L 17.203125 39.078125 
L 17.203125 69 
L 8.796875 69 
L 8.796875 0 
L 17.203125 0 
L 17.203125 33 
L 49 33 
L 49 0 
L 57.40625 0 
z
" id="CMSS17-72"/>
    </defs>
    <g transform="translate(217.906034 37.563838)scale(0.12 -0.12)">
     <use transform="scale(0.996264)" xlink:href="#CMSS17-122"/>
     <use transform="translate(40.677872 0)scale(0.996264)" xlink:href="#CMSS17-98"/>
     <use transform="translate(88.882815 0)scale(0.996264)" xlink:href="#CMSS17-77"/>
     <use transform="translate(170.558845 0)scale(0.996264)" xlink:href="#CMSS17-65"/>
     <use transform="translate(224.969444 0)scale(0.996264)" xlink:href="#CMSS17-84"/>
     <use transform="translate(288.788898 0)scale(0.996264)" xlink:href="#CMSS17-72"/>
    </g>
   </g>
   <g id="text_44">
    <!-- TF-IDF -->
    <g transform="translate(312 37.563838)scale(0.12 -0.12)">
     <use transform="scale(0.996264)" xlink:href="#CMSS17-84"/>
     <use transform="translate(63.819454 0)scale(0.996264)" xlink:href="#CMSS17-70"/>
     <use transform="translate(117.109013 0)scale(0.996264)" xlink:href="#CMSS17-45"/>
     <use transform="translate(148.338126 0)scale(0.996264)" xlink:href="#CMSS17-73"/>
     <use transform="translate(174.122051 0)scale(0.996264)" xlink:href="#CMSS17-68"/>
     <use transform="translate(241.664893 0)scale(0.996264)" xlink:href="#CMSS17-70"/>
    </g>
   </g>
   <g id="text_45">
    <!-- 'Mass Energy Equivalence' -->
    <defs>
     <path d="M 17 61.09375 
L 17 68.953125 
L 9 68.953125 
L 9 61 
L 11.5 61 
L 8.90625 48.5 
L 12.90625 48.5 
z
" id="CMSS17-39"/>
     <path d="M 32.203125 41.046875 
C 26.296875 43.859375 21.703125 43.859375 18.703125 43.859375 
C 11.59375 43.859375 3.09375 41.375 3.09375 31.296875 
C 3.09375 21.234375 14.09375 19.03125 17.09375 18.421875 
C 21.703125 17.53125 26.796875 16.53125 26.796875 11.5625 
C 26.796875 5.265625 19.59375 5.265625 18.296875 5.265625 
C 14.296875 5.265625 8.796875 6.359375 3.796875 9.96875 
L 2.59375 3.28125 
C 8.296875 0 13.796875 -1 18.40625 -1 
C 30.703125 -1 33.796875 6.5 33.796875 12.203125 
C 33.796875 17.09375 31 20.390625 29.09375 21.890625 
C 25.796875 24.5 24.59375 24.796875 16.40625 26.5 
C 15 26.703125 10.09375 27.796875 10.09375 32.28125 
C 10.09375 38 16.40625 38 17.796875 38 
C 24.296875 38 28.296875 35.984375 31 34.5 
z
" id="CMSS17-115"/>
     <path d="M 30.59375 6.765625 
C 22.59375 6.765625 19 6.765625 17.203125 6.765625 
L 17.203125 32.921875 
L 48.203125 32.921875 
L 48.203125 39 
L 17.203125 39 
L 17.203125 62.640625 
L 30.09375 62.640625 
C 31.296875 62.640625 32.5 62.640625 33.703125 62.640625 
L 50.796875 62.640625 
L 50.796875 69 
L 8.796875 69 
L 8.796875 0 
L 52.09375 0 
L 52.09375 6.765625 
z
" id="CMSS17-69"/>
     <path d="M 40.90625 29.328125 
C 40.90625 35.671875 39.40625 44 28.09375 44 
C 21.703125 44 17.5 40.71875 14.703125 37.328125 
L 14.703125 43.09375 
L 7.40625 43.09375 
L 7.40625 0 
L 15 0 
L 15 24.359375 
C 15 30.6875 17.40625 37.9375 24.203125 37.9375 
C 33 37.9375 33.296875 32 33.296875 28.578125 
L 33.296875 0 
L 40.90625 0 
z
" id="CMSS17-110"/>
     <path d="M 39.09375 21.515625 
C 39.09375 24.84375 38.90625 31.296875 35.703125 36.640625 
C 32.203125 42.390625 26.5 44 22.203125 44 
C 11.796875 44 3 34.1875 3 21.484375 
C 3 9.09375 12.09375 -1 23.59375 -1 
C 28.09375 -1 33.59375 0.296875 38.59375 3.875 
C 38.59375 4.28125 38.40625 6.46875 38.296875 6.5625 
C 38.296875 6.765625 38 9.84375 38 10.25 
C 33.203125 6.359375 27.703125 5.078125 23.703125 5.078125 
C 17.296875 5.078125 10.40625 10.421875 10.09375 21.515625 
z
M 10.90625 27 
C 12.203125 32.5625 16.59375 37.828125 22.203125 37.828125 
C 23.703125 37.828125 30.703125 37.828125 32.5 27 
z
" id="CMSS17-101"/>
     <path d="M 44.5 43.875 
C 38.796875 43.875 33.90625 42.78125 29.90625 40.890625 
C 26.59375 43.390625 23.203125 43.875 20.90625 43.875 
C 12.203125 43.875 5.59375 36.703125 5.59375 28.34375 
C 5.59375 22.9375 8.59375 18.859375 8.796875 18.671875 
C 7 16.171875 6 13.484375 6 10.5 
C 6 7 7.40625 4.515625 8.5 3.125 
C 3.296875 -0.046875 2.59375 -4.90625 2.59375 -6.796875 
C 2.59375 -14.03125 11.703125 -20 23.40625 -20 
C 35.203125 -20 44.296875 -14.03125 44.296875 -6.6875 
C 44.296875 7 29 7 24.796875 7 
L 16.703125 7 
C 15.203125 7 11.203125 7 11.203125 12.359375 
C 11.203125 14.390625 12.09375 15.6875 12.203125 15.78125 
C 13.703125 14.6875 16.796875 13 20.90625 13 
C 29.203125 13 36.09375 19.96875 36.09375 28.546875 
C 36.09375 33.3125 33.90625 36.796875 33 38 
L 33.296875 38 
C 33.59375 38 37.796875 38 39.296875 38 
C 42.5 38 42.796875 37.953125 45.59375 37.796875 
z
M 20.90625 18.46875 
C 17.5 18.46875 12.703125 20.546875 12.703125 28.484375 
C 12.703125 37.109375 18.203125 38.5 20.796875 38.5 
C 24.203125 38.5 29 36.421875 29 28.484375 
C 29 19.859375 23.5 18.46875 20.90625 18.46875 
z
M 24.703125 -0.15625 
C 27.09375 -0.15625 37.203125 -0.15625 37.203125 -6.90625 
C 37.203125 -11.15625 31 -14.515625 23.5 -14.515625 
C 15.90625 -14.515625 9.703125 -11.25 9.703125 -6.796875 
C 9.703125 -6.296875 9.703125 -0.15625 16.59375 -0.15625 
z
" id="CMSS17-103"/>
     <path d="M 41.796875 43 
L 34 43 
C 25.5 20.21875 22.59375 10.96875 22.40625 5.984375 
L 22.296875 5.984375 
C 22 10.875 17.59375 22.8125 14.09375 31.359375 
L 9.40625 43 
L 1.296875 43 
L 19 0.203125 
C 17.90625 -2.78125 16.296875 -7.265625 15.796875 -8.265625 
C 13.59375 -13.828125 12.09375 -13.828125 10.5 -13.828125 
C 10.09375 -13.828125 6.90625 -13.828125 3.296875 -12.640625 
L 3.90625 -19.203125 
C 6.40625 -19.703125 8.90625 -20 10.703125 -20 
C 13.203125 -20 18.203125 -20 22.796875 -7.765625 
z
" id="CMSS17-121"/>
     <path d="M 40.796875 44 
L 33.40625 44 
L 33.40625 37.9375 
C 33 38.4375 28.40625 44 20.59375 44 
C 11.5 44 3.296875 34.8125 3.296875 21.859375 
C 3.296875 9.890625 10.203125 -0.078125 19.203125 -0.078125 
C 23.40625 -0.078125 28.703125 1.421875 33.203125 5.703125 
L 33.203125 -19 
L 40.796875 -19 
z
M 33.40625 14.28125 
C 33.40625 13 33.40625 11.21875 30.296875 8.65625 
C 29.5 7.96875 27.296875 6 23.5 6 
C 16.40625 6 10.90625 13.28125 10.90625 21.859375 
C 10.90625 31.421875 17.59375 37.734375 24.40625 37.734375 
C 30.09375 37.734375 33.40625 32.203125 33.40625 28.078125 
z
" id="CMSS17-113"/>
     <path d="M 40.90625 42.796875 
L 33.296875 42.796875 
L 33.296875 15.1875 
C 33.296875 7.78125 27.90625 4.78125 22.203125 4.78125 
C 15.59375 4.78125 15 6.984375 15 11.078125 
L 15 42.796875 
L 7.40625 42.796875 
L 7.40625 10.59375 
C 7.40625 2.796875 10.09375 -1 17 -1 
C 20.40625 -1 28.09375 -0.203125 33.5 4.78125 
L 33.5 0 
L 40.90625 0 
z
" id="CMSS17-117"/>
     <path d="M 14.796875 69 
L 7.40625 69 
L 7.40625 0 
L 14.796875 0 
z
" id="CMSS17-108"/>
     <path d="M 38.5 39.703125 
C 38.5 40.390625 33.90625 42.40625 32.703125 42.796875 
C 29.40625 44 25.203125 44 24.09375 44 
C 11.09375 44 3.296875 32.703125 3.296875 21.296875 
C 3.296875 9.296875 12 -1 23.703125 -1 
C 30.40625 -1 35.203125 1.1875 39.09375 3.78125 
L 38.5 10.375 
C 34.203125 7.078125 29.203125 5.265625 23.796875 5.265625 
C 16 5.265625 10.90625 12.09375 10.90625 21.390625 
C 10.90625 28.609375 14.203125 37.71875 24.203125 37.71875 
C 29.703125 37.71875 32.796875 36.609375 37.40625 33.515625 
z
" id="CMSS17-99"/>
    </defs>
    <g transform="translate(104.474284 17.04)scale(0.14 -0.14)">
     <use transform="scale(0.996264)" xlink:href="#CMSS17-39"/>
     <use transform="translate(26.024205 0)scale(0.996264)" xlink:href="#CMSS17-77"/>
     <use transform="translate(107.700235 0)scale(0.996264)" xlink:href="#CMSS17-97"/>
     <use transform="translate(152.622155 0)scale(0.996264)" xlink:href="#CMSS17-115"/>
     <use transform="translate(188.535697 0)scale(0.996264)" xlink:href="#CMSS17-115"/>
     <use transform="translate(255.678352 0)scale(0.996264)" xlink:href="#CMSS17-69"/>
     <use transform="translate(311.570365 0)scale(0.996264)" xlink:href="#CMSS17-110"/>
     <use transform="translate(359.775309 0)scale(0.996264)" xlink:href="#CMSS17-101"/>
     <use transform="translate(401.414131 0)scale(0.996264)" xlink:href="#CMSS17-114"/>
     <use transform="translate(433.323903 0)scale(0.996264)" xlink:href="#CMSS17-103"/>
     <use transform="translate(480.167527 0)scale(0.996264)" xlink:href="#CMSS17-121"/>
     <use transform="translate(554.396781 0)scale(0.996264)" xlink:href="#CMSS17-69"/>
     <use transform="translate(610.288794 0)scale(0.996264)" xlink:href="#CMSS17-113"/>
     <use transform="translate(658.493737 0)scale(0.996264)" xlink:href="#CMSS17-117"/>
     <use transform="translate(706.698681 0)scale(0.996264)" xlink:href="#CMSS17-105"/>
     <use transform="translate(728.879404 0)scale(0.996264)" xlink:href="#CMSS17-118"/>
     <use transform="translate(771.879545 0)scale(0.996264)" xlink:href="#CMSS17-97"/>
     <use transform="translate(816.801466 0)scale(0.996264)" xlink:href="#CMSS17-108"/>
     <use transform="translate(838.982189 0)scale(0.996264)" xlink:href="#CMSS17-101"/>
     <use transform="translate(880.621011 0)scale(0.996264)" xlink:href="#CMSS17-110"/>
     <use transform="translate(928.825954 0)scale(0.996264)" xlink:href="#CMSS17-99"/>
     <use transform="translate(970.464776 0)scale(0.996264)" xlink:href="#CMSS17-101"/>
     <use transform="translate(1012.103598 0)scale(0.996264)" xlink:href="#CMSS17-39"/>
    </g>
   </g>
  </g>
 </g>
 <defs>
  <clipPath id="pdfe7ddd0d0">
   <rect height="264.96" width="360" x="0" y="23.04"/>
  </clipPath>
 </defs>
</svg>
