<?xml version="1.0" encoding="utf-8" standalone="no"?>
<!DOCTYPE svg PUBLIC "-//W3C//DTD SVG 1.1//EN"
  "http://www.w3.org/Graphics/SVG/1.1/DTD/svg11.dtd">
<!-- Created with matplotlib (https://matplotlib.org/) -->
<svg height="468pt" version="1.1" viewBox="0 0 230.4 468" width="230.4pt" xmlns="http://www.w3.org/2000/svg" xmlns:xlink="http://www.w3.org/1999/xlink">
 <defs>
  <style type="text/css">
*{stroke-linecap:butt;stroke-linejoin:round;}
  </style>
 </defs>
 <g id="figure_1">
  <g id="patch_1">
   <path d="M 0 468 
L 230.4 468 
L 230.4 0 
L 0 0 
z
" style="fill:#ffffff;"/>
  </g>
  <g id="axes_1">
   <g id="patch_2">
    <path d="M 20.736 458.64 
L 244.224 458.64 
L 244.224 18.72 
L 20.736 18.72 
z
" style="fill:#ffffff;"/>
   </g>
   <g id="matplotlib.axis_1"/>
   <g id="matplotlib.axis_2">
    <g id="ytick_1">
     <g id="line2d_1">
      <defs>
       <path d="M 0 0 
L -3.5 0 
" id="mba95b2afbb" style="stroke:#000000;stroke-width:0.8;"/>
      </defs>
      <g>
       <use style="stroke:#000000;stroke-width:0.8;" x="20.736" xlink:href="#mba95b2afbb" y="454.389565"/>
      </g>
     </g>
     <g id="text_1">
      <!-- 20 -->
      <defs>
       <path d="M 25.796875 21.203125 
C 28.59375 24.078125 32.796875 27.5625 35.703125 31.046875 
C 38.5 34.4375 42.203125 39.234375 42.203125 46.203125 
C 42.203125 57.140625 34.796875 67 22.203125 67 
C 12.296875 67 6.59375 60.828125 3.90625 51.15625 
L 7.796875 45.765625 
C 10 54.84375 13.09375 60.625 20.90625 60.625 
C 29.5 60.625 34.296875 53.640625 34.296875 45.96875 
C 34.296875 36.796875 27.296875 29.703125 22 24.421875 
C 16.09375 18.546875 10.296875 12.5625 4.703125 6.375 
L 4.703125 0 
L 42.203125 0 
L 42.203125 6.765625 
L 25.203125 6.765625 
C 24 6.765625 22.796875 6.765625 21.59375 6.765625 
L 11.59375 6.765625 
L 11.59375 6.859375 
z
" id="CMSS17-50"/>
       <path d="M 43.09375 31.9375 
C 43.09375 37.578125 43 48.078125 38.90625 56.1875 
C 34.796875 64 28.203125 66.078125 23.5 66.078125 
C 16.703125 66.078125 10.90625 62.109375 7.90625 55.78125 
C 4.703125 49.15625 3.796875 42.328125 3.796875 31.9375 
C 3.796875 24.828125 4.09375 16.109375 7.703125 8.484375 
C 11.796875 0.078125 18.703125 -2 23.40625 -2 
C 29.59375 -2 35.59375 1.265625 39 8.09375 
C 42.5 15.21875 43.09375 23.03125 43.09375 31.9375 
z
M 23.40625 4.078125 
C 15.796875 4.078125 13.5 12.671875 12.796875 15.546875 
C 11.59375 20.46875 11.40625 25.21875 11.40625 33.03125 
C 11.40625 39.15625 11.40625 46.0625 13.296875 51.515625 
C 15.59375 57.828125 19.59375 60 23.40625 60 
C 30.796875 60 33.203125 52.6875 34 50.125 
C 35.5 44.890625 35.5 38.765625 35.5 33.03125 
C 35.5 23.84375 35.5 4.078125 23.40625 4.078125 
z
" id="CMSS17-48"/>
      </defs>
      <g transform="translate(2.777065 458.194739)scale(0.11 -0.11)">
       <use transform="scale(0.996264)" xlink:href="#CMSS17-50"/>
       <use transform="translate(46.843624 0)scale(0.996264)" xlink:href="#CMSS17-48"/>
      </g>
     </g>
    </g>
    <g id="ytick_2">
     <g id="line2d_2">
      <g>
       <use style="stroke:#000000;stroke-width:0.8;" x="20.736" xlink:href="#mba95b2afbb" y="433.137391"/>
      </g>
     </g>
     <g id="text_2">
      <!-- 19 -->
      <defs>
       <path d="M 28.40625 67 
L 26.5 67 
C 21.09375 61.5625 14.796875 60.78125 8.40625 60.78125 
L 8.40625 55 
C 11.296875 55 16 55 20.703125 57.296875 
L 20.703125 5.765625 
L 8.90625 5.765625 
L 8.90625 0 
L 40.203125 0 
L 40.203125 5.765625 
L 28.40625 5.765625 
z
" id="CMSS17-49"/>
       <path d="M 6.796875 2.71875 
C 9.59375 0.328125 13.203125 -2 19.296875 -2 
C 31.40625 -2 43 11.265625 43 32.734375 
C 43 61.4375 30.5 66.078125 23.796875 66.078125 
C 17.09375 66.078125 12.796875 63.140625 9.09375 58.453125 
C 4.703125 53.078125 3.90625 48.28125 3.90625 42.703125 
C 3.90625 36.046875 5.09375 31.953125 7.90625 27.265625 
C 11.703125 21.203125 15.203125 19.921875 19.09375 19.921875 
C 25 19.921875 30.90625 22.796875 34.90625 27.75 
C 34.203125 14.09375 28.09375 4.171875 19.296875 4.171875 
C 15.703125 4.171875 12.796875 5.296875 9.90625 8.0625 
z
M 34.59375 42.90625 
C 34.703125 42.234375 34.703125 40.96875 34.703125 40.5625 
C 34.703125 32.40625 29.90625 26 22.90625 26 
C 18.296875 26 15.90625 28.328125 14.09375 31.34375 
C 11.90625 35.140625 11.796875 38.828125 11.796875 42.703125 
C 11.796875 46.5 11.796875 50.6875 14.59375 54.859375 
C 16.703125 57.859375 19.296875 60 23.796875 60 
C 33 60 34.5 46.875 34.59375 42.90625 
z
" id="CMSS17-57"/>
      </defs>
      <g transform="translate(2.777065 436.942565)scale(0.11 -0.11)">
       <use transform="scale(0.996264)" xlink:href="#CMSS17-49"/>
       <use transform="translate(46.843624 0)scale(0.996264)" xlink:href="#CMSS17-57"/>
      </g>
     </g>
    </g>
    <g id="ytick_3">
     <g id="line2d_3">
      <g>
       <use style="stroke:#000000;stroke-width:0.8;" x="20.736" xlink:href="#mba95b2afbb" y="411.885217"/>
      </g>
     </g>
     <g id="text_3">
      <!-- 18 -->
      <defs>
       <path d="M 30.203125 34.71875 
C 37.796875 37.1875 41.703125 43.125 41.703125 48.96875 
C 41.703125 58.15625 33.703125 66.078125 23.5 66.078125 
C 12.90625 66.078125 5.203125 57.9375 5.203125 49.125 
C 5.203125 43.4375 9 37.546875 16.703125 35.015625 
C 6.90625 31.203125 3.90625 23.625 3.90625 17.953125 
C 3.90625 6.96875 12.796875 -2 23.40625 -2 
C 34.40625 -2 43 7.109375 43 17.78125 
C 43 24.328125 39.09375 31.25 30.203125 34.71875 
z
M 23.5 38 
C 16.796875 38 12.296875 42.375 12.296875 49 
C 12.296875 55.71875 16.796875 60 23.5 60 
C 29.703125 60 34.59375 56.109375 34.59375 49 
C 34.59375 41.984375 29.796875 38 23.5 38 
z
M 23.5 4.171875 
C 17.796875 4.171875 11.703125 8.078125 11.703125 18.0625 
C 11.703125 28.328125 18.5 31.921875 23.40625 31.921875 
C 28.796875 31.921875 35.203125 28.125 35.203125 18.0625 
C 35.203125 7.671875 28.59375 4.171875 23.5 4.171875 
z
" id="CMSS17-56"/>
      </defs>
      <g transform="translate(2.777065 415.690391)scale(0.11 -0.11)">
       <use transform="scale(0.996264)" xlink:href="#CMSS17-49"/>
       <use transform="translate(46.843624 0)scale(0.996264)" xlink:href="#CMSS17-56"/>
      </g>
     </g>
    </g>
    <g id="ytick_4">
     <g id="line2d_4">
      <g>
       <use style="stroke:#000000;stroke-width:0.8;" x="20.736" xlink:href="#mba95b2afbb" y="390.633043"/>
      </g>
     </g>
     <g id="text_4">
      <!-- 17 -->
      <defs>
       <path d="M 21.703125 59 
C 22.90625 59 24.09375 59 25.296875 59 
L 36.796875 59 
C 22.5 42.359375 14.296875 21.328125 14.296875 -0.5 
L 22.296875 -0.5 
C 22.296875 20.671875 29.296875 42.125 43 59.296875 
L 43 65.765625 
L 3.90625 65.765625 
L 3.90625 59 
z
" id="CMSS17-55"/>
      </defs>
      <g transform="translate(2.777065 394.438217)scale(0.11 -0.11)">
       <use transform="scale(0.996264)" xlink:href="#CMSS17-49"/>
       <use transform="translate(46.843624 0)scale(0.996264)" xlink:href="#CMSS17-55"/>
      </g>
     </g>
    </g>
    <g id="ytick_5">
     <g id="line2d_5">
      <g>
       <use style="stroke:#000000;stroke-width:0.8;" x="20.736" xlink:href="#mba95b2afbb" y="369.38087"/>
      </g>
     </g>
     <g id="text_5">
      <!-- 16 -->
      <defs>
       <path d="M 39 64.078125 
C 34.796875 65.78125 31.796875 66.078125 29 66.078125 
C 16 66.078125 3.90625 52.625 3.90625 31.34375 
C 3.90625 4.140625 15.40625 -2 23.59375 -2 
C 28.09375 -2 32.59375 -0.609375 36.90625 4.375 
C 41.296875 9.640625 43 14.03125 43 21.703125 
C 43 34.046875 36.90625 45 27.796875 45 
C 21.203125 45 15.5 41.515625 12 37.125 
C 13 50.90625 19.59375 60 29.09375 60 
C 31.703125 60 35.09375 59.625 39 57.96875 
z
M 12.09375 21.390625 
C 12.09375 22.1875 12.09375 22.6875 12.203125 24.1875 
C 12.203125 31.953125 16.703125 38.921875 24 38.921875 
C 28.703125 38.921875 31.09375 36.4375 32.90625 33.359375 
C 35 29.46875 35.09375 25.78125 35.09375 21.6875 
C 35.09375 17.8125 35.09375 13.921875 32.796875 9.953125 
C 30.90625 6.859375 28.40625 4.171875 23.59375 4.171875 
C 14.09375 4.171875 12.5 17.40625 12.09375 21.390625 
z
" id="CMSS17-54"/>
      </defs>
      <g transform="translate(2.777065 373.186043)scale(0.11 -0.11)">
       <use transform="scale(0.996264)" xlink:href="#CMSS17-49"/>
       <use transform="translate(46.843624 0)scale(0.996264)" xlink:href="#CMSS17-54"/>
      </g>
     </g>
    </g>
    <g id="ytick_6">
     <g id="line2d_6">
      <g>
       <use style="stroke:#000000;stroke-width:0.8;" x="20.736" xlink:href="#mba95b2afbb" y="348.128696"/>
      </g>
     </g>
     <g id="text_6">
      <!-- 15 -->
      <defs>
       <path d="M 14.59375 58.625 
L 39.09375 58.625 
L 39.09375 65 
L 7.296875 65 
L 7.296875 27.828125 
L 14 27.828125 
C 15.796875 31.96875 19.5 35 24.296875 35 
C 28.796875 35 33.796875 31.078125 33.796875 19.78125 
C 33.796875 7.703125 26.703125 4.171875 21.5 4.171875 
C 15.09375 4.171875 9.203125 8 6.59375 13.296875 
L 3.40625 7.796875 
C 8 0.765625 15.5 -2 21.5 -2 
C 33.09375 -2 42.203125 7.765625 42.203125 19.578125 
C 42.203125 31.71875 34.09375 41.078125 24.40625 41.078125 
C 20.90625 41.078125 17.5 39.890625 14.59375 37.484375 
z
" id="CMSS17-53"/>
      </defs>
      <g transform="translate(2.777065 351.933869)scale(0.11 -0.11)">
       <use transform="scale(0.996264)" xlink:href="#CMSS17-49"/>
       <use transform="translate(46.843624 0)scale(0.996264)" xlink:href="#CMSS17-53"/>
      </g>
     </g>
    </g>
    <g id="ytick_7">
     <g id="line2d_7">
      <g>
       <use style="stroke:#000000;stroke-width:0.8;" x="20.736" xlink:href="#mba95b2afbb" y="326.876522"/>
      </g>
     </g>
     <g id="text_7">
      <!-- 14 -->
      <defs>
       <path d="M 35.203125 17 
L 44.296875 17 
L 44.296875 23.078125 
L 35.203125 23.078125 
L 35.203125 65.5 
L 26.40625 65.5 
L 2.59375 23.078125 
L 2.59375 17 
L 27.296875 17 
L 27.296875 0 
L 35.203125 0 
z
M 10.296875 23.078125 
C 16.09375 33.234375 27.59375 53.734375 27.59375 60.703125 
L 27.59375 23.078125 
z
" id="CMSS17-52"/>
      </defs>
      <g transform="translate(2.777065 330.681695)scale(0.11 -0.11)">
       <use transform="scale(0.996264)" xlink:href="#CMSS17-49"/>
       <use transform="translate(46.843624 0)scale(0.996264)" xlink:href="#CMSS17-52"/>
      </g>
     </g>
    </g>
    <g id="ytick_8">
     <g id="line2d_8">
      <g>
       <use style="stroke:#000000;stroke-width:0.8;" x="20.736" xlink:href="#mba95b2afbb" y="305.624348"/>
      </g>
     </g>
     <g id="text_8">
      <!-- 13 -->
      <defs>
       <path d="M 15.703125 31.640625 
L 22.5 31.640625 
C 31.90625 31.640625 34.59375 23.546875 34.59375 17.90625 
C 34.59375 10.203125 30.203125 4.171875 23 4.171875 
C 17.40625 4.171875 9.5 6.9375 5 14.25 
C 4.296875 10.796875 4.296875 10.59375 3.90625 8.21875 
C 8.59375 1.375 16.203125 -2 23.203125 -2 
C 34.59375 -2 43 7.390625 43 17.78125 
C 43 25.59375 37.5 32.140625 30 34.609375 
C 36 37.875 40.40625 44 40.40625 51.140625 
C 40.40625 59.453125 32.703125 66.078125 23.296875 66.078125 
C 14.703125 66.078125 8 60.8125 5.203125 55.15625 
C 5.90625 54.1875 7.703125 51.3125 8.59375 49.828125 
C 10.796875 55.65625 16.5 60 23.203125 60 
C 28.796875 60 32.5 56.359375 32.5 51.109375 
C 32.5 45.671875 29 39.734375 23.09375 38.359375 
C 22.703125 38.359375 16.5 37.765625 15.703125 37.671875 
z
" id="CMSS17-51"/>
      </defs>
      <g transform="translate(2.777065 309.429521)scale(0.11 -0.11)">
       <use transform="scale(0.996264)" xlink:href="#CMSS17-49"/>
       <use transform="translate(46.843624 0)scale(0.996264)" xlink:href="#CMSS17-51"/>
      </g>
     </g>
    </g>
    <g id="ytick_9">
     <g id="line2d_9">
      <g>
       <use style="stroke:#000000;stroke-width:0.8;" x="20.736" xlink:href="#mba95b2afbb" y="284.372174"/>
      </g>
     </g>
     <g id="text_9">
      <!-- 12 -->
      <g transform="translate(2.777065 288.177347)scale(0.11 -0.11)">
       <use transform="scale(0.996264)" xlink:href="#CMSS17-49"/>
       <use transform="translate(46.843624 0)scale(0.996264)" xlink:href="#CMSS17-50"/>
      </g>
     </g>
    </g>
    <g id="ytick_10">
     <g id="line2d_10">
      <g>
       <use style="stroke:#000000;stroke-width:0.8;" x="20.736" xlink:href="#mba95b2afbb" y="263.12"/>
      </g>
     </g>
     <g id="text_10">
      <!-- 11 -->
      <g transform="translate(2.777065 266.925173)scale(0.11 -0.11)">
       <use transform="scale(0.996264)" xlink:href="#CMSS17-49"/>
       <use transform="translate(46.843624 0)scale(0.996264)" xlink:href="#CMSS17-49"/>
      </g>
     </g>
    </g>
    <g id="ytick_11">
     <g id="line2d_11">
      <g>
       <use style="stroke:#000000;stroke-width:0.8;" x="20.736" xlink:href="#mba95b2afbb" y="241.867826"/>
      </g>
     </g>
     <g id="text_11">
      <!-- 10 -->
      <g transform="translate(2.777065 245.672999)scale(0.11 -0.11)">
       <use transform="scale(0.996264)" xlink:href="#CMSS17-49"/>
       <use transform="translate(46.843624 0)scale(0.996264)" xlink:href="#CMSS17-48"/>
      </g>
     </g>
    </g>
    <g id="ytick_12">
     <g id="line2d_12">
      <g>
       <use style="stroke:#000000;stroke-width:0.8;" x="20.736" xlink:href="#mba95b2afbb" y="220.615652"/>
      </g>
     </g>
     <g id="text_12">
      <!-- 9 -->
      <g transform="translate(8.256533 224.420826)scale(0.11 -0.11)">
       <use transform="scale(0.996264)" xlink:href="#CMSS17-57"/>
      </g>
     </g>
    </g>
    <g id="ytick_13">
     <g id="line2d_13">
      <g>
       <use style="stroke:#000000;stroke-width:0.8;" x="20.736" xlink:href="#mba95b2afbb" y="199.363478"/>
      </g>
     </g>
     <g id="text_13">
      <!-- 8 -->
      <g transform="translate(8.256533 203.168652)scale(0.11 -0.11)">
       <use transform="scale(0.996264)" xlink:href="#CMSS17-56"/>
      </g>
     </g>
    </g>
    <g id="ytick_14">
     <g id="line2d_14">
      <g>
       <use style="stroke:#000000;stroke-width:0.8;" x="20.736" xlink:href="#mba95b2afbb" y="178.111304"/>
      </g>
     </g>
     <g id="text_14">
      <!-- 7 -->
      <g transform="translate(8.256533 181.916478)scale(0.11 -0.11)">
       <use transform="scale(0.996264)" xlink:href="#CMSS17-55"/>
      </g>
     </g>
    </g>
    <g id="ytick_15">
     <g id="line2d_15">
      <g>
       <use style="stroke:#000000;stroke-width:0.8;" x="20.736" xlink:href="#mba95b2afbb" y="156.85913"/>
      </g>
     </g>
     <g id="text_15">
      <!-- 6 -->
      <g transform="translate(8.256533 160.664304)scale(0.11 -0.11)">
       <use transform="scale(0.996264)" xlink:href="#CMSS17-54"/>
      </g>
     </g>
    </g>
    <g id="ytick_16">
     <g id="line2d_16">
      <g>
       <use style="stroke:#000000;stroke-width:0.8;" x="20.736" xlink:href="#mba95b2afbb" y="135.606957"/>
      </g>
     </g>
     <g id="text_16">
      <!-- 5 -->
      <g transform="translate(8.256533 139.41213)scale(0.11 -0.11)">
       <use transform="scale(0.996264)" xlink:href="#CMSS17-53"/>
      </g>
     </g>
    </g>
    <g id="ytick_17">
     <g id="line2d_17">
      <g>
       <use style="stroke:#000000;stroke-width:0.8;" x="20.736" xlink:href="#mba95b2afbb" y="114.354783"/>
      </g>
     </g>
     <g id="text_17">
      <!-- 4 -->
      <g transform="translate(8.256533 118.159956)scale(0.11 -0.11)">
       <use transform="scale(0.996264)" xlink:href="#CMSS17-52"/>
      </g>
     </g>
    </g>
    <g id="ytick_18">
     <g id="line2d_18">
      <g>
       <use style="stroke:#000000;stroke-width:0.8;" x="20.736" xlink:href="#mba95b2afbb" y="93.102609"/>
      </g>
     </g>
     <g id="text_18">
      <!-- 3 -->
      <g transform="translate(8.256533 96.907782)scale(0.11 -0.11)">
       <use transform="scale(0.996264)" xlink:href="#CMSS17-51"/>
      </g>
     </g>
    </g>
    <g id="ytick_19">
     <g id="line2d_19">
      <g>
       <use style="stroke:#000000;stroke-width:0.8;" x="20.736" xlink:href="#mba95b2afbb" y="71.850435"/>
      </g>
     </g>
     <g id="text_19">
      <!-- 2 -->
      <g transform="translate(8.256533 75.655608)scale(0.11 -0.11)">
       <use transform="scale(0.996264)" xlink:href="#CMSS17-50"/>
      </g>
     </g>
    </g>
    <g id="ytick_20">
     <g id="line2d_20">
      <g>
       <use style="stroke:#000000;stroke-width:0.8;" x="20.736" xlink:href="#mba95b2afbb" y="50.598261"/>
      </g>
     </g>
     <g id="text_20">
      <!-- 1 -->
      <g transform="translate(8.256533 54.403434)scale(0.11 -0.11)">
       <use transform="scale(0.996264)" xlink:href="#CMSS17-49"/>
      </g>
     </g>
    </g>
   </g>
   <g id="LineCollection_1">
    <path clip-path="url(#p9061d4812b)" d="M 83.469474 454.389565 
L 83.469474 39.972174 
" style="fill:none;stroke:#000000;stroke-dasharray:1,1.65;stroke-dashoffset:0;stroke-opacity:0.7;"/>
   </g>
   <g id="LineCollection_2">
    <path clip-path="url(#p9061d4812b)" d="M 181.490526 454.389565 
L 181.490526 39.972174 
" style="fill:none;stroke:#000000;stroke-dasharray:1,1.65;stroke-dashoffset:0;stroke-opacity:0.7;"/>
   </g>
   <g id="line2d_21">
    <path clip-path="url(#p9061d4812b)" d="M 83.469474 50.598261 
" style="fill:none;stroke:#eb2f06;stroke-linecap:square;stroke-width:1.5;"/>
    <defs>
     <path d="M 0 3 
C 0.795609 3 1.55874 2.683901 2.12132 2.12132 
C 2.683901 1.55874 3 0.795609 3 0 
C 3 -0.795609 2.683901 -1.55874 2.12132 -2.12132 
C 1.55874 -2.683901 0.795609 -3 0 -3 
C -0.795609 -3 -1.55874 -2.683901 -2.12132 -2.12132 
C -2.683901 -1.55874 -3 -0.795609 -3 0 
C -3 0.795609 -2.683901 1.55874 -2.12132 2.12132 
C -1.55874 2.683901 -0.795609 3 0 3 
z
" id="m0fbb70be41" style="stroke:#eb2f06;"/>
    </defs>
    <g clip-path="url(#p9061d4812b)">
     <use style="fill:#eb2f06;stroke:#eb2f06;" x="83.469474" xlink:href="#m0fbb70be41" y="50.598261"/>
    </g>
   </g>
   <g id="line2d_22">
    <path clip-path="url(#p9061d4812b)" d="M 83.469474 71.850435 
" style="fill:none;stroke:#eb2f06;stroke-linecap:square;stroke-width:1.5;"/>
    <g clip-path="url(#p9061d4812b)">
     <use style="fill:#eb2f06;stroke:#eb2f06;" x="83.469474" xlink:href="#m0fbb70be41" y="71.850435"/>
    </g>
   </g>
   <g id="line2d_23">
    <path clip-path="url(#p9061d4812b)" d="M 181.490526 71.850435 
" style="fill:none;stroke:#eb2f06;stroke-linecap:square;stroke-width:1.5;"/>
    <g clip-path="url(#p9061d4812b)">
     <use style="fill:#eb2f06;stroke:#eb2f06;" x="181.490526" xlink:href="#m0fbb70be41" y="71.850435"/>
    </g>
   </g>
   <g id="line2d_24">
    <path clip-path="url(#p9061d4812b)" d="M 83.469474 93.102609 
" style="fill:none;stroke:#eb2f06;stroke-linecap:square;stroke-width:1.5;"/>
    <g clip-path="url(#p9061d4812b)">
     <use style="fill:#eb2f06;stroke:#eb2f06;" x="83.469474" xlink:href="#m0fbb70be41" y="93.102609"/>
    </g>
   </g>
   <g id="line2d_25">
    <path clip-path="url(#p9061d4812b)" d="M 181.490526 93.102609 
" style="fill:none;stroke:#eb2f06;stroke-linecap:square;stroke-width:1.5;"/>
    <g clip-path="url(#p9061d4812b)">
     <use style="fill:#eb2f06;stroke:#eb2f06;" x="181.490526" xlink:href="#m0fbb70be41" y="93.102609"/>
    </g>
   </g>
   <g id="line2d_26">
    <path clip-path="url(#p9061d4812b)" d="M 83.469474 114.354783 
" style="fill:none;stroke:#eb2f06;stroke-linecap:square;stroke-width:1.5;"/>
    <g clip-path="url(#p9061d4812b)">
     <use style="fill:#eb2f06;stroke:#eb2f06;" x="83.469474" xlink:href="#m0fbb70be41" y="114.354783"/>
    </g>
   </g>
   <g id="line2d_27">
    <path clip-path="url(#p9061d4812b)" d="M 83.469474 135.606957 
" style="fill:none;stroke:#eb2f06;stroke-linecap:square;stroke-width:1.5;"/>
    <g clip-path="url(#p9061d4812b)">
     <use style="fill:#eb2f06;stroke:#eb2f06;" x="83.469474" xlink:href="#m0fbb70be41" y="135.606957"/>
    </g>
   </g>
   <g id="line2d_28">
    <path clip-path="url(#p9061d4812b)" d="M 181.490526 135.606957 
" style="fill:none;stroke:#eb2f06;stroke-linecap:square;stroke-width:1.5;"/>
    <g clip-path="url(#p9061d4812b)">
     <use style="fill:#eb2f06;stroke:#eb2f06;" x="181.490526" xlink:href="#m0fbb70be41" y="135.606957"/>
    </g>
   </g>
   <g id="line2d_29">
    <path clip-path="url(#p9061d4812b)" d="M 83.469474 156.85913 
" style="fill:none;stroke:#eb2f06;stroke-linecap:square;stroke-width:1.5;"/>
    <g clip-path="url(#p9061d4812b)">
     <use style="fill:#eb2f06;stroke:#eb2f06;" x="83.469474" xlink:href="#m0fbb70be41" y="156.85913"/>
    </g>
   </g>
   <g id="line2d_30">
    <path clip-path="url(#p9061d4812b)" d="M 181.490526 156.85913 
" style="fill:none;stroke:#eb2f06;stroke-linecap:square;stroke-width:1.5;"/>
    <g clip-path="url(#p9061d4812b)">
     <use style="fill:#eb2f06;stroke:#eb2f06;" x="181.490526" xlink:href="#m0fbb70be41" y="156.85913"/>
    </g>
   </g>
   <g id="line2d_31">
    <path clip-path="url(#p9061d4812b)" d="M 83.469474 178.111304 
L 181.490526 50.598261 
" style="fill:none;stroke:#eb2f06;stroke-dasharray:1.5,2.475;stroke-dashoffset:0;stroke-width:1.5;"/>
    <g clip-path="url(#p9061d4812b)">
     <use style="fill:#eb2f06;stroke:#eb2f06;" x="83.469474" xlink:href="#m0fbb70be41" y="178.111304"/>
     <use style="fill:#eb2f06;stroke:#eb2f06;" x="181.490526" xlink:href="#m0fbb70be41" y="50.598261"/>
    </g>
   </g>
   <g id="line2d_32">
    <path clip-path="url(#p9061d4812b)" d="M 181.490526 178.111304 
" style="fill:none;stroke:#eb2f06;stroke-linecap:square;stroke-width:1.5;"/>
    <g clip-path="url(#p9061d4812b)">
     <use style="fill:#eb2f06;stroke:#eb2f06;" x="181.490526" xlink:href="#m0fbb70be41" y="178.111304"/>
    </g>
   </g>
   <g id="line2d_33">
    <path clip-path="url(#p9061d4812b)" d="M 83.469474 199.363478 
L 181.490526 114.354783 
" style="fill:none;stroke:#008000;stroke-dasharray:1.5,2.475;stroke-dashoffset:0;stroke-width:1.5;"/>
    <defs>
     <path d="M 0 3 
C 0.795609 3 1.55874 2.683901 2.12132 2.12132 
C 2.683901 1.55874 3 0.795609 3 0 
C 3 -0.795609 2.683901 -1.55874 2.12132 -2.12132 
C 1.55874 -2.683901 0.795609 -3 0 -3 
C -0.795609 -3 -1.55874 -2.683901 -2.12132 -2.12132 
C -2.683901 -1.55874 -3 -0.795609 -3 0 
C -3 0.795609 -2.683901 1.55874 -2.12132 2.12132 
C -1.55874 2.683901 -0.795609 3 0 3 
z
" id="mdf55d432d9" style="stroke:#008000;"/>
    </defs>
    <g clip-path="url(#p9061d4812b)">
     <use style="fill:#008000;stroke:#008000;" x="83.469474" xlink:href="#mdf55d432d9" y="199.363478"/>
     <use style="fill:#008000;stroke:#008000;" x="181.490526" xlink:href="#mdf55d432d9" y="114.354783"/>
    </g>
   </g>
   <g id="line2d_34">
    <path clip-path="url(#p9061d4812b)" d="M 181.490526 199.363478 
" style="fill:none;stroke:#eb2f06;stroke-linecap:square;stroke-width:1.5;"/>
    <g clip-path="url(#p9061d4812b)">
     <use style="fill:#eb2f06;stroke:#eb2f06;" x="181.490526" xlink:href="#m0fbb70be41" y="199.363478"/>
    </g>
   </g>
   <g id="line2d_35">
    <path clip-path="url(#p9061d4812b)" d="M 83.469474 220.615652 
" style="fill:none;stroke:#eb2f06;stroke-linecap:square;stroke-width:1.5;"/>
    <g clip-path="url(#p9061d4812b)">
     <use style="fill:#eb2f06;stroke:#eb2f06;" x="83.469474" xlink:href="#m0fbb70be41" y="220.615652"/>
    </g>
   </g>
   <g id="line2d_36">
    <path clip-path="url(#p9061d4812b)" d="M 83.469474 241.867826 
L 181.490526 241.867826 
" style="fill:none;stroke:#eb2f06;stroke-linecap:square;stroke-width:1.5;"/>
    <g clip-path="url(#p9061d4812b)">
     <use style="fill:#eb2f06;stroke:#eb2f06;" x="83.469474" xlink:href="#m0fbb70be41" y="241.867826"/>
     <use style="fill:#eb2f06;stroke:#eb2f06;" x="181.490526" xlink:href="#m0fbb70be41" y="241.867826"/>
    </g>
   </g>
   <g id="line2d_37">
    <path clip-path="url(#p9061d4812b)" d="M 83.469474 263.12 
" style="fill:none;stroke:#eb2f06;stroke-linecap:square;stroke-width:1.5;"/>
    <g clip-path="url(#p9061d4812b)">
     <use style="fill:#eb2f06;stroke:#eb2f06;" x="83.469474" xlink:href="#m0fbb70be41" y="263.12"/>
    </g>
   </g>
   <g id="line2d_38">
    <path clip-path="url(#p9061d4812b)" d="M 181.490526 263.12 
" style="fill:none;stroke:#eb2f06;stroke-linecap:square;stroke-width:1.5;"/>
    <g clip-path="url(#p9061d4812b)">
     <use style="fill:#eb2f06;stroke:#eb2f06;" x="181.490526" xlink:href="#m0fbb70be41" y="263.12"/>
    </g>
   </g>
   <g id="line2d_39">
    <path clip-path="url(#p9061d4812b)" d="M 83.469474 284.372174 
" style="fill:none;stroke:#eb2f06;stroke-linecap:square;stroke-width:1.5;"/>
    <g clip-path="url(#p9061d4812b)">
     <use style="fill:#eb2f06;stroke:#eb2f06;" x="83.469474" xlink:href="#m0fbb70be41" y="284.372174"/>
    </g>
   </g>
   <g id="line2d_40">
    <path clip-path="url(#p9061d4812b)" d="M 181.490526 284.372174 
" style="fill:none;stroke:#eb2f06;stroke-linecap:square;stroke-width:1.5;"/>
    <g clip-path="url(#p9061d4812b)">
     <use style="fill:#eb2f06;stroke:#eb2f06;" x="181.490526" xlink:href="#m0fbb70be41" y="284.372174"/>
    </g>
   </g>
   <g id="line2d_41">
    <path clip-path="url(#p9061d4812b)" d="M 83.469474 305.624348 
" style="fill:none;stroke:#eb2f06;stroke-linecap:square;stroke-width:1.5;"/>
    <g clip-path="url(#p9061d4812b)">
     <use style="fill:#eb2f06;stroke:#eb2f06;" x="83.469474" xlink:href="#m0fbb70be41" y="305.624348"/>
    </g>
   </g>
   <g id="line2d_42">
    <path clip-path="url(#p9061d4812b)" d="M 181.490526 305.624348 
" style="fill:none;stroke:#eb2f06;stroke-linecap:square;stroke-width:1.5;"/>
    <g clip-path="url(#p9061d4812b)">
     <use style="fill:#eb2f06;stroke:#eb2f06;" x="181.490526" xlink:href="#m0fbb70be41" y="305.624348"/>
    </g>
   </g>
   <g id="line2d_43">
    <path clip-path="url(#p9061d4812b)" d="M 83.469474 326.876522 
" style="fill:none;stroke:#eb2f06;stroke-linecap:square;stroke-width:1.5;"/>
    <g clip-path="url(#p9061d4812b)">
     <use style="fill:#eb2f06;stroke:#eb2f06;" x="83.469474" xlink:href="#m0fbb70be41" y="326.876522"/>
    </g>
   </g>
   <g id="line2d_44">
    <path clip-path="url(#p9061d4812b)" d="M 181.490526 326.876522 
" style="fill:none;stroke:#eb2f06;stroke-linecap:square;stroke-width:1.5;"/>
    <g clip-path="url(#p9061d4812b)">
     <use style="fill:#eb2f06;stroke:#eb2f06;" x="181.490526" xlink:href="#m0fbb70be41" y="326.876522"/>
    </g>
   </g>
   <g id="line2d_45">
    <path clip-path="url(#p9061d4812b)" d="M 83.469474 348.128696 
L 181.490526 220.615652 
" style="fill:none;stroke:#008000;stroke-dasharray:1.5,2.475;stroke-dashoffset:0;stroke-width:1.5;"/>
    <g clip-path="url(#p9061d4812b)">
     <use style="fill:#008000;stroke:#008000;" x="83.469474" xlink:href="#mdf55d432d9" y="348.128696"/>
     <use style="fill:#008000;stroke:#008000;" x="181.490526" xlink:href="#mdf55d432d9" y="220.615652"/>
    </g>
   </g>
   <g id="line2d_46">
    <path clip-path="url(#p9061d4812b)" d="M 181.490526 348.128696 
" style="fill:none;stroke:#eb2f06;stroke-linecap:square;stroke-width:1.5;"/>
    <g clip-path="url(#p9061d4812b)">
     <use style="fill:#eb2f06;stroke:#eb2f06;" x="181.490526" xlink:href="#m0fbb70be41" y="348.128696"/>
    </g>
   </g>
   <g id="line2d_47">
    <path clip-path="url(#p9061d4812b)" d="M 83.469474 369.38087 
" style="fill:none;stroke:#eb2f06;stroke-linecap:square;stroke-width:1.5;"/>
    <g clip-path="url(#p9061d4812b)">
     <use style="fill:#eb2f06;stroke:#eb2f06;" x="83.469474" xlink:href="#m0fbb70be41" y="369.38087"/>
    </g>
   </g>
   <g id="line2d_48">
    <path clip-path="url(#p9061d4812b)" d="M 181.490526 369.38087 
" style="fill:none;stroke:#eb2f06;stroke-linecap:square;stroke-width:1.5;"/>
    <g clip-path="url(#p9061d4812b)">
     <use style="fill:#eb2f06;stroke:#eb2f06;" x="181.490526" xlink:href="#m0fbb70be41" y="369.38087"/>
    </g>
   </g>
   <g id="line2d_49">
    <path clip-path="url(#p9061d4812b)" d="M 83.469474 390.633043 
" style="fill:none;stroke:#eb2f06;stroke-linecap:square;stroke-width:1.5;"/>
    <g clip-path="url(#p9061d4812b)">
     <use style="fill:#eb2f06;stroke:#eb2f06;" x="83.469474" xlink:href="#m0fbb70be41" y="390.633043"/>
    </g>
   </g>
   <g id="line2d_50">
    <path clip-path="url(#p9061d4812b)" d="M 181.490526 390.633043 
" style="fill:none;stroke:#eb2f06;stroke-linecap:square;stroke-width:1.5;"/>
    <g clip-path="url(#p9061d4812b)">
     <use style="fill:#eb2f06;stroke:#eb2f06;" x="181.490526" xlink:href="#m0fbb70be41" y="390.633043"/>
    </g>
   </g>
   <g id="line2d_51">
    <path clip-path="url(#p9061d4812b)" d="M 83.469474 411.885217 
" style="fill:none;stroke:#eb2f06;stroke-linecap:square;stroke-width:1.5;"/>
    <g clip-path="url(#p9061d4812b)">
     <use style="fill:#eb2f06;stroke:#eb2f06;" x="83.469474" xlink:href="#m0fbb70be41" y="411.885217"/>
    </g>
   </g>
   <g id="line2d_52">
    <path clip-path="url(#p9061d4812b)" d="M 181.490526 411.885217 
" style="fill:none;stroke:#eb2f06;stroke-linecap:square;stroke-width:1.5;"/>
    <g clip-path="url(#p9061d4812b)">
     <use style="fill:#eb2f06;stroke:#eb2f06;" x="181.490526" xlink:href="#m0fbb70be41" y="411.885217"/>
    </g>
   </g>
   <g id="line2d_53">
    <path clip-path="url(#p9061d4812b)" d="M 83.469474 433.137391 
" style="fill:none;stroke:#eb2f06;stroke-linecap:square;stroke-width:1.5;"/>
    <g clip-path="url(#p9061d4812b)">
     <use style="fill:#eb2f06;stroke:#eb2f06;" x="83.469474" xlink:href="#m0fbb70be41" y="433.137391"/>
    </g>
   </g>
   <g id="line2d_54">
    <path clip-path="url(#p9061d4812b)" d="M 181.490526 433.137391 
" style="fill:none;stroke:#eb2f06;stroke-linecap:square;stroke-width:1.5;"/>
    <g clip-path="url(#p9061d4812b)">
     <use style="fill:#eb2f06;stroke:#eb2f06;" x="181.490526" xlink:href="#m0fbb70be41" y="433.137391"/>
    </g>
   </g>
   <g id="line2d_55">
    <path clip-path="url(#p9061d4812b)" d="M 83.469474 454.389565 
" style="fill:none;stroke:#eb2f06;stroke-linecap:square;stroke-width:1.5;"/>
    <g clip-path="url(#p9061d4812b)">
     <use style="fill:#eb2f06;stroke:#eb2f06;" x="83.469474" xlink:href="#m0fbb70be41" y="454.389565"/>
    </g>
   </g>
   <g id="line2d_56">
    <path clip-path="url(#p9061d4812b)" d="M 181.490526 454.389565 
" style="fill:none;stroke:#eb2f06;stroke-linecap:square;stroke-width:1.5;"/>
    <g clip-path="url(#p9061d4812b)">
     <use style="fill:#eb2f06;stroke:#eb2f06;" x="181.490526" xlink:href="#m0fbb70be41" y="454.389565"/>
    </g>
   </g>
   <g id="line2d_57">
    <path clip-path="url(#p9061d4812b)" d="M 83.469474 135.606957 
L 181.490526 135.606957 
" style="fill:none;stroke:#008000;stroke-linecap:square;stroke-width:1.5;"/>
    <g clip-path="url(#p9061d4812b)">
     <use style="fill:#008000;stroke:#008000;" x="83.469474" xlink:href="#mdf55d432d9" y="135.606957"/>
     <use style="fill:#008000;stroke:#008000;" x="181.490526" xlink:href="#mdf55d432d9" y="135.606957"/>
    </g>
   </g>
   <g id="line2d_58">
    <path clip-path="url(#p9061d4812b)" d="M 83.469474 135.606957 
L 181.490526 178.111304 
" style="fill:none;stroke:#008000;stroke-dasharray:1.5,2.475;stroke-dashoffset:0;stroke-width:1.5;"/>
    <g clip-path="url(#p9061d4812b)">
     <use style="fill:#008000;stroke:#008000;" x="83.469474" xlink:href="#mdf55d432d9" y="135.606957"/>
     <use style="fill:#008000;stroke:#008000;" x="181.490526" xlink:href="#mdf55d432d9" y="178.111304"/>
    </g>
   </g>
   <g id="line2d_59">
    <path clip-path="url(#p9061d4812b)" d="M 83.469474 411.885217 
" style="fill:none;stroke:#008000;stroke-linecap:square;stroke-width:1.5;"/>
    <g clip-path="url(#p9061d4812b)">
     <use style="fill:#008000;stroke:#008000;" x="83.469474" xlink:href="#mdf55d432d9" y="411.885217"/>
    </g>
   </g>
   <g id="line2d_60">
    <path clip-path="url(#p9061d4812b)" d="M 83.469474 390.633043 
" style="fill:none;stroke:#008000;stroke-linecap:square;stroke-width:1.5;"/>
    <g clip-path="url(#p9061d4812b)">
     <use style="fill:#008000;stroke:#008000;" x="83.469474" xlink:href="#mdf55d432d9" y="390.633043"/>
    </g>
   </g>
   <g id="line2d_61">
    <path clip-path="url(#p9061d4812b)" d="M 181.490526 369.38087 
" style="fill:none;stroke:#008000;stroke-linecap:square;stroke-width:1.5;"/>
    <g clip-path="url(#p9061d4812b)">
     <use style="fill:#008000;stroke:#008000;" x="181.490526" xlink:href="#mdf55d432d9" y="369.38087"/>
    </g>
   </g>
   <g id="line2d_62">
    <path clip-path="url(#p9061d4812b)" d="M 83.469474 348.128696 
" style="fill:none;stroke:#008000;stroke-linecap:square;stroke-width:1.5;"/>
    <g clip-path="url(#p9061d4812b)">
     <use style="fill:#008000;stroke:#008000;" x="83.469474" xlink:href="#mdf55d432d9" y="348.128696"/>
    </g>
   </g>
   <g id="line2d_63">
    <path clip-path="url(#p9061d4812b)" d="M 83.469474 305.624348 
" style="fill:none;stroke:#008000;stroke-linecap:square;stroke-width:1.5;"/>
    <g clip-path="url(#p9061d4812b)">
     <use style="fill:#008000;stroke:#008000;" x="83.469474" xlink:href="#mdf55d432d9" y="305.624348"/>
    </g>
   </g>
   <g id="line2d_64">
    <path clip-path="url(#p9061d4812b)" d="M 181.490526 284.372174 
" style="fill:none;stroke:#008000;stroke-linecap:square;stroke-width:1.5;"/>
    <g clip-path="url(#p9061d4812b)">
     <use style="fill:#008000;stroke:#008000;" x="181.490526" xlink:href="#mdf55d432d9" y="284.372174"/>
    </g>
   </g>
   <g id="line2d_65">
    <path clip-path="url(#p9061d4812b)" d="M 83.469474 263.12 
" style="fill:none;stroke:#008000;stroke-linecap:square;stroke-width:1.5;"/>
    <g clip-path="url(#p9061d4812b)">
     <use style="fill:#008000;stroke:#008000;" x="83.469474" xlink:href="#mdf55d432d9" y="263.12"/>
    </g>
   </g>
   <g id="line2d_66">
    <path clip-path="url(#p9061d4812b)" d="M 181.490526 220.615652 
" style="fill:none;stroke:#008000;stroke-linecap:square;stroke-width:1.5;"/>
    <g clip-path="url(#p9061d4812b)">
     <use style="fill:#008000;stroke:#008000;" x="181.490526" xlink:href="#mdf55d432d9" y="220.615652"/>
    </g>
   </g>
   <g id="line2d_67">
    <path clip-path="url(#p9061d4812b)" d="M 83.469474 199.363478 
" style="fill:none;stroke:#008000;stroke-linecap:square;stroke-width:1.5;"/>
    <g clip-path="url(#p9061d4812b)">
     <use style="fill:#008000;stroke:#008000;" x="83.469474" xlink:href="#mdf55d432d9" y="199.363478"/>
    </g>
   </g>
   <g id="line2d_68">
    <path clip-path="url(#p9061d4812b)" d="M 181.490526 199.363478 
" style="fill:none;stroke:#008000;stroke-linecap:square;stroke-width:1.5;"/>
    <g clip-path="url(#p9061d4812b)">
     <use style="fill:#008000;stroke:#008000;" x="181.490526" xlink:href="#mdf55d432d9" y="199.363478"/>
    </g>
   </g>
   <g id="line2d_69">
    <path clip-path="url(#p9061d4812b)" d="M 181.490526 178.111304 
" style="fill:none;stroke:#008000;stroke-linecap:square;stroke-width:1.5;"/>
    <g clip-path="url(#p9061d4812b)">
     <use style="fill:#008000;stroke:#008000;" x="181.490526" xlink:href="#mdf55d432d9" y="178.111304"/>
    </g>
   </g>
   <g id="line2d_70">
    <path clip-path="url(#p9061d4812b)" d="M 181.490526 156.85913 
" style="fill:none;stroke:#008000;stroke-linecap:square;stroke-width:1.5;"/>
    <g clip-path="url(#p9061d4812b)">
     <use style="fill:#008000;stroke:#008000;" x="181.490526" xlink:href="#mdf55d432d9" y="156.85913"/>
    </g>
   </g>
   <g id="line2d_71">
    <path clip-path="url(#p9061d4812b)" d="M 83.469474 135.606957 
" style="fill:none;stroke:#008000;stroke-linecap:square;stroke-width:1.5;"/>
    <g clip-path="url(#p9061d4812b)">
     <use style="fill:#008000;stroke:#008000;" x="83.469474" xlink:href="#mdf55d432d9" y="135.606957"/>
    </g>
   </g>
   <g id="line2d_72">
    <path clip-path="url(#p9061d4812b)" d="M 181.490526 135.606957 
" style="fill:none;stroke:#008000;stroke-linecap:square;stroke-width:1.5;"/>
    <g clip-path="url(#p9061d4812b)">
     <use style="fill:#008000;stroke:#008000;" x="181.490526" xlink:href="#mdf55d432d9" y="135.606957"/>
    </g>
   </g>
   <g id="line2d_73">
    <path clip-path="url(#p9061d4812b)" d="M 181.490526 114.354783 
" style="fill:none;stroke:#008000;stroke-linecap:square;stroke-width:1.5;"/>
    <g clip-path="url(#p9061d4812b)">
     <use style="fill:#008000;stroke:#008000;" x="181.490526" xlink:href="#mdf55d432d9" y="114.354783"/>
    </g>
   </g>
   <g id="line2d_74">
    <path clip-path="url(#p9061d4812b)" d="M 181.490526 71.850435 
" style="fill:none;stroke:#008000;stroke-linecap:square;stroke-width:1.5;"/>
    <g clip-path="url(#p9061d4812b)">
     <use style="fill:#008000;stroke:#008000;" x="181.490526" xlink:href="#mdf55d432d9" y="71.850435"/>
    </g>
   </g>
   <g id="patch_3">
    <path d="M 20.736 458.64 
L 20.736 18.72 
" style="fill:none;opacity:0;"/>
   </g>
   <g id="patch_4">
    <path style="fill:none;opacity:0;"/>
   </g>
   <g id="patch_5">
    <path d="M 20.736 458.64 
L 231.4 458.64 
" style="fill:none;opacity:0;"/>
   </g>
   <g id="patch_6">
    <path d="M 20.736 18.72 
L 231.4 18.72 
" style="fill:none;opacity:0;"/>
   </g>
   <g id="text_21">
    <!-- $\left(\nu +2\right)$ -->
    <defs>
     <path d="M 30.59375 -24.390625 
C 30.59375 -24.296875 30.59375 -24.09375 30.296875 -23.796875 
C 25.703125 -19.125 13.40625 -6.359375 13.40625 24.703125 
C 13.40625 55.765625 25.5 68.421875 30.40625 73.390625 
C 30.40625 73.5 30.59375 73.703125 30.59375 74 
C 30.59375 74.296875 30.296875 74.5 29.90625 74.5 
C 28.796875 74.5 20.296875 67.125 15.40625 56.15625 
C 10.40625 45.109375 9 34.359375 9 24.8125 
C 9 17.625 9.703125 5.484375 15.703125 -7.359375 
C 20.5 -17.734375 28.703125 -25 29.90625 -25 
C 30.40625 -25 30.59375 -24.796875 30.59375 -24.390625 
z
" id="CMR17-40"/>
     <path d="M 22 43.015625 
C 22 43.40625 21.703125 44 20.90625 44 
C 20.203125 44 10.796875 42.984375 9.296875 42.984375 
C 8.203125 42.875 7.203125 42.78125 7.203125 40.984375 
C 7.203125 40 8 40 9.40625 40 
C 14.09375 40 14.40625 39.296875 14.40625 38.203125 
C 14.40625 37.796875 14.203125 36.609375 14.09375 36.21875 
L 5.296875 1 
C 5.296875 0.59375 5.59375 0 6.296875 0 
L 8.40625 0 
C 9.796875 0 25 3.59375 36.703125 15.5625 
C 49.59375 28.84375 51.40625 41.125 51.40625 41.515625 
C 51.40625 43.109375 50.09375 44 48.796875 44 
C 45.90625 44 45.203125 41.3125 45 40.609375 
C 39.09375 19.75 25.40625 7.390625 12.09375 3 
z
" id="CMMI12-23"/>
     <path d="M 37.703125 23 
L 64.203125 23 
C 65.59375 23 67.296875 23 67.296875 24.6875 
C 67.296875 26.484375 65.703125 26.484375 64.203125 26.484375 
L 37.703125 26.484375 
L 37.703125 52.90625 
C 37.703125 54.296875 37.703125 56 36 56 
C 34.203125 56 34.203125 54.40625 34.203125 52.90625 
L 34.203125 26.484375 
L 7.703125 26.484375 
C 6.296875 26.484375 4.59375 26.484375 4.59375 24.796875 
C 4.59375 23 6.203125 23 7.703125 23 
L 34.203125 23 
L 34.203125 -3.40625 
C 34.203125 -4.796875 34.203125 -6.5 35.90625 -6.5 
C 37.703125 -6.5 37.703125 -4.90625 37.703125 -3.40625 
z
" id="CMR17-43"/>
     <path d="M 41.703125 15.453125 
L 39.90625 15.453125 
C 38.90625 8.375 38.09375 7.171875 37.703125 6.5625 
C 37.203125 5.765625 30 5.765625 28.59375 5.765625 
L 9.40625 5.765625 
C 13 9.671875 20 16.75 28.5 24.953125 
C 34.59375 30.734375 41.703125 37.53125 41.703125 47.421875 
C 41.703125 59.21875 32.296875 66 21.796875 66 
C 10.796875 66 4.09375 56.3125 4.09375 47.34375 
C 4.09375 43.4375 7 42.9375 8.203125 42.9375 
C 9.203125 42.9375 12.203125 43.546875 12.203125 47.03125 
C 12.203125 50.109375 9.59375 51 8.203125 51 
C 7.59375 51 7 50.90625 6.59375 50.703125 
C 8.5 59.21875 14.296875 63.40625 20.40625 63.40625 
C 29.09375 63.40625 34.796875 56.515625 34.796875 47.421875 
C 34.796875 38.734375 29.703125 31.25 24 24.75 
L 4.09375 2.28125 
L 4.09375 0 
L 39.296875 0 
z
" id="CMR17-50"/>
     <path d="M 26.296875 24.703125 
C 26.296875 31.875 25.59375 44.015625 19.59375 56.859375 
C 14.796875 67.234375 6.59375 74.5 5.40625 74.5 
C 5.09375 74.5 4.703125 74.390625 4.703125 73.890625 
C 4.703125 73.703125 4.796875 73.59375 4.90625 73.390625 
C 9.703125 68.40625 21.90625 55.75 21.90625 24.75 
C 21.90625 -6.359375 9.796875 -19.015625 4.90625 -24.015625 
C 4.796875 -24.203125 4.703125 -24.3125 4.703125 -24.5 
C 4.703125 -25 5.09375 -25 5.40625 -25 
C 6.5 -25 15 -17.625 19.90625 -6.65625 
C 24.90625 4.390625 26.296875 15.140625 26.296875 24.703125 
z
" id="CMR17-41"/>
    </defs>
    <g transform="translate(34.761006 457.627423)scale(0.13 -0.13)">
     <use transform="translate(0 0.003177)scale(0.996264)" xlink:href="#CMR17-40"/>
     <use transform="translate(35.280768 0)scale(0.996264)" xlink:href="#CMMI12-23"/>
     <use transform="translate(111.902768 0)scale(0.996264)" xlink:href="#CMR17-43"/>
     <use transform="translate(205.756763 0)scale(0.996264)" xlink:href="#CMR17-50"/>
     <use transform="translate(251.44724 0.003177)scale(0.996264)" xlink:href="#CMR17-41"/>
    </g>
   </g>
   <g id="text_22">
    <!-- ${\int }_{0}^{\infty }$ -->
    <defs>
     <path d="M 27.203125 -88 
C 25.90625 -104.40625 22.296875 -108.90625 16.59375 -108.90625 
C 15.296875 -108.90625 12.296875 -108.59375 10.203125 -106.8125 
C 13.09375 -106.421875 13.90625 -104.109375 13.90625 -102.71875 
C 13.90625 -99.796875 11.703125 -98.5 9.796875 -98.5 
C 7.796875 -98.5 5.59375 -99.796875 5.59375 -102.796875 
C 5.59375 -107.59375 10.59375 -111.09375 16.59375 -111.09375 
C 26.09375 -111.09375 30.90625 -102.40625 33.09375 -93.40625 
C 34.40625 -88.203125 38 -59.09375 38.796875 -47.984375 
L 40.703125 -23.078125 
C 42.09375 -4.6875 45.5 -2.1875 50 -2.1875 
C 51 -2.1875 54.09375 -2.390625 56.296875 -4.28125 
C 53.40625 -4.6875 52.59375 -6.984375 52.59375 -8.390625 
C 52.59375 -11.28125 54.796875 -12.578125 56.703125 -12.578125 
C 58.703125 -12.578125 60.90625 -11.28125 60.90625 -8.28125 
C 60.90625 -3.484375 55.90625 0.015625 49.90625 0.015625 
C 40.40625 0.015625 36.5 -9.6875 34.796875 -17.28125 
C 33.59375 -22.78125 30 -50.984375 29.09375 -63.09375 
z
" id="CMEX10-82"/>
     <path d="M 50.796875 27.03125 
C 45.40625 33.84375 44.203125 35.34375 41.09375 37.84375 
C 35.5 42.34375 29.90625 44.140625 24.796875 44.140625 
C 13.09375 44.140625 5.5 33.15625 5.5 21.46875 
C 5.5 9.984375 12.90625 -1.09375 24.40625 -1.09375 
C 35.90625 -1.09375 44.203125 7.984375 49.09375 15.96875 
C 54.5 9.1875 55.703125 7.6875 58.796875 5.1875 
C 64.40625 0.703125 70 -1.09375 75.09375 -1.09375 
C 86.796875 -1.09375 94.40625 9.890625 94.40625 21.5625 
C 94.40625 33.046875 87 44.140625 75.5 44.140625 
C 64 44.140625 55.703125 35.03125 50.796875 27.03125 
z
M 53.40625 23.65625 
C 57.5 30.859375 64.90625 40.9375 76.203125 40.9375 
C 86.796875 40.9375 92.203125 30.546875 92.203125 21.5625 
C 92.203125 11.765625 85.5 3.6875 76.703125 3.6875 
C 70.90625 3.6875 66.40625 7.890625 64.296875 9.96875 
C 61.796875 12.671875 59.5 15.765625 53.40625 23.65625 
z
M 46.5 19.375 
C 42.40625 12.1875 35 2.09375 23.703125 2.09375 
C 13.09375 2.09375 7.703125 12.484375 7.703125 21.46875 
C 7.703125 31.25 14.40625 39.34375 23.203125 39.34375 
C 29 39.34375 33.5 35.140625 35.59375 33.046875 
C 38.09375 30.359375 40.40625 27.25 46.5 19.375 
z
" id="CMSY10-49"/>
     <path d="M 42 31.640625 
C 42 37.75 41.90625 48.125 37.703125 56.109375 
C 34 63.109375 28.09375 65.59375 22.90625 65.59375 
C 18.09375 65.59375 12 63.40625 8.203125 56.203125 
C 4.203125 48.71875 3.796875 39.4375 3.796875 31.640625 
C 3.796875 25.953125 3.90625 17.28125 7 9.671875 
C 11.296875 -0.609375 19 -2 22.90625 -2 
C 27.5 -2 34.5 -0.109375 38.59375 9.375 
C 41.59375 16.28125 42 24.359375 42 31.640625 
z
M 22.90625 -0.40625 
C 16.5 -0.40625 12.703125 5.078125 11.296875 12.6875 
C 10.203125 18.5625 10.203125 27.15625 10.203125 32.75 
C 10.203125 40.4375 10.203125 46.828125 11.5 52.921875 
C 13.40625 61.390625 19 64 22.90625 64 
C 27 64 32.296875 61.296875 34.203125 53.125 
C 35.5 47.4375 35.59375 40.734375 35.59375 32.75 
C 35.59375 26.25 35.59375 18.265625 34.40625 12.375 
C 32.296875 1.484375 26.40625 -0.40625 22.90625 -0.40625 
z
" id="CMR17-48"/>
    </defs>
    <g transform="translate(191.292632 459.675126)scale(0.13 -0.13)">
     <use transform="translate(0 114.184008)scale(0.996264)" xlink:href="#CMEX10-82"/>
     <use transform="translate(66.417803 87.257516)scale(0.697382)" xlink:href="#CMSY10-49"/>
     <use transform="translate(66.417803 0)scale(0.697382)" xlink:href="#CMR17-48"/>
    </g>
   </g>
   <g id="text_23">
    <!-- $k=-\infty $ -->
    <defs>
     <path d="M 28.09375 66.515625 
C 28.203125 66.921875 28.40625 67.515625 28.40625 68 
C 28.40625 69 27.40625 69 27.203125 69 
C 27.09375 69 23.5 68.640625 21.703125 68.390625 
C 20 68.390625 18.5 68.09375 16.703125 68.09375 
C 14.296875 67.890625 13.59375 67.796875 13.59375 66 
C 13.59375 65 14.59375 65 15.59375 65 
C 20.703125 65 20.703125 64.109375 20.703125 63.125 
C 20.703125 62.734375 20.703125 62.53125 20.203125 60.75 
L 5.90625 3.875 
C 5.5 2.375 5.5 2.1875 5.5 1.578125 
C 5.5 -0.59375 7.203125 -1 8.203125 -1 
C 11 -1 11.59375 1.203125 12.40625 4.296875 
L 17.09375 22.953125 
C 24.296875 22.15625 28.59375 19.15625 28.59375 14.375 
C 28.59375 13.765625 28.59375 13.375 28.296875 11.875 
C 27.90625 10.375 27.90625 9.1875 27.90625 8.6875 
C 27.90625 2.890625 31.703125 -1 36.796875 -1 
C 41.40625 -1 43.796875 3.1875 44.59375 4.59375 
C 46.703125 8.28125 48 13.875 48 14.265625 
C 48 14.765625 47.59375 15.171875 47 15.171875 
C 46.09375 15.171875 46 14.765625 45.59375 13.171875 
C 44.203125 7.984375 42.09375 1 37 1 
C 35 1 33.703125 2 33.703125 5.78125 
C 33.703125 7.6875 34.09375 9.875 34.5 11.375 
C 34.90625 13.171875 34.90625 13.265625 34.90625 14.46875 
C 34.90625 20.359375 29.59375 23.65625 20.40625 24.84375 
C 24 27.046875 27.59375 30.9375 29 32.4375 
C 34.703125 38.8125 38.59375 42.015625 43.203125 42.015625 
C 45.5 42.015625 46.09375 41.40625 46.796875 40.8125 
C 43.09375 40.40625 41.703125 37.8125 41.703125 35.828125 
C 41.703125 33.421875 43.59375 32.625 45 32.625 
C 47.703125 32.625 50.09375 34.921875 50.09375 38.125 
C 50.09375 41.015625 47.796875 44 43.296875 44 
C 37.796875 44 33.296875 40.109375 26.203125 32.125 
C 25.203125 30.9375 21.5 27.140625 17.796875 25.75 
z
" id="CMMI12-107"/>
     <path d="M 64.296875 31.515625 
C 65.796875 31.515625 67.296875 31.515625 67.296875 33.203125 
C 67.296875 35 65.59375 35 63.90625 35 
L 8 35 
C 6.296875 35 4.59375 35 4.59375 33.203125 
C 4.59375 31.515625 6.09375 31.515625 7.59375 31.515625 
z
M 63.90625 14 
C 65.59375 14 67.296875 14 67.296875 15.796875 
C 67.296875 17.484375 65.796875 17.484375 64.296875 17.484375 
L 7.59375 17.484375 
C 6.09375 17.484375 4.59375 17.484375 4.59375 15.796875 
C 4.59375 14 6.296875 14 8 14 
z
" id="CMR17-61"/>
     <path d="M 65.90625 23 
C 67.59375 23 69.40625 23 69.40625 25 
C 69.40625 27 67.59375 27 65.90625 27 
L 11.796875 27 
C 10.09375 27 8.296875 27 8.296875 25 
C 8.296875 23 10.09375 23 11.796875 23 
z
" id="CMSY10-0"/>
    </defs>
    <g transform="translate(26.553731 436.375249)scale(0.13 -0.13)">
     <use transform="scale(0.996264)" xlink:href="#CMMI12-107"/>
     <use transform="translate(81.753209 0)scale(0.996264)" xlink:href="#CMR17-61"/>
     <use transform="translate(181.142007 0)scale(0.996264)" xlink:href="#CMSY10-0"/>
     <use transform="translate(258.629474 0)scale(0.996264)" xlink:href="#CMSY10-49"/>
    </g>
   </g>
   <g id="text_24">
    <!-- $\left(z\right)$ -->
    <defs>
     <path d="M 12.703125 7.59375 
C 17 12.546875 20.5 15.6875 25.5 20.25 
C 31.5 25.5 34.09375 28.015625 35.5 29.546875 
C 42.5 36.53125 46 42.390625 46 43.1875 
C 46 44 45.203125 44 45 44 
C 44.296875 44 44.09375 43.640625 43.59375 42.96875 
C 41.09375 38.96875 38.703125 36.984375 36.09375 36.984375 
C 34 36.984375 32.90625 37.828125 31 40.078125 
C 28.90625 42.421875 27.203125 44 24.296875 44 
C 17 44 12.59375 35.265625 12.59375 33.25 
C 12.59375 32.9375 12.703125 32.3125 13.59375 32.3125 
C 14.40625 32.3125 14.5 32.671875 14.796875 33.328125 
C 16.5 37.0625 21.296875 37.71875 23.203125 37.71875 
C 25.296875 37.71875 27.296875 37.125 29.40625 36.359375 
C 33.203125 35 34.796875 35 35.796875 35 
C 36.5 35 36.90625 35 37.40625 35.09375 
C 34.09375 31.15625 28.703125 26.296875 24.203125 22.15625 
L 14.09375 12.75 
C 8 6.484375 4.296875 0.515625 4.296875 -0.1875 
C 4.296875 -0.796875 4.796875 -1 5.40625 -1 
C 6 -1 6.09375 -0.890625 6.796875 0.21875 
C 8.40625 2.546875 11.59375 6 15.296875 6 
C 17.40625 6 18.40625 5.34375 20.40625 3.015625 
C 22.296875 0.953125 24 -1 27.203125 -1 
C 37 -1 42.59375 11.4375 42.59375 13.6875 
C 42.59375 14.109375 42.5 14.71875 41.5 14.71875 
C 40.703125 14.71875 40.59375 14.328125 40.296875 13.359375 
C 38.09375 7.625 32.203125 5.28125 28.296875 5.28125 
C 26.203125 5.28125 24.203125 5.875 22.09375 6.640625 
C 18.09375 8 17 8 15.703125 8 
C 14.703125 8 13.59375 8 12.703125 7.59375 
z
" id="CMMI12-122"/>
    </defs>
    <g transform="translate(191.292632 436.375249)scale(0.13 -0.13)">
     <use transform="translate(0 0.003177)scale(0.996264)" xlink:href="#CMR17-40"/>
     <use transform="translate(35.280768 0)scale(0.996264)" xlink:href="#CMMI12-122"/>
     <use transform="translate(85.035913 0.003177)scale(0.996264)" xlink:href="#CMR17-41"/>
    </g>
   </g>
   <g id="text_25">
    <!-- ${I}_{\nu }$ -->
    <defs>
     <path d="M 36.796875 60.625 
C 37.703125 64.109375 37.90625 65.109375 45.203125 65.109375 
C 47.40625 65.109375 48.203125 65.109375 48.203125 67 
C 48.203125 68 47.09375 68 46.796875 68 
C 45 68 42.796875 68 41 68 
L 28.703125 68 
C 26.703125 68 24.40625 68 22.40625 68 
C 21.59375 68 20.5 68 20.5 66.109375 
C 20.5 65.109375 21.296875 65.109375 23.296875 65.109375 
C 29.5 65.109375 29.5 64.3125 29.5 63.21875 
C 29.5 62.53125 29.296875 61.921875 29.09375 61.03125 
L 15.59375 7.375 
C 14.703125 3.890625 14.5 2.890625 7.203125 2.890625 
C 5 2.890625 4.09375 2.890625 4.09375 1 
C 4.09375 0 5.09375 0 5.59375 0 
C 7.40625 0 9.59375 0 11.40625 0 
L 23.703125 0 
C 25.703125 0 27.90625 0 29.90625 0 
C 30.703125 0 31.90625 0 31.90625 1.796875 
C 31.90625 2.890625 31.296875 2.890625 29.09375 2.890625 
C 22.90625 2.890625 22.90625 3.6875 22.90625 4.875 
C 22.90625 5.078125 22.90625 5.578125 23.296875 7.171875 
z
" id="CMMI12-73"/>
    </defs>
    <g transform="translate(63.478343 415.123075)scale(0.13 -0.13)">
     <use transform="translate(0 14.943915)scale(0.996264)" xlink:href="#CMMI12-73"/>
     <use transform="translate(43.024176 0)scale(0.697382)" xlink:href="#CMMI12-23"/>
    </g>
   </g>
   <g id="text_26">
    <!-- $\left(y\right)$ -->
    <defs>
     <path d="M 26.296875 -10.9375 
C 23.59375 -14.671875 19.703125 -18 14.796875 -18 
C 13.59375 -18 8.796875 -18 7.296875 -13.890625 
C 7.59375 -13.984375 8.09375 -13.984375 8.296875 -13.984375 
C 11.296875 -13.984375 13.296875 -11.390625 13.296875 -9.09375 
C 13.296875 -6.796875 11.40625 -6 9.90625 -6 
C 8.296875 -6 4.796875 -7.15625 4.796875 -11.859375 
C 4.796875 -16.734375 9.09375 -20.09375 14.796875 -20.09375 
C 24.796875 -20.09375 34.90625 -10.9375 37.703125 0.09375 
L 47.5 38.828125 
C 47.59375 39.328125 47.796875 39.9375 47.796875 40.53125 
C 47.796875 42.015625 46.59375 43.015625 45.09375 43.015625 
C 44.203125 43.015625 42.09375 42.609375 41.296875 39.609375 
L 33.90625 10.28125 
C 33.40625 8.484375 33.40625 8.28125 32.59375 7.1875 
C 30.59375 4.390625 27.296875 1 22.5 1 
C 16.90625 1 16.40625 6.484375 16.40625 9.1875 
C 16.40625 14.875 19.09375 22.546875 21.796875 29.734375 
C 22.90625 32.625 23.5 34.03125 23.5 36.015625 
C 23.5 40.21875 20.5 44 15.59375 44 
C 6.40625 44 2.703125 29.53125 2.703125 28.734375 
C 2.703125 28.34375 3.09375 27.84375 3.796875 27.84375 
C 4.703125 27.84375 4.796875 28.234375 5.203125 29.640625 
C 7.59375 38.015625 11.40625 42.015625 15.296875 42.015625 
C 16.203125 42.015625 17.90625 42.015625 17.90625 38.71875 
C 17.90625 36.125 16.796875 33.234375 15.296875 29.4375 
C 10.40625 16.359375 10.40625 13.078125 10.40625 10.671875 
C 10.40625 1.203125 17.203125 -1 22.203125 -1 
C 25.09375 -1 28.703125 -0.09375 32.203125 3.59375 
L 32.296875 3.5 
C 30.796875 -2.296875 29.796875 -6.125 26.296875 -10.9375 
z
" id="CMMI12-121"/>
    </defs>
    <g transform="translate(191.292632 415.123075)scale(0.13 -0.13)">
     <use transform="translate(0 0.003177)scale(0.996264)" xlink:href="#CMR17-40"/>
     <use transform="translate(35.280768 0)scale(0.996264)" xlink:href="#CMMI12-121"/>
     <use transform="translate(86.419549 0.003177)scale(0.996264)" xlink:href="#CMR17-41"/>
    </g>
   </g>
   <g id="text_27">
    <!-- ${J}_{\nu }\left(z\right)$ -->
    <defs>
     <path d="M 53.40625 61.125 
C 54.203125 64.109375 54.40625 65.109375 59.296875 65.109375 
C 60.90625 65.109375 61.90625 65.109375 61.90625 66.90625 
C 61.90625 68 61 68 60.59375 68 
C 58.90625 68 57 68 55.203125 68 
L 49.703125 68 
C 45.5 68 41.09375 68 36.90625 68 
C 36 68 34.796875 68 34.796875 66.203125 
C 34.796875 65.203125 35.59375 65.203125 35.59375 65.109375 
L 38.09375 65.109375 
C 46.09375 65.109375 46.09375 64.3125 46.09375 62.8125 
C 46.09375 62.703125 46.09375 62.015625 45.703125 60.4375 
L 34.203125 15 
C 31.59375 4.875 24.90625 0 20.09375 0 
C 16.703125 0 11.90625 1.5625 10.703125 6.734375 
C 11.09375 6.625 11.59375 6.53125 12 6.53125 
C 15.296875 6.53125 17.90625 9.421875 17.90625 12.3125 
C 17.90625 13.90625 16.90625 16 13.90625 16 
C 12.09375 16 7.90625 15.015625 7.90625 8.578125 
C 7.90625 2.359375 13.09375 -2 20.296875 -2 
C 29.40625 -2 39.203125 4.859375 41.59375 14.296875 
z
" id="CMMI12-74"/>
    </defs>
    <g transform="translate(42.48982 394.590447)scale(0.13 -0.13)">
     <use transform="translate(0 14.943915)scale(0.996264)" xlink:href="#CMMI12-74"/>
     <use transform="translate(53.917955 0)scale(0.697382)" xlink:href="#CMMI12-23"/>
     <use transform="translate(109.158283 14.947092)scale(0.996264)" xlink:href="#CMR17-40"/>
     <use transform="translate(144.439051 14.943915)scale(0.996264)" xlink:href="#CMMI12-122"/>
     <use transform="translate(194.194196 14.947092)scale(0.996264)" xlink:href="#CMR17-41"/>
    </g>
   </g>
   <g id="text_28">
    <!-- ${\int }_{0}^{x}$ -->
    <defs>
     <path d="M 47.40625 40.71875 
C 44.203125 40.109375 43 37.71875 43 35.828125 
C 43 33.421875 44.90625 32.625 46.296875 32.625 
C 49.296875 32.625 51.40625 35.21875 51.40625 37.921875 
C 51.40625 42.109375 46.59375 44 42.40625 44 
C 36.296875 44 32.90625 38.015625 32 36.125 
C 29.703125 44 23.5 44 21.703125 44 
C 11.5 44 6.09375 30.9375 6.09375 28.734375 
C 6.09375 28.34375 6.5 27.84375 7.203125 27.84375 
C 8 27.84375 8.203125 28.4375 8.40625 28.84375 
C 11.796875 39.921875 18.5 42.015625 21.40625 42.015625 
C 25.90625 42.015625 26.796875 37.8125 26.796875 35.421875 
C 26.796875 33.234375 26.203125 30.9375 25 26.140625 
L 21.59375 12.46875 
C 20.09375 6.484375 17.203125 1 11.90625 1 
C 11.40625 1 8.90625 1 6.796875 2.296875 
C 10.40625 3 11.203125 5.984375 11.203125 7.1875 
C 11.203125 9.1875 9.703125 10.375 7.796875 10.375 
C 5.40625 10.375 2.796875 8.28125 2.796875 5.09375 
C 2.796875 0.890625 7.5 -1 11.796875 -1 
C 16.59375 -1 20 2.796875 22.09375 6.890625 
C 23.703125 1 28.703125 -1 32.40625 -1 
C 42.59375 -1 48 12.078125 48 14.265625 
C 48 14.765625 47.59375 15.171875 47 15.171875 
C 46.09375 15.171875 46 14.671875 45.703125 13.875 
C 43 5.09375 37.203125 1 32.703125 1 
C 29.203125 1 27.296875 3.59375 27.296875 7.6875 
C 27.296875 9.875 27.703125 11.46875 29.296875 18.0625 
L 32.796875 31.625 
C 34.296875 37.625 37.703125 42.015625 42.296875 42.015625 
C 42.5 42.015625 45.296875 42.015625 47.40625 40.71875 
z
" id="CMMI12-120"/>
    </defs>
    <g transform="translate(191.292632 395.918604)scale(0.13 -0.13)">
     <use transform="translate(0 114.184008)scale(0.996264)" xlink:href="#CMEX10-82"/>
     <use transform="translate(66.417803 87.257516)scale(0.697382)" xlink:href="#CMMI12-120"/>
     <use transform="translate(66.417803 0)scale(0.697382)" xlink:href="#CMR17-48"/>
    </g>
   </g>
   <g id="text_29">
    <!-- $\left(1-q\right)$ -->
    <defs>
     <path d="M 26.59375 63.40625 
C 26.59375 65.5 26.5 65.5 25.09375 65.5 
C 21.203125 61.1875 15.296875 59.796875 9.703125 59.796875 
C 9.40625 59.796875 8.90625 59.796875 8.796875 59.5 
C 8.703125 59.296875 8.703125 59.09375 8.703125 57 
C 11.796875 57 17 57.59375 21 59.984375 
L 21 7.203125 
C 21 3.6875 20.796875 2.5 12.203125 2.5 
L 9.203125 2.5 
L 9.203125 0 
C 14 0 19 0 23.796875 0 
C 28.59375 0 33.59375 0 38.40625 0 
L 38.40625 2.5 
L 35.40625 2.5 
C 26.796875 2.5 26.59375 3.59375 26.59375 7.15625 
z
" id="CMR17-49"/>
     <path d="M 44.09375 43.109375 
C 44.09375 43.59375 43.703125 44 43.203125 44 
C 42.40625 44 38.5 40.390625 36.59375 36.90625 
C 34.796875 41.34375 31.703125 44 27.40625 44 
C 16.09375 44 3.90625 29.4375 3.90625 14.671875 
C 3.90625 4.796875 9.703125 -1 16.5 -1 
C 21.796875 -1 26.203125 3.015625 28.296875 5.296875 
L 28.40625 5.203125 
L 24.59375 -9.609375 
L 23.703125 -13.15625 
C 22.796875 -16.109375 21.296875 -16.109375 16.59375 -16.109375 
C 15.5 -16.109375 14.5 -16.109375 14.5 -18 
C 14.5 -18.703125 15.09375 -19 15.796875 -19 
C 17.203125 -19 19 -19 20.40625 -19 
L 30.59375 -19 
C 32.09375 -19 33.796875 -19 35.296875 -19 
C 35.90625 -19 37.09375 -19 37.09375 -17.109375 
C 37.09375 -16.109375 36.296875 -16.109375 34.796875 -16.109375 
C 30.09375 -16.109375 29.796875 -15.40625 29.796875 -14.609375 
C 29.796875 -14.125 29.90625 -14.03125 30.203125 -12.734375 
z
M 30 11.90625 
C 29.5 10.1875 29.5 10 28.09375 8.09375 
C 25.90625 5.296875 21.5 1 16.796875 1 
C 12.703125 1 10.40625 4.703125 10.40625 10.59375 
C 10.40625 16.09375 13.5 27.296875 15.40625 31.5 
C 18.796875 38.5 23.5 42.109375 27.40625 42.109375 
C 34 42.109375 35.296875 33.90625 35.296875 33.109375 
C 35.296875 33.015625 35 31.6875 34.90625 31.5 
z
" id="CMMI12-113"/>
    </defs>
    <g transform="translate(35.54636 372.618728)scale(0.13 -0.13)">
     <use transform="translate(0 0.003177)scale(0.996264)" xlink:href="#CMR17-40"/>
     <use transform="translate(35.280768 0)scale(0.996264)" xlink:href="#CMR17-49"/>
     <use transform="translate(103.110452 0)scale(0.996264)" xlink:href="#CMSY10-0"/>
     <use transform="translate(202.737127 0)scale(0.996264)" xlink:href="#CMMI12-113"/>
     <use transform="translate(249.56345 0.003177)scale(0.996264)" xlink:href="#CMR17-41"/>
    </g>
   </g>
   <g id="text_30">
    <!-- ${I}_{1}$ -->
    <g transform="translate(191.292632 372.618728)scale(0.13 -0.13)">
     <use transform="translate(0 14.943915)scale(0.996264)" xlink:href="#CMMI12-73"/>
     <use transform="translate(43.024176 0)scale(0.697382)" xlink:href="#CMR17-49"/>
    </g>
   </g>
   <g id="text_31">
    <!-- ${J}_{\nu }$ -->
    <g transform="translate(62.062145 351.366554)scale(0.13 -0.13)">
     <use transform="translate(0 14.943915)scale(0.996264)" xlink:href="#CMMI12-74"/>
     <use transform="translate(53.917955 0)scale(0.697382)" xlink:href="#CMMI12-23"/>
    </g>
   </g>
   <g id="text_32">
    <!-- $k!$ -->
    <defs>
     <path d="M 16.59375 66.546875 
C 16.59375 69.40625 14.203125 70.5 12.5 70.5 
C 10.796875 70.5 8.40625 69.40625 8.40625 66.546875 
L 11.5 18.78125 
C 11.59375 17.484375 11.59375 17 12.5 17 
C 13.40625 17 13.40625 17.484375 13.5 18.765625 
z
M 16.59375 4.078125 
C 16.59375 6.265625 14.796875 8.15625 12.5 8.15625 
C 10.296875 8.15625 8.40625 6.375 8.40625 4.078125 
C 8.40625 1.890625 10.203125 0 12.5 0 
C 14.703125 0 16.59375 1.796875 16.59375 4.078125 
z
" id="CMR17-33"/>
    </defs>
    <g transform="translate(191.292632 351.366554)scale(0.13 -0.13)">
     <use transform="scale(0.996264)" xlink:href="#CMMI12-107"/>
     <use transform="translate(54.079201 0)scale(0.996264)" xlink:href="#CMR17-33"/>
    </g>
   </g>
   <g id="text_33">
    <!-- $\sum _{n\geq0}$ -->
    <defs>
     <path d="M 42.09375 -53.40625 
L 6.59375 -97.296875 
C 5.796875 -98.296875 5.703125 -98.5 5.703125 -98.90625 
C 5.703125 -100 6.59375 -100 8.40625 -100 
L 91.296875 -100 
L 99.90625 -75.09375 
L 97.40625 -75.09375 
C 94.90625 -82.59375 88.203125 -88.703125 79.703125 -91.59375 
C 78.09375 -92.09375 71.203125 -94.5 56.5 -94.5 
L 14 -94.5 
L 48.703125 -51.59375 
C 49.40625 -50.703125 49.59375 -50.40625 49.59375 -50 
C 49.59375 -49.59375 49.5 -49.5 48.90625 -48.59375 
L 16.40625 -4 
L 56 -4 
C 67.40625 -4 90.40625 -4.703125 97.40625 -23.40625 
L 99.90625 -23.40625 
L 91.296875 0 
L 8.40625 0 
C 5.703125 0 5.59375 -0.09375 5.59375 -3.203125 
z
" id="CMEX10-80"/>
     <path d="M 20.59375 29.234375 
C 20.796875 29.84375 23.296875 34.828125 27 38.015625 
C 29.59375 40.40625 33 42.015625 36.90625 42.015625 
C 40.90625 42.015625 42.296875 39.015625 42.296875 35.03125 
C 42.296875 29.34375 38.203125 17.96875 36.203125 12.578125 
C 35.296875 10.171875 34.796875 8.875 34.796875 7.078125 
C 34.796875 2.59375 37.90625 -1 42.703125 -1 
C 52 -1 55.5 13.671875 55.5 14.265625 
C 55.5 14.765625 55.09375 15.171875 54.5 15.171875 
C 53.59375 15.171875 53.5 14.875 53 13.171875 
C 50.703125 4.984375 46.90625 1 43 1 
C 42 1 40.40625 1 40.40625 4.203125 
C 40.40625 6.703125 41.5 9.703125 42.09375 11.09375 
C 44.09375 16.609375 48.296875 27.8125 48.296875 33.515625 
C 48.296875 39.5 44.796875 44 37.203125 44 
C 28.296875 44 23.59375 37.734375 21.796875 35.234375 
C 21.5 40.90625 17.40625 44 13 44 
C 9.796875 44 7.59375 42.109375 5.90625 38.71875 
C 4.09375 35.125 2.703125 29.140625 2.703125 28.734375 
C 2.703125 28.34375 3.09375 27.84375 3.796875 27.84375 
C 4.59375 27.84375 4.703125 27.9375 5.296875 30.234375 
C 6.90625 36.328125 8.703125 42.015625 12.703125 42.015625 
C 15 42.015625 15.796875 40.40625 15.796875 37.421875 
C 15.796875 35.21875 14.796875 31.328125 14.09375 28.234375 
L 11.296875 17.46875 
C 10.90625 15.5625 9.796875 11.078125 9.296875 9.28125 
C 8.59375 6.6875 7.5 2 7.5 1.5 
C 7.5 0.09375 8.59375 -1 10.09375 -1 
C 11.296875 -1 12.703125 -0.40625 13.5 1.09375 
C 13.703125 1.59375 14.59375 5.09375 15.09375 7.078125 
L 17.296875 16.0625 
z
" id="CMMI12-110"/>
     <path d="M 67.40625 32.5625 
C 68.796875 33.15625 69.40625 33.859375 69.40625 34.75 
C 69.40625 35.75 69 36.359375 67.40625 37.0625 
L 12.296875 63.0625 
C 10.90625 63.75 10.5 63.75 10.296875 63.75 
C 9.09375 63.75 8.296875 62.859375 8.296875 61.75 
C 8.296875 60.5625 9.09375 60.0625 10.203125 59.5625 
L 62.703125 34.859375 
L 10.40625 10.15625 
C 8.40625 9.25 8.296875 8.453125 8.296875 7.859375 
C 8.296875 6.75 9.203125 5.859375 10.296875 5.859375 
C 10.59375 5.859375 10.796875 5.859375 12.09375 6.5625 
z
M 65.90625 -13.921875 
C 67.59375 -13.921875 69.40625 -13.921875 69.40625 -11.921875 
C 69.40625 -9.921875 67.296875 -9.921875 65.796875 -9.921875 
L 11.90625 -9.921875 
C 10.40625 -9.921875 8.296875 -9.921875 8.296875 -11.921875 
C 8.296875 -13.921875 10.09375 -13.921875 11.796875 -13.921875 
z
" id="CMSY10-21"/>
    </defs>
    <g transform="translate(42.469678 331.775532)scale(0.13 -0.13)">
     <use transform="translate(0 103.114632)scale(0.996264)" xlink:href="#CMEX10-80"/>
     <use transform="translate(105.161552 0)scale(0.697382)" xlink:href="#CMMI12-110"/>
     <use transform="translate(145.922396 0)scale(0.697382)" xlink:href="#CMSY10-21"/>
     <use transform="translate(200.163389 0)scale(0.697382)" xlink:href="#CMR17-48"/>
    </g>
   </g>
   <g id="text_34">
    <!-- ${}_{p}F_{q}$ -->
    <defs>
     <path d="M 4.296875 -12.328125 
C 3.59375 -15.3125 3.203125 -16.109375 -0.90625 -16.109375 
C -2.09375 -16.109375 -3.09375 -16.109375 -3.09375 -18 
C -3.09375 -18.203125 -3 -19 -1.90625 -19 
C -0.59375 -19 0.796875 -19 2.09375 -19 
L 6.40625 -19 
C 8.5 -19 13.59375 -19 15.703125 -19 
C 16.296875 -19 17.5 -19 17.5 -17.203125 
C 17.5 -16.109375 16.796875 -16.109375 15.09375 -16.109375 
C 10.5 -16.109375 10.203125 -15.421875 10.203125 -14.640625 
C 10.203125 -13.453125 14.703125 3.421875 15.296875 5.6875 
C 16.40625 2.890625 19.09375 -1 24.296875 -1 
C 35.59375 -1 47.796875 13.671875 47.796875 28.34375 
C 47.796875 37.515625 42.59375 44 35.09375 44 
C 28.703125 44 23.296875 37.8125 22.203125 36.421875 
C 21.40625 41.40625 17.5 44 13.5 44 
C 10.59375 44 8.296875 42.609375 6.40625 38.8125 
C 4.59375 35.21875 3.203125 29.140625 3.203125 28.734375 
C 3.203125 28.34375 3.59375 27.84375 4.296875 27.84375 
C 5.09375 27.84375 5.203125 27.9375 5.796875 30.234375 
C 7.296875 36.125 9.203125 42.015625 13.203125 42.015625 
C 15.5 42.015625 16.296875 40.421875 16.296875 37.453125 
C 16.296875 35.078125 16 34.078125 15.59375 32.296875 
z
M 21.59375 31.140625 
C 22.296875 33.921875 25.09375 36.828125 26.703125 38.21875 
C 27.796875 39.21875 31.09375 42.015625 34.90625 42.015625 
C 39.296875 42.015625 41.296875 37.625 41.296875 32.4375 
C 41.296875 27.640625 38.5 16.359375 36 11.171875 
C 33.5 5.78125 28.90625 1 24.296875 1 
C 17.5 1 16.40625 9.578125 16.40625 9.984375 
C 16.40625 10.28125 16.59375 11.078125 16.703125 11.578125 
z
" id="CMMI12-112"/>
     <path d="M 29.703125 32.109375 
L 39.296875 32.109375 
C 46.90625 32.109375 47.5 30.40625 47.5 27.515625 
C 47.5 26.21875 47.296875 24.828125 46.796875 22.625 
C 46.59375 22.234375 46.5 21.734375 46.5 21.53125 
C 46.5 20.828125 46.90625 20.4375 47.59375 20.4375 
C 48.40625 20.4375 48.5 20.828125 48.90625 22.421875 
L 54.703125 45.859375 
C 54.703125 46.265625 54.40625 46.859375 53.703125 46.859375 
C 52.796875 46.859375 52.703125 46.46875 52.296875 44.734375 
C 50.203125 37.125 48.203125 35 39.5 35 
L 30.40625 35 
L 36.90625 61.34375 
C 37.796875 64.90625 38 64.90625 42.09375 64.90625 
L 55.5 64.90625 
C 68 64.90625 69.796875 61.21875 69.796875 54.125 
C 69.796875 53.53125 69.796875 51.328125 69.5 48.734375 
C 69.40625 48.34375 69.203125 47.046875 69.203125 46.640625 
C 69.203125 45.84375 69.703125 45.546875 70.296875 45.546875 
C 71 45.546875 71.40625 45.953125 71.59375 47.734375 
L 73.703125 65.21875 
C 73.703125 65.546875 73.90625 66.609375 73.90625 66.828125 
C 73.90625 68 73 68 71.203125 68 
L 23.796875 68 
C 21.90625 68 20.90625 68 20.90625 66.078125 
C 20.90625 64.90625 21.59375 64.90625 23.296875 64.90625 
C 29.5 64.90625 29.5 64.265625 29.5 63.28125 
C 29.5 62.78125 29.40625 62.375 29.09375 61.28125 
L 15.59375 7.390625 
C 14.703125 3.890625 14.5 2.890625 7.5 2.890625 
C 5.59375 2.890625 4.59375 2.890625 4.59375 1.09375 
C 4.59375 0 5.5 0 6.09375 0 
C 8 0 10 0 11.90625 0 
L 24.90625 0 
C 27.09375 0 29.5 0 31.703125 0 
C 32.59375 0 33.796875 0 33.796875 1.796875 
C 33.796875 2.890625 33.203125 2.890625 31 2.890625 
C 23.09375 2.890625 22.90625 3.578125 22.90625 5.0625 
C 22.90625 5.5625 23.09375 6.34375 23.296875 7.015625 
z
" id="CMMI12-70"/>
    </defs>
    <g transform="translate(191.292632 330.636037)scale(0.13 -0.13)">
     <use transform="scale(0.697382)" xlink:href="#CMMI12-112"/>
     <use transform="translate(34.769638 14.943915)scale(0.996264)" xlink:href="#CMMI12-70"/>
     <use transform="translate(97.917842 0)scale(0.697382)" xlink:href="#CMMI12-113"/>
    </g>
   </g>
   <g id="text_35">
    <!-- ${J}_{n}$ -->
    <g transform="translate(61.037317 308.862206)scale(0.13 -0.13)">
     <use transform="translate(0 14.943915)scale(0.996264)" xlink:href="#CMMI12-74"/>
     <use transform="translate(53.917955 0)scale(0.697382)" xlink:href="#CMMI12-110"/>
    </g>
   </g>
   <g id="text_36">
    <!-- $d x$ -->
    <defs>
     <path d="M 50.296875 66.515625 
C 50.40625 66.90625 50.59375 67.5 50.59375 68 
C 50.59375 69 49.59375 69 49.40625 69 
C 49.296875 69 44.40625 68.5625 43.90625 68.4375 
C 42.203125 68.328125 40.703125 68.09375 38.90625 68.09375 
C 36.40625 67.890625 35.703125 67.796875 35.703125 66 
C 35.703125 65 36.5 65 37.90625 65 
C 42.796875 65 42.90625 64.109375 42.90625 63.125 
C 42.90625 62.53125 42.703125 61.75 42.59375 61.453125 
L 36.5 37.421875 
C 35.40625 40.015625 32.703125 44 27.5 44 
C 16.203125 44 4 29.4375 4 14.671875 
C 4 4.796875 9.796875 -1 16.59375 -1 
C 22.09375 -1 26.796875 3.296875 29.59375 6.59375 
C 30.59375 0.703125 35.296875 -1 38.296875 -1 
C 41.296875 -1 43.703125 0.796875 45.5 4.390625 
C 47.09375 7.78125 48.5 13.875 48.5 14.265625 
C 48.5 14.765625 48.09375 15.171875 47.5 15.171875 
C 46.59375 15.171875 46.5 14.671875 46.09375 13.171875 
C 44.59375 7.28125 42.703125 1 38.59375 1 
C 35.703125 1 35.5 3.578125 35.5 5.578125 
C 35.5 5.96875 35.5 8.046875 36.203125 10.84375 
z
M 30.09375 11.875 
C 29.59375 10.171875 29.59375 9.984375 28.203125 8.078125 
C 26 5.28125 21.59375 1 16.90625 1 
C 12.796875 1 10.5 4.6875 10.5 10.578125 
C 10.5 16.0625 13.59375 27.234375 15.5 31.4375 
C 18.90625 38.421875 23.59375 42.015625 27.5 42.015625 
C 34.09375 42.015625 35.40625 33.828125 35.40625 33.03125 
C 35.40625 32.9375 35.09375 31.625 35 31.4375 
z
" id="CMMI12-100"/>
    </defs>
    <g transform="translate(191.292632 308.862206)scale(0.13 -0.13)">
     <use transform="scale(0.996264)" xlink:href="#CMMI12-100"/>
     <use transform="translate(50.689097 0)scale(0.996264)" xlink:href="#CMMI12-120"/>
    </g>
   </g>
   <g id="text_37">
    <!-- $1-{t}^{2}$ -->
    <defs>
     <path d="M 20.09375 40.09375 
L 29.296875 40.09375 
C 31.203125 40.09375 32.203125 40.09375 32.203125 41.890625 
C 32.203125 43 31.59375 43 29.59375 43 
L 20.796875 43 
L 24.5 57.6875 
C 24.90625 59.078125 24.90625 59.28125 24.90625 60 
C 24.90625 61.609375 23.59375 62.5 22.296875 62.5 
C 21.5 62.5 19.203125 62.203125 18.40625 58.984375 
L 14.5 43 
L 5.09375 43 
C 3.09375 43 2.203125 43 2.203125 41.09375 
C 2.203125 40.09375 2.90625 40.09375 4.796875 40.09375 
L 13.703125 40.09375 
L 7.09375 13.765625 
C 6.296875 10.28125 6 9.28125 6 7.984375 
C 6 3.296875 9.296875 -1 14.90625 -1 
C 25 -1 30.40625 13.5625 30.40625 14.25 
C 30.40625 14.859375 30 15.15625 29.40625 15.15625 
C 29.203125 15.15625 28.796875 15.15625 28.59375 14.75 
C 28.5 14.65625 28.40625 14.546875 27.703125 12.953125 
C 25.59375 7.984375 21 1 15.203125 1 
C 12.203125 1 12 3.5 12 5.6875 
C 12 5.78125 12 7.6875 12.296875 8.875 
z
" id="CMMI12-116"/>
    </defs>
    <g transform="translate(42.258859 287.664736)scale(0.13 -0.13)">
     <use transform="scale(0.996264)" xlink:href="#CMR17-49"/>
     <use transform="translate(67.829684 0)scale(0.996264)" xlink:href="#CMSY10-0"/>
     <use transform="translate(167.456359 0)scale(0.996264)" xlink:href="#CMMI12-116"/>
     <use transform="translate(202.682689 36.153639)scale(0.697382)" xlink:href="#CMR17-50"/>
    </g>
   </g>
   <g id="text_38">
    <!-- ${J}_{0}$ -->
    <g transform="translate(191.292632 287.610032)scale(0.13 -0.13)">
     <use transform="translate(0 14.943915)scale(0.996264)" xlink:href="#CMMI12-74"/>
     <use transform="translate(53.917955 0)scale(0.697382)" xlink:href="#CMR17-48"/>
    </g>
   </g>
   <g id="text_39">
    <!-- $\left(\frac{z}{2}\right)$ -->
    <defs>
     <path d="M 41.296875 -114.90625 
C 41.296875 -114.5 41.09375 -114.296875 40.90625 -114 
C 36.296875 -109.09375 29.5 -101 25.296875 -84.703125 
C 23 -75.59375 22.09375 -65.296875 22.09375 -56 
C 22.09375 -29.703125 28.40625 -11.296875 40.40625 1.703125 
C 41.296875 2.59375 41.296875 2.796875 41.296875 3 
C 41.296875 4 40.5 4 40.09375 4 
C 38.59375 4 33.203125 -2 31.90625 -3.5 
C 21.703125 -15.59375 15.203125 -33.59375 15.203125 -55.90625 
C 15.203125 -70.09375 17.703125 -90.203125 30.796875 -107.09375 
C 31.796875 -108.296875 38.296875 -115.90625 40.09375 -115.90625 
C 40.5 -115.90625 41.296875 -115.90625 41.296875 -114.90625 
z
" id="CMEX10-0"/>
     <path d="M 30.5 -56 
C 30.5 -41.796875 28 -21.703125 14.90625 -4.796875 
C 13.90625 -3.59375 7.40625 4 5.59375 4 
C 5.09375 4 4.40625 3.796875 4.40625 3 
C 4.40625 2.59375 4.59375 2.296875 5 2 
C 9.796875 -3.203125 16.296875 -11.296875 20.40625 -27.203125 
C 22.703125 -36.296875 23.59375 -46.59375 23.59375 -55.90625 
C 23.59375 -66 22.703125 -76.203125 20.09375 -86 
C 16.296875 -100 10.40625 -108 5.296875 -113.59375 
C 4.40625 -114.5 4.40625 -114.703125 4.40625 -114.90625 
C 4.40625 -115.703125 5.09375 -115.90625 5.59375 -115.90625 
C 7.09375 -115.90625 12.59375 -109.796875 13.796875 -108.40625 
C 24 -96.296875 30.5 -78.296875 30.5 -56 
z
" id="CMEX10-1"/>
    </defs>
    <g transform="translate(54.678837 268.372619)scale(0.13 -0.13)">
     <use transform="translate(0 115.053337)scale(0.996264)" xlink:href="#CMEX10-0"/>
     <use transform="translate(46.857868 73.581354)scale(0.697382)" xlink:href="#CMMI12-122"/>
     <use transform="translate(48.280496 0)scale(0.697382)" xlink:href="#CMR17-50"/>
     <use transform="translate(82.881805 115.053337)scale(0.996264)" xlink:href="#CMEX10-1"/>
     <path d="M 46.857868 57.269386 
L 81.686291 57.269386 
L 81.686291 61.254336 
L 46.857868 61.254336 
L 46.857868 57.269386 
z
"/>
    </g>
   </g>
   <g id="text_40">
    <!-- $\left(z;q\right)$ -->
    <defs>
     <path d="M 16.59375 38.921875 
C 16.59375 41.40625 14.59375 43 12.5 43 
C 10.5 43 8.40625 41.40625 8.40625 38.921875 
C 8.40625 36.4375 10.40625 34.84375 12.5 34.84375 
C 14.5 34.84375 16.59375 36.4375 16.59375 38.921875 
z
M 15.296875 -1.109375 
C 15.296875 -7.546875 13.296875 -12.765625 9.90625 -17.59375 
C 9.296875 -18.28125 9.296875 -18.484375 9.296875 -18.59375 
C 9.296875 -19.09375 9.703125 -19.5 10.09375 -19.5 
C 10.59375 -19.5 16.90625 -12.578125 16.90625 -0.953125 
C 16.90625 2.953125 16.59375 8.15625 12.5 8.15625 
C 10.296875 8.15625 8.40625 6.671875 8.40625 4.078125 
C 8.40625 1.5 10.296875 0 12.5 0 
C 13.5 0 14.59375 0.296875 15.296875 1 
z
" id="CMR17-59"/>
    </defs>
    <g transform="translate(191.292632 266.357858)scale(0.13 -0.13)">
     <use transform="translate(0 0.003177)scale(0.996264)" xlink:href="#CMR17-40"/>
     <use transform="translate(35.280768 0)scale(0.996264)" xlink:href="#CMMI12-122"/>
     <use transform="translate(85.035913 0)scale(0.996264)" xlink:href="#CMR17-59"/>
     <use transform="translate(126.511376 0)scale(0.996264)" xlink:href="#CMMI12-113"/>
     <use transform="translate(173.3377 0.003177)scale(0.996264)" xlink:href="#CMR17-41"/>
    </g>
   </g>
   <g id="text_41">
    <!-- $\nu +1$ -->
    <g transform="translate(44.624378 245.105684)scale(0.13 -0.13)">
     <use transform="scale(0.996264)" xlink:href="#CMMI12-23"/>
     <use transform="translate(76.622 0)scale(0.996264)" xlink:href="#CMR17-43"/>
     <use transform="translate(170.475995 0)scale(0.996264)" xlink:href="#CMR17-49"/>
    </g>
   </g>
   <g id="text_42">
    <!-- $\nu +1$ -->
    <g transform="translate(191.292632 245.105684)scale(0.13 -0.13)">
     <use transform="scale(0.996264)" xlink:href="#CMMI12-23"/>
     <use transform="translate(76.622 0)scale(0.996264)" xlink:href="#CMR17-43"/>
     <use transform="translate(170.475995 0)scale(0.996264)" xlink:href="#CMR17-49"/>
    </g>
   </g>
   <g id="text_43">
    <!-- $\nu +2$ -->
    <g transform="translate(44.624378 223.85351)scale(0.13 -0.13)">
     <use transform="scale(0.996264)" xlink:href="#CMMI12-23"/>
     <use transform="translate(76.622 0)scale(0.996264)" xlink:href="#CMR17-43"/>
     <use transform="translate(170.475995 0)scale(0.996264)" xlink:href="#CMR17-50"/>
    </g>
   </g>
   <g id="text_44">
    <!-- ${J}_{\nu }$ -->
    <g transform="translate(191.292632 223.85351)scale(0.13 -0.13)">
     <use transform="translate(0 14.943915)scale(0.996264)" xlink:href="#CMMI12-74"/>
     <use transform="translate(53.917955 0)scale(0.697382)" xlink:href="#CMMI12-23"/>
    </g>
   </g>
   <g id="text_45">
    <!-- ${J}_{\nu }\left(x\right)$ -->
    <g transform="translate(41.751561 203.320882)scale(0.13 -0.13)">
     <use transform="translate(0 14.943915)scale(0.996264)" xlink:href="#CMMI12-74"/>
     <use transform="translate(53.917955 0)scale(0.697382)" xlink:href="#CMMI12-23"/>
     <use transform="translate(109.158283 14.947092)scale(0.996264)" xlink:href="#CMR17-40"/>
     <use transform="translate(144.439051 14.943915)scale(0.996264)" xlink:href="#CMMI12-120"/>
     <use transform="translate(199.873111 14.947092)scale(0.996264)" xlink:href="#CMR17-41"/>
    </g>
   </g>
   <g id="text_46">
    <!-- ${K}_{\nu }$ -->
    <defs>
     <path d="M 50 40.171875 
C 49.90625 40.46875 49.5 41.265625 49.5 41.578125 
C 49.5 41.671875 49.59375 41.765625 51.296875 43.0625 
L 61 50.65625 
C 74.40625 61.015625 78.796875 64.5 85.703125 65.109375 
C 86.40625 65.109375 87.40625 65.109375 87.40625 66.90625 
C 87.40625 67.5 87.09375 68 86.296875 68 
C 85.203125 68 84 68 82.90625 68 
L 79.09375 68 
C 76 68 72.703125 68 69.703125 68 
C 69 68 67.796875 68 67.796875 66.203125 
C 67.796875 65.203125 68.5 65.109375 69.09375 65.109375 
C 70.203125 65 71.5 64.609375 71.5 63.21875 
C 71.5 61.234375 68.5 58.828125 67.703125 58.234375 
L 28.5 27.875 
L 36.796875 60.734375 
C 37.703125 64.109375 37.90625 65.109375 45 65.109375 
C 46.90625 65.109375 47.796875 65.109375 47.796875 67 
C 47.796875 68 46.796875 68 46.296875 68 
C 44.5 68 42.40625 68 40.5 68 
L 28.703125 68 
C 26.90625 68 24.703125 68 22.90625 68 
C 22.09375 68 21 68 21 66.109375 
C 21 65.109375 21.90625 65.109375 23.40625 65.109375 
C 29.5 65.109375 29.5 64.3125 29.5 63.21875 
C 29.5 63.03125 29.5 62.421875 29.09375 60.921875 
L 15.59375 7.375 
C 14.703125 3.890625 14.5 2.890625 7.5 2.890625 
C 5.59375 2.890625 4.59375 2.890625 4.59375 1.09375 
C 4.59375 0 5.5 0 6.09375 0 
C 8 0 10 0 11.90625 0 
L 23.59375 0 
C 25.5 0 27.59375 0 29.5 0 
C 30.296875 0 31.40625 0 31.40625 1.890625 
C 31.40625 2.890625 30.5 2.890625 29 2.890625 
C 22.90625 2.890625 22.90625 3.6875 22.90625 4.6875 
C 22.90625 5.390625 23.5 7.875 23.90625 9.46875 
L 27.796875 24.890625 
L 43 36.734375 
C 45.90625 30.359375 51.203125 17.625 55.296875 7.890625 
C 55.59375 7.28125 55.796875 6.6875 55.796875 5.984375 
C 55.796875 2.890625 51.796875 2.890625 50.90625 2.890625 
C 50 2.890625 49 2.890625 49 1 
C 49 0 50.09375 0 50.40625 0 
C 53.90625 0 57.59375 0 61.09375 0 
L 65.90625 0 
C 67.40625 0 69.09375 0 70.59375 0 
C 71.203125 0 72.296875 0 72.296875 1.890625 
C 72.296875 2.890625 71.40625 2.890625 70.40625 2.890625 
C 66.703125 2.890625 65.40625 3.6875 63.90625 7.28125 
z
" id="CMMI12-75"/>
    </defs>
    <g transform="translate(191.292632 202.601336)scale(0.13 -0.13)">
     <use transform="translate(0 14.943915)scale(0.996264)" xlink:href="#CMMI12-75"/>
     <use transform="translate(82.992611 0)scale(0.697382)" xlink:href="#CMMI12-23"/>
    </g>
   </g>
   <g id="text_47">
    <!-- $\sum _{k=0}^{\infty }$ -->
    <g transform="translate(42.973343 182.677357)scale(0.13 -0.13)">
     <use transform="translate(0 103.114632)scale(0.996264)" xlink:href="#CMEX10-80"/>
     <use transform="translate(105.161552 76.188141)scale(0.697382)" xlink:href="#CMSY10-49"/>
     <use transform="translate(105.161552 0)scale(0.697382)" xlink:href="#CMMI12-107"/>
     <use transform="translate(143.016803 0)scale(0.697382)" xlink:href="#CMR17-61"/>
     <use transform="translate(193.216934 0)scale(0.697382)" xlink:href="#CMR17-48"/>
    </g>
   </g>
   <g id="text_48">
    <!-- $x/2$ -->
    <defs>
     <path d="M 42.90625 71.28125 
C 42.90625 71.390625 43.5 72.90625 43.5 73.09375 
C 43.5 74.296875 42.5 75 41.703125 75 
C 41.203125 75 40.296875 75 39.5 72.796875 
L 6 -21.296875 
C 6 -21.40625 5.40625 -22.890625 5.40625 -23.09375 
C 5.40625 -24.296875 6.40625 -25 7.203125 -25 
C 7.796875 -25 8.703125 -24.890625 9.40625 -22.796875 
z
" id="CMMI12-61"/>
    </defs>
    <g transform="translate(191.292632 181.349162)scale(0.13 -0.13)">
     <use transform="scale(0.996264)" xlink:href="#CMMI12-120"/>
     <use transform="translate(55.43406 0)scale(0.996264)" xlink:href="#CMMI12-61"/>
     <use transform="translate(104.208978 0)scale(0.996264)" xlink:href="#CMR17-50"/>
    </g>
   </g>
   <g id="text_49">
    <!-- $\nu ,1$ -->
    <defs>
     <path d="M 19.5 -0.484375 
C 19.5 5.359375 17.59375 9.671875 13.5 9.671875 
C 10.296875 9.671875 8.703125 7.078125 8.703125 4.890625 
C 8.703125 2.6875 10.203125 0 13.59375 0 
C 14.90625 0 16 0.40625 16.90625 1.296875 
C 17.09375 1.5 17.203125 1.5 17.296875 1.5 
C 17.5 1.5 17.5 0.078125 17.5 -0.421875 
C 17.5 -3.75 16.90625 -10.296875 11.09375 -16.875 
C 10 -18.078125 10 -18.28125 10 -18.484375 
C 10 -19 10.5 -19.5 11 -19.5 
C 11.796875 -19.5 19.5 -12.046875 19.5 -0.484375 
z
" id="CMMI12-59"/>
    </defs>
    <g transform="translate(55.267222 160.096988)scale(0.13 -0.13)">
     <use transform="scale(0.996264)" xlink:href="#CMMI12-23"/>
     <use transform="translate(49.063357 0)scale(0.996264)" xlink:href="#CMMI12-59"/>
     <use transform="translate(92.76494 0)scale(0.996264)" xlink:href="#CMR17-49"/>
    </g>
   </g>
   <g id="text_50">
    <!-- ${I}_{0}$ -->
    <g transform="translate(191.292632 160.096988)scale(0.13 -0.13)">
     <use transform="translate(0 14.943915)scale(0.996264)" xlink:href="#CMMI12-73"/>
     <use transform="translate(43.024176 0)scale(0.697382)" xlink:href="#CMR17-48"/>
    </g>
   </g>
   <g id="text_51">
    <!-- $\left(\frac{x}{2}\right)$ -->
    <g transform="translate(54.12268 140.859575)scale(0.13 -0.13)">
     <use transform="translate(0 115.053337)scale(0.996264)" xlink:href="#CMEX10-0"/>
     <use transform="translate(46.857868 73.581354)scale(0.697382)" xlink:href="#CMMI12-120"/>
     <use transform="translate(50.268114 0)scale(0.697382)" xlink:href="#CMR17-50"/>
     <use transform="translate(86.857041 115.053337)scale(0.996264)" xlink:href="#CMEX10-1"/>
     <path d="M 46.857868 57.269386 
L 85.661527 57.269386 
L 85.661527 61.254336 
L 46.857868 61.254336 
L 46.857868 57.269386 
z
"/>
    </g>
   </g>
   <g id="text_52">
    <!-- $\left(x/2\right)$ -->
    <g transform="translate(191.292632 138.844815)scale(0.13 -0.13)">
     <use transform="translate(0 0.003177)scale(0.996264)" xlink:href="#CMR17-40"/>
     <use transform="translate(35.280768 0)scale(0.996264)" xlink:href="#CMMI12-120"/>
     <use transform="translate(90.714827 0)scale(0.996264)" xlink:href="#CMMI12-61"/>
     <use transform="translate(139.489746 0)scale(0.996264)" xlink:href="#CMR17-50"/>
     <use transform="translate(185.180223 0.003177)scale(0.996264)" xlink:href="#CMR17-41"/>
    </g>
   </g>
   <g id="text_53">
    <!-- $\left(\nu +1\right)$ -->
    <g transform="translate(34.761006 117.592641)scale(0.13 -0.13)">
     <use transform="translate(0 0.003177)scale(0.996264)" xlink:href="#CMR17-40"/>
     <use transform="translate(35.280768 0)scale(0.996264)" xlink:href="#CMMI12-23"/>
     <use transform="translate(111.902768 0)scale(0.996264)" xlink:href="#CMR17-43"/>
     <use transform="translate(205.756763 0)scale(0.996264)" xlink:href="#CMR17-49"/>
     <use transform="translate(251.44724 0.003177)scale(0.996264)" xlink:href="#CMR17-41"/>
    </g>
   </g>
   <g id="text_54">
    <!-- ${J}_{\nu }\left(x\right)$ -->
    <g transform="translate(191.292632 118.312187)scale(0.13 -0.13)">
     <use transform="translate(0 14.943915)scale(0.996264)" xlink:href="#CMMI12-74"/>
     <use transform="translate(53.917955 0)scale(0.697382)" xlink:href="#CMMI12-23"/>
     <use transform="translate(109.158283 14.947092)scale(0.996264)" xlink:href="#CMR17-40"/>
     <use transform="translate(144.439051 14.943915)scale(0.996264)" xlink:href="#CMMI12-120"/>
     <use transform="translate(199.873111 14.947092)scale(0.996264)" xlink:href="#CMR17-41"/>
    </g>
   </g>
   <g id="text_55">
    <!-- $\left(q;q\right)$ -->
    <g transform="translate(45.948013 96.340467)scale(0.13 -0.13)">
     <use transform="translate(0 0.003177)scale(0.996264)" xlink:href="#CMR17-40"/>
     <use transform="translate(35.280768 0)scale(0.996264)" xlink:href="#CMMI12-113"/>
     <use transform="translate(82.107092 0)scale(0.996264)" xlink:href="#CMR17-59"/>
     <use transform="translate(123.582555 0)scale(0.996264)" xlink:href="#CMMI12-113"/>
     <use transform="translate(170.408879 0.003177)scale(0.996264)" xlink:href="#CMR17-41"/>
    </g>
   </g>
   <g id="text_56">
    <!-- ${\left(-1\right)}^{k}$ -->
    <g transform="translate(191.292632 97.893412)scale(0.13 -0.13)">
     <use transform="translate(0 0.003177)scale(0.996264)" xlink:href="#CMR17-40"/>
     <use transform="translate(35.280768 0)scale(0.996264)" xlink:href="#CMSY10-0"/>
     <use transform="translate(112.768235 0)scale(0.996264)" xlink:href="#CMR17-49"/>
     <use transform="translate(158.458713 0.003177)scale(0.996264)" xlink:href="#CMR17-41"/>
     <use transform="translate(193.73948 47.706796)scale(0.697382)" xlink:href="#CMMI12-107"/>
    </g>
   </g>
   <g id="text_57">
    <!-- $\sum _{k=-\infty }^{\infty }$ -->
    <g transform="translate(31.067368 76.836194)scale(0.13 -0.13)">
     <use transform="translate(0 103.114632)scale(0.996264)" xlink:href="#CMEX10-80"/>
     <use transform="translate(105.161552 76.188141)scale(0.697382)" xlink:href="#CMSY10-49"/>
     <use transform="translate(105.161552 0)scale(0.697382)" xlink:href="#CMMI12-107"/>
     <use transform="translate(143.016803 0)scale(0.697382)" xlink:href="#CMR17-61"/>
     <use transform="translate(193.216934 0)scale(0.697382)" xlink:href="#CMSY10-0"/>
     <use transform="translate(247.457928 0)scale(0.697382)" xlink:href="#CMSY10-49"/>
    </g>
   </g>
   <g id="text_58">
    <!-- ${J}_{v}$ -->
    <defs>
     <path d="M 45.703125 37.328125 
C 45.703125 43.609375 42.5 44 41.703125 44 
C 39.296875 44 37.09375 41.609375 37.09375 39.609375 
C 37.09375 38.421875 37.796875 37.71875 38.203125 37.328125 
C 39.203125 36.421875 41.796875 33.734375 41.796875 28.546875 
C 41.796875 24.34375 35.796875 1 23.796875 1 
C 17.703125 1 16.5 6.09375 16.5 9.78125 
C 16.5 14.765625 18.796875 21.75 21.5 28.9375 
C 23.09375 33.03125 23.5 34.03125 23.5 36.015625 
C 23.5 40.21875 20.5 44 15.59375 44 
C 6.40625 44 2.703125 29.53125 2.703125 28.734375 
C 2.703125 28.34375 3.09375 27.84375 3.796875 27.84375 
C 4.703125 27.84375 4.796875 28.234375 5.203125 29.640625 
C 7.59375 38.21875 11.5 42.015625 15.296875 42.015625 
C 16.203125 42.015625 17.90625 42.015625 17.90625 38.71875 
C 17.90625 36.125 16.796875 33.234375 15.296875 29.4375 
C 10.5 16.671875 10.5 13.578125 10.5 11.171875 
C 10.5 8.984375 10.796875 4.890625 13.90625 2.09375 
C 17.5 -1 22.5 -1 23.40625 -1 
C 40 -1 45.703125 31.625 45.703125 37.328125 
z
" id="CMMI12-118"/>
    </defs>
    <g transform="translate(191.292632 75.088293)scale(0.13 -0.13)">
     <use transform="translate(0 14.943915)scale(0.996264)" xlink:href="#CMMI12-74"/>
     <use transform="translate(53.917955 0)scale(0.697382)" xlink:href="#CMMI12-118"/>
    </g>
   </g>
   <g id="text_59">
    <!-- $\nu &gt;-1$ -->
    <defs>
     <path d="M 65.90625 22.640625 
C 67.796875 23.546875 67.90625 24.140625 67.90625 24.84375 
C 67.90625 25.4375 67.703125 26.140625 65.90625 26.953125 
L 11.796875 51.90625 
C 10.5 52.5 10.296875 52.5 10.09375 52.5 
C 8.90625 52.5 8.203125 51.5 8.203125 50.703125 
C 8.203125 49.5 9 49.09375 10.296875 48.5 
L 61.703125 24.84375 
L 10.203125 1.015625 
C 8.203125 0.09375 8.203125 -0.609375 8.203125 -1.203125 
C 8.203125 -2 8.90625 -3 10.09375 -3 
C 10.296875 -3 10.40625 -2.890625 11.796875 -2.296875 
z
" id="CMMI12-62"/>
    </defs>
    <g transform="translate(33.111977 53.836119)scale(0.13 -0.13)">
     <use transform="scale(0.996264)" xlink:href="#CMMI12-23"/>
     <use transform="translate(82.156802 0)scale(0.996264)" xlink:href="#CMMI12-62"/>
     <use transform="translate(185.702906 0)scale(0.996264)" xlink:href="#CMSY10-0"/>
     <use transform="translate(263.190374 0)scale(0.996264)" xlink:href="#CMR17-49"/>
    </g>
   </g>
   <g id="text_60">
    <!-- $\sum _{k=0}^{\infty }$ -->
    <g transform="translate(191.292632 55.164314)scale(0.13 -0.13)">
     <use transform="translate(0 103.114632)scale(0.996264)" xlink:href="#CMEX10-80"/>
     <use transform="translate(105.161552 76.188141)scale(0.697382)" xlink:href="#CMSY10-49"/>
     <use transform="translate(105.161552 0)scale(0.697382)" xlink:href="#CMMI12-107"/>
     <use transform="translate(143.016803 0)scale(0.697382)" xlink:href="#CMR17-61"/>
     <use transform="translate(193.216934 0)scale(0.697382)" xlink:href="#CMR17-48"/>
    </g>
   </g>
   <g id="text_61">
    <!-- arXiv -->
    <defs>
     <path d="M 37.59375 27.984375 
C 37.59375 37.375 30.90625 43.875 21.90625 43.875 
C 17.5 43.875 12.703125 43.078125 7.203125 39.890625 
L 7.796875 33.359375 
C 10.296875 35.125 14.59375 38 21.796875 38 
C 26.90625 38 30 34.0625 30 27.84375 
L 30 24 
C 14 24 4 19.34375 4 11.34375 
C 4 7.203125 6.5 -1 14.796875 -1 
C 16.296875 -1 24.40625 -1 30.203125 3.390625 
L 30.203125 -0.296875 
L 37.59375 -0.296875 
z
M 30 12.75 
C 30 10.953125 30 8.5625 27 6.78125 
C 24.40625 5.078125 21.09375 5.078125 19.703125 5.078125 
C 14.703125 5.078125 11.296875 7.984375 11.296875 11.625 
C 11.296875 18.921875 26.90625 18.921875 30 18.921875 
z
" id="CMSS17-97"/>
     <path d="M 14.90625 21.296875 
C 14.90625 30.703125 21.796875 37 30.59375 37 
L 30.59375 43.578125 
C 24.203125 43.578125 18.203125 40.390625 14.59375 35.203125 
L 14.59375 43.09375 
L 7.5 43.09375 
L 7.5 0 
L 14.90625 0 
z
" id="CMSS17-114"/>
     <path d="M 34.59375 36.390625 
L 57.203125 69 
L 48 69 
L 30.5 43.15625 
L 12.5 69 
L 2.59375 69 
L 26.40625 36.390625 
L 1.296875 0 
L 10.5 0 
L 30.5 30.328125 
L 51.203125 0 
L 61.09375 0 
z
" id="CMSS17-88"/>
     <path d="M 15.296875 65.359375 
L 6.90625 65.359375 
L 6.90625 57 
L 15.296875 57 
z
M 14.796875 42.796875 
L 7.40625 42.796875 
L 7.40625 0 
L 14.796875 0 
z
" id="CMSS17-105"/>
     <path d="M 41.796875 43 
L 34 43 
L 27.296875 24.3125 
C 25.203125 18.203125 22.203125 9.796875 21.703125 5.5 
L 21.59375 5.5 
C 21.40625 7.3125 20.59375 9.90625 20.09375 11.703125 
C 19.5 13.90625 18.703125 16.5 18.09375 18.3125 
L 9.296875 43 
L 1.296875 43 
L 17.09375 0 
L 26 0 
z
" id="CMSS17-118"/>
    </defs>
    <g transform="translate(70.919475 32.334879)scale(0.12 -0.12)">
     <use transform="scale(0.996264)" xlink:href="#CMSS17-97"/>
     <use transform="translate(42.319467 0)scale(0.996264)" xlink:href="#CMSS17-114"/>
     <use transform="translate(74.229239 0)scale(0.996264)" xlink:href="#CMSS17-88"/>
     <use transform="translate(136.447094 0)scale(0.996264)" xlink:href="#CMSS17-105"/>
     <use transform="translate(158.627817 0)scale(0.996264)" xlink:href="#CMSS17-118"/>
    </g>
   </g>
   <g id="text_62">
    <!-- zbMATH -->
    <defs>
     <path d="M 37.5 39.09375 
L 37.5 42.96875 
L 3.90625 42.96875 
L 3.90625 37 
L 16.703125 37 
C 17.90625 37 19.09375 37 20.296875 37 
L 27.296875 37 
L 2.59375 4.078125 
L 2.59375 0 
L 37.796875 0 
L 37.796875 6.171875 
L 24.203125 6.171875 
C 23 6.171875 21.796875 6.171875 20.59375 6.171875 
L 12.90625 6.171875 
z
" id="CMSS17-122"/>
     <path d="M 14.90625 69 
L 7.5 69 
L 7.5 -0.203125 
L 15.09375 -0.203125 
L 15.09375 4.28125 
C 18.90625 0.59375 23.5 -1 27.59375 -1 
C 37.203125 -1 45 8.578125 45 21.125 
C 45 32.59375 39 43.0625 30.09375 43.0625 
C 23.796875 43.0625 18.203125 40.484375 14.90625 37.796875 
z
M 15.09375 31.96875 
C 17.296875 34.71875 20.40625 37 24.796875 37 
C 30.703125 37 37.40625 32.765625 37.40625 21.125 
C 37.40625 8.71875 29.40625 5.078125 23.90625 5.078125 
C 21.90625 5.078125 19.796875 5.5625 17.796875 7.25 
C 15.09375 9.609375 15.09375 11.078125 15.09375 12.453125 
z
" id="CMSS17-98"/>
     <path d="M 49.90625 37.046875 
L 45.09375 23.015625 
C 44.296875 20.421875 41.59375 12.359375 41 9.171875 
L 40.90625 9.171875 
C 40.59375 11.171875 40 13.265625 38.40625 18.34375 
C 37.5 21.328125 36.5 24.40625 35.5 27.203125 
L 20.703125 69 
L 9 69 
L 9 0 
L 16.796875 0 
L 16.796875 60.9375 
L 16.90625 60.9375 
C 16.90625 60.84375 17.796875 56.453125 23.90625 39.046875 
L 37.09375 1.5 
L 44.5 1.5 
L 56.40625 34.859375 
C 57.203125 37.15625 59.703125 44.421875 60.796875 47.90625 
C 61.796875 50.890625 64.296875 58.25 64.90625 61.140625 
L 65 61.140625 
L 65 0 
L 72.90625 0 
L 72.90625 69 
L 61.296875 69 
z
" id="CMSS17-77"/>
     <path d="M 35.5 69 
L 26.90625 69 
L 2.59375 0 
L 10.203125 0 
L 17.203125 20 
L 44 20 
L 51.09375 0 
L 59.796875 0 
z
M 42.09375 25.578125 
L 19.09375 25.578125 
C 23.90625 39.5 29.90625 56.84375 30.59375 61.328125 
L 30.703125 61.328125 
C 31.40625 57.234375 33.40625 51.265625 35.09375 46.1875 
z
" id="CMSS17-65"/>
     <path d="M 36.203125 62 
L 44.5 62 
C 45.703125 62 46.90625 62 48.09375 62 
L 60.59375 62 
L 60.59375 68.375 
L 3.40625 68.375 
L 3.40625 62 
L 15.90625 62 
C 17.09375 62 18.296875 62 19.5 62 
L 27.796875 62 
L 27.796875 -0.5 
L 36.203125 -0.5 
z
" id="CMSS17-84"/>
     <path d="M 57.40625 69 
L 49 69 
L 49 39.078125 
L 17.203125 39.078125 
L 17.203125 69 
L 8.796875 69 
L 8.796875 0 
L 17.203125 0 
L 17.203125 33 
L 49 33 
L 49 0 
L 57.40625 0 
z
" id="CMSS17-72"/>
    </defs>
    <g transform="translate(159.39656 32.334879)scale(0.12 -0.12)">
     <use transform="scale(0.996264)" xlink:href="#CMSS17-122"/>
     <use transform="translate(40.677872 0)scale(0.996264)" xlink:href="#CMSS17-98"/>
     <use transform="translate(88.882815 0)scale(0.996264)" xlink:href="#CMSS17-77"/>
     <use transform="translate(170.558845 0)scale(0.996264)" xlink:href="#CMSS17-65"/>
     <use transform="translate(224.969444 0)scale(0.996264)" xlink:href="#CMSS17-84"/>
     <use transform="translate(288.788898 0)scale(0.996264)" xlink:href="#CMSS17-72"/>
    </g>
   </g>
   <g id="text_63">
    <!-- 'Bessel Function' -->
    <defs>
     <path d="M 17 61.09375 
L 17 68.953125 
L 9 68.953125 
L 9 61 
L 11.5 61 
L 8.90625 48.5 
L 12.90625 48.5 
z
" id="CMSS17-39"/>
     <path d="M 8.90625 69 
L 8.90625 0 
L 33.796875 0 
C 47.40625 0 57.296875 8.96875 57.296875 18.75 
C 57.296875 26.328125 50.796875 34 39.09375 36.203125 
C 52.09375 39.96875 54.703125 47.5 54.703125 51.765625 
C 54.703125 60.671875 44.90625 69 31.203125 69 
z
M 17 39 
L 17 63.421875 
L 28.5 63.421875 
C 38.796875 63.421875 46.90625 58.1875 46.90625 51.65625 
C 46.90625 45.71875 40.5 39 27.59375 39 
z
M 17 5.578125 
L 17 32.921875 
L 30.296875 32.921875 
C 41.09375 32.921875 49.40625 26.234375 49.40625 18.84375 
C 49.40625 12.0625 42.09375 5.578125 31 5.578125 
z
" id="CMSS17-66"/>
     <path d="M 39.09375 21.515625 
C 39.09375 24.84375 38.90625 31.296875 35.703125 36.640625 
C 32.203125 42.390625 26.5 44 22.203125 44 
C 11.796875 44 3 34.1875 3 21.484375 
C 3 9.09375 12.09375 -1 23.59375 -1 
C 28.09375 -1 33.59375 0.296875 38.59375 3.875 
C 38.59375 4.28125 38.40625 6.46875 38.296875 6.5625 
C 38.296875 6.765625 38 9.84375 38 10.25 
C 33.203125 6.359375 27.703125 5.078125 23.703125 5.078125 
C 17.296875 5.078125 10.40625 10.421875 10.09375 21.515625 
z
M 10.90625 27 
C 12.203125 32.5625 16.59375 37.828125 22.203125 37.828125 
C 23.703125 37.828125 30.703125 37.828125 32.5 27 
z
" id="CMSS17-101"/>
     <path d="M 32.203125 41.046875 
C 26.296875 43.859375 21.703125 43.859375 18.703125 43.859375 
C 11.59375 43.859375 3.09375 41.375 3.09375 31.296875 
C 3.09375 21.234375 14.09375 19.03125 17.09375 18.421875 
C 21.703125 17.53125 26.796875 16.53125 26.796875 11.5625 
C 26.796875 5.265625 19.59375 5.265625 18.296875 5.265625 
C 14.296875 5.265625 8.796875 6.359375 3.796875 9.96875 
L 2.59375 3.28125 
C 8.296875 0 13.796875 -1 18.40625 -1 
C 30.703125 -1 33.796875 6.5 33.796875 12.203125 
C 33.796875 17.09375 31 20.390625 29.09375 21.890625 
C 25.796875 24.5 24.59375 24.796875 16.40625 26.5 
C 15 26.703125 10.09375 27.796875 10.09375 32.28125 
C 10.09375 38 16.40625 38 17.796875 38 
C 24.296875 38 28.296875 35.984375 31 34.5 
z
" id="CMSS17-115"/>
     <path d="M 14.796875 69 
L 7.40625 69 
L 7.40625 0 
L 14.796875 0 
z
" id="CMSS17-108"/>
     <path d="M 45.59375 31 
L 45.59375 37.078125 
L 17.203125 37.078125 
L 17.203125 62 
L 29.40625 62 
C 30.59375 62 31.796875 62 33 62 
L 49.5 62 
L 49.5 68.359375 
L 8.796875 68.359375 
L 8.796875 -0.5 
L 17.203125 -0.5 
L 17.203125 31 
z
" id="CMSS17-70"/>
     <path d="M 40.90625 42.796875 
L 33.296875 42.796875 
L 33.296875 15.1875 
C 33.296875 7.78125 27.90625 4.78125 22.203125 4.78125 
C 15.59375 4.78125 15 6.984375 15 11.078125 
L 15 42.796875 
L 7.40625 42.796875 
L 7.40625 10.59375 
C 7.40625 2.796875 10.09375 -1 17 -1 
C 20.40625 -1 28.09375 -0.203125 33.5 4.78125 
L 33.5 0 
L 40.90625 0 
z
" id="CMSS17-117"/>
     <path d="M 40.90625 29.328125 
C 40.90625 35.671875 39.40625 44 28.09375 44 
C 21.703125 44 17.5 40.71875 14.703125 37.328125 
L 14.703125 43.09375 
L 7.40625 43.09375 
L 7.40625 0 
L 15 0 
L 15 24.359375 
C 15 30.6875 17.40625 37.9375 24.203125 37.9375 
C 33 37.9375 33.296875 32 33.296875 28.578125 
L 33.296875 0 
L 40.90625 0 
z
" id="CMSS17-110"/>
     <path d="M 38.5 39.703125 
C 38.5 40.390625 33.90625 42.40625 32.703125 42.796875 
C 29.40625 44 25.203125 44 24.09375 44 
C 11.09375 44 3.296875 32.703125 3.296875 21.296875 
C 3.296875 9.296875 12 -1 23.703125 -1 
C 30.40625 -1 35.203125 1.1875 39.09375 3.78125 
L 38.5 10.375 
C 34.203125 7.078125 29.203125 5.265625 23.796875 5.265625 
C 16 5.265625 10.90625 12.09375 10.90625 21.390625 
C 10.90625 28.609375 14.203125 37.71875 24.203125 37.71875 
C 29.703125 37.71875 32.796875 36.609375 37.40625 33.515625 
z
" id="CMSS17-99"/>
     <path d="M 16.703125 37 
L 29.703125 37 
L 29.703125 42.765625 
L 16.703125 42.765625 
L 16.703125 55 
L 9.59375 55 
L 9.59375 42.765625 
L 1.703125 42.765625 
L 1.703125 37 
L 9.40625 37 
L 9.40625 11.703125 
C 9.40625 6 10.703125 -1 17.296875 -1 
C 22.296875 -1 26.90625 0.390625 31.296875 2.6875 
L 29.703125 8.5625 
C 27.296875 6.46875 24.40625 5.265625 21.296875 5.265625 
C 16.90625 5.265625 16.703125 10.875 16.703125 13.375 
z
" id="CMSS17-116"/>
     <path d="M 44.203125 21.1875 
C 44.203125 34 34.703125 44 23.5 44 
C 12 44 2.703125 33.703125 2.703125 21.1875 
C 2.703125 8.5 12.296875 -1 23.40625 -1 
C 34.796875 -1 44.203125 8.796875 44.203125 21.1875 
z
M 23.5 5.265625 
C 16.40625 5.265625 10.296875 11.078125 10.296875 22 
C 10.296875 33.609375 17.40625 37.921875 23.40625 37.921875 
C 29.90625 37.921875 36.59375 33.21875 36.59375 22 
C 36.59375 10.671875 30.09375 5.265625 23.5 5.265625 
z
" id="CMSS17-111"/>
    </defs>
    <g transform="translate(84.248013 12.72)scale(0.14 -0.14)">
     <use transform="scale(0.996264)" xlink:href="#CMSS17-39"/>
     <use transform="translate(26.024205 0)scale(0.996264)" xlink:href="#CMSS17-66"/>
     <use transform="translate(88.362245 0)scale(0.996264)" xlink:href="#CMSS17-101"/>
     <use transform="translate(130.001067 0)scale(0.996264)" xlink:href="#CMSS17-115"/>
     <use transform="translate(165.914609 0)scale(0.996264)" xlink:href="#CMSS17-115"/>
     <use transform="translate(201.828151 0)scale(0.996264)" xlink:href="#CMSS17-101"/>
     <use transform="translate(243.466973 0)scale(0.996264)" xlink:href="#CMSS17-108"/>
     <use transform="translate(296.876809 0)scale(0.996264)" xlink:href="#CMSS17-70"/>
     <use transform="translate(347.563914 0)scale(0.996264)" xlink:href="#CMSS17-117"/>
     <use transform="translate(395.768858 0)scale(0.996264)" xlink:href="#CMSS17-110"/>
     <use transform="translate(443.973801 0)scale(0.996264)" xlink:href="#CMSS17-99"/>
     <use transform="translate(485.612623 0)scale(0.996264)" xlink:href="#CMSS17-116"/>
     <use transform="translate(519.444189 0)scale(0.996264)" xlink:href="#CMSS17-105"/>
     <use transform="translate(541.624912 0)scale(0.996264)" xlink:href="#CMSS17-111"/>
     <use transform="translate(588.468536 0)scale(0.996264)" xlink:href="#CMSS17-110"/>
     <use transform="translate(636.673479 0)scale(0.996264)" xlink:href="#CMSS17-39"/>
    </g>
   </g>
  </g>
 </g>
 <defs>
  <clipPath id="p9061d4812b">
   <rect height="439.92" width="223.488" x="20.736" y="18.72"/>
  </clipPath>
 </defs>
</svg>
