<?xml version="1.0" encoding="utf-8" standalone="no"?>
<!DOCTYPE svg PUBLIC "-//W3C//DTD SVG 1.1//EN"
  "http://www.w3.org/Graphics/SVG/1.1/DTD/svg11.dtd">
<!-- Created with matplotlib (https://matplotlib.org/) -->
<svg height="576pt" version="1.1" viewBox="0 0 288 576" width="288pt" xmlns="http://www.w3.org/2000/svg" xmlns:xlink="http://www.w3.org/1999/xlink">
 <defs>
  <style type="text/css">
*{stroke-linecap:butt;stroke-linejoin:round;}
  </style>
 </defs>
 <g id="figure_1">
  <g id="patch_1">
   <path d="M 0 576 
L 288 576 
L 288 0 
L 0 0 
z
" style="fill:#ffffff;"/>
  </g>
  <g id="axes_1">
   <g id="patch_2">
    <path d="M 57.6 552.96 
L 273.6 552.96 
L 273.6 23.04 
L 57.6 23.04 
z
" style="fill:#ffffff;"/>
   </g>
   <g id="patch_3">
    <path clip-path="url(#pcdc289ec12)" d="M 14.4 547.764706 
L 95.32656 547.764706 
L 95.32656 532.814219 
L 14.4 532.814219 
z
" style="fill:#22a785;"/>
   </g>
   <g id="patch_4">
    <path clip-path="url(#pcdc289ec12)" d="M 14.4 529.076598 
L 95.652288 529.076598 
L 95.652288 514.126111 
L 14.4 514.126111 
z
" style="fill:#22a785;"/>
   </g>
   <g id="patch_5">
    <path clip-path="url(#pcdc289ec12)" d="M 14.4 510.388489 
L 99.980064 510.388489 
L 99.980064 495.438003 
L 14.4 495.438003 
z
" style="fill:#22a884;"/>
   </g>
   <g id="patch_6">
    <path clip-path="url(#pcdc289ec12)" d="M 14.4 491.700381 
L 100.03968 491.700381 
L 100.03968 476.749894 
L 14.4 476.749894 
z
" style="fill:#22a884;"/>
   </g>
   <g id="patch_7">
    <path clip-path="url(#pcdc289ec12)" d="M 14.4 473.012273 
L 100.153728 473.012273 
L 100.153728 458.061786 
L 14.4 458.061786 
z
" style="fill:#22a884;"/>
   </g>
   <g id="patch_8">
    <path clip-path="url(#pcdc289ec12)" d="M 14.4 454.324164 
L 102.448512 454.324164 
L 102.448512 439.373678 
L 14.4 439.373678 
z
" style="fill:#23a983;"/>
   </g>
   <g id="patch_9">
    <path clip-path="url(#pcdc289ec12)" d="M 14.4 435.636056 
L 102.559104 435.636056 
L 102.559104 420.685569 
L 14.4 420.685569 
z
" style="fill:#23a983;"/>
   </g>
   <g id="patch_10">
    <path clip-path="url(#pcdc289ec12)" d="M 14.4 416.947948 
L 104.551488 416.947948 
L 104.551488 401.997461 
L 14.4 401.997461 
z
" style="fill:#23a983;"/>
   </g>
   <g id="patch_11">
    <path clip-path="url(#pcdc289ec12)" d="M 14.4 398.259839 
L 105.544224 398.259839 
L 105.544224 383.309353 
L 14.4 383.309353 
z
" style="fill:#23a983;"/>
   </g>
   <g id="patch_12">
    <path clip-path="url(#pcdc289ec12)" d="M 14.4 379.571731 
L 112.21776 379.571731 
L 112.21776 364.621244 
L 14.4 364.621244 
z
" style="fill:#24aa83;"/>
   </g>
   <g id="patch_13">
    <path clip-path="url(#pcdc289ec12)" d="M 14.4 360.883623 
L 117.291168 360.883623 
L 117.291168 345.933136 
L 14.4 345.933136 
z
" style="fill:#25ab82;"/>
   </g>
   <g id="patch_14">
    <path clip-path="url(#pcdc289ec12)" d="M 14.4 342.195514 
L 119.843424 342.195514 
L 119.843424 327.245028 
L 14.4 327.245028 
z
" style="fill:#25ac82;"/>
   </g>
   <g id="patch_15">
    <path clip-path="url(#pcdc289ec12)" d="M 14.4 323.507406 
L 122.904576 323.507406 
L 122.904576 308.556919 
L 14.4 308.556919 
z
" style="fill:#25ac82;"/>
   </g>
   <g id="patch_16">
    <path clip-path="url(#pcdc289ec12)" d="M 14.4 304.819298 
L 125.708256 304.819298 
L 125.708256 289.868811 
L 14.4 289.868811 
z
" style="fill:#26ad81;"/>
   </g>
   <g id="patch_17">
    <path clip-path="url(#pcdc289ec12)" d="M 14.4 286.131189 
L 127.328256 286.131189 
L 127.328256 271.180702 
L 14.4 271.180702 
z
" style="fill:#26ad81;"/>
   </g>
   <g id="patch_18">
    <path clip-path="url(#pcdc289ec12)" d="M 14.4 267.443081 
L 128.94048 267.443081 
L 128.94048 252.492594 
L 14.4 252.492594 
z
" style="fill:#26ad81;"/>
   </g>
   <g id="patch_19">
    <path clip-path="url(#pcdc289ec12)" d="M 14.4 248.754972 
L 129.625632 248.754972 
L 129.625632 233.804486 
L 14.4 233.804486 
z
" style="fill:#26ad81;"/>
   </g>
   <g id="patch_20">
    <path clip-path="url(#pcdc289ec12)" d="M 14.4 230.066864 
L 130.695264 230.066864 
L 130.695264 215.116377 
L 14.4 215.116377 
z
" style="fill:#26ad81;"/>
   </g>
   <g id="patch_21">
    <path clip-path="url(#pcdc289ec12)" d="M 14.4 211.378756 
L 131.034816 211.378756 
L 131.034816 196.428269 
L 14.4 196.428269 
z
" style="fill:#26ad81;"/>
   </g>
   <g id="patch_22">
    <path clip-path="url(#pcdc289ec12)" d="M 14.4 192.690647 
L 134.769888 192.690647 
L 134.769888 177.740161 
L 14.4 177.740161 
z
" style="fill:#27ad81;"/>
   </g>
   <g id="patch_23">
    <path clip-path="url(#pcdc289ec12)" d="M 14.4 174.002539 
L 137.38608 174.002539 
L 137.38608 159.052052 
L 14.4 159.052052 
z
" style="fill:#27ad81;"/>
   </g>
   <g id="patch_24">
    <path clip-path="url(#pcdc289ec12)" d="M 14.4 155.314431 
L 140.485248 155.314431 
L 140.485248 140.363944 
L 14.4 140.363944 
z
" style="fill:#28ae80;"/>
   </g>
   <g id="patch_25">
    <path clip-path="url(#pcdc289ec12)" d="M 14.4 136.626322 
L 144.84672 136.626322 
L 144.84672 121.675836 
L 14.4 121.675836 
z
" style="fill:#28ae80;"/>
   </g>
   <g id="patch_26">
    <path clip-path="url(#pcdc289ec12)" d="M 14.4 117.938214 
L 191.183904 117.938214 
L 191.183904 102.987727 
L 14.4 102.987727 
z
" style="fill:#2eb37c;"/>
   </g>
   <g id="patch_27">
    <path clip-path="url(#pcdc289ec12)" d="M 14.4 99.250106 
L 195.830496 99.250106 
L 195.830496 84.299619 
L 14.4 84.299619 
z
" style="fill:#2fb47c;"/>
   </g>
   <g id="patch_28">
    <path clip-path="url(#pcdc289ec12)" d="M 14.4 80.561997 
L 216.367776 80.561997 
L 216.367776 65.611511 
L 14.4 65.611511 
z
" style="fill:#32b67a;"/>
   </g>
   <g id="patch_29">
    <path clip-path="url(#pcdc289ec12)" d="M 14.4 61.873889 
L 260.772192 61.873889 
L 260.772192 46.923402 
L 14.4 46.923402 
z
" style="fill:#37b878;"/>
   </g>
   <g id="patch_30">
    <path clip-path="url(#pcdc289ec12)" d="M 14.4 43.185781 
L 266.69664 43.185781 
L 266.69664 28.235294 
L 14.4 28.235294 
z
" style="fill:#37b878;"/>
   </g>
   <g id="matplotlib.axis_1">
    <g id="xtick_1">
     <g id="line2d_1">
      <defs>
       <path d="M 0 0 
L 0 3.5 
" id="mfb6a727571" style="stroke:#000000;stroke-width:0.8;"/>
      </defs>
      <g>
       <use style="stroke:#000000;stroke-width:0.8;" x="57.6" xlink:href="#mfb6a727571" y="552.96"/>
      </g>
     </g>
     <g id="text_1">
      <!-- 50k -->
      <defs>
       <path d="M 14.59375 58.625 
L 39.09375 58.625 
L 39.09375 65 
L 7.296875 65 
L 7.296875 27.828125 
L 14 27.828125 
C 15.796875 31.96875 19.5 35 24.296875 35 
C 28.796875 35 33.796875 31.078125 33.796875 19.78125 
C 33.796875 7.703125 26.703125 4.171875 21.5 4.171875 
C 15.09375 4.171875 9.203125 8 6.59375 13.296875 
L 3.40625 7.796875 
C 8 0.765625 15.5 -2 21.5 -2 
C 33.09375 -2 42.203125 7.765625 42.203125 19.578125 
C 42.203125 31.71875 34.09375 41.078125 24.40625 41.078125 
C 20.90625 41.078125 17.5 39.890625 14.59375 37.484375 
z
" id="CMSS17-53"/>
       <path d="M 43.09375 31.9375 
C 43.09375 37.578125 43 48.078125 38.90625 56.1875 
C 34.796875 64 28.203125 66.078125 23.5 66.078125 
C 16.703125 66.078125 10.90625 62.109375 7.90625 55.78125 
C 4.703125 49.15625 3.796875 42.328125 3.796875 31.9375 
C 3.796875 24.828125 4.09375 16.109375 7.703125 8.484375 
C 11.796875 0.078125 18.703125 -2 23.40625 -2 
C 29.59375 -2 35.59375 1.265625 39 8.09375 
C 42.5 15.21875 43.09375 23.03125 43.09375 31.9375 
z
M 23.40625 4.078125 
C 15.796875 4.078125 13.5 12.671875 12.796875 15.546875 
C 11.59375 20.46875 11.40625 25.21875 11.40625 33.03125 
C 11.40625 39.15625 11.40625 46.0625 13.296875 51.515625 
C 15.59375 57.828125 19.59375 60 23.40625 60 
C 30.796875 60 33.203125 52.6875 34 50.125 
C 35.5 44.890625 35.5 38.765625 35.5 33.03125 
C 35.5 23.84375 35.5 4.078125 23.40625 4.078125 
z
" id="CMSS17-48"/>
       <path d="M 26.5 26.375 
L 42 42.796875 
L 32.40625 42.796875 
L 14.90625 24.28125 
L 14.90625 69 
L 7.5 69 
L 7.5 0 
L 14.796875 0 
L 14.796875 13.9375 
L 21.5 21 
L 35.59375 0 
L 44.09375 0 
z
" id="CMSS17-107"/>
      </defs>
      <g transform="translate(47.458169 569.645876)scale(0.14 -0.14)">
       <use transform="scale(0.996264)" xlink:href="#CMSS17-53"/>
       <use transform="translate(46.843624 0)scale(0.996264)" xlink:href="#CMSS17-48"/>
       <use transform="translate(93.687247 0)scale(0.996264)" xlink:href="#CMSS17-107"/>
      </g>
     </g>
    </g>
    <g id="xtick_2">
     <g id="line2d_2">
      <g>
       <use style="stroke:#000000;stroke-width:0.8;" x="100.8" xlink:href="#mfb6a727571" y="552.96"/>
      </g>
     </g>
     <g id="text_2">
      <!-- 100k -->
      <defs>
       <path d="M 28.40625 67 
L 26.5 67 
C 21.09375 61.5625 14.796875 60.78125 8.40625 60.78125 
L 8.40625 55 
C 11.296875 55 16 55 20.703125 57.296875 
L 20.703125 5.765625 
L 8.90625 5.765625 
L 8.90625 0 
L 40.203125 0 
L 40.203125 5.765625 
L 28.40625 5.765625 
z
" id="CMSS17-49"/>
      </defs>
      <g transform="translate(87.243925 569.645876)scale(0.14 -0.14)">
       <use transform="scale(0.996264)" xlink:href="#CMSS17-49"/>
       <use transform="translate(46.843624 0)scale(0.996264)" xlink:href="#CMSS17-48"/>
       <use transform="translate(93.687247 0)scale(0.996264)" xlink:href="#CMSS17-48"/>
       <use transform="translate(140.530871 0)scale(0.996264)" xlink:href="#CMSS17-107"/>
      </g>
     </g>
    </g>
    <g id="xtick_3">
     <g id="line2d_3">
      <g>
       <use style="stroke:#000000;stroke-width:0.8;" x="144" xlink:href="#mfb6a727571" y="552.96"/>
      </g>
     </g>
     <g id="text_3">
      <!-- 150k -->
      <g transform="translate(130.443925 569.645876)scale(0.14 -0.14)">
       <use transform="scale(0.996264)" xlink:href="#CMSS17-49"/>
       <use transform="translate(46.843624 0)scale(0.996264)" xlink:href="#CMSS17-53"/>
       <use transform="translate(93.687247 0)scale(0.996264)" xlink:href="#CMSS17-48"/>
       <use transform="translate(140.530871 0)scale(0.996264)" xlink:href="#CMSS17-107"/>
      </g>
     </g>
    </g>
    <g id="xtick_4">
     <g id="line2d_4">
      <g>
       <use style="stroke:#000000;stroke-width:0.8;" x="187.2" xlink:href="#mfb6a727571" y="552.96"/>
      </g>
     </g>
     <g id="text_4">
      <!-- 200k -->
      <defs>
       <path d="M 25.796875 21.203125 
C 28.59375 24.078125 32.796875 27.5625 35.703125 31.046875 
C 38.5 34.4375 42.203125 39.234375 42.203125 46.203125 
C 42.203125 57.140625 34.796875 67 22.203125 67 
C 12.296875 67 6.59375 60.828125 3.90625 51.15625 
L 7.796875 45.765625 
C 10 54.84375 13.09375 60.625 20.90625 60.625 
C 29.5 60.625 34.296875 53.640625 34.296875 45.96875 
C 34.296875 36.796875 27.296875 29.703125 22 24.421875 
C 16.09375 18.546875 10.296875 12.5625 4.703125 6.375 
L 4.703125 0 
L 42.203125 0 
L 42.203125 6.765625 
L 25.203125 6.765625 
C 24 6.765625 22.796875 6.765625 21.59375 6.765625 
L 11.59375 6.765625 
L 11.59375 6.859375 
z
" id="CMSS17-50"/>
      </defs>
      <g transform="translate(173.643925 569.645876)scale(0.14 -0.14)">
       <use transform="scale(0.996264)" xlink:href="#CMSS17-50"/>
       <use transform="translate(46.843624 0)scale(0.996264)" xlink:href="#CMSS17-48"/>
       <use transform="translate(93.687247 0)scale(0.996264)" xlink:href="#CMSS17-48"/>
       <use transform="translate(140.530871 0)scale(0.996264)" xlink:href="#CMSS17-107"/>
      </g>
     </g>
    </g>
    <g id="xtick_5">
     <g id="line2d_5">
      <g>
       <use style="stroke:#000000;stroke-width:0.8;" x="230.4" xlink:href="#mfb6a727571" y="552.96"/>
      </g>
     </g>
     <g id="text_5">
      <!-- 250k -->
      <g transform="translate(216.843925 569.645876)scale(0.14 -0.14)">
       <use transform="scale(0.996264)" xlink:href="#CMSS17-50"/>
       <use transform="translate(46.843624 0)scale(0.996264)" xlink:href="#CMSS17-53"/>
       <use transform="translate(93.687247 0)scale(0.996264)" xlink:href="#CMSS17-48"/>
       <use transform="translate(140.530871 0)scale(0.996264)" xlink:href="#CMSS17-107"/>
      </g>
     </g>
    </g>
    <g id="xtick_6">
     <g id="line2d_6">
      <g>
       <use style="stroke:#000000;stroke-width:0.8;" x="273.6" xlink:href="#mfb6a727571" y="552.96"/>
      </g>
     </g>
     <g id="text_6">
      <!-- 300k -->
      <defs>
       <path d="M 15.703125 31.640625 
L 22.5 31.640625 
C 31.90625 31.640625 34.59375 23.546875 34.59375 17.90625 
C 34.59375 10.203125 30.203125 4.171875 23 4.171875 
C 17.40625 4.171875 9.5 6.9375 5 14.25 
C 4.296875 10.796875 4.296875 10.59375 3.90625 8.21875 
C 8.59375 1.375 16.203125 -2 23.203125 -2 
C 34.59375 -2 43 7.390625 43 17.78125 
C 43 25.59375 37.5 32.140625 30 34.609375 
C 36 37.875 40.40625 44 40.40625 51.140625 
C 40.40625 59.453125 32.703125 66.078125 23.296875 66.078125 
C 14.703125 66.078125 8 60.8125 5.203125 55.15625 
C 5.90625 54.1875 7.703125 51.3125 8.59375 49.828125 
C 10.796875 55.65625 16.5 60 23.203125 60 
C 28.796875 60 32.5 56.359375 32.5 51.109375 
C 32.5 45.671875 29 39.734375 23.09375 38.359375 
C 22.703125 38.359375 16.5 37.765625 15.703125 37.671875 
z
" id="CMSS17-51"/>
      </defs>
      <g transform="translate(260.043925 569.645876)scale(0.14 -0.14)">
       <use transform="scale(0.996264)" xlink:href="#CMSS17-51"/>
       <use transform="translate(46.843624 0)scale(0.996264)" xlink:href="#CMSS17-48"/>
       <use transform="translate(93.687247 0)scale(0.996264)" xlink:href="#CMSS17-48"/>
       <use transform="translate(140.530871 0)scale(0.996264)" xlink:href="#CMSS17-107"/>
      </g>
     </g>
    </g>
   </g>
   <g id="matplotlib.axis_2">
    <g id="ytick_1">
     <g id="line2d_7">
      <defs>
       <path d="M 0 0 
L -3.5 0 
" id="mb3d64830b0" style="stroke:#000000;stroke-width:0.8;"/>
      </defs>
      <g>
       <use style="stroke:#000000;stroke-width:0.8;" x="57.6" xlink:href="#mb3d64830b0" y="540.289463"/>
      </g>
     </g>
     <g id="text_7">
      <!-- $|x-y|$ -->
      <defs>
       <path d="M 15.90625 71.40625 
C 15.90625 73.203125 15.90625 75 13.90625 75 
C 11.90625 75 11.90625 73.203125 11.90625 71.40625 
L 11.90625 -21.40625 
C 11.90625 -23.203125 11.90625 -25 13.90625 -25 
C 15.90625 -25 15.90625 -23.203125 15.90625 -21.40625 
z
" id="CMSY10-106"/>
       <path d="M 47.40625 40.71875 
C 44.203125 40.109375 43 37.71875 43 35.828125 
C 43 33.421875 44.90625 32.625 46.296875 32.625 
C 49.296875 32.625 51.40625 35.21875 51.40625 37.921875 
C 51.40625 42.109375 46.59375 44 42.40625 44 
C 36.296875 44 32.90625 38.015625 32 36.125 
C 29.703125 44 23.5 44 21.703125 44 
C 11.5 44 6.09375 30.9375 6.09375 28.734375 
C 6.09375 28.34375 6.5 27.84375 7.203125 27.84375 
C 8 27.84375 8.203125 28.4375 8.40625 28.84375 
C 11.796875 39.921875 18.5 42.015625 21.40625 42.015625 
C 25.90625 42.015625 26.796875 37.8125 26.796875 35.421875 
C 26.796875 33.234375 26.203125 30.9375 25 26.140625 
L 21.59375 12.46875 
C 20.09375 6.484375 17.203125 1 11.90625 1 
C 11.40625 1 8.90625 1 6.796875 2.296875 
C 10.40625 3 11.203125 5.984375 11.203125 7.1875 
C 11.203125 9.1875 9.703125 10.375 7.796875 10.375 
C 5.40625 10.375 2.796875 8.28125 2.796875 5.09375 
C 2.796875 0.890625 7.5 -1 11.796875 -1 
C 16.59375 -1 20 2.796875 22.09375 6.890625 
C 23.703125 1 28.703125 -1 32.40625 -1 
C 42.59375 -1 48 12.078125 48 14.265625 
C 48 14.765625 47.59375 15.171875 47 15.171875 
C 46.09375 15.171875 46 14.671875 45.703125 13.875 
C 43 5.09375 37.203125 1 32.703125 1 
C 29.203125 1 27.296875 3.59375 27.296875 7.6875 
C 27.296875 9.875 27.703125 11.46875 29.296875 18.0625 
L 32.796875 31.625 
C 34.296875 37.625 37.703125 42.015625 42.296875 42.015625 
C 42.5 42.015625 45.296875 42.015625 47.40625 40.71875 
z
" id="CMMI12-120"/>
       <path d="M 65.90625 23 
C 67.59375 23 69.40625 23 69.40625 25 
C 69.40625 27 67.59375 27 65.90625 27 
L 11.796875 27 
C 10.09375 27 8.296875 27 8.296875 25 
C 8.296875 23 10.09375 23 11.796875 23 
z
" id="CMSY10-0"/>
       <path d="M 26.296875 -10.9375 
C 23.59375 -14.671875 19.703125 -18 14.796875 -18 
C 13.59375 -18 8.796875 -18 7.296875 -13.890625 
C 7.59375 -13.984375 8.09375 -13.984375 8.296875 -13.984375 
C 11.296875 -13.984375 13.296875 -11.390625 13.296875 -9.09375 
C 13.296875 -6.796875 11.40625 -6 9.90625 -6 
C 8.296875 -6 4.796875 -7.15625 4.796875 -11.859375 
C 4.796875 -16.734375 9.09375 -20.09375 14.796875 -20.09375 
C 24.796875 -20.09375 34.90625 -10.9375 37.703125 0.09375 
L 47.5 38.828125 
C 47.59375 39.328125 47.796875 39.9375 47.796875 40.53125 
C 47.796875 42.015625 46.59375 43.015625 45.09375 43.015625 
C 44.203125 43.015625 42.09375 42.609375 41.296875 39.609375 
L 33.90625 10.28125 
C 33.40625 8.484375 33.40625 8.28125 32.59375 7.1875 
C 30.59375 4.390625 27.296875 1 22.5 1 
C 16.90625 1 16.40625 6.484375 16.40625 9.1875 
C 16.40625 14.875 19.09375 22.546875 21.796875 29.734375 
C 22.90625 32.625 23.5 34.03125 23.5 36.015625 
C 23.5 40.21875 20.5 44 15.59375 44 
C 6.40625 44 2.703125 29.53125 2.703125 28.734375 
C 2.703125 28.34375 3.09375 27.84375 3.796875 27.84375 
C 4.703125 27.84375 4.796875 28.234375 5.203125 29.640625 
C 7.59375 38.015625 11.40625 42.015625 15.296875 42.015625 
C 16.203125 42.015625 17.90625 42.015625 17.90625 38.71875 
C 17.90625 36.125 16.796875 33.234375 15.296875 29.4375 
C 10.40625 16.359375 10.40625 13.078125 10.40625 10.671875 
C 10.40625 1.203125 17.203125 -1 22.203125 -1 
C 25.09375 -1 28.703125 -0.09375 32.203125 3.59375 
L 32.296875 3.5 
C 30.796875 -2.296875 29.796875 -6.125 26.296875 -10.9375 
z
" id="CMMI12-121"/>
      </defs>
      <g transform="translate(5.210123 544.274519)scale(0.16 -0.16)">
       <use transform="scale(0.996264)" xlink:href="#CMSY10-106"/>
       <use transform="translate(27.674085 0)scale(0.996264)" xlink:href="#CMMI12-120"/>
       <use transform="translate(105.247351 0)scale(0.996264)" xlink:href="#CMSY10-0"/>
       <use transform="translate(204.874026 0)scale(0.996264)" xlink:href="#CMMI12-121"/>
       <use transform="translate(256.012807 0)scale(0.996264)" xlink:href="#CMSY10-106"/>
      </g>
     </g>
    </g>
    <g id="ytick_2">
     <g id="line2d_8">
      <g>
       <use style="stroke:#000000;stroke-width:0.8;" x="57.6" xlink:href="#mb3d64830b0" y="521.601354"/>
      </g>
     </g>
     <g id="text_8">
      <!-- $d{s}^{2}$ -->
      <defs>
       <path d="M 50.296875 66.515625 
C 50.40625 66.90625 50.59375 67.5 50.59375 68 
C 50.59375 69 49.59375 69 49.40625 69 
C 49.296875 69 44.40625 68.5625 43.90625 68.4375 
C 42.203125 68.328125 40.703125 68.09375 38.90625 68.09375 
C 36.40625 67.890625 35.703125 67.796875 35.703125 66 
C 35.703125 65 36.5 65 37.90625 65 
C 42.796875 65 42.90625 64.109375 42.90625 63.125 
C 42.90625 62.53125 42.703125 61.75 42.59375 61.453125 
L 36.5 37.421875 
C 35.40625 40.015625 32.703125 44 27.5 44 
C 16.203125 44 4 29.4375 4 14.671875 
C 4 4.796875 9.796875 -1 16.59375 -1 
C 22.09375 -1 26.796875 3.296875 29.59375 6.59375 
C 30.59375 0.703125 35.296875 -1 38.296875 -1 
C 41.296875 -1 43.703125 0.796875 45.5 4.390625 
C 47.09375 7.78125 48.5 13.875 48.5 14.265625 
C 48.5 14.765625 48.09375 15.171875 47.5 15.171875 
C 46.59375 15.171875 46.5 14.671875 46.09375 13.171875 
C 44.59375 7.28125 42.703125 1 38.59375 1 
C 35.703125 1 35.5 3.578125 35.5 5.578125 
C 35.5 5.96875 35.5 8.046875 36.203125 10.84375 
z
M 30.09375 11.875 
C 29.59375 10.171875 29.59375 9.984375 28.203125 8.078125 
C 26 5.28125 21.59375 1 16.90625 1 
C 12.796875 1 10.5 4.6875 10.5 10.578125 
C 10.5 16.0625 13.59375 27.234375 15.5 31.4375 
C 18.90625 38.421875 23.59375 42.015625 27.5 42.015625 
C 34.09375 42.015625 35.40625 33.828125 35.40625 33.03125 
C 35.40625 32.9375 35.09375 31.625 35 31.4375 
z
" id="CMMI12-100"/>
       <path d="M 22.796875 20 
C 24.5 19.703125 27.203125 19.109375 27.796875 19 
C 29.09375 18.625 33.59375 17.03125 33.59375 12.234375 
C 33.59375 9.15625 30.796875 1.09375 19.203125 1.09375 
C 17.09375 1.09375 9.59375 1.09375 7.59375 6.8125 
C 11.59375 6.3125 13.59375 9.421875 13.59375 11.640625 
C 13.59375 13.75 12.203125 14.84375 10.203125 14.84375 
C 8 14.84375 5.09375 13.140625 5.09375 8.625 
C 5.09375 2.703125 11.09375 -1 19.09375 -1 
C 34.296875 -1 38.796875 10.171875 38.796875 15.375 
C 38.796875 16.859375 38.796875 19.65625 35.59375 22.84375 
C 33.09375 25.25 30.703125 25.75 25.296875 26.84375 
C 22.59375 27.4375 18.296875 28.34375 18.296875 32.828125 
C 18.296875 34.828125 20.09375 42.015625 29.59375 42.015625 
C 33.796875 42.015625 37.90625 40.453125 38.90625 37 
C 34.5 37 34.296875 33.203125 34.296875 33.109375 
C 34.296875 31 36.203125 30.40625 37.09375 30.40625 
C 38.5 30.40625 41.296875 31.484375 41.296875 35.640625 
C 41.296875 39.765625 37.5 44 29.703125 44 
C 16.59375 44 13.09375 33.75 13.09375 29.671875 
C 13.09375 22.09375 20.5 20.5 22.796875 20 
z
" id="CMMI12-115"/>
       <path d="M 41.703125 15.453125 
L 39.90625 15.453125 
C 38.90625 8.375 38.09375 7.171875 37.703125 6.5625 
C 37.203125 5.765625 30 5.765625 28.59375 5.765625 
L 9.40625 5.765625 
C 13 9.671875 20 16.75 28.5 24.953125 
C 34.59375 30.734375 41.703125 37.53125 41.703125 47.421875 
C 41.703125 59.21875 32.296875 66 21.796875 66 
C 10.796875 66 4.09375 56.3125 4.09375 47.34375 
C 4.09375 43.4375 7 42.9375 8.203125 42.9375 
C 9.203125 42.9375 12.203125 43.546875 12.203125 47.03125 
C 12.203125 50.109375 9.59375 51 8.203125 51 
C 7.59375 51 7 50.90625 6.59375 50.703125 
C 8.5 59.21875 14.296875 63.40625 20.40625 63.40625 
C 29.09375 63.40625 34.796875 56.515625 34.796875 47.421875 
C 34.796875 38.734375 29.703125 31.25 24 24.75 
L 4.09375 2.28125 
L 4.09375 0 
L 39.296875 0 
z
" id="CMR17-50"/>
      </defs>
      <g transform="translate(29.558666 525.58641)scale(0.16 -0.16)">
       <use transform="scale(0.996264)" xlink:href="#CMMI12-100"/>
       <use transform="translate(50.689097 0)scale(0.996264)" xlink:href="#CMMI12-115"/>
       <use transform="translate(96.639144 36.153639)scale(0.697382)" xlink:href="#CMR17-50"/>
      </g>
     </g>
    </g>
    <g id="ytick_3">
     <g id="line2d_9">
      <g>
       <use style="stroke:#000000;stroke-width:0.8;" x="57.6" xlink:href="#mb3d64830b0" y="502.913246"/>
      </g>
     </g>
     <g id="text_9">
      <!-- $({t}_{0})$ -->
      <defs>
       <path d="M 30.59375 -24.390625 
C 30.59375 -24.296875 30.59375 -24.09375 30.296875 -23.796875 
C 25.703125 -19.125 13.40625 -6.359375 13.40625 24.703125 
C 13.40625 55.765625 25.5 68.421875 30.40625 73.390625 
C 30.40625 73.5 30.59375 73.703125 30.59375 74 
C 30.59375 74.296875 30.296875 74.5 29.90625 74.5 
C 28.796875 74.5 20.296875 67.125 15.40625 56.15625 
C 10.40625 45.109375 9 34.359375 9 24.8125 
C 9 17.625 9.703125 5.484375 15.703125 -7.359375 
C 20.5 -17.734375 28.703125 -25 29.90625 -25 
C 30.40625 -25 30.59375 -24.796875 30.59375 -24.390625 
z
" id="CMR17-40"/>
       <path d="M 20.09375 40.09375 
L 29.296875 40.09375 
C 31.203125 40.09375 32.203125 40.09375 32.203125 41.890625 
C 32.203125 43 31.59375 43 29.59375 43 
L 20.796875 43 
L 24.5 57.6875 
C 24.90625 59.078125 24.90625 59.28125 24.90625 60 
C 24.90625 61.609375 23.59375 62.5 22.296875 62.5 
C 21.5 62.5 19.203125 62.203125 18.40625 58.984375 
L 14.5 43 
L 5.09375 43 
C 3.09375 43 2.203125 43 2.203125 41.09375 
C 2.203125 40.09375 2.90625 40.09375 4.796875 40.09375 
L 13.703125 40.09375 
L 7.09375 13.765625 
C 6.296875 10.28125 6 9.28125 6 7.984375 
C 6 3.296875 9.296875 -1 14.90625 -1 
C 25 -1 30.40625 13.5625 30.40625 14.25 
C 30.40625 14.859375 30 15.15625 29.40625 15.15625 
C 29.203125 15.15625 28.796875 15.15625 28.59375 14.75 
C 28.5 14.65625 28.40625 14.546875 27.703125 12.953125 
C 25.59375 7.984375 21 1 15.203125 1 
C 12.203125 1 12 3.5 12 5.6875 
C 12 5.78125 12 7.6875 12.296875 8.875 
z
" id="CMMI12-116"/>
       <path d="M 42 31.640625 
C 42 37.75 41.90625 48.125 37.703125 56.109375 
C 34 63.109375 28.09375 65.59375 22.90625 65.59375 
C 18.09375 65.59375 12 63.40625 8.203125 56.203125 
C 4.203125 48.71875 3.796875 39.4375 3.796875 31.640625 
C 3.796875 25.953125 3.90625 17.28125 7 9.671875 
C 11.296875 -0.609375 19 -2 22.90625 -2 
C 27.5 -2 34.5 -0.109375 38.59375 9.375 
C 41.59375 16.28125 42 24.359375 42 31.640625 
z
M 22.90625 -0.40625 
C 16.5 -0.40625 12.703125 5.078125 11.296875 12.6875 
C 10.203125 18.5625 10.203125 27.15625 10.203125 32.75 
C 10.203125 40.4375 10.203125 46.828125 11.5 52.921875 
C 13.40625 61.390625 19 64 22.90625 64 
C 27 64 32.296875 61.296875 34.203125 53.125 
C 35.5 47.4375 35.59375 40.734375 35.59375 32.75 
C 35.59375 26.25 35.59375 18.265625 34.40625 12.375 
C 32.296875 1.484375 26.40625 -0.40625 22.90625 -0.40625 
z
" id="CMR17-48"/>
       <path d="M 26.296875 24.703125 
C 26.296875 31.875 25.59375 44.015625 19.59375 56.859375 
C 14.796875 67.234375 6.59375 74.5 5.40625 74.5 
C 5.09375 74.5 4.703125 74.390625 4.703125 73.890625 
C 4.703125 73.703125 4.796875 73.59375 4.90625 73.390625 
C 9.703125 68.40625 21.90625 55.75 21.90625 24.75 
C 21.90625 -6.359375 9.796875 -19.015625 4.90625 -24.015625 
C 4.796875 -24.203125 4.703125 -24.3125 4.703125 -24.5 
C 4.703125 -25 5.09375 -25 5.40625 -25 
C 6.5 -25 15 -17.625 19.90625 -6.65625 
C 24.90625 4.390625 26.296875 15.140625 26.296875 24.703125 
z
" id="CMR17-41"/>
      </defs>
      <g transform="translate(26.74705 507.783882)scale(0.16 -0.16)">
       <use transform="translate(0 14.943915)scale(0.996264)" xlink:href="#CMR17-40"/>
       <use transform="translate(35.280768 14.943915)scale(0.996264)" xlink:href="#CMMI12-116"/>
       <use transform="translate(70.507098 0)scale(0.697382)" xlink:href="#CMR17-48"/>
       <use transform="translate(102.988412 14.943915)scale(0.996264)" xlink:href="#CMR17-41"/>
      </g>
     </g>
    </g>
    <g id="ytick_4">
     <g id="line2d_10">
      <g>
       <use style="stroke:#000000;stroke-width:0.8;" x="57.6" xlink:href="#mb3d64830b0" y="484.225138"/>
      </g>
     </g>
     <g id="text_10">
      <!-- $({\mathbb{R}}^{n})$ -->
      <defs>
       <path d="M 26.796875 32 
L 30.40625 32 
L 45.40625 8.734375 
C 46.40625 7.109375 48.796875 3.21875 49.90625 1.703125 
C 50.59375 0.5 50.90625 0.5 53.203125 0.5 
L 67 0.5 
C 68.796875 0.5 70.296875 0.5 70.296875 2.296875 
C 70.296875 3.09375 69.703125 3.796875 68.796875 4 
C 65.09375 4.796875 60.203125 11.4375 57.796875 14.625 
C 57.09375 15.640625 52.09375 22.265625 45.40625 33.09375 
C 54.296875 34.6875 62.90625 38.484375 62.90625 50.34375 
C 62.90625 64.21875 48.203125 69 36.40625 69 
L 5 69 
C 3.203125 69 1.59375 69 1.59375 67.203125 
C 1.59375 65.5 3.5 65.5 4.296875 65.5 
C 10 65.5 10.5 64.796875 10.5 59.796875 
L 10.5 9.703125 
C 10.5 4.703125 10 4 4.296875 4 
C 3.5 4 1.59375 4 1.59375 2.296875 
C 1.59375 0.5 3.203125 0.5 5 0.5 
L 32.40625 0.5 
C 34.203125 0.5 35.703125 0.5 35.703125 2.296875 
C 35.703125 4 34 4 32.90625 4 
C 27.203125 4 26.796875 4.796875 26.796875 9.71875 
z
M 46.09375 36.796875 
C 48.90625 40.5 49.203125 45.796875 49.203125 50.203125 
C 49.203125 55 48.59375 60.296875 45.40625 64.40625 
C 49.5 63.5 59.40625 60.40625 59.40625 50.296875 
C 59.40625 43.796875 56.40625 38.703125 46.09375 36.796875 
z
M 26.796875 60.109375 
C 26.796875 62.21875 26.796875 65.5 33 65.5 
C 41.5 65.5 45.703125 62.015625 45.703125 50.25 
C 45.703125 37.390625 42.59375 35.5 26.796875 35.5 
z
M 13.203125 4 
C 14 5.796875 14 8.59375 14 9.5 
L 14 60 
C 14 61 14 63.703125 13.203125 65.5 
L 24.59375 65.5 
C 23.296875 63.90625 23.296875 61.90625 23.296875 60.40625 
L 23.296875 9.5 
C 23.296875 8.5 23.296875 5.796875 24.09375 4 
z
M 34.5 31.8125 
C 35.203125 31.90625 35.59375 32 36.40625 32 
C 37.90625 32 40.09375 32.296875 41.59375 32.59375 
C 43.09375 30.1875 53.90625 12.328125 62.203125 4 
L 52.5 4 
z
" id="MSBM10-82"/>
       <path d="M 20.59375 29.234375 
C 20.796875 29.84375 23.296875 34.828125 27 38.015625 
C 29.59375 40.40625 33 42.015625 36.90625 42.015625 
C 40.90625 42.015625 42.296875 39.015625 42.296875 35.03125 
C 42.296875 29.34375 38.203125 17.96875 36.203125 12.578125 
C 35.296875 10.171875 34.796875 8.875 34.796875 7.078125 
C 34.796875 2.59375 37.90625 -1 42.703125 -1 
C 52 -1 55.5 13.671875 55.5 14.265625 
C 55.5 14.765625 55.09375 15.171875 54.5 15.171875 
C 53.59375 15.171875 53.5 14.875 53 13.171875 
C 50.703125 4.984375 46.90625 1 43 1 
C 42 1 40.40625 1 40.40625 4.203125 
C 40.40625 6.703125 41.5 9.703125 42.09375 11.09375 
C 44.09375 16.609375 48.296875 27.8125 48.296875 33.515625 
C 48.296875 39.5 44.796875 44 37.203125 44 
C 28.296875 44 23.59375 37.734375 21.796875 35.234375 
C 21.5 40.90625 17.40625 44 13 44 
C 9.796875 44 7.59375 42.109375 5.90625 38.71875 
C 4.09375 35.125 2.703125 29.140625 2.703125 28.734375 
C 2.703125 28.34375 3.09375 27.84375 3.796875 27.84375 
C 4.59375 27.84375 4.703125 27.9375 5.296875 30.234375 
C 6.90625 36.328125 8.703125 42.015625 12.703125 42.015625 
C 15 42.015625 15.796875 40.40625 15.796875 37.421875 
C 15.796875 35.21875 14.796875 31.328125 14.09375 28.234375 
L 11.296875 17.46875 
C 10.90625 15.5625 9.796875 11.078125 9.296875 9.28125 
C 8.59375 6.6875 7.5 2 7.5 1.5 
C 7.5 0.09375 8.59375 -1 10.09375 -1 
C 11.296875 -1 12.703125 -0.40625 13.5 1.09375 
C 13.703125 1.59375 14.59375 5.09375 15.09375 7.078125 
L 17.296875 16.0625 
z
" id="CMMI12-110"/>
      </defs>
      <g transform="translate(19.752437 488.210194)scale(0.16 -0.16)">
       <use transform="scale(0.996264)" xlink:href="#CMR17-40"/>
       <use transform="translate(35.280768 0)scale(0.996264)" xlink:href="#MSBM10-82"/>
       <use transform="translate(107.233358 36.153639)scale(0.697382)" xlink:href="#CMMI12-110"/>
       <use transform="translate(148.492333 0)scale(0.996264)" xlink:href="#CMR17-41"/>
      </g>
     </g>
    </g>
    <g id="ytick_5">
     <g id="line2d_11">
      <g>
       <use style="stroke:#000000;stroke-width:0.8;" x="57.6" xlink:href="#mb3d64830b0" y="465.537029"/>
      </g>
     </g>
     <g id="text_11">
      <!-- $({t}^{\prime })$ -->
      <defs>
       <path d="M 25.296875 47.5 
C 25.796875 48.703125 26.203125 49.59375 26.203125 50.59375 
C 26.203125 53.5 23.59375 55.90625 20.5 55.90625 
C 17.703125 55.90625 15.90625 54 15.203125 51.40625 
L 3.296875 7.703125 
C 3.296875 7.5 2.90625 6.40625 2.90625 6.296875 
C 2.90625 5.203125 5.5 4.5 6.296875 4.5 
C 6.90625 4.5 7 4.796875 7.59375 6.09375 
z
" id="CMSY10-48"/>
      </defs>
      <g transform="translate(29.257655 469.536276)scale(0.16 -0.16)">
       <use transform="scale(0.996264)" xlink:href="#CMR17-40"/>
       <use transform="translate(35.280768 0)scale(0.996264)" xlink:href="#CMMI12-116"/>
       <use transform="translate(70.507098 36.153639)scale(0.697382)" xlink:href="#CMSY10-48"/>
       <use transform="translate(90.183191 0)scale(0.996264)" xlink:href="#CMR17-41"/>
      </g>
     </g>
    </g>
    <g id="ytick_6">
     <g id="line2d_12">
      <g>
       <use style="stroke:#000000;stroke-width:0.8;" x="57.6" xlink:href="#mb3d64830b0" y="446.848921"/>
      </g>
     </g>
     <g id="text_12">
      <!-- $\underset{n\to \infty }{lim}$ -->
      <defs>
       <path d="M 25.40625 66.515625 
C 25.5 66.90625 25.703125 67.5 25.703125 68 
C 25.703125 69 24.703125 69 24.5 69 
C 24.40625 69 20.796875 68.640625 19 68.390625 
C 17.296875 68.390625 15.796875 68.09375 14 68.09375 
C 11.59375 67.890625 10.90625 67.796875 10.90625 66 
C 10.90625 65 11.90625 65 12.90625 65 
C 18 65 18 64.09375 18 63.109375 
C 18 62.71875 18 62.515625 17.5 60.734375 
L 5.09375 11.421875 
C 4.796875 10.328125 4.59375 9.53125 4.59375 7.953125 
C 4.59375 2.984375 8.296875 -1 13.40625 -1 
C 16.703125 -1 18.90625 1.1875 20.5 4.28125 
C 22.203125 7.546875 23.59375 13.8125 23.59375 14.203125 
C 23.59375 14.703125 23.203125 15.109375 22.59375 15.109375 
C 21.703125 15.109375 21.59375 14.609375 21.203125 13.125 
C 19.40625 6.265625 17.59375 1 13.59375 1 
C 10.59375 1 10.59375 4.171875 10.59375 5.578125 
C 10.59375 5.96875 10.59375 8.046875 11.296875 10.84375 
z
" id="CMMI12-108"/>
       <path d="M 28.296875 14.265625 
C 28.296875 14.765625 27.90625 15.171875 27.296875 15.171875 
C 26.40625 15.171875 26.296875 14.875 25.796875 13.171875 
C 23.203125 4.09375 19.09375 1 15.796875 1 
C 14.59375 1 13.203125 1.296875 13.203125 4.296875 
C 13.203125 6.984375 14.40625 9.984375 15.5 12.96875 
L 22.5 31.53125 
C 22.796875 32.328125 23.5 34.125 23.5 36.015625 
C 23.5 40.21875 20.5 44 15.59375 44 
C 6.40625 44 2.703125 29.53125 2.703125 28.734375 
C 2.703125 28.34375 3.09375 27.84375 3.796875 27.84375 
C 4.703125 27.84375 4.796875 28.234375 5.203125 29.625 
C 7.59375 37.9375 11.40625 41.90625 15.296875 41.90625 
C 16.203125 41.90625 17.90625 41.90625 17.90625 38.71875 
C 17.90625 36.125 16.59375 32.828125 15.796875 30.640625 
L 8.796875 12.078125 
C 8.203125 10.484375 7.59375 8.875 7.59375 7.078125 
C 7.59375 2.59375 10.703125 -1 15.5 -1 
C 24.703125 -1 28.296875 13.578125 28.296875 14.265625 
z
M 27.5 62.703125 
C 27.5 64.203125 26.296875 66 24.09375 66 
C 21.796875 66 19.203125 63.796875 19.203125 61.203125 
C 19.203125 58.71875 21.296875 57.921875 22.5 57.921875 
C 25.203125 57.921875 27.5 60.515625 27.5 62.703125 
z
" id="CMMI12-105"/>
       <path d="M 20.59375 29.234375 
C 20.796875 29.84375 23.296875 34.828125 27 38.015625 
C 29.59375 40.40625 33 42.015625 36.90625 42.015625 
C 40.90625 42.015625 42.296875 39.015625 42.296875 35.03125 
C 42.296875 34.421875 42.296875 32.4375 41.09375 27.734375 
L 38.59375 17.46875 
C 37.796875 14.46875 35.90625 7.078125 35.703125 5.984375 
C 35.296875 4.484375 34.703125 1.890625 34.703125 1.5 
C 34.703125 0.09375 35.796875 -1 37.296875 -1 
C 40.296875 -1 40.796875 1.296875 41.703125 4.890625 
L 47.703125 28.734375 
C 47.90625 29.53125 53.09375 42.015625 64.09375 42.015625 
C 68.09375 42.015625 69.5 39.015625 69.5 35.03125 
C 69.5 29.4375 65.59375 18.5625 63.40625 12.578125 
C 62.5 10.171875 62 8.875 62 7.078125 
C 62 2.59375 65.09375 -1 69.90625 -1 
C 79.203125 -1 82.703125 13.671875 82.703125 14.265625 
C 82.703125 14.765625 82.296875 15.171875 81.703125 15.171875 
C 80.796875 15.171875 80.703125 14.875 80.203125 13.171875 
C 77.90625 5.1875 74.203125 1 70.203125 1 
C 69.203125 1 67.59375 1 67.59375 4.203125 
C 67.59375 6.8125 68.796875 10 69.203125 11.09375 
C 71 15.90625 75.5 27.703125 75.5 33.515625 
C 75.5 39.5 72 44 64.40625 44 
C 57.703125 44 52.296875 40.21875 48.296875 34.328125 
C 48 39.71875 44.703125 44 37.203125 44 
C 28.296875 44 23.59375 37.734375 21.796875 35.234375 
C 21.5 40.90625 17.40625 44 13 44 
C 10.09375 44 7.796875 42.609375 5.90625 38.8125 
C 4.09375 35.21875 2.703125 29.140625 2.703125 28.734375 
C 2.703125 28.34375 3.09375 27.84375 3.796875 27.84375 
C 4.59375 27.84375 4.703125 27.9375 5.296875 30.234375 
C 6.796875 36.125 8.703125 42.015625 12.703125 42.015625 
C 15 42.015625 15.796875 40.40625 15.796875 37.421875 
C 15.796875 35.21875 14.796875 31.328125 14.09375 28.234375 
L 11.296875 17.46875 
C 10.90625 15.5625 9.796875 11.078125 9.296875 9.28125 
C 8.59375 6.6875 7.5 2 7.5 1.5 
C 7.5 0.09375 8.59375 -1 10.09375 -1 
C 11.296875 -1 12.703125 -0.40625 13.5 1.09375 
C 13.703125 1.59375 14.59375 5.09375 15.09375 7.078125 
L 17.296875 16.0625 
z
" id="CMMI12-109"/>
       <path d="M 83.40625 23 
C 77.90625 18.796875 75.203125 14.703125 74.40625 13.40625 
C 69.90625 6.5 69.09375 0.203125 69.09375 0.09375 
C 69.09375 -1.09375 70.296875 -1.09375 71.09375 -1.09375 
C 72.796875 -1.09375 72.90625 -0.90625 73.296875 0.90625 
C 75.59375 10.703125 81.5 19.09375 92.796875 23.703125 
C 94 24.09375 94.296875 24.296875 94.296875 25 
C 94.296875 25.703125 93.703125 26 93.5 26.09375 
C 89.09375 27.796875 77 32.796875 73.203125 49.59375 
C 72.90625 50.796875 72.796875 51.09375 71.09375 51.09375 
C 70.296875 51.09375 69.09375 51.09375 69.09375 49.890625 
C 69.09375 49.6875 70 43.390625 74.203125 36.703125 
C 76.203125 33.703125 79.09375 30.203125 83.40625 27 
L 9.09375 27 
C 7.296875 27 5.5 27 5.5 25 
C 5.5 23 7.296875 23 9.09375 23 
z
" id="CMSY10-33"/>
       <path d="M 50.796875 27.03125 
C 45.40625 33.84375 44.203125 35.34375 41.09375 37.84375 
C 35.5 42.34375 29.90625 44.140625 24.796875 44.140625 
C 13.09375 44.140625 5.5 33.15625 5.5 21.46875 
C 5.5 9.984375 12.90625 -1.09375 24.40625 -1.09375 
C 35.90625 -1.09375 44.203125 7.984375 49.09375 15.96875 
C 54.5 9.1875 55.703125 7.6875 58.796875 5.1875 
C 64.40625 0.703125 70 -1.09375 75.09375 -1.09375 
C 86.796875 -1.09375 94.40625 9.890625 94.40625 21.5625 
C 94.40625 33.046875 87 44.140625 75.5 44.140625 
C 64 44.140625 55.703125 35.03125 50.796875 27.03125 
z
M 53.40625 23.65625 
C 57.5 30.859375 64.90625 40.9375 76.203125 40.9375 
C 86.796875 40.9375 92.203125 30.546875 92.203125 21.5625 
C 92.203125 11.765625 85.5 3.6875 76.703125 3.6875 
C 70.90625 3.6875 66.40625 7.890625 64.296875 9.96875 
C 61.796875 12.671875 59.5 15.765625 53.40625 23.65625 
z
M 46.5 19.375 
C 42.40625 12.1875 35 2.09375 23.703125 2.09375 
C 13.09375 2.09375 7.703125 12.484375 7.703125 21.46875 
C 7.703125 31.25 14.40625 39.34375 23.203125 39.34375 
C 29 39.34375 33.5 35.140625 35.59375 33.046875 
C 38.09375 30.359375 40.40625 27.25 46.5 19.375 
z
" id="CMSY10-49"/>
      </defs>
      <g transform="translate(21.586243 454.066309)scale(0.16 -0.16)">
       <use transform="translate(15.191688 59.775871)scale(0.996264)" xlink:href="#CMMI12-108"/>
       <use transform="translate(46.440092 59.775871)scale(0.996264)" xlink:href="#CMMI12-105"/>
       <use transform="translate(79.718694 59.775871)scale(0.996264)" xlink:href="#CMMI12-109"/>
       <use transform="scale(0.697382)" xlink:href="#CMMI12-110"/>
       <use transform="translate(40.760843 0)scale(0.697382)" xlink:href="#CMSY10-33"/>
       <use transform="translate(110.499217 0)scale(0.697382)" xlink:href="#CMSY10-49"/>
      </g>
     </g>
    </g>
    <g id="ytick_7">
     <g id="line2d_13">
      <g>
       <use style="stroke:#000000;stroke-width:0.8;" x="57.6" xlink:href="#mb3d64830b0" y="428.160813"/>
      </g>
     </g>
     <g id="text_13">
      <!-- $(p-1)$ -->
      <defs>
       <path d="M 4.296875 -12.328125 
C 3.59375 -15.3125 3.203125 -16.109375 -0.90625 -16.109375 
C -2.09375 -16.109375 -3.09375 -16.109375 -3.09375 -18 
C -3.09375 -18.203125 -3 -19 -1.90625 -19 
C -0.59375 -19 0.796875 -19 2.09375 -19 
L 6.40625 -19 
C 8.5 -19 13.59375 -19 15.703125 -19 
C 16.296875 -19 17.5 -19 17.5 -17.203125 
C 17.5 -16.109375 16.796875 -16.109375 15.09375 -16.109375 
C 10.5 -16.109375 10.203125 -15.421875 10.203125 -14.640625 
C 10.203125 -13.453125 14.703125 3.421875 15.296875 5.6875 
C 16.40625 2.890625 19.09375 -1 24.296875 -1 
C 35.59375 -1 47.796875 13.671875 47.796875 28.34375 
C 47.796875 37.515625 42.59375 44 35.09375 44 
C 28.703125 44 23.296875 37.8125 22.203125 36.421875 
C 21.40625 41.40625 17.5 44 13.5 44 
C 10.59375 44 8.296875 42.609375 6.40625 38.8125 
C 4.59375 35.21875 3.203125 29.140625 3.203125 28.734375 
C 3.203125 28.34375 3.59375 27.84375 4.296875 27.84375 
C 5.09375 27.84375 5.203125 27.9375 5.796875 30.234375 
C 7.296875 36.125 9.203125 42.015625 13.203125 42.015625 
C 15.5 42.015625 16.296875 40.421875 16.296875 37.453125 
C 16.296875 35.078125 16 34.078125 15.59375 32.296875 
z
M 21.59375 31.140625 
C 22.296875 33.921875 25.09375 36.828125 26.703125 38.21875 
C 27.796875 39.21875 31.09375 42.015625 34.90625 42.015625 
C 39.296875 42.015625 41.296875 37.625 41.296875 32.4375 
C 41.296875 27.640625 38.5 16.359375 36 11.171875 
C 33.5 5.78125 28.90625 1 24.296875 1 
C 17.5 1 16.40625 9.578125 16.40625 9.984375 
C 16.40625 10.28125 16.59375 11.078125 16.703125 11.578125 
z
" id="CMMI12-112"/>
       <path d="M 26.59375 63.40625 
C 26.59375 65.5 26.5 65.5 25.09375 65.5 
C 21.203125 61.1875 15.296875 59.796875 9.703125 59.796875 
C 9.40625 59.796875 8.90625 59.796875 8.796875 59.5 
C 8.703125 59.296875 8.703125 59.09375 8.703125 57 
C 11.796875 57 17 57.59375 21 59.984375 
L 21 7.203125 
C 21 3.6875 20.796875 2.5 12.203125 2.5 
L 9.203125 2.5 
L 9.203125 0 
C 14 0 19 0 23.796875 0 
C 28.59375 0 33.59375 0 38.40625 0 
L 38.40625 2.5 
L 35.40625 2.5 
C 26.796875 2.5 26.59375 3.59375 26.59375 7.15625 
z
" id="CMR17-49"/>
      </defs>
      <g transform="translate(3.340441 432.145869)scale(0.16 -0.16)">
       <use transform="scale(0.996264)" xlink:href="#CMR17-40"/>
       <use transform="translate(35.280768 0)scale(0.996264)" xlink:href="#CMMI12-112"/>
       <use transform="translate(106.379489 0)scale(0.996264)" xlink:href="#CMSY10-0"/>
       <use transform="translate(206.006163 0)scale(0.996264)" xlink:href="#CMR17-49"/>
       <use transform="translate(251.696641 0)scale(0.996264)" xlink:href="#CMR17-41"/>
      </g>
     </g>
    </g>
    <g id="ytick_8">
     <g id="line2d_14">
      <g>
       <use style="stroke:#000000;stroke-width:0.8;" x="57.6" xlink:href="#mb3d64830b0" y="409.472704"/>
      </g>
     </g>
     <g id="text_14">
      <!-- $({x}_{1})$ -->
      <g transform="translate(23.513814 414.34334)scale(0.16 -0.16)">
       <use transform="translate(0 14.943915)scale(0.996264)" xlink:href="#CMR17-40"/>
       <use transform="translate(35.280768 14.943915)scale(0.996264)" xlink:href="#CMMI12-120"/>
       <use transform="translate(90.714827 0)scale(0.697382)" xlink:href="#CMR17-49"/>
       <use transform="translate(123.196141 14.943915)scale(0.996264)" xlink:href="#CMR17-41"/>
      </g>
     </g>
    </g>
    <g id="ytick_9">
     <g id="line2d_15">
      <g>
       <use style="stroke:#000000;stroke-width:0.8;" x="57.6" xlink:href="#mb3d64830b0" y="390.784596"/>
      </g>
     </g>
     <g id="text_15">
      <!-- ${e}^{+}{e}^{-}$ -->
      <defs>
       <path d="M 17.90625 23.109375 
C 20.59375 23.109375 27.40625 23.109375 32.203125 24.921875 
C 39.796875 27.859375 40.5 33.71875 40.5 35.53125 
C 40.5 39.96875 36.703125 44 30.09375 44 
C 19.59375 44 4.5 34.53125 4.5 16.765625 
C 4.5 6.28125 10.5 -1 19.59375 -1 
C 33.203125 -1 41.796875 9.515625 41.796875 10.8125 
C 41.796875 11.40625 41.203125 11.90625 40.796875 11.90625 
C 40.5 11.90625 40.40625 11.8125 39.5 10.921875 
C 33.09375 2.484375 23.59375 1 19.796875 1 
C 14.09375 1 11.09375 5.46875 11.09375 12.84375 
C 11.09375 14.234375 11.09375 16.734375 12.59375 23.109375 
z
M 13.09375 25 
C 17.40625 40.5 26.90625 42.015625 30.09375 42.015625 
C 34.5 42.015625 37.5 39.40625 37.5 35.578125 
C 37.5 25 21.5 25 17.296875 25 
z
" id="CMMI12-101"/>
       <path d="M 37.703125 23 
L 64.203125 23 
C 65.59375 23 67.296875 23 67.296875 24.6875 
C 67.296875 26.484375 65.703125 26.484375 64.203125 26.484375 
L 37.703125 26.484375 
L 37.703125 52.90625 
C 37.703125 54.296875 37.703125 56 36 56 
C 34.203125 56 34.203125 54.40625 34.203125 52.90625 
L 34.203125 26.484375 
L 7.703125 26.484375 
C 6.296875 26.484375 4.59375 26.484375 4.59375 24.796875 
C 4.59375 23 6.203125 23 7.703125 23 
L 34.203125 23 
L 34.203125 -3.40625 
C 34.203125 -4.796875 34.203125 -6.5 35.90625 -6.5 
C 37.703125 -6.5 37.703125 -4.90625 37.703125 -3.40625 
z
" id="CMR17-43"/>
      </defs>
      <g transform="translate(18.276937 394.769652)scale(0.16 -0.16)">
       <use transform="scale(0.996264)" xlink:href="#CMMI12-101"/>
       <use transform="translate(45.212001 36.153639)scale(0.697382)" xlink:href="#CMR17-43"/>
       <use transform="translate(95.910264 0)scale(0.996264)" xlink:href="#CMMI12-101"/>
       <use transform="translate(141.122266 36.153639)scale(0.697382)" xlink:href="#CMSY10-0"/>
      </g>
     </g>
    </g>
    <g id="ytick_10">
     <g id="line2d_16">
      <g>
       <use style="stroke:#000000;stroke-width:0.8;" x="57.6" xlink:href="#mb3d64830b0" y="372.096488"/>
      </g>
     </g>
     <g id="text_16">
      <!-- ${g}^{-1}$ -->
      <defs>
       <path d="M 33.796875 12.671875 
C 33.40625 11.078125 33.203125 10.671875 31.90625 9.1875 
C 27.796875 3.890625 23.59375 2 20.5 2 
C 17.203125 2 14.09375 4.59375 14.09375 11.46875 
C 14.09375 16.765625 17.09375 27.9375 19.296875 32.4375 
C 22.203125 38.015625 26.703125 42.015625 30.90625 42.015625 
C 37.5 42.015625 38.796875 33.828125 38.796875 33.234375 
L 38.5 31.828125 
z
M 40 37.421875 
C 38.703125 40.3125 35.90625 44 30.90625 44 
C 20 44 7.59375 30.328125 7.59375 15.46875 
C 7.59375 5.09375 13.90625 0 20.296875 0 
C 25.59375 0 30.296875 4.1875 32.09375 6.1875 
L 29.90625 -2.671875 
C 28.5 -8.0625 27.90625 -10.53125 24.296875 -13.96875 
C 20.203125 -18 16.40625 -18 14.203125 -18 
C 11.203125 -18 8.703125 -17.796875 6.203125 -17.015625 
C 9.40625 -16.140625 10.203125 -13.40625 10.203125 -12.328125 
C 10.203125 -10.765625 9 -9.1875 6.796875 -9.1875 
C 4.40625 -9.1875 1.796875 -11.15625 1.796875 -14.40625 
C 1.796875 -18.4375 5.90625 -20 14.40625 -20 
C 27.296875 -20 34 -11.765625 35.296875 -6.40625 
L 46.40625 38.046875 
C 46.703125 39.234375 46.703125 39.4375 46.703125 39.625 
C 46.703125 41.015625 45.59375 42.109375 44.09375 42.109375 
C 41.703125 42.109375 40.296875 40.109375 40 37.421875 
z
" id="CMMI12-103"/>
      </defs>
      <g transform="translate(28.296705 377.034429)scale(0.16 -0.16)">
       <use transform="scale(0.996264)" xlink:href="#CMMI12-103"/>
       <use transform="translate(50.285489 36.153639)scale(0.697382)" xlink:href="#CMSY10-0"/>
       <use transform="translate(104.526483 36.153639)scale(0.697382)" xlink:href="#CMR17-49"/>
      </g>
     </g>
    </g>
    <g id="ytick_11">
     <g id="line2d_17">
      <g>
       <use style="stroke:#000000;stroke-width:0.8;" x="57.6" xlink:href="#mb3d64830b0" y="353.408379"/>
      </g>
     </g>
     <g id="text_17">
      <!-- $(k-1)$ -->
      <defs>
       <path d="M 28.09375 66.515625 
C 28.203125 66.921875 28.40625 67.515625 28.40625 68 
C 28.40625 69 27.40625 69 27.203125 69 
C 27.09375 69 23.5 68.640625 21.703125 68.390625 
C 20 68.390625 18.5 68.09375 16.703125 68.09375 
C 14.296875 67.890625 13.59375 67.796875 13.59375 66 
C 13.59375 65 14.59375 65 15.59375 65 
C 20.703125 65 20.703125 64.109375 20.703125 63.125 
C 20.703125 62.734375 20.703125 62.53125 20.203125 60.75 
L 5.90625 3.875 
C 5.5 2.375 5.5 2.1875 5.5 1.578125 
C 5.5 -0.59375 7.203125 -1 8.203125 -1 
C 11 -1 11.59375 1.203125 12.40625 4.296875 
L 17.09375 22.953125 
C 24.296875 22.15625 28.59375 19.15625 28.59375 14.375 
C 28.59375 13.765625 28.59375 13.375 28.296875 11.875 
C 27.90625 10.375 27.90625 9.1875 27.90625 8.6875 
C 27.90625 2.890625 31.703125 -1 36.796875 -1 
C 41.40625 -1 43.796875 3.1875 44.59375 4.59375 
C 46.703125 8.28125 48 13.875 48 14.265625 
C 48 14.765625 47.59375 15.171875 47 15.171875 
C 46.09375 15.171875 46 14.765625 45.59375 13.171875 
C 44.203125 7.984375 42.09375 1 37 1 
C 35 1 33.703125 2 33.703125 5.78125 
C 33.703125 7.6875 34.09375 9.875 34.5 11.375 
C 34.90625 13.171875 34.90625 13.265625 34.90625 14.46875 
C 34.90625 20.359375 29.59375 23.65625 20.40625 24.84375 
C 24 27.046875 27.59375 30.9375 29 32.4375 
C 34.703125 38.8125 38.59375 42.015625 43.203125 42.015625 
C 45.5 42.015625 46.09375 41.40625 46.796875 40.8125 
C 43.09375 40.40625 41.703125 37.8125 41.703125 35.828125 
C 41.703125 33.421875 43.59375 32.625 45 32.625 
C 47.703125 32.625 50.09375 34.921875 50.09375 38.125 
C 50.09375 41.015625 47.796875 44 43.296875 44 
C 37.796875 44 33.296875 40.109375 26.203125 32.125 
C 25.203125 30.9375 21.5 27.140625 17.796875 25.75 
z
" id="CMMI12-107"/>
      </defs>
      <g transform="translate(2.521292 357.393435)scale(0.16 -0.16)">
       <use transform="scale(0.996264)" xlink:href="#CMR17-40"/>
       <use transform="translate(35.280768 0)scale(0.996264)" xlink:href="#CMMI12-107"/>
       <use transform="translate(111.499175 0)scale(0.996264)" xlink:href="#CMSY10-0"/>
       <use transform="translate(211.12585 0)scale(0.996264)" xlink:href="#CMR17-49"/>
       <use transform="translate(256.816327 0)scale(0.996264)" xlink:href="#CMR17-41"/>
      </g>
     </g>
    </g>
    <g id="ytick_12">
     <g id="line2d_18">
      <g>
       <use style="stroke:#000000;stroke-width:0.8;" x="57.6" xlink:href="#mb3d64830b0" y="334.720271"/>
      </g>
     </g>
     <g id="text_18">
      <!-- $(k+1)$ -->
      <g transform="translate(2.779753 338.705327)scale(0.16 -0.16)">
       <use transform="scale(0.996264)" xlink:href="#CMR17-40"/>
       <use transform="translate(35.280768 0)scale(0.996264)" xlink:href="#CMMI12-107"/>
       <use transform="translate(111.499175 0)scale(0.996264)" xlink:href="#CMR17-43"/>
       <use transform="translate(205.353171 0)scale(0.996264)" xlink:href="#CMR17-49"/>
       <use transform="translate(251.043648 0)scale(0.996264)" xlink:href="#CMR17-41"/>
      </g>
     </g>
    </g>
    <g id="ytick_13">
     <g id="line2d_19">
      <g>
       <use style="stroke:#000000;stroke-width:0.8;" x="57.6" xlink:href="#mb3d64830b0" y="316.032163"/>
      </g>
     </g>
     <g id="text_19">
      <!-- $SU(2)$ -->
      <defs>
       <path d="M 63.5 69.109375 
C 63.5 70 62.796875 70 62.59375 70 
C 62.203125 70 62.09375 69.90625 60.90625 68.40625 
C 60.296875 67.703125 56.203125 62.515625 56.09375 62.421875 
C 52.796875 68.90625 46.203125 70 42 70 
C 29.296875 70 17.796875 58.484375 17.796875 47.265625 
C 17.796875 39.828125 22.296875 35.453125 27.203125 33.765625 
C 28.296875 33.359375 34.203125 31.765625 37.203125 31.078125 
C 42.296875 29.6875 43.59375 29.296875 45.703125 27.109375 
C 46.09375 26.609375 48.09375 24.328125 48.09375 19.65625 
C 48.09375 10.421875 39.5 0.890625 29.5 0.890625 
C 21.296875 0.890625 12.203125 4.375 12.203125 15.484375 
C 12.203125 17.375 12.59375 19.765625 12.90625 20.75 
C 12.90625 21.0625 13 21.53125 13 21.734375 
C 13 22.140625 12.796875 22.640625 12 22.640625 
C 11.09375 22.640625 11 22.4375 10.59375 20.75 
L 5.5 0.375 
C 5.5 0.28125 5.09375 -1 5.09375 -1.109375 
C 5.09375 -2 5.90625 -2 6.09375 -2 
C 6.5 -2 6.59375 -1.90625 7.796875 -0.40625 
L 12.40625 5.5625 
C 14.796875 1.96875 20 -2 29.296875 -2 
C 42.203125 -2 54 10.40625 54 22.8125 
C 54 27 53 30.671875 49.203125 34.328125 
C 47.09375 36.421875 45.296875 36.921875 36.09375 39.3125 
C 29.40625 41.09375 28.5 41.390625 26.703125 42.984375 
C 25 44.65625 23.703125 47.046875 23.703125 50.421875 
C 23.703125 58.765625 32.203125 67.3125 41.703125 67.3125 
C 51.5 67.3125 56.09375 61.34375 56.09375 51.921875 
C 56.09375 49.34375 55.59375 46.65625 55.59375 46.265625 
C 55.59375 45.359375 56.40625 45.359375 56.703125 45.359375 
C 57.59375 45.359375 57.703125 45.65625 58.09375 47.25 
z
" id="CMMI12-83"/>
       <path d="M 50.59375 23.03125 
C 47.09375 9.078125 35.5 0.890625 26.09375 0.890625 
C 18.90625 0.890625 14 5.671875 14 13.921875 
C 14 14.3125 14 17.296875 15.09375 21.671875 
L 24.90625 60.734375 
C 25.796875 64.109375 26 65.109375 33.09375 65.109375 
C 34.90625 65.109375 35.90625 65.109375 35.90625 66.90625 
C 35.90625 68 35 68 34.40625 68 
C 32.59375 68 30.5 68 28.59375 68 
L 16.796875 68 
C 14.90625 68 12.796875 68 10.90625 68 
C 10.203125 68 9 68 9 66.109375 
C 9 65.109375 9.703125 65.109375 11.59375 65.109375 
C 17.59375 65.109375 17.59375 64.3125 17.59375 63.21875 
C 17.59375 62.625 16.90625 59.75 16.40625 58.046875 
L 7.703125 23.25 
C 7.40625 22.15625 6.796875 19.46875 6.796875 16.796875 
C 6.796875 5.84375 14.703125 -2 25.59375 -2 
C 35.703125 -2 46.90625 6 52 18.703125 
C 52.703125 20.390625 53.59375 23.90625 54.203125 26.59375 
C 55.203125 30.203125 57.296875 39 58 41.59375 
L 61.796875 56.609375 
C 63.09375 61.8125 63.90625 65.109375 72.703125 65.109375 
C 73.5 65.203125 73.90625 66 73.90625 66.90625 
C 73.90625 68 73 68 72.59375 68 
C 71.203125 68 69.40625 68 68 68 
L 63.296875 68 
C 57.09375 68 53.90625 68 53.796875 68 
C 53.203125 68 52 68 52 66.109375 
C 52 65.109375 52.796875 65.109375 53.5 65.109375 
C 59.5 65.109375 59.90625 62.8125 59.90625 61.015625 
C 59.90625 60.125 59.90625 59.8125 59.5 58.421875 
z
" id="CMMI12-85"/>
      </defs>
      <g transform="translate(7.863959 320.017219)scale(0.16 -0.16)">
       <use transform="scale(0.996264)" xlink:href="#CMMI12-83"/>
       <use transform="translate(65.794439 0)scale(0.996264)" xlink:href="#CMMI12-85"/>
       <use transform="translate(142.453212 0)scale(0.996264)" xlink:href="#CMR17-40"/>
       <use transform="translate(177.73398 0)scale(0.996264)" xlink:href="#CMR17-50"/>
       <use transform="translate(223.424457 0)scale(0.996264)" xlink:href="#CMR17-41"/>
      </g>
     </g>
    </g>
    <g id="ytick_14">
     <g id="line2d_20">
      <g>
       <use style="stroke:#000000;stroke-width:0.8;" x="57.6" xlink:href="#mb3d64830b0" y="297.344054"/>
      </g>
     </g>
     <g id="text_20">
      <!-- ${\int }_{-\infty }^{\infty }$ -->
      <defs>
       <path d="M 27.203125 -88 
C 25.90625 -104.40625 22.296875 -108.90625 16.59375 -108.90625 
C 15.296875 -108.90625 12.296875 -108.59375 10.203125 -106.8125 
C 13.09375 -106.421875 13.90625 -104.109375 13.90625 -102.71875 
C 13.90625 -99.796875 11.703125 -98.5 9.796875 -98.5 
C 7.796875 -98.5 5.59375 -99.796875 5.59375 -102.796875 
C 5.59375 -107.59375 10.59375 -111.09375 16.59375 -111.09375 
C 26.09375 -111.09375 30.90625 -102.40625 33.09375 -93.40625 
C 34.40625 -88.203125 38 -59.09375 38.796875 -47.984375 
L 40.703125 -23.078125 
C 42.09375 -4.6875 45.5 -2.1875 50 -2.1875 
C 51 -2.1875 54.09375 -2.390625 56.296875 -4.28125 
C 53.40625 -4.6875 52.59375 -6.984375 52.59375 -8.390625 
C 52.59375 -11.28125 54.796875 -12.578125 56.703125 -12.578125 
C 58.703125 -12.578125 60.90625 -11.28125 60.90625 -8.28125 
C 60.90625 -3.484375 55.90625 0.015625 49.90625 0.015625 
C 40.40625 0.015625 36.5 -9.6875 34.796875 -17.28125 
C 33.59375 -22.78125 30 -50.984375 29.09375 -63.09375 
z
" id="CMEX10-82"/>
      </defs>
      <g transform="translate(25.400857 303.049321)scale(0.13 -0.13)">
       <use transform="translate(0 114.184008)scale(0.996264)" xlink:href="#CMEX10-82"/>
       <use transform="translate(66.417803 87.257516)scale(0.697382)" xlink:href="#CMSY10-49"/>
       <use transform="translate(66.417803 0)scale(0.697382)" xlink:href="#CMSY10-0"/>
       <use transform="translate(120.658797 0)scale(0.697382)" xlink:href="#CMSY10-49"/>
      </g>
     </g>
    </g>
    <g id="ytick_15">
     <g id="line2d_21">
      <g>
       <use style="stroke:#000000;stroke-width:0.8;" x="57.6" xlink:href="#mb3d64830b0" y="278.655946"/>
      </g>
     </g>
     <g id="text_21">
      <!-- $2n+1$ -->
      <g transform="translate(6.451166 282.641002)scale(0.16 -0.16)">
       <use transform="scale(0.996264)" xlink:href="#CMR17-50"/>
       <use transform="translate(45.690477 0)scale(0.996264)" xlink:href="#CMMI12-110"/>
       <use transform="translate(126.059731 0)scale(0.996264)" xlink:href="#CMR17-43"/>
       <use transform="translate(219.913727 0)scale(0.996264)" xlink:href="#CMR17-49"/>
      </g>
     </g>
    </g>
    <g id="ytick_16">
     <g id="line2d_22">
      <g>
       <use style="stroke:#000000;stroke-width:0.8;" x="57.6" xlink:href="#mb3d64830b0" y="259.967837"/>
      </g>
     </g>
     <g id="text_22">
      <!-- ${h}^{-1}$ -->
      <defs>
       <path d="M 28.09375 66.515625 
C 28.203125 66.921875 28.40625 67.515625 28.40625 68 
C 28.40625 69 27.40625 69 27.203125 69 
C 27.09375 69 22.203125 68.5625 21.703125 68.4375 
C 20 68.328125 18.5 68.09375 16.703125 68.09375 
C 14.203125 67.890625 13.5 67.796875 13.5 66 
C 13.5 65 14.296875 65 15.703125 65 
C 20.59375 65 20.703125 64.109375 20.703125 63.125 
C 20.703125 62.53125 20.5 61.734375 20.40625 61.4375 
L 5.90625 3.875 
C 5.5 2.375 5.5 2.1875 5.5 1.578125 
C 5.5 -0.59375 7.203125 -1 8.203125 -1 
C 9.90625 -1 11.203125 0.296875 11.703125 1.390625 
L 16.203125 19.453125 
C 16.703125 21.65625 17.296875 23.75 17.796875 25.9375 
C 18.90625 30.140625 18.90625 30.234375 20.796875 33.125 
C 22.703125 36.015625 27.203125 42.015625 34.90625 42.015625 
C 38.90625 42.015625 40.296875 39.015625 40.296875 35.03125 
C 40.296875 29.4375 36.40625 18.5625 34.203125 12.578125 
C 33.296875 10.171875 32.796875 8.875 32.796875 7.078125 
C 32.796875 2.59375 35.90625 -1 40.703125 -1 
C 50 -1 53.5 13.671875 53.5 14.265625 
C 53.5 14.765625 53.09375 15.171875 52.5 15.171875 
C 51.59375 15.171875 51.5 14.875 51 13.171875 
C 48.703125 5.1875 45 1 41 1 
C 40 1 38.40625 1 38.40625 4.203125 
C 38.40625 6.8125 39.59375 10 40 11.09375 
C 41.796875 15.90625 46.296875 27.703125 46.296875 33.515625 
C 46.296875 39.5 42.796875 44 35.203125 44 
C 29.5 44 24.5 41.3125 20.40625 36.125 
z
" id="CMMI12-104"/>
      </defs>
      <g transform="translate(27.357645 263.952894)scale(0.16 -0.16)">
       <use transform="scale(0.996264)" xlink:href="#CMMI12-104"/>
       <use transform="translate(56.154624 36.153639)scale(0.697382)" xlink:href="#CMSY10-0"/>
       <use transform="translate(110.395617 36.153639)scale(0.697382)" xlink:href="#CMR17-49"/>
      </g>
     </g>
    </g>
    <g id="ytick_17">
     <g id="line2d_23">
      <g>
       <use style="stroke:#000000;stroke-width:0.8;" x="57.6" xlink:href="#mb3d64830b0" y="241.279729"/>
      </g>
     </g>
     <g id="text_23">
      <!-- $\frac{d}{dt}$ -->
      <g transform="translate(40.763018 247.941105)scale(0.16 -0.16)">
       <use transform="translate(12.329162 73.581354)scale(0.697382)" xlink:href="#CMMI12-100"/>
       <use transform="scale(0.697382)" xlink:href="#CMMI12-100"/>
       <use transform="translate(35.482207 0)scale(0.697382)" xlink:href="#CMMI12-116"/>
       <path d="M 0 57.269386 
L 60.140516 57.269386 
L 60.140516 61.254336 
L 0 61.254336 
L 0 57.269386 
z
"/>
      </g>
     </g>
    </g>
    <g id="ytick_18">
     <g id="line2d_24">
      <g>
       <use style="stroke:#000000;stroke-width:0.8;" x="57.6" xlink:href="#mb3d64830b0" y="222.591621"/>
      </g>
     </g>
     <g id="text_24">
      <!-- ${g}_{\mu \nu }$ -->
      <defs>
       <path d="M 14.40625 2.1875 
C 16.90625 -0.09375 20.59375 -1 24 -1 
C 30.40625 -1 34.796875 3.25 37.09375 6.328125 
C 38.09375 1.078125 42.296875 -1 45.796875 -1 
C 48.796875 -1 51.203125 0.78125 53 4.328125 
C 54.59375 7.703125 56 13.734375 56 14.109375 
C 56 14.609375 55.59375 15 55 15 
C 54.09375 15 54 14.5 53.59375 13.03125 
C 52.09375 7.203125 50.203125 1 46.09375 1 
C 43.203125 1 43 3.578125 43 5.59375 
C 43 7.875 43.90625 11.484375 44.59375 14.46875 
L 47.40625 25.234375 
C 47.796875 27.140625 48.90625 31.609375 49.40625 33.421875 
C 50 35.8125 51.09375 40.109375 51.09375 40.5 
C 51.09375 42 49.90625 43 48.40625 43 
C 47.5 43 45.40625 42.59375 44.59375 39.609375 
L 37.59375 11.875 
C 37.09375 9.875 37.09375 9.671875 35.796875 8.078125 
C 34.59375 6.390625 30.703125 1 24.40625 1 
C 18.796875 1 17 5.09375 17 9.765625 
C 17 12.671875 17.90625 16.15625 18.296875 17.859375 
L 22.796875 35.828125 
C 23.296875 37.71875 24.09375 40.90625 24.09375 41.515625 
C 24.09375 43.109375 22.796875 44 21.5 44 
C 20.59375 44 18.40625 43.703125 17.59375 40.5 
L 3.09375 -17.296875 
C 3 -17.796875 2.796875 -18.390625 2.796875 -19 
C 2.796875 -20.5 4 -21.5 5.5 -21.5 
C 8.40625 -21.5 9 -19.1875 9.703125 -16.40625 
z
" id="CMMI12-22"/>
       <path d="M 22 43.015625 
C 22 43.40625 21.703125 44 20.90625 44 
C 20.203125 44 10.796875 42.984375 9.296875 42.984375 
C 8.203125 42.875 7.203125 42.78125 7.203125 40.984375 
C 7.203125 40 8 40 9.40625 40 
C 14.09375 40 14.40625 39.296875 14.40625 38.203125 
C 14.40625 37.796875 14.203125 36.609375 14.09375 36.21875 
L 5.296875 1 
C 5.296875 0.59375 5.59375 0 6.296875 0 
L 8.40625 0 
C 9.796875 0 25 3.59375 36.703125 15.5625 
C 49.59375 28.84375 51.40625 41.125 51.40625 41.515625 
C 51.40625 43.109375 50.09375 44 48.796875 44 
C 45.90625 44 45.203125 41.3125 45 40.609375 
C 39.09375 19.75 25.40625 7.390625 12.09375 3 
z
" id="CMMI12-23"/>
      </defs>
      <g transform="translate(30.891041 226.576677)scale(0.16 -0.16)">
       <use transform="translate(0 14.943915)scale(0.996264)" xlink:href="#CMMI12-103"/>
       <use transform="translate(46.710897 0)scale(0.697382)" xlink:href="#CMMI12-22"/>
       <use transform="translate(87.794702 0)scale(0.697382)" xlink:href="#CMMI12-23"/>
      </g>
     </g>
    </g>
    <g id="ytick_19">
     <g id="line2d_25">
      <g>
       <use style="stroke:#000000;stroke-width:0.8;" x="57.6" xlink:href="#mb3d64830b0" y="203.903512"/>
      </g>
     </g>
     <g id="text_25">
      <!-- $\sum _{i=1}^{n}$ -->
      <defs>
       <path d="M 42.09375 -53.40625 
L 6.59375 -97.296875 
C 5.796875 -98.296875 5.703125 -98.5 5.703125 -98.90625 
C 5.703125 -100 6.59375 -100 8.40625 -100 
L 91.296875 -100 
L 99.90625 -75.09375 
L 97.40625 -75.09375 
C 94.90625 -82.59375 88.203125 -88.703125 79.703125 -91.59375 
C 78.09375 -92.09375 71.203125 -94.5 56.5 -94.5 
L 14 -94.5 
L 48.703125 -51.59375 
C 49.40625 -50.703125 49.59375 -50.40625 49.59375 -50 
C 49.59375 -49.59375 49.5 -49.5 48.90625 -48.59375 
L 16.40625 -4 
L 56 -4 
C 67.40625 -4 90.40625 -4.703125 97.40625 -23.40625 
L 99.90625 -23.40625 
L 91.296875 0 
L 8.40625 0 
C 5.703125 0 5.59375 -0.09375 5.59375 -3.203125 
z
" id="CMEX10-80"/>
       <path d="M 64.296875 31.515625 
C 65.796875 31.515625 67.296875 31.515625 67.296875 33.203125 
C 67.296875 35 65.59375 35 63.90625 35 
L 8 35 
C 6.296875 35 4.59375 35 4.59375 33.203125 
C 4.59375 31.515625 6.09375 31.515625 7.59375 31.515625 
z
M 63.90625 14 
C 65.59375 14 67.296875 14 67.296875 15.796875 
C 67.296875 17.484375 65.796875 17.484375 64.296875 17.484375 
L 7.59375 17.484375 
C 6.09375 17.484375 4.59375 17.484375 4.59375 15.796875 
C 4.59375 14 6.296875 14 8 14 
z
" id="CMR17-61"/>
      </defs>
      <g transform="translate(21.83464 208.469565)scale(0.13 -0.13)">
       <use transform="translate(0 103.114632)scale(0.996264)" xlink:href="#CMEX10-80"/>
       <use transform="translate(105.161552 76.188141)scale(0.697382)" xlink:href="#CMMI12-110"/>
       <use transform="translate(105.161552 0)scale(0.697382)" xlink:href="#CMMI12-105"/>
       <use transform="translate(128.45646 0)scale(0.697382)" xlink:href="#CMR17-61"/>
       <use transform="translate(178.656591 0)scale(0.697382)" xlink:href="#CMR17-49"/>
      </g>
     </g>
    </g>
    <g id="ytick_20">
     <g id="line2d_26">
      <g>
       <use style="stroke:#000000;stroke-width:0.8;" x="57.6" xlink:href="#mb3d64830b0" y="185.215404"/>
      </g>
     </g>
     <g id="text_26">
      <!-- ${\int }_{0}^{\infty }$ -->
      <g transform="translate(32.647972 190.500965)scale(0.13 -0.13)">
       <use transform="translate(0 114.184008)scale(0.996264)" xlink:href="#CMEX10-82"/>
       <use transform="translate(66.417803 87.257516)scale(0.697382)" xlink:href="#CMSY10-49"/>
       <use transform="translate(66.417803 0)scale(0.697382)" xlink:href="#CMR17-48"/>
      </g>
     </g>
    </g>
    <g id="ytick_21">
     <g id="line2d_27">
      <g>
       <use style="stroke:#000000;stroke-width:0.8;" x="57.6" xlink:href="#mb3d64830b0" y="166.527296"/>
      </g>
     </g>
     <g id="text_27">
      <!-- ${\int }_{0}^{t}$ -->
      <g transform="translate(37.306832 172.649304)scale(0.13 -0.13)">
       <use transform="translate(0 114.184008)scale(0.996264)" xlink:href="#CMEX10-82"/>
       <use transform="translate(66.417803 87.257516)scale(0.697382)" xlink:href="#CMMI12-116"/>
       <use transform="translate(66.417803 0)scale(0.697382)" xlink:href="#CMR17-48"/>
      </g>
     </g>
    </g>
    <g id="ytick_22">
     <g id="line2d_28">
      <g>
       <use style="stroke:#000000;stroke-width:0.8;" x="57.6" xlink:href="#mb3d64830b0" y="147.839187"/>
      </g>
     </g>
     <g id="text_28">
      <!-- $U(1)$ -->
      <g transform="translate(18.391072 151.824244)scale(0.16 -0.16)">
       <use transform="scale(0.996264)" xlink:href="#CMMI12-85"/>
       <use transform="translate(76.658773 0)scale(0.996264)" xlink:href="#CMR17-40"/>
       <use transform="translate(111.939541 0)scale(0.996264)" xlink:href="#CMR17-49"/>
       <use transform="translate(157.630018 0)scale(0.996264)" xlink:href="#CMR17-41"/>
      </g>
     </g>
    </g>
    <g id="ytick_23">
     <g id="line2d_29">
      <g>
       <use style="stroke:#000000;stroke-width:0.8;" x="57.6" xlink:href="#mb3d64830b0" y="129.151079"/>
      </g>
     </g>
     <g id="text_29">
      <!-- $({x}_{0})$ -->
      <g transform="translate(23.513814 134.021715)scale(0.16 -0.16)">
       <use transform="translate(0 14.943915)scale(0.996264)" xlink:href="#CMR17-40"/>
       <use transform="translate(35.280768 14.943915)scale(0.996264)" xlink:href="#CMMI12-120"/>
       <use transform="translate(90.714827 0)scale(0.697382)" xlink:href="#CMR17-48"/>
       <use transform="translate(123.196141 14.943915)scale(0.996264)" xlink:href="#CMR17-41"/>
      </g>
     </g>
    </g>
    <g id="ytick_24">
     <g id="line2d_30">
      <g>
       <use style="stroke:#000000;stroke-width:0.8;" x="57.6" xlink:href="#mb3d64830b0" y="110.462971"/>
      </g>
     </g>
     <g id="text_30">
      <!-- ${s}^{-1}$ -->
      <g transform="translate(28.990378 114.448027)scale(0.16 -0.16)">
       <use transform="scale(0.996264)" xlink:href="#CMMI12-115"/>
       <use transform="translate(45.950048 36.153639)scale(0.697382)" xlink:href="#CMSY10-0"/>
       <use transform="translate(100.191041 36.153639)scale(0.697382)" xlink:href="#CMR17-49"/>
      </g>
     </g>
    </g>
    <g id="ytick_25">
     <g id="line2d_31">
      <g>
       <use style="stroke:#000000;stroke-width:0.8;" x="57.6" xlink:href="#mb3d64830b0" y="91.774862"/>
      </g>
     </g>
     <g id="text_31">
      <!-- $(n+1)$ -->
      <g transform="translate(2.115618 95.759919)scale(0.16 -0.16)">
       <use transform="scale(0.996264)" xlink:href="#CMR17-40"/>
       <use transform="translate(35.280768 0)scale(0.996264)" xlink:href="#CMMI12-110"/>
       <use transform="translate(115.650022 0)scale(0.996264)" xlink:href="#CMR17-43"/>
       <use transform="translate(209.504018 0)scale(0.996264)" xlink:href="#CMR17-49"/>
       <use transform="translate(255.194495 0)scale(0.996264)" xlink:href="#CMR17-41"/>
      </g>
     </g>
    </g>
    <g id="ytick_26">
     <g id="line2d_32">
      <g>
       <use style="stroke:#000000;stroke-width:0.8;" x="57.6" xlink:href="#mb3d64830b0" y="73.086754"/>
      </g>
     </g>
     <g id="text_32">
      <!-- $f(x)$ -->
      <defs>
       <path d="M 44.59375 40.09375 
C 46.59375 40.09375 47.40625 40.09375 47.40625 42 
C 47.40625 43 46.59375 43 44.796875 43 
L 36.703125 43 
C 38.59375 53.578125 40 60.890625 40.796875 64.171875 
C 41.40625 66.640625 43.5 69 46.09375 69 
C 48.203125 69 50.296875 68.09375 51.296875 67.15625 
C 47.40625 66.75 46.203125 63.78125 46.203125 62.015625 
C 46.203125 59.953125 47.703125 58.734375 49.59375 58.734375 
C 51.59375 58.734375 54.59375 60.46875 54.59375 64.359375 
C 54.59375 68.640625 50.40625 71 46 71 
C 41.703125 71 37.5 67.71875 35.5 63.71875 
C 33.703125 60.125 32.703125 56.421875 30.40625 43 
L 23.703125 43 
C 21.796875 43 20.796875 43 20.796875 41.203125 
C 20.796875 40.09375 21.40625 40.09375 23.40625 40.09375 
L 29.796875 40.09375 
C 28 30.875 23.90625 8.46875 21.59375 -2.140625 
C 19.90625 -10.765625 18.40625 -18 13.40625 -18 
C 13.09375 -18 10.203125 -18 8.40625 -16.109375 
C 13.5 -15.703125 13.5 -11.34375 13.5 -11.25 
C 13.5 -9.265625 12 -8.078125 10.09375 -8.078125 
C 8.09375 -8.078125 5.09375 -9.765625 5.09375 -13.546875 
C 5.09375 -17.8125 9.5 -20 13.40625 -20 
C 23.59375 -20 27.796875 -1.84375 28.90625 3.109375 
C 30.703125 10.75 35.59375 37.125 36.09375 40.09375 
z
" id="CMMI12-102"/>
      </defs>
      <g transform="translate(20.195766 77.07181)scale(0.16 -0.16)">
       <use transform="scale(0.996264)" xlink:href="#CMMI12-102"/>
       <use transform="translate(58.720305 0)scale(0.996264)" xlink:href="#CMR17-40"/>
       <use transform="translate(94.001073 0)scale(0.996264)" xlink:href="#CMMI12-120"/>
       <use transform="translate(149.435132 0)scale(0.996264)" xlink:href="#CMR17-41"/>
      </g>
     </g>
    </g>
    <g id="ytick_27">
     <g id="line2d_33">
      <g>
       <use style="stroke:#000000;stroke-width:0.8;" x="57.6" xlink:href="#mb3d64830b0" y="54.398646"/>
      </g>
     </g>
     <g id="text_33">
      <!-- $(n-1)$ -->
      <g transform="translate(1.857157 58.383702)scale(0.16 -0.16)">
       <use transform="scale(0.996264)" xlink:href="#CMR17-40"/>
       <use transform="translate(35.280768 0)scale(0.996264)" xlink:href="#CMMI12-110"/>
       <use transform="translate(115.650022 0)scale(0.996264)" xlink:href="#CMSY10-0"/>
       <use transform="translate(215.276697 0)scale(0.996264)" xlink:href="#CMR17-49"/>
       <use transform="translate(260.967174 0)scale(0.996264)" xlink:href="#CMR17-41"/>
      </g>
     </g>
    </g>
    <g id="ytick_28">
     <g id="line2d_34">
      <g>
       <use style="stroke:#000000;stroke-width:0.8;" x="57.6" xlink:href="#mb3d64830b0" y="35.710537"/>
      </g>
     </g>
     <g id="text_34">
      <!-- $(2\pi )$ -->
      <defs>
       <path d="M 25.90625 37.625 
L 37.203125 37.625 
C 34.5 26.4375 32.796875 19.15625 32.796875 11.1875 
C 32.796875 9.78125 32.796875 -1 36.90625 -1 
C 39 -1 40.796875 0.890625 40.796875 2.59375 
C 40.796875 3.078125 40.796875 3.28125 40.09375 4.78125 
C 37.40625 11.671875 37.40625 20.25 37.40625 20.953125 
C 37.40625 21.546875 37.40625 28.625 39.5 37.625 
L 50.703125 37.625 
C 52 37.625 55.296875 37.625 55.296875 40.8125 
C 55.296875 43 53.40625 43 51.59375 43 
L 18.703125 43 
C 16.40625 43 13 43 8.40625 38.125 
C 5.796875 35.21875 2.59375 29.9375 2.59375 29.34375 
C 2.59375 28.75 3.09375 28.546875 3.703125 28.546875 
C 4.40625 28.546875 4.5 28.84375 5 29.4375 
C 10.203125 37.625 15.40625 37.625 17.90625 37.625 
L 23.59375 37.625 
C 21.40625 30.140625 18.90625 21.453125 10.703125 4 
C 9.90625 2.40625 9.90625 2.1875 9.90625 1.59375 
C 9.90625 -0.5 11.703125 -1 12.59375 -1 
C 15.5 -1 16.296875 1.59375 17.5 5.78125 
C 19.09375 10.875 19.09375 11.078125 20.09375 15.0625 
z
" id="CMMI12-25"/>
      </defs>
      <g transform="translate(21.23078 39.695593)scale(0.16 -0.16)">
       <use transform="scale(0.996264)" xlink:href="#CMR17-40"/>
       <use transform="translate(35.280768 0)scale(0.996264)" xlink:href="#CMR17-50"/>
       <use transform="translate(80.971245 0)scale(0.996264)" xlink:href="#CMMI12-25"/>
       <use transform="translate(139.881846 0)scale(0.996264)" xlink:href="#CMR17-41"/>
      </g>
     </g>
    </g>
   </g>
   <g id="line2d_35">
    <path clip-path="url(#pcdc289ec12)" d="M 98.416423 540.289463 
L 99.430806 521.601354 
L 100.496428 502.913246 
L 101.618003 484.225138 
L 102.800888 465.537029 
L 104.05121 446.848921 
L 105.376003 428.160813 
L 106.783406 409.472704 
L 108.282888 390.784596 
L 109.885549 372.096488 
L 111.604509 353.408379 
L 113.455409 334.720271 
L 115.45708 316.032163 
L 117.632447 297.344054 
L 120.009768 278.655946 
L 122.624362 259.967837 
L 125.521099 241.279729 
L 128.758053 222.591621 
L 132.412046 203.903512 
L 136.587368 185.215404 
L 141.430101 166.527296 
L 147.15289 147.839187 
L 154.080708 129.151079 
L 162.74272 110.462971 
L 174.078536 91.774862 
L 189.980518 73.086754 
L 215.118055 54.398646 
L 266.70528 35.710537 
" style="fill:none;stroke:#ffa500;stroke-dasharray:11.1,4.8;stroke-dashoffset:0;stroke-width:3;"/>
   </g>
   <g id="patch_31">
    <path d="M 57.6 552.96 
L 57.6 23.04 
" style="fill:none;stroke:#000000;stroke-linecap:square;stroke-linejoin:miter;stroke-width:0.8;"/>
   </g>
   <g id="patch_32">
    <path d="M 273.6 552.96 
L 273.6 23.04 
" style="fill:none;stroke:#000000;stroke-linecap:square;stroke-linejoin:miter;stroke-width:0.8;"/>
   </g>
   <g id="patch_33">
    <path d="M 57.6 552.96 
L 273.6 552.96 
" style="fill:none;stroke:#000000;stroke-linecap:square;stroke-linejoin:miter;stroke-width:0.8;"/>
   </g>
   <g id="patch_34">
    <path d="M 57.6 23.04 
L 273.6 23.04 
" style="fill:none;stroke:#000000;stroke-linecap:square;stroke-linejoin:miter;stroke-width:0.8;"/>
   </g>
   <g id="text_35">
    <!-- Complexity 3 -->
    <defs>
     <path d="M 54.703125 11.15625 
C 48 6.671875 44.90625 5.375 36.796875 5.375 
C 22.796875 5.375 14.59375 20.359375 14.59375 34.046875 
C 14.59375 48.625 23 63 37.203125 63 
C 43.59375 63 47.796875 61.21875 52.90625 58.046875 
L 54.296875 65.890625 
C 49.5 68.28125 43.40625 69.375 37.296875 69.375 
C 18.09375 69.375 6.203125 51.8125 6.203125 34.046875 
C 6.203125 14.484375 20.296875 -1 36.296875 -1 
C 44.90625 -1 47.90625 -0.296875 55.296875 4.375 
z
" id="CMSS17-67"/>
     <path d="M 44.203125 21.1875 
C 44.203125 34 34.703125 44 23.5 44 
C 12 44 2.703125 33.703125 2.703125 21.1875 
C 2.703125 8.5 12.296875 -1 23.40625 -1 
C 34.796875 -1 44.203125 8.796875 44.203125 21.1875 
z
M 23.5 5.265625 
C 16.40625 5.265625 10.296875 11.078125 10.296875 22 
C 10.296875 33.609375 17.40625 37.921875 23.40625 37.921875 
C 29.90625 37.921875 36.59375 33.21875 36.59375 22 
C 36.59375 10.671875 30.09375 5.265625 23.5 5.265625 
z
" id="CMSS17-111"/>
     <path d="M 67 29.328125 
C 67 36.0625 65.296875 44 54.09375 44 
C 46.59375 44 42.09375 39.3125 40.09375 36.421875 
C 38.296875 41.71875 34.09375 44 28.09375 44 
C 21.296875 44 17 40.125 14.703125 37.328125 
L 14.703125 43.09375 
L 7.40625 43.09375 
L 7.40625 0 
L 15 0 
L 15 24.359375 
C 15 30.296875 17.203125 37.9375 24.296875 37.9375 
C 33.40625 37.9375 33.40625 31.5 33.40625 28.578125 
L 33.40625 0 
L 41 0 
L 41 24.359375 
C 41 30.296875 43.203125 37.9375 50.296875 37.9375 
C 59.40625 37.9375 59.40625 31.5 59.40625 28.578125 
L 59.40625 0 
L 67 0 
z
" id="CMSS17-109"/>
     <path d="M 15.09375 5.203125 
C 18.40625 2.015625 22.90625 -0.078125 27.703125 -0.078125 
C 37 -0.078125 45 9.421875 45 22.0625 
C 45 33.734375 39 44 30.40625 44 
C 25.40625 44 19.40625 42.21875 14.90625 38.625 
L 14.90625 43.203125 
L 7.5 43.203125 
L 7.5 -19 
L 15.09375 -19 
z
M 15.09375 32.8125 
C 15.90625 34 19.296875 37.734375 24.796875 37.734375 
C 31.796875 37.734375 37.40625 30.625 37.40625 22.0625 
C 37.40625 12.296875 30.59375 6 23.90625 6 
C 21.90625 6 19.796875 6.484375 17.796875 8.171875 
C 15.09375 10.53125 15.09375 12 15.09375 13.390625 
z
" id="CMSS17-112"/>
     <path d="M 14.796875 69 
L 7.40625 69 
L 7.40625 0 
L 14.796875 0 
z
" id="CMSS17-108"/>
     <path d="M 39.09375 21.515625 
C 39.09375 24.84375 38.90625 31.296875 35.703125 36.640625 
C 32.203125 42.390625 26.5 44 22.203125 44 
C 11.796875 44 3 34.1875 3 21.484375 
C 3 9.09375 12.09375 -1 23.59375 -1 
C 28.09375 -1 33.59375 0.296875 38.59375 3.875 
C 38.59375 4.28125 38.40625 6.46875 38.296875 6.5625 
C 38.296875 6.765625 38 9.84375 38 10.25 
C 33.203125 6.359375 27.703125 5.078125 23.703125 5.078125 
C 17.296875 5.078125 10.40625 10.421875 10.09375 21.515625 
z
M 10.90625 27 
C 12.203125 32.5625 16.59375 37.828125 22.203125 37.828125 
C 23.703125 37.828125 30.703125 37.828125 32.5 27 
z
" id="CMSS17-101"/>
     <path d="M 24.796875 22.09375 
L 41.5 42.796875 
L 32.796875 42.796875 
L 21.296875 27.765625 
L 9.40625 42.796875 
L 0.5 42.796875 
L 17.796875 22.09375 
L 0 0 
L 8.796875 0 
L 21.296875 17.515625 
L 34.296875 0 
L 43.09375 0 
z
" id="CMSS17-120"/>
     <path d="M 15.296875 65.359375 
L 6.90625 65.359375 
L 6.90625 57 
L 15.296875 57 
z
M 14.796875 42.796875 
L 7.40625 42.796875 
L 7.40625 0 
L 14.796875 0 
z
" id="CMSS17-105"/>
     <path d="M 16.703125 37 
L 29.703125 37 
L 29.703125 42.765625 
L 16.703125 42.765625 
L 16.703125 55 
L 9.59375 55 
L 9.59375 42.765625 
L 1.703125 42.765625 
L 1.703125 37 
L 9.40625 37 
L 9.40625 11.703125 
C 9.40625 6 10.703125 -1 17.296875 -1 
C 22.296875 -1 26.90625 0.390625 31.296875 2.6875 
L 29.703125 8.5625 
C 27.296875 6.46875 24.40625 5.265625 21.296875 5.265625 
C 16.90625 5.265625 16.703125 10.875 16.703125 13.375 
z
" id="CMSS17-116"/>
     <path d="M 41.796875 43 
L 34 43 
C 25.5 20.21875 22.59375 10.96875 22.40625 5.984375 
L 22.296875 5.984375 
C 22 10.875 17.59375 22.8125 14.09375 31.359375 
L 9.40625 43 
L 1.296875 43 
L 19 0.203125 
C 17.90625 -2.78125 16.296875 -7.265625 15.796875 -8.265625 
C 13.59375 -13.828125 12.09375 -13.828125 10.5 -13.828125 
C 10.09375 -13.828125 6.90625 -13.828125 3.296875 -12.640625 
L 3.90625 -19.203125 
C 6.40625 -19.703125 8.90625 -20 10.703125 -20 
C 13.203125 -20 18.203125 -20 22.796875 -7.765625 
z
" id="CMSS17-121"/>
    </defs>
    <g transform="translate(123.153173 17.04)scale(0.16 -0.16)">
     <use transform="scale(0.996264)" xlink:href="#CMSS17-67"/>
     <use transform="translate(59.855772 0)scale(0.996264)" xlink:href="#CMSS17-111"/>
     <use transform="translate(106.699395 0)scale(0.996264)" xlink:href="#CMSS17-109"/>
     <use transform="translate(180.92865 0)scale(0.996264)" xlink:href="#CMSS17-112"/>
     <use transform="translate(229.133593 0)scale(0.996264)" xlink:href="#CMSS17-108"/>
     <use transform="translate(251.314316 0)scale(0.996264)" xlink:href="#CMSS17-101"/>
     <use transform="translate(292.953138 0)scale(0.996264)" xlink:href="#CMSS17-120"/>
     <use transform="translate(335.953279 0)scale(0.996264)" xlink:href="#CMSS17-105"/>
     <use transform="translate(358.134002 0)scale(0.996264)" xlink:href="#CMSS17-116"/>
     <use transform="translate(389.363115 0)scale(0.996264)" xlink:href="#CMSS17-121"/>
     <use transform="translate(463.59237 0)scale(0.996264)" xlink:href="#CMSS17-51"/>
    </g>
   </g>
   <g id="legend_1">
    <g id="patch_35">
     <path d="M 158.915046 545.96 
L 263.8 545.96 
Q 266.6 545.96 266.6 543.16 
L 266.6 510.827015 
Q 266.6 508.027015 263.8 508.027015 
L 158.915046 508.027015 
Q 156.115046 508.027015 156.115046 510.827015 
L 156.115046 543.16 
Q 156.115046 545.96 158.915046 545.96 
z
" style="fill:#ffffff;opacity:0.8;stroke:#cccccc;stroke-linejoin:miter;"/>
    </g>
    <g id="line2d_36">
     <path d="M 161.715046 526.936446 
L 189.715046 526.936446 
" style="fill:none;stroke:#ffa500;stroke-dasharray:11.1,4.8;stroke-dashoffset:0;stroke-width:3;"/>
    </g>
    <g id="line2d_37"/>
    <g id="text_36">
     <!-- Zipf's Law -->
     <defs>
      <path d="M 52.203125 64.921875 
L 52.203125 69 
L 6.5 69 
L 6.5 62.734375 
L 25.203125 62.734375 
C 26.40625 62.734375 27.59375 62.734375 28.796875 62.734375 
L 41.59375 62.734375 
L 5.203125 4.28125 
L 5.203125 0 
L 52.703125 0 
L 52.703125 6.46875 
L 43.796875 6.46875 
C 35.5 6.46875 27.09375 6.46875 18.796875 6.46875 
L 15.796875 6.46875 
z
" id="CMSS17-90"/>
      <path d="M 16.796875 37 
L 26.90625 37 
L 26.90625 42.765625 
L 16.59375 42.765625 
L 16.59375 55.609375 
C 16.59375 62.71875 22 63.9375 25.09375 63.9375 
C 26.09375 63.9375 28.90625 63.9375 32.5 62.640625 
L 32.5 69.203125 
C 30.203125 69.703125 27.40625 70 25.203125 70 
C 15.90625 70 9.40625 62.390625 9.40625 52.484375 
L 9.40625 42.765625 
L 2.5 42.765625 
L 2.5 37 
L 9.40625 37 
L 9.40625 0 
L 16.796875 0 
z
" id="CMSS17-102"/>
      <path d="M 17 61.09375 
L 17 68.953125 
L 9 68.953125 
L 9 61 
L 11.5 61 
L 8.90625 48.5 
L 12.90625 48.5 
z
" id="CMSS17-39"/>
      <path d="M 32.203125 41.046875 
C 26.296875 43.859375 21.703125 43.859375 18.703125 43.859375 
C 11.59375 43.859375 3.09375 41.375 3.09375 31.296875 
C 3.09375 21.234375 14.09375 19.03125 17.09375 18.421875 
C 21.703125 17.53125 26.796875 16.53125 26.796875 11.5625 
C 26.796875 5.265625 19.59375 5.265625 18.296875 5.265625 
C 14.296875 5.265625 8.796875 6.359375 3.796875 9.96875 
L 2.59375 3.28125 
C 8.296875 0 13.796875 -1 18.40625 -1 
C 30.703125 -1 33.796875 6.5 33.796875 12.203125 
C 33.796875 17.09375 31 20.390625 29.09375 21.890625 
C 25.796875 24.5 24.59375 24.796875 16.40625 26.5 
C 15 26.703125 10.09375 27.796875 10.09375 32.28125 
C 10.09375 38 16.40625 38 17.796875 38 
C 24.296875 38 28.296875 35.984375 31 34.5 
z
" id="CMSS17-115"/>
      <path d="M 26.09375 6.46875 
C 24.90625 6.46875 23.703125 6.46875 22.5 6.46875 
L 17.203125 6.46875 
L 17.203125 69 
L 8.796875 69 
L 8.796875 0 
L 46.90625 0 
L 46.90625 6.46875 
z
" id="CMSS17-76"/>
      <path d="M 37.59375 27.984375 
C 37.59375 37.375 30.90625 43.875 21.90625 43.875 
C 17.5 43.875 12.703125 43.078125 7.203125 39.890625 
L 7.796875 33.359375 
C 10.296875 35.125 14.59375 38 21.796875 38 
C 26.90625 38 30 34.0625 30 27.84375 
L 30 24 
C 14 24 4 19.34375 4 11.34375 
C 4 7.203125 6.5 -1 14.796875 -1 
C 16.296875 -1 24.40625 -1 30.203125 3.390625 
L 30.203125 -0.296875 
L 37.59375 -0.296875 
z
M 30 12.75 
C 30 10.953125 30 8.5625 27 6.78125 
C 24.40625 5.078125 21.09375 5.078125 19.703125 5.078125 
C 14.703125 5.078125 11.296875 7.984375 11.296875 11.625 
C 11.296875 18.921875 26.90625 18.921875 30 18.921875 
z
" id="CMSS17-97"/>
      <path d="M 62.703125 43 
L 55.09375 43 
L 49.796875 25.015625 
C 48.703125 21.21875 45.59375 10.703125 45.203125 5.796875 
L 45.09375 5.796875 
C 44.90625 8.8125 43.203125 16 40.40625 25.515625 
L 35.296875 43 
L 28.40625 43 
L 23.40625 25.90625 
C 20.90625 17.203125 19 9.796875 18.796875 5.796875 
L 18.703125 5.796875 
C 18.296875 11.703125 14.203125 25.515625 13.59375 27.703125 
L 9.09375 43 
L 1.296875 43 
L 14.296875 0 
L 21.90625 0 
C 27.09375 17.125 31.09375 30.359375 31.40625 37.03125 
C 31.59375 33.75 33.296875 26.671875 34.296875 23.1875 
L 40.90625 0 
L 49.703125 0 
z
" id="CMSS17-119"/>
     </defs>
     <g transform="translate(200.915046 523.312892)scale(0.14 -0.14)">
      <use transform="scale(0.996264)" xlink:href="#CMSS17-90"/>
      <use transform="translate(57.253333 0)scale(0.996264)" xlink:href="#CMSS17-105"/>
      <use transform="translate(79.434056 0)scale(0.996264)" xlink:href="#CMSS17-112"/>
      <use transform="translate(127.638999 0)scale(0.996264)" xlink:href="#CMSS17-102"/>
      <use transform="translate(162.771732 0)scale(0.996264)" xlink:href="#CMSS17-39"/>
      <use transform="translate(188.795937 0)scale(0.996264)" xlink:href="#CMSS17-115"/>
      <use transform="translate(255.938591 0)scale(0.996264)" xlink:href="#CMSS17-76"/>
      <use transform="translate(306.625697 0)scale(0.996264)" xlink:href="#CMSS17-97"/>
      <use transform="translate(348.945164 0)scale(0.996264)" xlink:href="#CMSS17-119"/>
     </g>
     <!-- $\alpha = 0.33$ -->
     <defs>
      <path d="M 46.296875 25.25 
C 46.296875 34.921875 40.796875 43.984375 30.203125 43.984375 
C 17.09375 43.984375 4 29.71875 4 15.5625 
C 4 6.890625 9.40625 -1 19.59375 -1 
C 25.796875 -1 33.203125 1.390625 40.296875 7.375 
C 41.703125 1.796875 44.796875 -1 49.09375 -1 
C 54.5 -1 57.203125 4.59375 57.203125 5.890625 
C 57.203125 6.78125 56.5 6.78125 56.203125 6.78125 
C 55.40625 6.78125 55.296875 6.484375 55 5.6875 
C 54.09375 3.1875 51.796875 1 49.40625 1 
C 46.296875 1 46.296875 7.375 46.296875 13.46875 
C 56.5 25.640625 58.90625 38.21875 58.90625 38.3125 
C 58.90625 39.21875 58.09375 39.21875 57.796875 39.21875 
C 56.90625 39.21875 56.796875 38.921875 56.40625 37.125 
C 55.09375 32.734375 52.5 24.953125 46.296875 16.765625 
z
M 40 9.78125 
C 31.203125 1.890625 23.296875 1 19.796875 1 
C 12.703125 1 10.703125 7.28125 10.703125 11.96875 
C 10.703125 16.25 12.90625 26.4375 16 31.9375 
C 20.09375 38.921875 25.703125 42 30.203125 42 
C 39.90625 42 39.90625 29.328125 39.90625 20.953125 
C 39.90625 18.46875 39.796875 15.875 39.796875 13.375 
C 39.796875 11.375 39.90625 10.875 40 9.78125 
z
" id="CMMI12-11"/>
      <path d="M 18.40625 4.796875 
C 18.40625 7.6875 16 9.671875 13.59375 9.671875 
C 10.703125 9.671875 8.703125 7.28125 8.703125 4.890625 
C 8.703125 2 11.09375 0 13.5 0 
C 16.40625 0 18.40625 2.390625 18.40625 4.796875 
z
" id="CMMI12-58"/>
      <path d="M 22.09375 33.703125 
C 31 33.703125 34.90625 25.96875 34.90625 17.03125 
C 34.90625 5 28.5 0.390625 22.703125 0.390625 
C 17.40625 0.390625 8.796875 3.03125 6.09375 10.828125 
C 6.59375 10.625 7.09375 10.625 7.59375 10.625 
C 10 10.625 11.796875 12.21875 11.796875 14.8125 
C 11.796875 17.703125 9.59375 19 7.59375 19 
C 5.90625 19 3.296875 18.203125 3.296875 14.46875 
C 3.296875 5.234375 12.296875 -2 22.90625 -2 
C 34 -2 42.5 6.71875 42.5 16.953125 
C 42.5 26.671875 34.5 33.703125 25 34.796875 
C 32.59375 36.375 39.90625 43.0625 39.90625 52.015625 
C 39.90625 59.6875 32 65.296875 23 65.296875 
C 13.90625 65.296875 5.90625 59.828125 5.90625 52.015625 
C 5.90625 48.59375 8.5 48 9.796875 48 
C 11.90625 48 13.703125 49.296875 13.703125 51.890625 
C 13.703125 54.46875 11.90625 55.765625 9.796875 55.765625 
C 9.40625 55.765625 8.90625 55.765625 8.5 55.578125 
C 11.40625 61.859375 19.296875 63 22.796875 63 
C 26.296875 63 32.90625 61.328125 32.90625 51.875 
C 32.90625 49.109375 32.5 44.1875 29.09375 39.84375 
C 26.09375 36 22.703125 36 19.40625 35.6875 
C 18.90625 35.6875 16.59375 35.453125 16.203125 35.453125 
C 15.5 35.359375 15.09375 35.265625 15.09375 34.5 
C 15.09375 33.796875 15.203125 33.703125 17.203125 33.703125 
z
" id="CMR17-51"/>
     </defs>
     <g transform="translate(200.915046 537.647972)scale(0.14 -0.14)">
      <use transform="scale(0.996264)" xlink:href="#CMMI12-11"/>
      <use transform="translate(90.355032 0)scale(0.996264)" xlink:href="#CMR17-61"/>
      <use transform="translate(189.743829 0)scale(0.996264)" xlink:href="#CMR17-48"/>
      <use transform="translate(235.434306 0)scale(0.996264)" xlink:href="#CMMI12-58"/>
      <use transform="translate(262.531483 0)scale(0.996264)" xlink:href="#CMR17-51"/>
      <use transform="translate(308.22196 0)scale(0.996264)" xlink:href="#CMR17-51"/>
     </g>
    </g>
   </g>
  </g>
 </g>
 <defs>
  <clipPath id="pcdc289ec12">
   <rect height="529.92" width="216" x="57.6" y="23.04"/>
  </clipPath>
 </defs>
</svg>
