<?xml version="1.0" encoding="utf-8" standalone="no"?>
<!DOCTYPE svg PUBLIC "-//W3C//DTD SVG 1.1//EN"
  "http://www.w3.org/Graphics/SVG/1.1/DTD/svg11.dtd">
<!-- Created with matplotlib (https://matplotlib.org/) -->
<svg height="360pt" version="1.1" viewBox="0 0 360 360" width="360pt" xmlns="http://www.w3.org/2000/svg" xmlns:xlink="http://www.w3.org/1999/xlink">
 <defs>
  <style type="text/css">
*{stroke-linecap:butt;stroke-linejoin:round;}
  </style>
 </defs>
 <g id="figure_1">
  <g id="patch_1">
   <path d="M 0 360 
L 360 360 
L 360 0 
L 0 0 
z
" style="fill:#ffffff;"/>
  </g>
  <g id="axes_1">
   <g id="patch_2">
    <path d="M 118.8 334.8 
L 338.4 334.8 
L 338.4 25.2 
L 118.8 25.2 
z
" style="fill:#ffffff;"/>
   </g>
   <g id="patch_3">
    <path clip-path="url(#padd52f78f4)" d="M 98.2125 331.764706 
L 130.6035 331.764706 
L 130.6035 316.396128 
L 98.2125 316.396128 
z
" style="fill:#404588;"/>
   </g>
   <g id="patch_4">
    <path clip-path="url(#padd52f78f4)" d="M 98.2125 312.553984 
L 134.721 312.553984 
L 134.721 297.185406 
L 98.2125 297.185406 
z
" style="fill:#3f4788;"/>
   </g>
   <g id="patch_5">
    <path clip-path="url(#padd52f78f4)" d="M 98.2125 293.343261 
L 134.85825 293.343261 
L 134.85825 277.974684 
L 98.2125 277.974684 
z
" style="fill:#3f4788;"/>
   </g>
   <g id="patch_6">
    <path clip-path="url(#padd52f78f4)" d="M 98.2125 274.132539 
L 136.6425 274.132539 
L 136.6425 258.763961 
L 98.2125 258.763961 
z
" style="fill:#3f4889;"/>
   </g>
   <g id="patch_7">
    <path clip-path="url(#padd52f78f4)" d="M 98.2125 254.921817 
L 138.8385 254.921817 
L 138.8385 239.553239 
L 98.2125 239.553239 
z
" style="fill:#3e4989;"/>
   </g>
   <g id="patch_8">
    <path clip-path="url(#padd52f78f4)" d="M 98.2125 235.711095 
L 142.26975 235.711095 
L 142.26975 220.342517 
L 98.2125 220.342517 
z
" style="fill:#3e4a89;"/>
   </g>
   <g id="patch_9">
    <path clip-path="url(#padd52f78f4)" d="M 98.2125 216.500372 
L 142.54425 216.500372 
L 142.54425 201.131794 
L 98.2125 201.131794 
z
" style="fill:#3e4c8a;"/>
   </g>
   <g id="patch_10">
    <path clip-path="url(#padd52f78f4)" d="M 98.2125 197.28965 
L 143.09325 197.28965 
L 143.09325 181.921072 
L 98.2125 181.921072 
z
" style="fill:#3e4c8a;"/>
   </g>
   <g id="patch_11">
    <path clip-path="url(#padd52f78f4)" d="M 98.2125 178.078928 
L 152.838 178.078928 
L 152.838 162.71035 
L 98.2125 162.71035 
z
" style="fill:#3c4f8a;"/>
   </g>
   <g id="patch_12">
    <path clip-path="url(#padd52f78f4)" d="M 98.2125 158.868206 
L 162.9945 158.868206 
L 162.9945 143.499628 
L 98.2125 143.499628 
z
" style="fill:#3b528b;"/>
   </g>
   <g id="patch_13">
    <path clip-path="url(#padd52f78f4)" d="M 98.2125 139.657483 
L 168.4845 139.657483 
L 168.4845 124.288905 
L 98.2125 124.288905 
z
" style="fill:#3a538b;"/>
   </g>
   <g id="patch_14">
    <path clip-path="url(#padd52f78f4)" d="M 98.2125 120.446761 
L 195.24825 120.446761 
L 195.24825 105.078183 
L 98.2125 105.078183 
z
" style="fill:#375a8c;"/>
   </g>
   <g id="patch_15">
    <path clip-path="url(#padd52f78f4)" d="M 98.2125 101.236039 
L 241.63875 101.236039 
L 241.63875 85.867461 
L 98.2125 85.867461 
z
" style="fill:#34608d;"/>
   </g>
   <g id="patch_16">
    <path clip-path="url(#padd52f78f4)" d="M 98.2125 82.025316 
L 250.2855 82.025316 
L 250.2855 66.656739 
L 98.2125 66.656739 
z
" style="fill:#34618d;"/>
   </g>
   <g id="patch_17">
    <path clip-path="url(#padd52f78f4)" d="M 98.2125 62.814594 
L 263.736 62.814594 
L 263.736 47.446016 
L 98.2125 47.446016 
z
" style="fill:#33638d;"/>
   </g>
   <g id="patch_18">
    <path clip-path="url(#padd52f78f4)" d="M 98.2125 43.603872 
L 319.32225 43.603872 
L 319.32225 28.235294 
L 98.2125 28.235294 
z
" style="fill:#31678e;"/>
   </g>
   <g id="matplotlib.axis_1">
    <g id="xtick_1">
     <g id="line2d_1">
      <defs>
       <path d="M 0 0 
L 0 3.5 
" id="mb1391198ef" style="stroke:#000000;stroke-width:0.8;"/>
      </defs>
      <g>
       <use style="stroke:#000000;stroke-width:0.8;" x="132.525" xlink:href="#mb1391198ef" y="334.8"/>
      </g>
     </g>
     <g id="text_1">
      <!-- 250 -->
      <defs>
       <path d="M 25.796875 21.203125 
C 28.59375 24.078125 32.796875 27.5625 35.703125 31.046875 
C 38.5 34.4375 42.203125 39.234375 42.203125 46.203125 
C 42.203125 57.140625 34.796875 67 22.203125 67 
C 12.296875 67 6.59375 60.828125 3.90625 51.15625 
L 7.796875 45.765625 
C 10 54.84375 13.09375 60.625 20.90625 60.625 
C 29.5 60.625 34.296875 53.640625 34.296875 45.96875 
C 34.296875 36.796875 27.296875 29.703125 22 24.421875 
C 16.09375 18.546875 10.296875 12.5625 4.703125 6.375 
L 4.703125 0 
L 42.203125 0 
L 42.203125 6.765625 
L 25.203125 6.765625 
C 24 6.765625 22.796875 6.765625 21.59375 6.765625 
L 11.59375 6.765625 
L 11.59375 6.859375 
z
" id="CMSS17-50"/>
       <path d="M 14.59375 58.625 
L 39.09375 58.625 
L 39.09375 65 
L 7.296875 65 
L 7.296875 27.828125 
L 14 27.828125 
C 15.796875 31.96875 19.5 35 24.296875 35 
C 28.796875 35 33.796875 31.078125 33.796875 19.78125 
C 33.796875 7.703125 26.703125 4.171875 21.5 4.171875 
C 15.09375 4.171875 9.203125 8 6.59375 13.296875 
L 3.40625 7.796875 
C 8 0.765625 15.5 -2 21.5 -2 
C 33.09375 -2 42.203125 7.765625 42.203125 19.578125 
C 42.203125 31.71875 34.09375 41.078125 24.40625 41.078125 
C 20.90625 41.078125 17.5 39.890625 14.59375 37.484375 
z
" id="CMSS17-53"/>
       <path d="M 43.09375 31.9375 
C 43.09375 37.578125 43 48.078125 38.90625 56.1875 
C 34.796875 64 28.203125 66.078125 23.5 66.078125 
C 16.703125 66.078125 10.90625 62.109375 7.90625 55.78125 
C 4.703125 49.15625 3.796875 42.328125 3.796875 31.9375 
C 3.796875 24.828125 4.09375 16.109375 7.703125 8.484375 
C 11.796875 0.078125 18.703125 -2 23.40625 -2 
C 29.59375 -2 35.59375 1.265625 39 8.09375 
C 42.5 15.21875 43.09375 23.03125 43.09375 31.9375 
z
M 23.40625 4.078125 
C 15.796875 4.078125 13.5 12.671875 12.796875 15.546875 
C 11.59375 20.46875 11.40625 25.21875 11.40625 33.03125 
C 11.40625 39.15625 11.40625 46.0625 13.296875 51.515625 
C 15.59375 57.828125 19.59375 60 23.40625 60 
C 30.796875 60 33.203125 52.6875 34 50.125 
C 35.5 44.890625 35.5 38.765625 35.5 33.03125 
C 35.5 23.84375 35.5 4.078125 23.40625 4.078125 
z
" id="CMSS17-48"/>
      </defs>
      <g transform="translate(125.052997 348.718498)scale(0.1 -0.1)">
       <use transform="scale(0.996264)" xlink:href="#CMSS17-50"/>
       <use transform="translate(46.843624 0)scale(0.996264)" xlink:href="#CMSS17-53"/>
       <use transform="translate(93.687247 0)scale(0.996264)" xlink:href="#CMSS17-48"/>
      </g>
     </g>
    </g>
    <g id="xtick_2">
     <g id="line2d_2">
      <g>
       <use style="stroke:#000000;stroke-width:0.8;" x="166.8375" xlink:href="#mb1391198ef" y="334.8"/>
      </g>
     </g>
     <g id="text_2">
      <!-- 500 -->
      <g transform="translate(159.365497 348.718498)scale(0.1 -0.1)">
       <use transform="scale(0.996264)" xlink:href="#CMSS17-53"/>
       <use transform="translate(46.843624 0)scale(0.996264)" xlink:href="#CMSS17-48"/>
       <use transform="translate(93.687247 0)scale(0.996264)" xlink:href="#CMSS17-48"/>
      </g>
     </g>
    </g>
    <g id="xtick_3">
     <g id="line2d_3">
      <g>
       <use style="stroke:#000000;stroke-width:0.8;" x="201.15" xlink:href="#mb1391198ef" y="334.8"/>
      </g>
     </g>
     <g id="text_3">
      <!-- 750 -->
      <defs>
       <path d="M 21.703125 59 
C 22.90625 59 24.09375 59 25.296875 59 
L 36.796875 59 
C 22.5 42.359375 14.296875 21.328125 14.296875 -0.5 
L 22.296875 -0.5 
C 22.296875 20.671875 29.296875 42.125 43 59.296875 
L 43 65.765625 
L 3.90625 65.765625 
L 3.90625 59 
z
" id="CMSS17-55"/>
      </defs>
      <g transform="translate(193.677997 348.718498)scale(0.1 -0.1)">
       <use transform="scale(0.996264)" xlink:href="#CMSS17-55"/>
       <use transform="translate(46.843624 0)scale(0.996264)" xlink:href="#CMSS17-53"/>
       <use transform="translate(93.687247 0)scale(0.996264)" xlink:href="#CMSS17-48"/>
      </g>
     </g>
    </g>
    <g id="xtick_4">
     <g id="line2d_4">
      <g>
       <use style="stroke:#000000;stroke-width:0.8;" x="235.4625" xlink:href="#mb1391198ef" y="334.8"/>
      </g>
     </g>
     <g id="text_4">
      <!-- 1 k -->
      <defs>
       <path d="M 28.40625 67 
L 26.5 67 
C 21.09375 61.5625 14.796875 60.78125 8.40625 60.78125 
L 8.40625 55 
C 11.296875 55 16 55 20.703125 57.296875 
L 20.703125 5.765625 
L 8.90625 5.765625 
L 8.90625 0 
L 40.203125 0 
L 40.203125 5.765625 
L 28.40625 5.765625 
z
" id="CMSS17-49"/>
       <path d="M 26.5 26.375 
L 42 42.796875 
L 32.40625 42.796875 
L 14.90625 24.28125 
L 14.90625 69 
L 7.5 69 
L 7.5 0 
L 14.796875 0 
L 14.796875 13.9375 
L 21.5 21 
L 35.59375 0 
L 44.09375 0 
z
" id="CMSS17-107"/>
      </defs>
      <g transform="translate(228.876069 348.718498)scale(0.1 -0.1)">
       <use transform="scale(0.996264)" xlink:href="#CMSS17-49"/>
       <use transform="translate(78.072736 0)scale(0.996264)" xlink:href="#CMSS17-107"/>
      </g>
     </g>
    </g>
    <g id="xtick_5">
     <g id="line2d_5">
      <g>
       <use style="stroke:#000000;stroke-width:0.8;" x="269.775" xlink:href="#mb1391198ef" y="334.8"/>
      </g>
     </g>
     <g id="text_5">
      <!-- 1.25 k -->
      <defs>
       <path d="M 17 7.96875 
L 9 7.96875 
L 9 0 
L 17 0 
z
" id="CMSS17-46"/>
      </defs>
      <g transform="translate(256.82353 348.718498)scale(0.1 -0.1)">
       <use transform="scale(0.996264)" xlink:href="#CMSS17-49"/>
       <use transform="translate(46.843624 0)scale(0.996264)" xlink:href="#CMSS17-46"/>
       <use transform="translate(72.867828 0)scale(0.996264)" xlink:href="#CMSS17-50"/>
       <use transform="translate(119.711452 0)scale(0.996264)" xlink:href="#CMSS17-53"/>
       <use transform="translate(197.784188 0)scale(0.996264)" xlink:href="#CMSS17-107"/>
      </g>
     </g>
    </g>
    <g id="xtick_6">
     <g id="line2d_6">
      <g>
       <use style="stroke:#000000;stroke-width:0.8;" x="304.0875" xlink:href="#mb1391198ef" y="334.8"/>
      </g>
     </g>
     <g id="text_6">
      <!-- 1.5 k -->
      <g transform="translate(293.626697 348.718498)scale(0.1 -0.1)">
       <use transform="scale(0.996264)" xlink:href="#CMSS17-49"/>
       <use transform="translate(46.843624 0)scale(0.996264)" xlink:href="#CMSS17-46"/>
       <use transform="translate(72.867828 0)scale(0.996264)" xlink:href="#CMSS17-53"/>
       <use transform="translate(150.940565 0)scale(0.996264)" xlink:href="#CMSS17-107"/>
      </g>
     </g>
    </g>
    <g id="xtick_7">
     <g id="line2d_7">
      <g>
       <use style="stroke:#000000;stroke-width:0.8;" x="338.4" xlink:href="#mb1391198ef" y="334.8"/>
      </g>
     </g>
     <g id="text_7">
      <!-- 1.75 k -->
      <g transform="translate(325.44853 348.718498)scale(0.1 -0.1)">
       <use transform="scale(0.996264)" xlink:href="#CMSS17-49"/>
       <use transform="translate(46.843624 0)scale(0.996264)" xlink:href="#CMSS17-46"/>
       <use transform="translate(72.867828 0)scale(0.996264)" xlink:href="#CMSS17-55"/>
       <use transform="translate(119.711452 0)scale(0.996264)" xlink:href="#CMSS17-53"/>
       <use transform="translate(197.784188 0)scale(0.996264)" xlink:href="#CMSS17-107"/>
      </g>
     </g>
    </g>
   </g>
   <g id="matplotlib.axis_2">
    <g id="ytick_1">
     <g id="line2d_8">
      <defs>
       <path d="M 0 0 
L -3.5 0 
" id="m3a987d2b87" style="stroke:#000000;stroke-width:0.8;"/>
      </defs>
      <g>
       <use style="stroke:#000000;stroke-width:0.8;" x="118.8" xlink:href="#m3a987d2b87" y="324.080417"/>
      </g>
     </g>
     <g id="text_8">
      <!-- ${r}^{2}\left(d{\theta }^{2}+{\mathrm{sin}}^{2}\theta d{\varphi }^{2}\right)$ -->
      <defs>
       <path d="M 38.90625 40.8125 
C 35.796875 40.21875 34.203125 38.015625 34.203125 35.828125 
C 34.203125 33.421875 36.09375 32.625 37.5 32.625 
C 40.296875 32.625 42.59375 35.03125 42.59375 38.015625 
C 42.59375 41.21875 39.5 44 34.5 44 
C 30.5 44 25.90625 42.203125 21.703125 36.125 
C 21 41.40625 17 44 13 44 
C 9.09375 44 7.09375 41.015625 5.90625 38.8125 
C 4.203125 35.21875 2.703125 29.234375 2.703125 28.734375 
C 2.703125 28.34375 3.09375 27.84375 3.796875 27.84375 
C 4.59375 27.84375 4.703125 27.9375 5.296875 30.234375 
C 6.796875 36.21875 8.703125 42.015625 12.703125 42.015625 
C 15.09375 42.015625 15.796875 40.3125 15.796875 37.421875 
C 15.796875 35.21875 14.796875 31.328125 14.09375 28.234375 
L 11.296875 17.46875 
C 10.90625 15.5625 9.796875 11.078125 9.296875 9.28125 
C 8.59375 6.6875 7.5 2 7.5 1.5 
C 7.5 0.09375 8.59375 -1 10.09375 -1 
C 11.203125 -1 13.09375 -0.296875 13.703125 1.703125 
C 14 2.5 17.703125 17.5625 18.296875 19.859375 
C 18.796875 22.046875 19.40625 24.15625 19.90625 26.34375 
C 20.296875 27.734375 20.703125 29.34375 21 30.640625 
C 21.296875 31.53125 24 36.421875 26.5 38.625 
C 27.703125 39.71875 30.296875 42.015625 34.40625 42.015625 
C 36 42.015625 37.59375 41.71875 38.90625 40.8125 
z
" id="CMMI12-114"/>
       <path d="M 41.703125 15.453125 
L 39.90625 15.453125 
C 38.90625 8.375 38.09375 7.171875 37.703125 6.5625 
C 37.203125 5.765625 30 5.765625 28.59375 5.765625 
L 9.40625 5.765625 
C 13 9.671875 20 16.75 28.5 24.953125 
C 34.59375 30.734375 41.703125 37.53125 41.703125 47.421875 
C 41.703125 59.21875 32.296875 66 21.796875 66 
C 10.796875 66 4.09375 56.3125 4.09375 47.34375 
C 4.09375 43.4375 7 42.9375 8.203125 42.9375 
C 9.203125 42.9375 12.203125 43.546875 12.203125 47.03125 
C 12.203125 50.109375 9.59375 51 8.203125 51 
C 7.59375 51 7 50.90625 6.59375 50.703125 
C 8.5 59.21875 14.296875 63.40625 20.40625 63.40625 
C 29.09375 63.40625 34.796875 56.515625 34.796875 47.421875 
C 34.796875 38.734375 29.703125 31.25 24 24.75 
L 4.09375 2.28125 
L 4.09375 0 
L 39.296875 0 
z
" id="CMR17-50"/>
       <path d="M 41.296875 -114.90625 
C 41.296875 -114.5 41.09375 -114.296875 40.90625 -114 
C 36.296875 -109.09375 29.5 -101 25.296875 -84.703125 
C 23 -75.59375 22.09375 -65.296875 22.09375 -56 
C 22.09375 -29.703125 28.40625 -11.296875 40.40625 1.703125 
C 41.296875 2.59375 41.296875 2.796875 41.296875 3 
C 41.296875 4 40.5 4 40.09375 4 
C 38.59375 4 33.203125 -2 31.90625 -3.5 
C 21.703125 -15.59375 15.203125 -33.59375 15.203125 -55.90625 
C 15.203125 -70.09375 17.703125 -90.203125 30.796875 -107.09375 
C 31.796875 -108.296875 38.296875 -115.90625 40.09375 -115.90625 
C 40.5 -115.90625 41.296875 -115.90625 41.296875 -114.90625 
z
" id="CMEX10-0"/>
       <path d="M 50.296875 66.515625 
C 50.40625 66.90625 50.59375 67.5 50.59375 68 
C 50.59375 69 49.59375 69 49.40625 69 
C 49.296875 69 44.40625 68.5625 43.90625 68.4375 
C 42.203125 68.328125 40.703125 68.09375 38.90625 68.09375 
C 36.40625 67.890625 35.703125 67.796875 35.703125 66 
C 35.703125 65 36.5 65 37.90625 65 
C 42.796875 65 42.90625 64.109375 42.90625 63.125 
C 42.90625 62.53125 42.703125 61.75 42.59375 61.453125 
L 36.5 37.421875 
C 35.40625 40.015625 32.703125 44 27.5 44 
C 16.203125 44 4 29.4375 4 14.671875 
C 4 4.796875 9.796875 -1 16.59375 -1 
C 22.09375 -1 26.796875 3.296875 29.59375 6.59375 
C 30.59375 0.703125 35.296875 -1 38.296875 -1 
C 41.296875 -1 43.703125 0.796875 45.5 4.390625 
C 47.09375 7.78125 48.5 13.875 48.5 14.265625 
C 48.5 14.765625 48.09375 15.171875 47.5 15.171875 
C 46.59375 15.171875 46.5 14.671875 46.09375 13.171875 
C 44.59375 7.28125 42.703125 1 38.59375 1 
C 35.703125 1 35.5 3.578125 35.5 5.578125 
C 35.5 5.96875 35.5 8.046875 36.203125 10.84375 
z
M 30.09375 11.875 
C 29.59375 10.171875 29.59375 9.984375 28.203125 8.078125 
C 26 5.28125 21.59375 1 16.90625 1 
C 12.796875 1 10.5 4.6875 10.5 10.578125 
C 10.5 16.0625 13.59375 27.234375 15.5 31.4375 
C 18.90625 38.421875 23.59375 42.015625 27.5 42.015625 
C 34.09375 42.015625 35.40625 33.828125 35.40625 33.03125 
C 35.40625 32.9375 35.09375 31.625 35 31.4375 
z
" id="CMMI12-100"/>
       <path d="M 44.296875 50 
C 44.296875 60.15625 41.09375 70 32.90625 70 
C 18.90625 70 4 40.859375 4 19 
C 4 14.421875 5 -1 15.5 -1 
C 29.09375 -1 44.296875 27.4375 44.296875 50 
z
M 14 36 
C 15.5 41.859375 17.59375 50.21875 21.59375 57.265625 
C 24.90625 63.234375 28.40625 68 32.796875 68 
C 36.09375 68 38.296875 65.21875 38.296875 55.6875 
C 38.296875 52.09375 38 47.140625 35.09375 36 
z
M 34.40625 33.015625 
C 31.90625 23.28125 29.796875 17 26.203125 10.734375 
C 23.296875 5.671875 19.796875 1 15.59375 1 
C 12.5 1 10 3.390625 10 13.21875 
C 10 19.6875 11.59375 26.453125 13.203125 33.015625 
z
" id="CMMI12-18"/>
       <path d="M 37.703125 23 
L 64.203125 23 
C 65.59375 23 67.296875 23 67.296875 24.6875 
C 67.296875 26.484375 65.703125 26.484375 64.203125 26.484375 
L 37.703125 26.484375 
L 37.703125 52.90625 
C 37.703125 54.296875 37.703125 56 36 56 
C 34.203125 56 34.203125 54.40625 34.203125 52.90625 
L 34.203125 26.484375 
L 7.703125 26.484375 
C 6.296875 26.484375 4.59375 26.484375 4.59375 24.796875 
C 4.59375 23 6.203125 23 7.703125 23 
L 34.203125 23 
L 34.203125 -3.40625 
C 34.203125 -4.796875 34.203125 -6.5 35.90625 -6.5 
C 37.703125 -6.5 37.703125 -4.90625 37.703125 -3.40625 
z
" id="CMR17-43"/>
       <path d="M 30.90625 42.140625 
C 30.90625 43.953125 30.796875 44.046875 30.203125 44.046875 
C 29.796875 44.046875 29.703125 43.953125 28.5 42.453125 
C 28.203125 42.046875 27.296875 41.03125 27 40.640625 
C 23.796875 44.046875 19.296875 44.046875 17.59375 44.046875 
C 6.5 44.046875 2.5 38.234375 2.5 32.4375 
C 2.5 23.40625 12.703125 21.328125 15.59375 20.703125 
C 21.90625 19.421875 24.09375 19.015625 26.203125 17.203125 
C 27.5 16.015625 29.703125 13.8125 29.703125 10.21875 
C 29.703125 6 27.296875 0.59375 18.09375 0.59375 
C 9.40625 0.59375 6.296875 7.1875 4.5 15.953125 
C 4.203125 17.34375 4.203125 17.453125 3.40625 17.453125 
C 2.59375 17.453125 2.5 17.34375 2.5 15.359375 
L 2.5 0.984375 
C 2.5 -0.796875 2.59375 -0.90625 3.203125 -0.90625 
C 3.703125 -0.90625 3.796875 -0.796875 4.296875 0 
C 4.90625 0.890625 6.40625 3.296875 7 4.3125 
C 9 1.609375 12.5 -1 18.09375 -1 
C 28 -1 33.296875 4.421875 33.296875 12.25 
C 33.296875 17.375 30.59375 20.078125 29.296875 21.28125 
C 26.296875 24.390625 22.796875 25.09375 18.59375 25.890625 
C 13.09375 27.109375 6.09375 28.515625 6.09375 34.640625 
C 6.09375 37.234375 7.5 42.765625 17.59375 42.765625 
C 28.296875 42.765625 28.90625 32.71875 29.09375 29.5 
C 29.203125 29 29.703125 28.890625 30 28.890625 
C 30.90625 28.890625 30.90625 29.203125 30.90625 30.90625 
z
" id="CMR17-115"/>
       <path d="M 15.5 61.078125 
C 15.5 63.265625 13.703125 65.15625 11.40625 65.15625 
C 9.203125 65.15625 7.296875 63.375 7.296875 61.078125 
C 7.296875 58.890625 9.09375 57 11.40625 57 
C 13.59375 57 15.5 58.796875 15.5 61.078125 
z
M 3.796875 42.28125 
L 3.796875 39.703125 
C 9.40625 39.703125 10.203125 39.09375 10.203125 34.328125 
L 10.203125 6.671875 
C 10.203125 2.875 9.796875 2.390625 3.40625 2.390625 
L 3.40625 -0.203125 
C 5.796875 0 10.09375 0 12.59375 0 
C 15 0 19.09375 0 21.40625 -0.203125 
L 21.40625 2.390625 
C 15.5 2.390625 15.296875 2.984375 15.296875 6.5625 
L 15.296875 43.375 
z
" id="CMR17-105"/>
       <path d="M 41.5 30.203125 
C 41.5 35.296875 40.5 43.59375 28.703125 43.59375 
C 20.796875 43.59375 16.703125 37.5 15.203125 33.5 
L 15.09375 33.5 
L 15.09375 43.59375 
L 3.296875 42.5 
L 3.296875 39.90625 
C 9.203125 39.90625 10.09375 39.296875 10.09375 34.5 
L 10.09375 6.6875 
C 10.09375 2.875 9.703125 2.390625 3.296875 2.390625 
L 3.296875 -0.203125 
C 5.703125 0 10.09375 0 12.703125 0 
C 15.296875 0 19.796875 0 22.203125 -0.203125 
L 22.203125 2.390625 
C 15.796875 2.390625 15.40625 2.78125 15.40625 6.6875 
L 15.40625 25.90625 
C 15.40625 35.109375 21 42 28 42 
C 35.40625 42 36.203125 35.40625 36.203125 30.59375 
L 36.203125 6.6875 
C 36.203125 2.875 35.796875 2.390625 29.40625 2.390625 
L 29.40625 -0.203125 
C 31.796875 0 36.203125 0 38.796875 0 
C 41.40625 0 45.90625 0 48.296875 -0.203125 
L 48.296875 2.390625 
C 41.90625 2.390625 41.5 2.78125 41.5 6.6875 
z
" id="CMR17-110"/>
       <path d="M 30.09375 4.375 
C 28.40625 4.375 26.90625 4.375 26.90625 4.875 
C 26.90625 5.078125 28.59375 14.46875 29.203125 16.671875 
C 32.40625 29.4375 40 38.625 48.703125 38.625 
C 55.203125 38.625 58.203125 33.734375 58.203125 28.25 
C 58.203125 16.875 45.40625 4.375 30.09375 4.375 
z
M 25.796875 -0.796875 
C 26.40625 -0.890625 27.40625 -1 29.203125 -1 
C 45.59375 -1 60.703125 14.765625 60.703125 30.53125 
C 60.703125 36.625 58 44 49.59375 44 
C 35.203125 44 29.09375 23.734375 23.5 4.96875 
C 12 7.15625 7.203125 13.25 7.203125 19.9375 
C 7.203125 22.640625 9.296875 33.328125 15.09375 40.5 
C 16.203125 41.8125 16.203125 42.015625 16.203125 42.21875 
C 16.203125 43.015625 15.40625 43.015625 15.203125 43.015625 
C 12.5 43.015625 4.90625 28.4375 4.90625 18.953125 
C 4.90625 7.765625 13.703125 1.671875 21.796875 -0.109375 
L 16.59375 -17 
C 16.09375 -18.5 16.09375 -18.6875 16.09375 -19.09375 
C 16.09375 -21.5 18.5 -21.5 18.703125 -21.5 
C 19.703125 -21.5 21.5 -21.109375 22.296875 -19.109375 
C 22.59375 -18.21875 25.40625 -2.78125 25.796875 -0.796875 
z
" id="CMMI12-39"/>
       <path d="M 30.5 -56 
C 30.5 -41.796875 28 -21.703125 14.90625 -4.796875 
C 13.90625 -3.59375 7.40625 4 5.59375 4 
C 5.09375 4 4.40625 3.796875 4.40625 3 
C 4.40625 2.59375 4.59375 2.296875 5 2 
C 9.796875 -3.203125 16.296875 -11.296875 20.40625 -27.203125 
C 22.703125 -36.296875 23.59375 -46.59375 23.59375 -55.90625 
C 23.59375 -66 22.703125 -76.203125 20.09375 -86 
C 16.296875 -100 10.40625 -108 5.296875 -113.59375 
C 4.40625 -114.5 4.40625 -114.703125 4.40625 -114.90625 
C 4.40625 -115.703125 5.09375 -115.90625 5.59375 -115.90625 
C 7.09375 -115.90625 12.59375 -109.796875 13.796875 -108.40625 
C 24 -96.296875 30.5 -78.296875 30.5 -56 
z
" id="CMEX10-1"/>
      </defs>
      <g transform="translate(33.514332 326.34188)scale(0.09 -0.09)">
       <use transform="scale(0.996264)" xlink:href="#CMMI12-114"/>
       <use transform="translate(46.670612 36.153639)scale(0.697382)" xlink:href="#CMR17-50"/>
       <use transform="translate(95.756331 80.698084)scale(0.996264)" xlink:href="#CMEX10-0"/>
       <use transform="translate(141.418685 0)scale(0.996264)" xlink:href="#CMMI12-100"/>
       <use transform="translate(192.107782 0)scale(0.996264)" xlink:href="#CMMI12-18"/>
       <use transform="translate(240.27729 36.153639)scale(0.697382)" xlink:href="#CMR17-50"/>
       <use transform="translate(294.897811 0)scale(0.996264)" xlink:href="#CMR17-43"/>
       <use transform="translate(388.751806 0)scale(0.996264)" xlink:href="#CMR17-115"/>
       <use transform="translate(424.553144 0)scale(0.996264)" xlink:href="#CMR17-105"/>
       <use transform="translate(449.424202 0)scale(0.996264)" xlink:href="#CMR17-110"/>
       <use transform="translate(500.319572 38.426442)scale(0.697382)" xlink:href="#CMR17-50"/>
       <use transform="translate(532.800886 0)scale(0.996264)" xlink:href="#CMMI12-18"/>
       <use transform="translate(580.970394 0)scale(0.996264)" xlink:href="#CMMI12-100"/>
       <use transform="translate(631.65949 0)scale(0.996264)" xlink:href="#CMMI12-39"/>
       <use transform="translate(695.562554 36.153639)scale(0.697382)" xlink:href="#CMR17-50"/>
       <use transform="translate(728.043868 80.698084)scale(0.996264)" xlink:href="#CMEX10-1"/>
      </g>
     </g>
    </g>
    <g id="ytick_2">
     <g id="line2d_9">
      <g>
       <use style="stroke:#000000;stroke-width:0.8;" x="118.8" xlink:href="#m3a987d2b87" y="304.869695"/>
      </g>
     </g>
     <g id="text_9">
      <!-- $SU{\left({N}_{f}\right)}_{L}\times SU{\left({N}_{f}\right)}_{R}$ -->
      <defs>
       <path d="M 63.5 69.109375 
C 63.5 70 62.796875 70 62.59375 70 
C 62.203125 70 62.09375 69.90625 60.90625 68.40625 
C 60.296875 67.703125 56.203125 62.515625 56.09375 62.421875 
C 52.796875 68.90625 46.203125 70 42 70 
C 29.296875 70 17.796875 58.484375 17.796875 47.265625 
C 17.796875 39.828125 22.296875 35.453125 27.203125 33.765625 
C 28.296875 33.359375 34.203125 31.765625 37.203125 31.078125 
C 42.296875 29.6875 43.59375 29.296875 45.703125 27.109375 
C 46.09375 26.609375 48.09375 24.328125 48.09375 19.65625 
C 48.09375 10.421875 39.5 0.890625 29.5 0.890625 
C 21.296875 0.890625 12.203125 4.375 12.203125 15.484375 
C 12.203125 17.375 12.59375 19.765625 12.90625 20.75 
C 12.90625 21.0625 13 21.53125 13 21.734375 
C 13 22.140625 12.796875 22.640625 12 22.640625 
C 11.09375 22.640625 11 22.4375 10.59375 20.75 
L 5.5 0.375 
C 5.5 0.28125 5.09375 -1 5.09375 -1.109375 
C 5.09375 -2 5.90625 -2 6.09375 -2 
C 6.5 -2 6.59375 -1.90625 7.796875 -0.40625 
L 12.40625 5.5625 
C 14.796875 1.96875 20 -2 29.296875 -2 
C 42.203125 -2 54 10.40625 54 22.8125 
C 54 27 53 30.671875 49.203125 34.328125 
C 47.09375 36.421875 45.296875 36.921875 36.09375 39.3125 
C 29.40625 41.09375 28.5 41.390625 26.703125 42.984375 
C 25 44.65625 23.703125 47.046875 23.703125 50.421875 
C 23.703125 58.765625 32.203125 67.3125 41.703125 67.3125 
C 51.5 67.3125 56.09375 61.34375 56.09375 51.921875 
C 56.09375 49.34375 55.59375 46.65625 55.59375 46.265625 
C 55.59375 45.359375 56.40625 45.359375 56.703125 45.359375 
C 57.59375 45.359375 57.703125 45.65625 58.09375 47.25 
z
" id="CMMI12-83"/>
       <path d="M 50.59375 23.03125 
C 47.09375 9.078125 35.5 0.890625 26.09375 0.890625 
C 18.90625 0.890625 14 5.671875 14 13.921875 
C 14 14.3125 14 17.296875 15.09375 21.671875 
L 24.90625 60.734375 
C 25.796875 64.109375 26 65.109375 33.09375 65.109375 
C 34.90625 65.109375 35.90625 65.109375 35.90625 66.90625 
C 35.90625 68 35 68 34.40625 68 
C 32.59375 68 30.5 68 28.59375 68 
L 16.796875 68 
C 14.90625 68 12.796875 68 10.90625 68 
C 10.203125 68 9 68 9 66.109375 
C 9 65.109375 9.703125 65.109375 11.59375 65.109375 
C 17.59375 65.109375 17.59375 64.3125 17.59375 63.21875 
C 17.59375 62.625 16.90625 59.75 16.40625 58.046875 
L 7.703125 23.25 
C 7.40625 22.15625 6.796875 19.46875 6.796875 16.796875 
C 6.796875 5.84375 14.703125 -2 25.59375 -2 
C 35.703125 -2 46.90625 6 52 18.703125 
C 52.703125 20.390625 53.59375 23.90625 54.203125 26.59375 
C 55.203125 30.203125 57.296875 39 58 41.59375 
L 61.796875 56.609375 
C 63.09375 61.8125 63.90625 65.109375 72.703125 65.109375 
C 73.5 65.203125 73.90625 66 73.90625 66.90625 
C 73.90625 68 73 68 72.59375 68 
C 71.203125 68 69.40625 68 68 68 
L 63.296875 68 
C 57.09375 68 53.90625 68 53.796875 68 
C 53.203125 68 52 68 52 66.109375 
C 52 65.109375 52.796875 65.109375 53.5 65.109375 
C 59.5 65.109375 59.90625 62.8125 59.90625 61.015625 
C 59.90625 60.125 59.90625 59.8125 59.5 58.421875 
z
" id="CMMI12-85"/>
       <path d="M 74 57.78125 
C 75.09375 62.09375 76.703125 65.09375 84.296875 65.09375 
C 84.59375 65.09375 85.796875 65.09375 85.796875 66.859375 
C 85.796875 68 84.90625 68 84.5 68 
C 82.5 68 77.40625 68 75.40625 68 
L 70.59375 68 
C 69.203125 68 67.40625 68 66 68 
C 65.40625 68 64.203125 68 64.203125 66.09375 
C 64.203125 65.09375 65 65.09375 65.703125 65.09375 
C 71.703125 65.09375 72.09375 62.796875 72.09375 60.984375 
C 72.09375 60.09375 72 59.78125 71.703125 58.390625 
L 60.40625 13.28125 
L 39 66.390625 
C 38.296875 68 38.203125 68 36 68 
L 23.796875 68 
C 21.796875 68 20.90625 68 20.90625 66.09375 
C 20.90625 65.09375 21.59375 65.09375 23.5 65.09375 
C 24 65.09375 29.90625 65.09375 29.90625 64.296875 
C 29.90625 64.09375 29.703125 63.296875 29.59375 63 
L 16.296875 9.921875 
C 15.09375 5 12.703125 2.90625 6.09375 2.90625 
C 5.59375 2.90625 4.59375 2.90625 4.59375 1.046875 
C 4.59375 0 5.59375 0 5.90625 0 
C 7.90625 0 13 0 15 0 
L 19.796875 0 
C 21.203125 0 22.90625 0 24.296875 0 
C 25 0 26.09375 0 26.09375 1.90625 
C 26.09375 2.8125 25.09375 2.90625 24.703125 2.90625 
C 21.40625 2.90625 18.203125 3.5 18.203125 7.09375 
C 18.203125 7.890625 18.40625 8.78125 18.59375 9.578125 
L 32.09375 63 
C 32.703125 62 32.703125 61.8125 33.09375 60.90625 
L 56.90625 1.796875 
C 57.40625 0.59375 57.59375 0 58.5 0 
C 59.5 0 59.59375 0.296875 60 2 
z
" id="CMMI12-78"/>
       <path d="M 44.59375 40.09375 
C 46.59375 40.09375 47.40625 40.09375 47.40625 42 
C 47.40625 43 46.59375 43 44.796875 43 
L 36.703125 43 
C 38.59375 53.578125 40 60.890625 40.796875 64.171875 
C 41.40625 66.640625 43.5 69 46.09375 69 
C 48.203125 69 50.296875 68.09375 51.296875 67.15625 
C 47.40625 66.75 46.203125 63.78125 46.203125 62.015625 
C 46.203125 59.953125 47.703125 58.734375 49.59375 58.734375 
C 51.59375 58.734375 54.59375 60.46875 54.59375 64.359375 
C 54.59375 68.640625 50.40625 71 46 71 
C 41.703125 71 37.5 67.71875 35.5 63.71875 
C 33.703125 60.125 32.703125 56.421875 30.40625 43 
L 23.703125 43 
C 21.796875 43 20.796875 43 20.796875 41.203125 
C 20.796875 40.09375 21.40625 40.09375 23.40625 40.09375 
L 29.796875 40.09375 
C 28 30.875 23.90625 8.46875 21.59375 -2.140625 
C 19.90625 -10.765625 18.40625 -18 13.40625 -18 
C 13.09375 -18 10.203125 -18 8.40625 -16.109375 
C 13.5 -15.703125 13.5 -11.34375 13.5 -11.25 
C 13.5 -9.265625 12 -8.078125 10.09375 -8.078125 
C 8.09375 -8.078125 5.09375 -9.765625 5.09375 -13.546875 
C 5.09375 -17.8125 9.5 -20 13.40625 -20 
C 23.59375 -20 27.796875 -1.84375 28.90625 3.109375 
C 30.703125 10.75 35.59375 37.125 36.09375 40.09375 
z
" id="CMMI12-102"/>
       <path d="M 36.703125 60.328125 
C 37.59375 64.109375 37.90625 65.109375 46.703125 65.109375 
C 49.40625 65.109375 50.09375 65.109375 50.09375 67 
C 50.09375 68 49 68 48.59375 68 
C 46.59375 68 44.296875 68 42.296875 68 
L 28.90625 68 
C 27 68 24.796875 68 22.90625 68 
C 22.09375 68 21 68 21 66.109375 
C 21 65.109375 21.90625 65.109375 23.40625 65.109375 
C 29.5 65.109375 29.5 64.3125 29.5 63.21875 
C 29.5 63.03125 29.5 62.421875 29.09375 60.921875 
L 15.59375 7.375 
C 14.703125 3.890625 14.5 2.890625 7.5 2.890625 
C 5.59375 2.890625 4.59375 2.890625 4.59375 1.09375 
C 4.59375 0 5.203125 0 7.203125 0 
L 52 0 
C 54.203125 0 54.296875 0.09375 55 1.890625 
L 62.703125 23.09375 
C 62.90625 23.59375 63.09375 24.1875 63.09375 24.484375 
C 63.09375 25.078125 62.59375 25.484375 62.09375 25.484375 
C 62 25.484375 61.5 25.484375 61.296875 25.078125 
C 61.09375 24.984375 61.09375 24.78125 60.296875 22.890625 
C 57.09375 14.140625 52.59375 2.890625 35.703125 2.890625 
L 26.09375 2.890625 
C 24.703125 2.890625 24.5 2.890625 23.90625 3 
C 22.796875 3.09375 22.703125 3.296875 22.703125 4.09375 
C 22.703125 4.796875 22.90625 5.390625 23.09375 6.265625 
z
" id="CMMI12-76"/>
       <path d="M 38.90625 27.890625 
L 18.90625 47.796875 
C 17.703125 49 17.5 49.1875 16.703125 49.1875 
C 15.703125 49.1875 14.703125 48.296875 14.703125 47.1875 
C 14.703125 46.5 14.90625 46.296875 16 45.1875 
L 36 25.09375 
L 16 5 
C 14.90625 3.890625 14.703125 3.6875 14.703125 3 
C 14.703125 1.890625 15.703125 1 16.703125 1 
C 17.5 1 17.703125 1.1875 18.90625 2.390625 
L 38.796875 22.296875 
L 59.5 1.59375 
C 59.703125 1.5 60.40625 1 61 1 
C 62.203125 1 63 1.890625 63 3 
C 63 3.1875 63 3.59375 62.703125 4.09375 
C 62.59375 4.296875 46.703125 20 41.703125 25.09375 
L 60 43.390625 
C 60.5 44 62 45.296875 62.5 45.890625 
C 62.59375 46.09375 63 46.5 63 47.1875 
C 63 48.296875 62.203125 49.1875 61 49.1875 
C 60.203125 49.1875 59.796875 48.796875 58.703125 47.6875 
z
" id="CMSY10-2"/>
       <path d="M 36.796875 61.3125 
C 37.703125 65 38.09375 65 42 65 
L 49.203125 65 
C 57.796875 65 64.203125 62.421875 64.203125 54.671875 
C 64.203125 49.609375 61.59375 35 41.5 35 
L 30.203125 35 
z
M 50.703125 33.890625 
C 63.09375 36.578125 72.796875 44.546875 72.796875 53.09375 
C 72.796875 60.84375 64.90625 68 51 68 
L 23.90625 68 
C 21.90625 68 21 68 21 66.03125 
C 21 65 21.703125 65 23.59375 65 
C 29.59375 65 29.59375 64.25 29.59375 63.203125 
C 29.59375 63.015625 29.59375 62.40625 29.203125 60.921875 
L 15.703125 7.484375 
C 14.796875 4 14.59375 3 7.703125 3 
C 5.40625 3 4.703125 3 4.703125 1.109375 
C 4.703125 0.109375 5.796875 0.109375 6.09375 0.109375 
C 7.90625 0.109375 10 0.109375 11.90625 0.109375 
L 23.703125 0.109375 
C 25.5 0.109375 27.59375 0.109375 29.40625 0.109375 
C 30.203125 0.109375 31.296875 0.109375 31.296875 2 
C 31.296875 3 30.40625 3 28.90625 3 
C 22.796875 3 22.796875 3.796875 22.796875 4.78125 
C 22.796875 4.890625 22.796875 5.578125 23 6.359375 
L 29.703125 33 
L 41.703125 33 
C 51.203125 33 53 27.046875 53 23.78125 
C 53 22.296875 52 18.421875 51.296875 15.84375 
C 50.203125 11.296875 49.90625 10.1875 49.90625 8.3125 
C 49.90625 1.28125 55.703125 -2 62.40625 -2 
C 70.5 -2 74 7.828125 74 9.234375 
C 74 9.921875 73.5 10.21875 72.90625 10.21875 
C 72.09375 10.21875 71.90625 9.625 71.703125 8.828125 
C 69.296875 1.78125 65.203125 0 62.703125 0 
C 60.203125 0 58.59375 1.09375 58.59375 5.5625 
C 58.59375 7.953125 59.796875 17 59.90625 17.5 
C 60.40625 21.171875 60.40625 21.5625 60.40625 22.375 
C 60.40625 29.625 54.5 32.703125 50.703125 33.890625 
z
" id="CMMI12-82"/>
      </defs>
      <g transform="translate(24.099625 307.858479)scale(0.09 -0.09)">
       <use transform="translate(0 38.356757)scale(0.996264)" xlink:href="#CMMI12-83"/>
       <use transform="translate(65.794439 38.356757)scale(0.996264)" xlink:href="#CMMI12-85"/>
       <use transform="translate(142.453212 119.054841)scale(0.996264)" xlink:href="#CMEX10-0"/>
       <use transform="translate(188.115566 38.356757)scale(0.996264)" xlink:href="#CMMI12-78"/>
       <use transform="translate(266.230685 23.412843)scale(0.697382)" xlink:href="#CMMI12-102"/>
       <use transform="translate(307.83284 119.054841)scale(0.996264)" xlink:href="#CMEX10-1"/>
       <use transform="translate(353.495194 0)scale(0.697382)" xlink:href="#CMMI12-76"/>
       <use transform="translate(422.591946 38.356757)scale(0.996264)" xlink:href="#CMSY10-2"/>
       <use transform="translate(522.218621 38.356757)scale(0.996264)" xlink:href="#CMMI12-83"/>
       <use transform="translate(588.01306 38.356757)scale(0.996264)" xlink:href="#CMMI12-85"/>
       <use transform="translate(664.671833 119.054841)scale(0.996264)" xlink:href="#CMEX10-0"/>
       <use transform="translate(710.334187 38.356757)scale(0.996264)" xlink:href="#CMMI12-78"/>
       <use transform="translate(788.449306 23.412843)scale(0.697382)" xlink:href="#CMMI12-102"/>
       <use transform="translate(830.051461 119.054841)scale(0.996264)" xlink:href="#CMEX10-1"/>
       <use transform="translate(875.713815 0)scale(0.697382)" xlink:href="#CMMI12-82"/>
      </g>
     </g>
    </g>
    <g id="ytick_3">
     <g id="line2d_10">
      <g>
       <use style="stroke:#000000;stroke-width:0.8;" x="118.8" xlink:href="#m3a987d2b87" y="285.658972"/>
      </g>
     </g>
     <g id="text_10">
      <!-- $SU\left(3\right)\otimes SU\left(2\right)\otimes U\left(1\right)$ -->
      <defs>
       <path d="M 30.59375 -24.390625 
C 30.59375 -24.296875 30.59375 -24.09375 30.296875 -23.796875 
C 25.703125 -19.125 13.40625 -6.359375 13.40625 24.703125 
C 13.40625 55.765625 25.5 68.421875 30.40625 73.390625 
C 30.40625 73.5 30.59375 73.703125 30.59375 74 
C 30.59375 74.296875 30.296875 74.5 29.90625 74.5 
C 28.796875 74.5 20.296875 67.125 15.40625 56.15625 
C 10.40625 45.109375 9 34.359375 9 24.8125 
C 9 17.625 9.703125 5.484375 15.703125 -7.359375 
C 20.5 -17.734375 28.703125 -25 29.90625 -25 
C 30.40625 -25 30.59375 -24.796875 30.59375 -24.390625 
z
" id="CMR17-40"/>
       <path d="M 22.09375 33.703125 
C 31 33.703125 34.90625 25.96875 34.90625 17.03125 
C 34.90625 5 28.5 0.390625 22.703125 0.390625 
C 17.40625 0.390625 8.796875 3.03125 6.09375 10.828125 
C 6.59375 10.625 7.09375 10.625 7.59375 10.625 
C 10 10.625 11.796875 12.21875 11.796875 14.8125 
C 11.796875 17.703125 9.59375 19 7.59375 19 
C 5.90625 19 3.296875 18.203125 3.296875 14.46875 
C 3.296875 5.234375 12.296875 -2 22.90625 -2 
C 34 -2 42.5 6.71875 42.5 16.953125 
C 42.5 26.671875 34.5 33.703125 25 34.796875 
C 32.59375 36.375 39.90625 43.0625 39.90625 52.015625 
C 39.90625 59.6875 32 65.296875 23 65.296875 
C 13.90625 65.296875 5.90625 59.828125 5.90625 52.015625 
C 5.90625 48.59375 8.5 48 9.796875 48 
C 11.90625 48 13.703125 49.296875 13.703125 51.890625 
C 13.703125 54.46875 11.90625 55.765625 9.796875 55.765625 
C 9.40625 55.765625 8.90625 55.765625 8.5 55.578125 
C 11.40625 61.859375 19.296875 63 22.796875 63 
C 26.296875 63 32.90625 61.328125 32.90625 51.875 
C 32.90625 49.109375 32.5 44.1875 29.09375 39.84375 
C 26.09375 36 22.703125 36 19.40625 35.6875 
C 18.90625 35.6875 16.59375 35.453125 16.203125 35.453125 
C 15.5 35.359375 15.09375 35.265625 15.09375 34.5 
C 15.09375 33.796875 15.203125 33.703125 17.203125 33.703125 
z
" id="CMR17-51"/>
       <path d="M 26.296875 24.703125 
C 26.296875 31.875 25.59375 44.015625 19.59375 56.859375 
C 14.796875 67.234375 6.59375 74.5 5.40625 74.5 
C 5.09375 74.5 4.703125 74.390625 4.703125 73.890625 
C 4.703125 73.703125 4.796875 73.59375 4.90625 73.390625 
C 9.703125 68.40625 21.90625 55.75 21.90625 24.75 
C 21.90625 -6.359375 9.796875 -19.015625 4.90625 -24.015625 
C 4.796875 -24.203125 4.703125 -24.3125 4.703125 -24.5 
C 4.703125 -25 5.09375 -25 5.40625 -25 
C 6.5 -25 15 -17.625 19.90625 -6.65625 
C 24.90625 4.390625 26.296875 15.140625 26.296875 24.703125 
z
" id="CMR17-41"/>
       <path d="M 72.21875 25 
C 72.21875 43.3125 57.21875 58.140625 38.90625 58.140625 
C 20.3125 58.140625 5.5 43.125 5.5 25 
C 5.5 6.6875 20.5 -8.140625 38.8125 -8.140625 
C 57.421875 -8.140625 72.21875 6.875 72.21875 25 
z
M 19.015625 46.390625 
C 18.8125 46.59375 18.109375 47.296875 18.109375 47.484375 
C 18.109375 47.875 26.203125 55.640625 38.8125 55.640625 
C 42.3125 55.640625 51.515625 55.140625 59.71875 47.484375 
L 38.90625 26.6875 
z
M 16.109375 4.09375 
C 10 10.90625 8 18.59375 8 25 
C 8 32.65625 10.90625 39.921875 16.109375 45.796875 
L 37.015625 25 
z
M 61.515625 45.90625 
C 66.328125 40.796875 69.71875 33.203125 69.71875 25 
C 69.71875 17.34375 66.828125 10.09375 61.625 4.21875 
L 40.71875 25 
z
M 58.703125 3.609375 
C 58.90625 3.40625 59.609375 2.703125 59.609375 2.515625 
C 59.609375 2.125 51.515625 -5.640625 38.90625 -5.640625 
C 35.40625 -5.640625 26.203125 -5.140625 18 2.515625 
L 38.8125 23.3125 
z
" id="CMSY10-10"/>
       <path d="M 26.59375 63.40625 
C 26.59375 65.5 26.5 65.5 25.09375 65.5 
C 21.203125 61.1875 15.296875 59.796875 9.703125 59.796875 
C 9.40625 59.796875 8.90625 59.796875 8.796875 59.5 
C 8.703125 59.296875 8.703125 59.09375 8.703125 57 
C 11.796875 57 17 57.59375 21 59.984375 
L 21 7.203125 
C 21 3.6875 20.796875 2.5 12.203125 2.5 
L 9.203125 2.5 
L 9.203125 0 
C 14 0 19 0 23.796875 0 
C 28.59375 0 33.59375 0 38.40625 0 
L 38.40625 2.5 
L 35.40625 2.5 
C 26.796875 2.5 26.59375 3.59375 26.59375 7.15625 
z
" id="CMR17-49"/>
      </defs>
      <g transform="translate(15.351608 287.900566)scale(0.09 -0.09)">
       <use transform="scale(0.996264)" xlink:href="#CMMI12-83"/>
       <use transform="translate(65.794439 0)scale(0.996264)" xlink:href="#CMMI12-85"/>
       <use transform="translate(159.057617 0.003177)scale(0.996264)" xlink:href="#CMR17-40"/>
       <use transform="translate(194.338385 0)scale(0.996264)" xlink:href="#CMR17-51"/>
       <use transform="translate(240.028862 0.003177)scale(0.996264)" xlink:href="#CMR17-41"/>
       <use transform="translate(297.448837 0)scale(0.996264)" xlink:href="#CMSY10-10"/>
       <use transform="translate(397.075512 0)scale(0.996264)" xlink:href="#CMMI12-83"/>
       <use transform="translate(462.869951 0)scale(0.996264)" xlink:href="#CMMI12-85"/>
       <use transform="translate(556.133129 0.003177)scale(0.996264)" xlink:href="#CMR17-40"/>
       <use transform="translate(591.413896 0)scale(0.996264)" xlink:href="#CMR17-50"/>
       <use transform="translate(637.104374 0.003177)scale(0.996264)" xlink:href="#CMR17-41"/>
       <use transform="translate(694.524348 0)scale(0.996264)" xlink:href="#CMSY10-10"/>
       <use transform="translate(794.151023 0)scale(0.996264)" xlink:href="#CMMI12-85"/>
       <use transform="translate(887.414201 0.003177)scale(0.996264)" xlink:href="#CMR17-40"/>
       <use transform="translate(922.694969 0)scale(0.996264)" xlink:href="#CMR17-49"/>
       <use transform="translate(968.385446 0.003177)scale(0.996264)" xlink:href="#CMR17-41"/>
      </g>
     </g>
    </g>
    <g id="ytick_4">
     <g id="line2d_11">
      <g>
       <use style="stroke:#000000;stroke-width:0.8;" x="118.8" xlink:href="#m3a987d2b87" y="266.44825"/>
      </g>
     </g>
     <g id="text_11">
      <!-- $O\left(\mathrm{log}n/\mathrm{log}\mathrm{log}n\right)$ -->
      <defs>
       <path d="M 72.59375 43.703125 
C 72.59375 60.125 61.796875 70.1875 47.796875 70.1875 
C 26.40625 70.1875 4.796875 47.28125 4.796875 24.28125 
C 4.796875 8.65625 15.203125 -2 29.703125 -2 
C 50.703125 -2 72.59375 19.8125 72.59375 43.703125 
z
M 30.296875 0.296875 
C 22.09375 0.296875 13.40625 6.265625 13.40625 21.796875 
C 13.40625 30.84375 16.703125 45.6875 24.90625 55.65625 
C 32.203125 64.421875 40.59375 68 47.296875 68 
C 56.09375 68 64.59375 61.625 64.59375 47.28125 
C 64.59375 38.421875 60.796875 24.578125 54.09375 15.125 
C 46.796875 4.96875 37.703125 0.296875 30.296875 0.296875 
z
" id="CMMI12-79"/>
       <path d="M 15.296875 68.6875 
L 3.40625 67.59375 
L 3.40625 65 
C 9.296875 65 10.203125 64.40625 10.203125 59.640625 
L 10.203125 6.65625 
C 10.203125 2.875 9.796875 2.390625 3.40625 2.390625 
L 3.40625 -0.203125 
C 5.796875 0 10.203125 0 12.703125 0 
C 15.296875 0 19.703125 0 22.09375 -0.203125 
L 22.09375 2.390625 
C 15.703125 2.390625 15.296875 2.78125 15.296875 6.65625 
z
" id="CMR17-108"/>
       <path d="M 43.09375 21.1875 
C 43.09375 34 33.796875 44 22.90625 44 
C 12 44 2.703125 34 2.703125 21.1875 
C 2.703125 8.609375 12 -1 22.90625 -1 
C 33.796875 -1 43.09375 8.609375 43.09375 21.1875 
z
M 22.90625 0.796875 
C 18.203125 0.796875 14.203125 3.59375 11.90625 7.5 
C 9.40625 11.984375 9.09375 17.59375 9.09375 22 
C 9.09375 26.203125 9.296875 31.40625 11.90625 35.90625 
C 13.90625 39.203125 17.796875 42.40625 22.90625 42.40625 
C 27.40625 42.40625 31.203125 39.90625 33.59375 36.40625 
C 36.703125 31.703125 36.703125 25.109375 36.703125 22 
C 36.703125 18.09375 36.5 12.109375 33.796875 7.296875 
C 31 2.703125 26.703125 0.796875 22.90625 0.796875 
z
" id="CMR17-111"/>
       <path d="M 11.09375 18.1875 
C 13 16.6875 16.296875 15 20.296875 15 
C 28.203125 15 35 21.203125 35 29.5 
C 35 32.09375 34.203125 36.09375 31.203125 39.203125 
C 34 42.0625 38.09375 43 40.40625 43 
C 40.796875 43 41.40625 43 41.90625 42.71875 
C 41.5 42.625 40.59375 42.234375 40.59375 40.703125 
C 40.59375 39.484375 41.5 38.609375 42.796875 38.609375 
C 44.296875 38.609375 45.09375 39.578125 45.09375 40.84375 
C 45.09375 42.671875 43.59375 44.59375 40.40625 44.59375 
C 36.40625 44.59375 32.90625 42.78125 30.09375 40.3125 
C 27.09375 43.015625 23.5 44 20.296875 44 
C 12.40625 44 5.59375 37.796875 5.59375 29.5 
C 5.59375 23.78125 8.90625 20.1875 9.90625 19.1875 
C 6.90625 15.6875 6.90625 11.609375 6.90625 11.109375 
C 6.90625 8.515625 7.90625 4.71875 11.296875 2.625 
C 6.09375 1.328125 2 -2.640625 2 -7.59375 
C 2 -14.734375 11.5 -20 22.90625 -20 
C 33.90625 -20 43.796875 -14.9375 43.796875 -7.484375 
C 43.796875 6 29 6 21.296875 6 
C 19 6 14.90625 6 14.40625 6.109375 
C 11.296875 6.609375 9.203125 9.40625 9.203125 12.90625 
C 9.203125 13.796875 9.203125 16 11.09375 18.1875 
z
M 20.296875 16.6875 
C 11.5 16.6875 11.5 27.5 11.5 29.515625 
C 11.5 31.5 11.5 42.3125 20.296875 42.3125 
C 29.09375 42.3125 29.09375 31.5 29.09375 29.515625 
C 29.09375 27.5 29.09375 16.6875 20.296875 16.6875 
z
M 22.90625 -18.296875 
C 12.90625 -18.296875 6 -13.046875 6 -7.59375 
C 6 -4.515625 7.703125 -1.640625 9.90625 -0.0625 
C 12.40625 1.625 13.40625 1.625 20.203125 1.625 
C 28.40625 1.625 39.796875 1.625 39.796875 -7.59375 
C 39.796875 -13.046875 32.90625 -18.296875 22.90625 -18.296875 
z
" id="CMR17-103"/>
       <path d="M 20.59375 29.234375 
C 20.796875 29.84375 23.296875 34.828125 27 38.015625 
C 29.59375 40.40625 33 42.015625 36.90625 42.015625 
C 40.90625 42.015625 42.296875 39.015625 42.296875 35.03125 
C 42.296875 29.34375 38.203125 17.96875 36.203125 12.578125 
C 35.296875 10.171875 34.796875 8.875 34.796875 7.078125 
C 34.796875 2.59375 37.90625 -1 42.703125 -1 
C 52 -1 55.5 13.671875 55.5 14.265625 
C 55.5 14.765625 55.09375 15.171875 54.5 15.171875 
C 53.59375 15.171875 53.5 14.875 53 13.171875 
C 50.703125 4.984375 46.90625 1 43 1 
C 42 1 40.40625 1 40.40625 4.203125 
C 40.40625 6.703125 41.5 9.703125 42.09375 11.09375 
C 44.09375 16.609375 48.296875 27.8125 48.296875 33.515625 
C 48.296875 39.5 44.796875 44 37.203125 44 
C 28.296875 44 23.59375 37.734375 21.796875 35.234375 
C 21.5 40.90625 17.40625 44 13 44 
C 9.796875 44 7.59375 42.109375 5.90625 38.71875 
C 4.09375 35.125 2.703125 29.140625 2.703125 28.734375 
C 2.703125 28.34375 3.09375 27.84375 3.796875 27.84375 
C 4.59375 27.84375 4.703125 27.9375 5.296875 30.234375 
C 6.90625 36.328125 8.703125 42.015625 12.703125 42.015625 
C 15 42.015625 15.796875 40.40625 15.796875 37.421875 
C 15.796875 35.21875 14.796875 31.328125 14.09375 28.234375 
L 11.296875 17.46875 
C 10.90625 15.5625 9.796875 11.078125 9.296875 9.28125 
C 8.59375 6.6875 7.5 2 7.5 1.5 
C 7.5 0.09375 8.59375 -1 10.09375 -1 
C 11.296875 -1 12.703125 -0.40625 13.5 1.09375 
C 13.703125 1.59375 14.59375 5.09375 15.09375 7.078125 
L 17.296875 16.0625 
z
" id="CMMI12-110"/>
       <path d="M 42.90625 71.28125 
C 42.90625 71.390625 43.5 72.90625 43.5 73.09375 
C 43.5 74.296875 42.5 75 41.703125 75 
C 41.203125 75 40.296875 75 39.5 72.796875 
L 6 -21.296875 
C 6 -21.40625 5.40625 -22.890625 5.40625 -23.09375 
C 5.40625 -24.296875 6.40625 -25 7.203125 -25 
C 7.796875 -25 8.703125 -24.890625 9.40625 -22.796875 
z
" id="CMMI12-61"/>
      </defs>
      <g transform="translate(44.393047 268.689844)scale(0.09 -0.09)">
       <use transform="scale(0.996264)" xlink:href="#CMMI12-79"/>
       <use transform="translate(93.864804 0.003177)scale(0.996264)" xlink:href="#CMR17-40"/>
       <use transform="translate(129.145572 0)scale(0.996264)" xlink:href="#CMR17-108"/>
       <use transform="translate(154.01663 0)scale(0.996264)" xlink:href="#CMR17-111"/>
       <use transform="translate(199.707107 0)scale(0.996264)" xlink:href="#CMR17-103"/>
       <use transform="translate(246.698751 0)scale(0.996264)" xlink:href="#CMMI12-110"/>
       <use transform="translate(304.928798 0)scale(0.996264)" xlink:href="#CMMI12-61"/>
       <use transform="translate(353.703717 0)scale(0.996264)" xlink:href="#CMR17-108"/>
       <use transform="translate(378.574775 0)scale(0.996264)" xlink:href="#CMR17-111"/>
       <use transform="translate(424.265252 0)scale(0.996264)" xlink:href="#CMR17-103"/>
       <use transform="translate(471.256896 0)scale(0.996264)" xlink:href="#CMR17-108"/>
       <use transform="translate(496.127954 0)scale(0.996264)" xlink:href="#CMR17-111"/>
       <use transform="translate(541.818431 0)scale(0.996264)" xlink:href="#CMR17-103"/>
       <use transform="translate(588.810074 0)scale(0.996264)" xlink:href="#CMMI12-110"/>
       <use transform="translate(647.040122 0.003177)scale(0.996264)" xlink:href="#CMR17-41"/>
      </g>
     </g>
    </g>
    <g id="ytick_5">
     <g id="line2d_12">
      <g>
       <use style="stroke:#000000;stroke-width:0.8;" x="118.8" xlink:href="#m3a987d2b87" y="247.237528"/>
      </g>
     </g>
     <g id="text_12">
      <!-- $SU{\left(3\right)}_{C}\times SU{\left(2\right)}_{L}\times S$ -->
      <defs>
       <path d="M 74.703125 69.109375 
C 74.703125 70 74 70 73.796875 70 
C 73.59375 70 73.203125 70 72.40625 69 
L 65.5 60.65625 
C 62 66.625 56.5 70 49 70 
C 27.40625 70 5 48.25 5 24.921875 
C 5 8.328125 16.703125 -2 31.296875 -2 
C 39.296875 -2 46.296875 1.375 52.09375 6.25 
C 60.796875 13.484375 63.40625 23.140625 63.40625 23.921875 
C 63.40625 24.8125 62.59375 24.8125 62.296875 24.8125 
C 61.40625 24.8125 61.296875 24.21875 61.09375 23.8125 
C 56.5 8.34375 43 0.890625 33 0.890625 
C 22.40625 0.890625 13.203125 7.640625 13.203125 21.734375 
C 13.203125 24.921875 14.203125 42.1875 25.5 55.1875 
C 31 61.546875 40.40625 67.109375 49.90625 67.109375 
C 60.90625 67.109375 65.796875 58.078125 65.796875 47.9375 
C 65.796875 45.359375 65.5 43.1875 65.5 42.78125 
C 65.5 41.890625 66.5 41.890625 66.796875 41.890625 
C 67.90625 41.890625 68 41.984375 68.40625 43.765625 
z
" id="CMMI12-67"/>
      </defs>
      <g transform="translate(21.590404 250.226312)scale(0.09 -0.09)">
       <use transform="translate(0 28.306996)scale(0.996264)" xlink:href="#CMMI12-83"/>
       <use transform="translate(65.794439 28.306996)scale(0.996264)" xlink:href="#CMMI12-85"/>
       <use transform="translate(142.453212 28.310173)scale(0.996264)" xlink:href="#CMR17-40"/>
       <use transform="translate(177.73398 28.306996)scale(0.996264)" xlink:href="#CMR17-51"/>
       <use transform="translate(223.424457 28.310173)scale(0.996264)" xlink:href="#CMR17-41"/>
       <use transform="translate(258.705225 0)scale(0.697382)" xlink:href="#CMMI12-67"/>
       <use transform="translate(335.205109 28.306996)scale(0.996264)" xlink:href="#CMSY10-2"/>
       <use transform="translate(434.831783 28.306996)scale(0.996264)" xlink:href="#CMMI12-83"/>
       <use transform="translate(500.626222 28.306996)scale(0.996264)" xlink:href="#CMMI12-85"/>
       <use transform="translate(577.284995 28.310173)scale(0.996264)" xlink:href="#CMR17-40"/>
       <use transform="translate(612.565763 28.306996)scale(0.996264)" xlink:href="#CMR17-50"/>
       <use transform="translate(658.25624 28.310173)scale(0.996264)" xlink:href="#CMR17-41"/>
       <use transform="translate(693.537008 0)scale(0.697382)" xlink:href="#CMMI12-76"/>
       <use transform="translate(762.63376 28.306996)scale(0.996264)" xlink:href="#CMSY10-2"/>
       <use transform="translate(862.260435 28.306996)scale(0.996264)" xlink:href="#CMMI12-83"/>
      </g>
     </g>
    </g>
    <g id="ytick_6">
     <g id="line2d_13">
      <g>
       <use style="stroke:#000000;stroke-width:0.8;" x="118.8" xlink:href="#m3a987d2b87" y="228.026806"/>
      </g>
     </g>
     <g id="text_13">
      <!-- $|f\left(r{e}^{i\theta }\right)|$ -->
      <defs>
       <path d="M 15.90625 71.40625 
C 15.90625 73.203125 15.90625 75 13.90625 75 
C 11.90625 75 11.90625 73.203125 11.90625 71.40625 
L 11.90625 -21.40625 
C 11.90625 -23.203125 11.90625 -25 13.90625 -25 
C 15.90625 -25 15.90625 -23.203125 15.90625 -21.40625 
z
" id="CMSY10-106"/>
       <path d="M 17.90625 23.109375 
C 20.59375 23.109375 27.40625 23.109375 32.203125 24.921875 
C 39.796875 27.859375 40.5 33.71875 40.5 35.53125 
C 40.5 39.96875 36.703125 44 30.09375 44 
C 19.59375 44 4.5 34.53125 4.5 16.765625 
C 4.5 6.28125 10.5 -1 19.59375 -1 
C 33.203125 -1 41.796875 9.515625 41.796875 10.8125 
C 41.796875 11.40625 41.203125 11.90625 40.796875 11.90625 
C 40.5 11.90625 40.40625 11.8125 39.5 10.921875 
C 33.09375 2.484375 23.59375 1 19.796875 1 
C 14.09375 1 11.09375 5.46875 11.09375 12.84375 
C 11.09375 14.234375 11.09375 16.734375 12.59375 23.109375 
z
M 13.09375 25 
C 17.40625 40.5 26.90625 42.015625 30.09375 42.015625 
C 34.5 42.015625 37.5 39.40625 37.5 35.578125 
C 37.5 25 21.5 25 17.296875 25 
z
" id="CMMI12-101"/>
       <path d="M 28.296875 14.265625 
C 28.296875 14.765625 27.90625 15.171875 27.296875 15.171875 
C 26.40625 15.171875 26.296875 14.875 25.796875 13.171875 
C 23.203125 4.09375 19.09375 1 15.796875 1 
C 14.59375 1 13.203125 1.296875 13.203125 4.296875 
C 13.203125 6.984375 14.40625 9.984375 15.5 12.96875 
L 22.5 31.53125 
C 22.796875 32.328125 23.5 34.125 23.5 36.015625 
C 23.5 40.21875 20.5 44 15.59375 44 
C 6.40625 44 2.703125 29.53125 2.703125 28.734375 
C 2.703125 28.34375 3.09375 27.84375 3.796875 27.84375 
C 4.703125 27.84375 4.796875 28.234375 5.203125 29.625 
C 7.59375 37.9375 11.40625 41.90625 15.296875 41.90625 
C 16.203125 41.90625 17.90625 41.90625 17.90625 38.71875 
C 17.90625 36.125 16.59375 32.828125 15.796875 30.640625 
L 8.796875 12.078125 
C 8.203125 10.484375 7.59375 8.875 7.59375 7.078125 
C 7.59375 2.59375 10.703125 -1 15.5 -1 
C 24.703125 -1 28.296875 13.578125 28.296875 14.265625 
z
M 27.5 62.703125 
C 27.5 64.203125 26.296875 66 24.09375 66 
C 21.796875 66 19.203125 63.796875 19.203125 61.203125 
C 19.203125 58.71875 21.296875 57.921875 22.5 57.921875 
C 25.203125 57.921875 27.5 60.515625 27.5 62.703125 
z
" id="CMMI12-105"/>
      </defs>
      <g transform="translate(74.130698 230.437717)scale(0.09 -0.09)">
       <use transform="scale(0.996264)" xlink:href="#CMSY10-106"/>
       <use transform="translate(27.674085 0)scale(0.996264)" xlink:href="#CMMI12-102"/>
       <use transform="translate(102.998795 80.698084)scale(0.996264)" xlink:href="#CMEX10-0"/>
       <use transform="translate(148.661149 0)scale(0.996264)" xlink:href="#CMMI12-114"/>
       <use transform="translate(195.331761 0)scale(0.996264)" xlink:href="#CMMI12-101"/>
       <use transform="translate(240.543762 36.153639)scale(0.697382)" xlink:href="#CMMI12-105"/>
       <use transform="translate(263.838669 36.153639)scale(0.697382)" xlink:href="#CMMI12-18"/>
       <use transform="translate(298.055297 80.698084)scale(0.996264)" xlink:href="#CMEX10-1"/>
       <use transform="translate(360.322056 0)scale(0.996264)" xlink:href="#CMSY10-106"/>
      </g>
     </g>
    </g>
    <g id="ytick_7">
     <g id="line2d_14">
      <g>
       <use style="stroke:#000000;stroke-width:0.8;" x="118.8" xlink:href="#m3a987d2b87" y="208.816083"/>
      </g>
     </g>
     <g id="text_14">
      <!-- $SU\left(2\right)\times SU\left(2\right)\times U\left(1\right)$ -->
      <g transform="translate(15.351608 211.057677)scale(0.09 -0.09)">
       <use transform="scale(0.996264)" xlink:href="#CMMI12-83"/>
       <use transform="translate(65.794439 0)scale(0.996264)" xlink:href="#CMMI12-85"/>
       <use transform="translate(159.057617 0.003177)scale(0.996264)" xlink:href="#CMR17-40"/>
       <use transform="translate(194.338385 0)scale(0.996264)" xlink:href="#CMR17-50"/>
       <use transform="translate(240.028862 0.003177)scale(0.996264)" xlink:href="#CMR17-41"/>
       <use transform="translate(297.448837 0)scale(0.996264)" xlink:href="#CMSY10-2"/>
       <use transform="translate(397.075512 0)scale(0.996264)" xlink:href="#CMMI12-83"/>
       <use transform="translate(462.869951 0)scale(0.996264)" xlink:href="#CMMI12-85"/>
       <use transform="translate(556.133129 0.003177)scale(0.996264)" xlink:href="#CMR17-40"/>
       <use transform="translate(591.413896 0)scale(0.996264)" xlink:href="#CMR17-50"/>
       <use transform="translate(637.104374 0.003177)scale(0.996264)" xlink:href="#CMR17-41"/>
       <use transform="translate(694.524348 0)scale(0.996264)" xlink:href="#CMSY10-2"/>
       <use transform="translate(794.151023 0)scale(0.996264)" xlink:href="#CMMI12-85"/>
       <use transform="translate(887.414201 0.003177)scale(0.996264)" xlink:href="#CMR17-40"/>
       <use transform="translate(922.694969 0)scale(0.996264)" xlink:href="#CMR17-49"/>
       <use transform="translate(968.385446 0.003177)scale(0.996264)" xlink:href="#CMR17-41"/>
      </g>
     </g>
    </g>
    <g id="ytick_8">
     <g id="line2d_15">
      <g>
       <use style="stroke:#000000;stroke-width:0.8;" x="118.8" xlink:href="#m3a987d2b87" y="189.605361"/>
      </g>
     </g>
     <g id="text_15">
      <!-- ${\int }_{\Omega }{|\nabla u|}^{2}d x$ -->
      <defs>
       <path d="M 27.203125 -88 
C 25.90625 -104.40625 22.296875 -108.90625 16.59375 -108.90625 
C 15.296875 -108.90625 12.296875 -108.59375 10.203125 -106.8125 
C 13.09375 -106.421875 13.90625 -104.109375 13.90625 -102.71875 
C 13.90625 -99.796875 11.703125 -98.5 9.796875 -98.5 
C 7.796875 -98.5 5.59375 -99.796875 5.59375 -102.796875 
C 5.59375 -107.59375 10.59375 -111.09375 16.59375 -111.09375 
C 26.09375 -111.09375 30.90625 -102.40625 33.09375 -93.40625 
C 34.40625 -88.203125 38 -59.09375 38.796875 -47.984375 
L 40.703125 -23.078125 
C 42.09375 -4.6875 45.5 -2.1875 50 -2.1875 
C 51 -2.1875 54.09375 -2.390625 56.296875 -4.28125 
C 53.40625 -4.6875 52.59375 -6.984375 52.59375 -8.390625 
C 52.59375 -11.28125 54.796875 -12.578125 56.703125 -12.578125 
C 58.703125 -12.578125 60.90625 -11.28125 60.90625 -8.28125 
C 60.90625 -3.484375 55.90625 0.015625 49.90625 0.015625 
C 40.40625 0.015625 36.5 -9.6875 34.796875 -17.28125 
C 33.59375 -22.78125 30 -50.984375 29.09375 -63.09375 
z
" id="CMEX10-82"/>
       <path d="M 63.09375 14.609375 
L 61.296875 14.609375 
C 60.40625 10.015625 60.09375 8.796875 59.59375 7.203125 
C 59.09375 5.703125 58.796875 4.90625 53 4.90625 
L 44.90625 4.90625 
C 46 10.71875 48.40625 15.015625 52.59375 21.734375 
C 57.796875 30.234375 62.09375 37.140625 62.09375 45.46875 
C 62.09375 58.984375 49.296875 70 33.40625 70 
C 17.09375 70 4.59375 58.875 4.59375 45.46875 
C 4.59375 37.140625 9 30.03125 13.90625 22.125 
C 18.296875 15.015625 20.703125 10.71875 21.796875 4.90625 
L 13.703125 4.90625 
C 8 4.90625 7.703125 5.703125 7.203125 7.09375 
C 6.59375 8.703125 6.40625 10.015625 5.40625 14.609375 
L 3.59375 14.609375 
L 6.5 0 
L 21.59375 0 
C 23.703125 0 23.796875 0.09375 23.796875 1.59375 
C 23.796875 8.71875 20.09375 18.03125 18.40625 22.328125 
C 15.203125 30.140625 12.203125 37.75 12.203125 45.5625 
C 12.203125 60.484375 22.90625 68.390625 33.296875 68.390625 
C 44.203125 68.390625 54.5 60.171875 54.5 45.5625 
C 54.5 37.84375 51.796875 30.953125 48.09375 21.828125 
C 46.5 17.734375 42.90625 8.609375 42.90625 1.59375 
C 42.90625 0 43 0 45.09375 0 
L 60.203125 0 
z
" id="CMR17-10"/>
       <path d="M 78 66.046875 
C 78.203125 66.359375 78.5 67.046875 78.5 67.453125 
C 78.5 68.15625 78.40625 68.25 76.09375 68.25 
L 7.09375 68.25 
C 4.796875 68.25 4.703125 68.15625 4.703125 67.453125 
C 4.703125 67.046875 5 66.359375 5.203125 66.046875 
L 38.90625 -1.453125 
C 39.59375 -2.75 39.90625 -3.34375 41.59375 -3.34375 
C 43.296875 -3.34375 43.59375 -2.75 44.296875 -1.453125 
z
M 17.09375 61.046875 
L 72 61.046875 
L 44.59375 6.0625 
z
" id="CMSY10-114"/>
       <path d="M 34.09375 5.78125 
C 35.40625 0.203125 40.203125 -1 42.59375 -1 
C 45.796875 -1 48.203125 1.09375 49.796875 4.484375 
C 51.5 8.078125 52.796875 13.96875 52.796875 14.265625 
C 52.796875 14.765625 52.40625 15.171875 51.796875 15.171875 
C 50.90625 15.171875 50.796875 14.671875 50.40625 13.171875 
C 48.59375 6.28125 46.796875 1 42.796875 1 
C 39.796875 1 39.796875 4.296875 39.796875 5.59375 
C 39.796875 7.890625 40.09375 8.875 41.09375 13.078125 
C 41.796875 15.765625 42.5 18.453125 43.09375 21.25 
L 47.203125 37.515625 
C 47.90625 40.015625 47.90625 40.21875 47.90625 40.515625 
C 47.90625 42.015625 46.703125 43.015625 45.203125 43.015625 
C 42.296875 43.015625 41.59375 40.515625 41 38.015625 
C 40 34.125 34.59375 12.671875 33.90625 9.1875 
C 33.796875 9.1875 29.90625 1 22.59375 1 
C 17.40625 1 16.40625 5.484375 16.40625 9.1875 
C 16.40625 14.875 19.203125 22.84375 21.796875 29.53125 
C 23 32.734375 23.5 34.03125 23.5 36.015625 
C 23.5 40.3125 20.40625 44 15.59375 44 
C 6.40625 44 2.703125 29.53125 2.703125 28.734375 
C 2.703125 28.34375 3.09375 27.84375 3.796875 27.84375 
C 4.703125 27.84375 4.796875 28.234375 5.203125 29.625 
C 7.59375 38.140625 11.5 41.90625 15.296875 41.90625 
C 16.296875 41.90625 17.90625 41.90625 17.90625 38.71875 
C 17.90625 36.125 16.796875 33.234375 15.296875 29.4375 
C 10.90625 17.5625 10.40625 13.765625 10.40625 10.78125 
C 10.40625 0.59375 18.09375 -1 22.203125 -1 
C 28.59375 -1 32.09375 3.390625 34.09375 5.78125 
z
" id="CMMI12-117"/>
       <path d="M 47.40625 40.71875 
C 44.203125 40.109375 43 37.71875 43 35.828125 
C 43 33.421875 44.90625 32.625 46.296875 32.625 
C 49.296875 32.625 51.40625 35.21875 51.40625 37.921875 
C 51.40625 42.109375 46.59375 44 42.40625 44 
C 36.296875 44 32.90625 38.015625 32 36.125 
C 29.703125 44 23.5 44 21.703125 44 
C 11.5 44 6.09375 30.9375 6.09375 28.734375 
C 6.09375 28.34375 6.5 27.84375 7.203125 27.84375 
C 8 27.84375 8.203125 28.4375 8.40625 28.84375 
C 11.796875 39.921875 18.5 42.015625 21.40625 42.015625 
C 25.90625 42.015625 26.796875 37.8125 26.796875 35.421875 
C 26.796875 33.234375 26.203125 30.9375 25 26.140625 
L 21.59375 12.46875 
C 20.09375 6.484375 17.203125 1 11.90625 1 
C 11.40625 1 8.90625 1 6.796875 2.296875 
C 10.40625 3 11.203125 5.984375 11.203125 7.1875 
C 11.203125 9.1875 9.703125 10.375 7.796875 10.375 
C 5.40625 10.375 2.796875 8.28125 2.796875 5.09375 
C 2.796875 0.890625 7.5 -1 11.796875 -1 
C 16.59375 -1 20 2.796875 22.09375 6.890625 
C 23.703125 1 28.703125 -1 32.40625 -1 
C 42.59375 -1 48 12.078125 48 14.265625 
C 48 14.765625 47.59375 15.171875 47 15.171875 
C 46.09375 15.171875 46 14.671875 45.703125 13.875 
C 43 5.09375 37.203125 1 32.703125 1 
C 29.203125 1 27.296875 3.59375 27.296875 7.6875 
C 27.296875 9.875 27.703125 11.46875 29.296875 18.0625 
L 32.796875 31.625 
C 34.296875 37.625 37.703125 42.015625 42.296875 42.015625 
C 42.5 42.015625 45.296875 42.015625 47.40625 40.71875 
z
" id="CMMI12-120"/>
      </defs>
      <g transform="translate(67.704205 193.537865)scale(0.09 -0.09)">
       <use transform="translate(0 114.184008)scale(0.996264)" xlink:href="#CMEX10-82"/>
       <use transform="translate(66.417803 0)scale(0.697382)" xlink:href="#CMR17-10"/>
       <use transform="translate(113.47264 33.928858)scale(0.996264)" xlink:href="#CMSY10-106"/>
       <use transform="translate(141.146725 33.928858)scale(0.996264)" xlink:href="#CMSY10-114"/>
       <use transform="translate(224.168979 33.928858)scale(0.996264)" xlink:href="#CMMI12-117"/>
       <use transform="translate(279.689309 33.928858)scale(0.996264)" xlink:href="#CMSY10-106"/>
       <use transform="translate(307.363394 81.722167)scale(0.697382)" xlink:href="#CMR17-50"/>
       <use transform="translate(339.844708 33.928858)scale(0.996264)" xlink:href="#CMMI12-100"/>
       <use transform="translate(390.533805 33.928858)scale(0.996264)" xlink:href="#CMMI12-120"/>
      </g>
     </g>
    </g>
    <g id="ytick_9">
     <g id="line2d_16">
      <g>
       <use style="stroke:#000000;stroke-width:0.8;" x="118.8" xlink:href="#m3a987d2b87" y="170.394639"/>
      </g>
     </g>
     <g id="text_16">
      <!-- ${r}^{2}\left(d{\theta }^{2}+{\mathrm{sin}}^{2}\theta d{\phi }^{2}\right)$ -->
      <defs>
       <path d="M 43 68.59375 
C 43 69.5 42.296875 69.5 42 69.5 
C 41.09375 69.5 41 69.296875 40.59375 67.59375 
L 35.203125 45.921875 
C 34.90625 44.625 34.796875 44.515625 34.703125 44.421875 
C 34.59375 44.21875 33.90625 44.125 33.703125 44.125 
C 17.296875 42.71875 4.703125 29.125 4.703125 16.515625 
C 4.703125 5.640625 13 -1 23.40625 -1 
C 22.59375 -4.078125 21.90625 -7.234375 21.09375 -10.296875 
C 19.703125 -15.546875 18.90625 -18.8125 18.90625 -19.203125 
C 18.90625 -19.390625 18.90625 -20 19.90625 -20 
C 20.203125 -20 20.59375 -20 20.796875 -19.59375 
C 21 -19.390625 21.59375 -17.015625 22 -15.75 
L 25.703125 -1 
C 42.796875 -1 55.796875 13.34375 55.796875 26.25 
C 55.796875 36.609375 48.203125 44 37.09375 44 
z
M 36.5 42.203125 
C 43.09375 42.203125 49.703125 38.484375 49.703125 28.5625 
C 49.703125 17.140625 41.796875 2 26.203125 0.78125 
z
M 23.90625 0.78125 
C 19 0.78125 10.796875 3.4375 10.796875 14.65625 
C 10.796875 27.515625 19.90625 41.8125 34.296875 41.8125 
z
" id="CMMI12-30"/>
      </defs>
      <g transform="translate(34.047048 172.656102)scale(0.09 -0.09)">
       <use transform="scale(0.996264)" xlink:href="#CMMI12-114"/>
       <use transform="translate(46.670612 36.153639)scale(0.697382)" xlink:href="#CMR17-50"/>
       <use transform="translate(95.756331 80.698084)scale(0.996264)" xlink:href="#CMEX10-0"/>
       <use transform="translate(141.418685 0)scale(0.996264)" xlink:href="#CMMI12-100"/>
       <use transform="translate(192.107782 0)scale(0.996264)" xlink:href="#CMMI12-18"/>
       <use transform="translate(240.27729 36.153639)scale(0.697382)" xlink:href="#CMR17-50"/>
       <use transform="translate(294.897811 0)scale(0.996264)" xlink:href="#CMR17-43"/>
       <use transform="translate(388.751806 0)scale(0.996264)" xlink:href="#CMR17-115"/>
       <use transform="translate(424.553144 0)scale(0.996264)" xlink:href="#CMR17-105"/>
       <use transform="translate(449.424202 0)scale(0.996264)" xlink:href="#CMR17-110"/>
       <use transform="translate(500.319572 38.426442)scale(0.697382)" xlink:href="#CMR17-50"/>
       <use transform="translate(532.800886 0)scale(0.996264)" xlink:href="#CMMI12-18"/>
       <use transform="translate(580.970394 0)scale(0.996264)" xlink:href="#CMMI12-100"/>
       <use transform="translate(631.65949 0)scale(0.996264)" xlink:href="#CMMI12-30"/>
       <use transform="translate(689.393671 36.153639)scale(0.697382)" xlink:href="#CMR17-50"/>
       <use transform="translate(721.874985 80.698084)scale(0.996264)" xlink:href="#CMEX10-1"/>
      </g>
     </g>
    </g>
    <g id="ytick_10">
     <g id="line2d_17">
      <g>
       <use style="stroke:#000000;stroke-width:0.8;" x="118.8" xlink:href="#m3a987d2b87" y="151.183917"/>
      </g>
     </g>
     <g id="text_17">
      <!-- ${e}^{-i\omega \left(t-{t}^{\prime }\right)}$ -->
      <defs>
       <path d="M 65.90625 23 
C 67.59375 23 69.40625 23 69.40625 25 
C 69.40625 27 67.59375 27 65.90625 27 
L 11.796875 27 
C 10.09375 27 8.296875 27 8.296875 25 
C 8.296875 23 10.09375 23 11.796875 23 
z
" id="CMSY10-0"/>
       <path d="M 59.40625 37.421875 
C 59.40625 40.3125 58.59375 44 55.09375 44 
C 53.09375 44 50.796875 41.515625 50.796875 39.515625 
C 50.796875 38.625 51.203125 38.03125 52 37.125 
C 53.5 35.4375 55.40625 32.75 55.40625 28.078125 
C 55.40625 24.484375 53.203125 18.8125 51.59375 15.734375 
C 48.796875 10.25 44.203125 5.578125 39 5.578125 
C 32.703125 5.578125 30.296875 9.609375 29.203125 15.234375 
C 30.296875 17.859375 32.59375 24.375 32.59375 27 
C 32.59375 28.09375 32.203125 29 30.90625 29 
C 30.203125 29 29.40625 28.609375 28.90625 27.796875 
C 27.5 25.59375 26.203125 17.640625 26.296875 15.53125 
C 24.40625 11.8125 19 5.578125 12.59375 5.578125 
C 5.90625 5.578125 4.09375 11.453125 4.09375 17.125 
C 4.09375 27.46875 10.59375 36.53125 12.40625 39.015625 
C 13.40625 40.515625 14.09375 41.515625 14.09375 41.703125 
C 14.09375 42.40625 13.703125 43.5 12.796875 43.5 
C 11.203125 43.5 10.703125 42.203125 9.90625 41.015625 
C 4.796875 33.140625 1.203125 22.09375 1.203125 12.546875 
C 1.203125 6.375 3.5 -1 11 -1 
C 19.296875 -1 24.5 6.109375 26.59375 9.90625 
C 27.40625 4.296875 30.40625 -1 37.703125 -1 
C 45.296875 -1 50.09375 5.671875 53.703125 13.734375 
C 56.296875 19.515625 59.40625 31.953125 59.40625 37.421875 
z
" id="CMMI12-33"/>
       <path d="M 20.09375 40.09375 
L 29.296875 40.09375 
C 31.203125 40.09375 32.203125 40.09375 32.203125 41.890625 
C 32.203125 43 31.59375 43 29.59375 43 
L 20.796875 43 
L 24.5 57.6875 
C 24.90625 59.078125 24.90625 59.28125 24.90625 60 
C 24.90625 61.609375 23.59375 62.5 22.296875 62.5 
C 21.5 62.5 19.203125 62.203125 18.40625 58.984375 
L 14.5 43 
L 5.09375 43 
C 3.09375 43 2.203125 43 2.203125 41.09375 
C 2.203125 40.09375 2.90625 40.09375 4.796875 40.09375 
L 13.703125 40.09375 
L 7.09375 13.765625 
C 6.296875 10.28125 6 9.28125 6 7.984375 
C 6 3.296875 9.296875 -1 14.90625 -1 
C 25 -1 30.40625 13.5625 30.40625 14.25 
C 30.40625 14.859375 30 15.15625 29.40625 15.15625 
C 29.203125 15.15625 28.796875 15.15625 28.59375 14.75 
C 28.5 14.65625 28.40625 14.546875 27.703125 12.953125 
C 25.59375 7.984375 21 1 15.203125 1 
C 12.203125 1 12 3.5 12 5.6875 
C 12 5.78125 12 7.6875 12.296875 8.875 
z
" id="CMMI12-116"/>
       <path d="M 25.296875 47.5 
C 25.796875 48.703125 26.203125 49.59375 26.203125 50.59375 
C 26.203125 53.5 23.59375 55.90625 20.5 55.90625 
C 17.703125 55.90625 15.90625 54 15.203125 51.40625 
L 3.296875 7.703125 
C 3.296875 7.5 2.90625 6.40625 2.90625 6.296875 
C 2.90625 5.203125 5.5 4.5 6.296875 4.5 
C 6.90625 4.5 7 4.796875 7.59375 6.09375 
z
" id="CMSY10-48"/>
      </defs>
      <g transform="translate(72.900646 154.4062)scale(0.09 -0.09)">
       <use transform="scale(0.996264)" xlink:href="#CMMI12-101"/>
       <use transform="translate(45.212001 36.153639)scale(0.697382)" xlink:href="#CMSY10-0"/>
       <use transform="translate(99.452994 36.153639)scale(0.697382)" xlink:href="#CMMI12-105"/>
       <use transform="translate(122.747902 36.153639)scale(0.697382)" xlink:href="#CMMI12-33"/>
       <use transform="translate(167.770534 36.155858)scale(0.697382)" xlink:href="#CMR17-40"/>
       <use transform="translate(192.466954 36.153639)scale(0.697382)" xlink:href="#CMMI12-116"/>
       <use transform="translate(217.125264 36.153639)scale(0.697382)" xlink:href="#CMSY10-0"/>
       <use transform="translate(271.366257 36.153639)scale(0.697382)" xlink:href="#CMMI12-116"/>
       <use transform="translate(296.024567 61.461065)scale(0.498132)" xlink:href="#CMSY10-48"/>
       <use transform="translate(310.221298 36.155858)scale(0.697382)" xlink:href="#CMR17-41"/>
      </g>
     </g>
    </g>
    <g id="ytick_11">
     <g id="line2d_18">
      <g>
       <use style="stroke:#000000;stroke-width:0.8;" x="118.8" xlink:href="#m3a987d2b87" y="131.973194"/>
      </g>
     </g>
     <g id="text_18">
      <!-- $SU{\left(3\right)}_{c}\times SU{\left(2\right)}_{L}\times U$ -->
      <defs>
       <path d="M 39.09375 37.984375 
C 37.203125 37.984375 36.296875 37.984375 34.90625 36.796875 
C 34.296875 36.296875 33.203125 34.796875 33.203125 33.203125 
C 33.203125 31.203125 34.703125 30 36.59375 30 
C 39 30 41.703125 31.9375 41.703125 35.8125 
C 41.703125 40.4375 37.09375 44 30.203125 44 
C 17.09375 44 4 29.734375 4 15.5625 
C 4 6.890625 9.40625 -1 19.59375 -1 
C 33.203125 -1 41.796875 9.71875 41.796875 11.03125 
C 41.796875 11.625 41.203125 12.125 40.796875 12.125 
C 40.5 12.125 40.40625 12.03125 39.5 11.140625 
C 33.09375 2.53125 23.59375 1 19.796875 1 
C 12.90625 1 10.703125 6.96875 10.703125 11.9375 
C 10.703125 15.4375 12.40625 25.078125 16 31.859375 
C 18.59375 36.53125 24 41.90625 30.296875 41.90625 
C 31.59375 41.90625 37.09375 41.90625 39.09375 37.984375 
z
" id="CMMI12-99"/>
      </defs>
      <g transform="translate(23.305743 134.961979)scale(0.09 -0.09)">
       <use transform="translate(0 28.306996)scale(0.996264)" xlink:href="#CMMI12-83"/>
       <use transform="translate(65.794439 28.306996)scale(0.996264)" xlink:href="#CMMI12-85"/>
       <use transform="translate(142.453212 28.310173)scale(0.996264)" xlink:href="#CMR17-40"/>
       <use transform="translate(177.73398 28.306996)scale(0.996264)" xlink:href="#CMR17-51"/>
       <use transform="translate(223.424457 28.310173)scale(0.996264)" xlink:href="#CMR17-41"/>
       <use transform="translate(258.705225 0)scale(0.697382)" xlink:href="#CMMI12-99"/>
       <use transform="translate(310.730695 28.306996)scale(0.996264)" xlink:href="#CMSY10-2"/>
       <use transform="translate(410.35737 28.306996)scale(0.996264)" xlink:href="#CMMI12-83"/>
       <use transform="translate(476.151809 28.306996)scale(0.996264)" xlink:href="#CMMI12-85"/>
       <use transform="translate(552.810582 28.310173)scale(0.996264)" xlink:href="#CMR17-40"/>
       <use transform="translate(588.091349 28.306996)scale(0.996264)" xlink:href="#CMR17-50"/>
       <use transform="translate(633.781826 28.310173)scale(0.996264)" xlink:href="#CMR17-41"/>
       <use transform="translate(669.062594 0)scale(0.697382)" xlink:href="#CMMI12-76"/>
       <use transform="translate(738.159347 28.306996)scale(0.996264)" xlink:href="#CMSY10-2"/>
       <use transform="translate(837.786022 28.306996)scale(0.996264)" xlink:href="#CMMI12-85"/>
      </g>
     </g>
    </g>
    <g id="ytick_12">
     <g id="line2d_19">
      <g>
       <use style="stroke:#000000;stroke-width:0.8;" x="118.8" xlink:href="#m3a987d2b87" y="112.762472"/>
      </g>
     </g>
     <g id="text_19">
      <!-- $|\zeta \left(\frac{1}{2}+it\right)|$ -->
      <defs>
       <path d="M 18.90625 5.296875 
C 13 7.609375 9.59375 12.09375 9.59375 19.59375 
C 9.59375 33.296875 19.703125 51.59375 32 58.6875 
C 33.796875 57 36.09375 57 38 57 
C 40.5 57 46.59375 57 46.59375 59.6875 
C 46.59375 61.890625 42.09375 61.890625 38.90625 61.890625 
C 36.90625 61.890625 35.203125 61.890625 32.59375 60.890625 
C 32 62.1875 31.703125 63.5625 31.703125 65.046875 
C 31.703125 66.828125 32.09375 68.203125 32.09375 68.5 
C 32.09375 69.09375 31.59375 69.5 31.09375 69.5 
C 29.5 69.5 29.5 65.8125 29.5 65.015625 
C 29.5 64.125 29.5 62.046875 30.703125 59.953125 
C 19.09375 53.984375 4.5 35.390625 4.5 16.8125 
C 4.5 3.1875 13.59375 0 18.796875 -1.796875 
C 20.09375 -2.1875 23.296875 -3.28125 24.59375 -3.78125 
C 28.703125 -5.171875 32.59375 -6.46875 32.59375 -11.234375 
C 32.59375 -14.125 30.5 -18 26.796875 -18 
C 24.796875 -18 22.09375 -17.3125 19.59375 -14.796875 
C 19.203125 -14.40625 19 -14.203125 18.5 -14.203125 
C 17.703125 -14.203125 17.5 -15 17.5 -15.203125 
C 17.5 -16.203125 21.796875 -20 26.796875 -20 
C 33.203125 -20 37.59375 -13.296875 37.59375 -8.109375 
C 37.59375 -1.109375 31.796875 0.90625 28.09375 2.09375 
z
M 34.203125 59.5 
C 35.703125 60 37.09375 60 38.796875 60 
C 42 60 42.296875 59.9375 44.296875 59.5625 
C 43.09375 59.203125 42.296875 58.984375 38.09375 58.984375 
C 36 58.984375 35.296875 58.984375 34.203125 59.5 
z
" id="CMMI12-16"/>
      </defs>
      <g transform="translate(66.69166 116.398883)scale(0.09 -0.09)">
       <use transform="translate(0 34.355253)scale(0.996264)" xlink:href="#CMSY10-106"/>
       <use transform="translate(27.674085 34.355253)scale(0.996264)" xlink:href="#CMMI12-16"/>
       <use transform="translate(94.408541 115.053337)scale(0.996264)" xlink:href="#CMEX10-0"/>
       <use transform="translate(141.266409 73.581354)scale(0.697382)" xlink:href="#CMR17-49"/>
       <use transform="translate(141.266409 0)scale(0.697382)" xlink:href="#CMR17-50"/>
       <use transform="translate(196.584312 34.355253)scale(0.996264)" xlink:href="#CMR17-43"/>
       <use transform="translate(290.438307 34.355253)scale(0.996264)" xlink:href="#CMMI12-105"/>
       <use transform="translate(323.716909 34.355253)scale(0.996264)" xlink:href="#CMMI12-116"/>
       <use transform="translate(358.943239 115.053337)scale(0.996264)" xlink:href="#CMEX10-1"/>
       <use transform="translate(421.209998 34.355253)scale(0.996264)" xlink:href="#CMSY10-106"/>
       <path d="M 141.266409 57.269386 
L 173.249591 57.269386 
L 173.249591 61.254336 
L 141.266409 61.254336 
L 141.266409 57.269386 
z
"/>
      </g>
     </g>
    </g>
    <g id="ytick_13">
     <g id="line2d_20">
      <g>
       <use style="stroke:#000000;stroke-width:0.8;" x="118.8" xlink:href="#m3a987d2b87" y="93.55175"/>
      </g>
     </g>
     <g id="text_20">
      <!-- $SU{\left(2\right)}_{L}\times SU{\left(2\right)}_{R}\times U$ -->
      <g transform="translate(21.11401 96.540534)scale(0.09 -0.09)">
       <use transform="translate(0 28.306996)scale(0.996264)" xlink:href="#CMMI12-83"/>
       <use transform="translate(65.794439 28.306996)scale(0.996264)" xlink:href="#CMMI12-85"/>
       <use transform="translate(142.453212 28.310173)scale(0.996264)" xlink:href="#CMR17-40"/>
       <use transform="translate(177.73398 28.306996)scale(0.996264)" xlink:href="#CMR17-50"/>
       <use transform="translate(223.424457 28.310173)scale(0.996264)" xlink:href="#CMR17-41"/>
       <use transform="translate(258.705225 0)scale(0.697382)" xlink:href="#CMMI12-76"/>
       <use transform="translate(327.801977 28.306996)scale(0.996264)" xlink:href="#CMSY10-2"/>
       <use transform="translate(427.428652 28.306996)scale(0.996264)" xlink:href="#CMMI12-83"/>
       <use transform="translate(493.223091 28.306996)scale(0.996264)" xlink:href="#CMMI12-85"/>
       <use transform="translate(569.881864 28.310173)scale(0.996264)" xlink:href="#CMR17-40"/>
       <use transform="translate(605.162632 28.306996)scale(0.996264)" xlink:href="#CMR17-50"/>
       <use transform="translate(650.853109 28.310173)scale(0.996264)" xlink:href="#CMR17-41"/>
       <use transform="translate(686.133877 0)scale(0.697382)" xlink:href="#CMMI12-82"/>
       <use transform="translate(761.320646 28.306996)scale(0.996264)" xlink:href="#CMSY10-2"/>
       <use transform="translate(860.94732 28.306996)scale(0.996264)" xlink:href="#CMMI12-85"/>
      </g>
     </g>
    </g>
    <g id="ytick_14">
     <g id="line2d_21">
      <g>
       <use style="stroke:#000000;stroke-width:0.8;" x="118.8" xlink:href="#m3a987d2b87" y="74.341028"/>
      </g>
     </g>
     <g id="text_21">
      <!-- ${r}^{2}\left(d{\theta }^{2}+{\mathrm{sin}}^{2}\theta d{\varphi }^{2}\right)$ -->
      <g transform="translate(33.514332 76.60249)scale(0.09 -0.09)">
       <use transform="scale(0.996264)" xlink:href="#CMMI12-114"/>
       <use transform="translate(46.670612 36.153639)scale(0.697382)" xlink:href="#CMR17-50"/>
       <use transform="translate(95.756331 80.698084)scale(0.996264)" xlink:href="#CMEX10-0"/>
       <use transform="translate(141.418685 0)scale(0.996264)" xlink:href="#CMMI12-100"/>
       <use transform="translate(192.107782 0)scale(0.996264)" xlink:href="#CMMI12-18"/>
       <use transform="translate(240.27729 36.153639)scale(0.697382)" xlink:href="#CMR17-50"/>
       <use transform="translate(294.897811 0)scale(0.996264)" xlink:href="#CMR17-43"/>
       <use transform="translate(388.751806 0)scale(0.996264)" xlink:href="#CMR17-115"/>
       <use transform="translate(424.553144 0)scale(0.996264)" xlink:href="#CMR17-105"/>
       <use transform="translate(449.424202 0)scale(0.996264)" xlink:href="#CMR17-110"/>
       <use transform="translate(500.319572 38.426442)scale(0.697382)" xlink:href="#CMR17-50"/>
       <use transform="translate(532.800886 0)scale(0.996264)" xlink:href="#CMMI12-18"/>
       <use transform="translate(580.970394 0)scale(0.996264)" xlink:href="#CMMI12-100"/>
       <use transform="translate(631.65949 0)scale(0.996264)" xlink:href="#CMMI12-39"/>
       <use transform="translate(695.562554 36.153639)scale(0.697382)" xlink:href="#CMR17-50"/>
       <use transform="translate(728.043868 80.698084)scale(0.996264)" xlink:href="#CMEX10-1"/>
      </g>
     </g>
    </g>
    <g id="ytick_15">
     <g id="line2d_22">
      <g>
       <use style="stroke:#000000;stroke-width:0.8;" x="118.8" xlink:href="#m3a987d2b87" y="55.130305"/>
      </g>
     </g>
     <g id="text_22">
      <!-- $SU{\left(3\right)}_{C}\times SU{\left(2\right)}_{L}\times U$ -->
      <g transform="translate(20.951959 58.11909)scale(0.09 -0.09)">
       <use transform="translate(0 28.306996)scale(0.996264)" xlink:href="#CMMI12-83"/>
       <use transform="translate(65.794439 28.306996)scale(0.996264)" xlink:href="#CMMI12-85"/>
       <use transform="translate(142.453212 28.310173)scale(0.996264)" xlink:href="#CMR17-40"/>
       <use transform="translate(177.73398 28.306996)scale(0.996264)" xlink:href="#CMR17-51"/>
       <use transform="translate(223.424457 28.310173)scale(0.996264)" xlink:href="#CMR17-41"/>
       <use transform="translate(258.705225 0)scale(0.697382)" xlink:href="#CMMI12-67"/>
       <use transform="translate(335.205109 28.306996)scale(0.996264)" xlink:href="#CMSY10-2"/>
       <use transform="translate(434.831783 28.306996)scale(0.996264)" xlink:href="#CMMI12-83"/>
       <use transform="translate(500.626222 28.306996)scale(0.996264)" xlink:href="#CMMI12-85"/>
       <use transform="translate(577.284995 28.310173)scale(0.996264)" xlink:href="#CMR17-40"/>
       <use transform="translate(612.565763 28.306996)scale(0.996264)" xlink:href="#CMR17-50"/>
       <use transform="translate(658.25624 28.310173)scale(0.996264)" xlink:href="#CMR17-41"/>
       <use transform="translate(693.537008 0)scale(0.697382)" xlink:href="#CMMI12-76"/>
       <use transform="translate(762.63376 28.306996)scale(0.996264)" xlink:href="#CMSY10-2"/>
       <use transform="translate(862.260435 28.306996)scale(0.996264)" xlink:href="#CMMI12-85"/>
      </g>
     </g>
    </g>
    <g id="ytick_16">
     <g id="line2d_23">
      <g>
       <use style="stroke:#000000;stroke-width:0.8;" x="118.8" xlink:href="#m3a987d2b87" y="35.919583"/>
      </g>
     </g>
     <g id="text_23">
      <!-- $SU\left(3\right)\times SU\left(2\right)\times U\left(1\right)$ -->
      <g transform="translate(15.351608 38.161177)scale(0.09 -0.09)">
       <use transform="scale(0.996264)" xlink:href="#CMMI12-83"/>
       <use transform="translate(65.794439 0)scale(0.996264)" xlink:href="#CMMI12-85"/>
       <use transform="translate(159.057617 0.003177)scale(0.996264)" xlink:href="#CMR17-40"/>
       <use transform="translate(194.338385 0)scale(0.996264)" xlink:href="#CMR17-51"/>
       <use transform="translate(240.028862 0.003177)scale(0.996264)" xlink:href="#CMR17-41"/>
       <use transform="translate(297.448837 0)scale(0.996264)" xlink:href="#CMSY10-2"/>
       <use transform="translate(397.075512 0)scale(0.996264)" xlink:href="#CMMI12-83"/>
       <use transform="translate(462.869951 0)scale(0.996264)" xlink:href="#CMMI12-85"/>
       <use transform="translate(556.133129 0.003177)scale(0.996264)" xlink:href="#CMR17-40"/>
       <use transform="translate(591.413896 0)scale(0.996264)" xlink:href="#CMR17-50"/>
       <use transform="translate(637.104374 0.003177)scale(0.996264)" xlink:href="#CMR17-41"/>
       <use transform="translate(694.524348 0)scale(0.996264)" xlink:href="#CMSY10-2"/>
       <use transform="translate(794.151023 0)scale(0.996264)" xlink:href="#CMMI12-85"/>
       <use transform="translate(887.414201 0.003177)scale(0.996264)" xlink:href="#CMR17-40"/>
       <use transform="translate(922.694969 0)scale(0.996264)" xlink:href="#CMR17-49"/>
       <use transform="translate(968.385446 0.003177)scale(0.996264)" xlink:href="#CMR17-41"/>
      </g>
     </g>
    </g>
   </g>
   <g id="line2d_24">
    <path clip-path="url(#padd52f78f4)" d="M 130.158124 324.080417 
L 131.634427 304.869695 
L 133.288151 285.658972 
L 135.155743 266.44825 
L 137.284757 247.237528 
L 139.738537 228.026806 
L 142.603545 208.816083 
L 146.001243 189.605361 
L 150.10832 170.394639 
L 155.193064 151.183917 
L 161.685568 131.973194 
L 170.325965 112.762472 
L 182.517508 93.55175 
L 201.324804 74.341028 
L 235.16639 55.130305 
L 320.69475 35.919583 
" style="fill:none;stroke:#ffa500;stroke-dasharray:5.55,2.4;stroke-dashoffset:0;stroke-width:1.5;"/>
   </g>
   <g id="patch_19">
    <path d="M 118.8 334.8 
L 118.8 25.2 
" style="fill:none;stroke:#000000;stroke-linecap:square;stroke-linejoin:miter;stroke-width:0.8;"/>
   </g>
   <g id="patch_20">
    <path d="M 338.4 334.8 
L 338.4 25.2 
" style="fill:none;stroke:#000000;stroke-linecap:square;stroke-linejoin:miter;stroke-width:0.8;"/>
   </g>
   <g id="patch_21">
    <path d="M 118.8 334.8 
L 338.4 334.8 
" style="fill:none;stroke:#000000;stroke-linecap:square;stroke-linejoin:miter;stroke-width:0.8;"/>
   </g>
   <g id="patch_22">
    <path d="M 118.8 25.2 
L 338.4 25.2 
" style="fill:none;stroke:#000000;stroke-linecap:square;stroke-linejoin:miter;stroke-width:0.8;"/>
   </g>
   <g id="text_24">
    <!-- Complexity 7 -->
    <defs>
     <path d="M 54.703125 11.15625 
C 48 6.671875 44.90625 5.375 36.796875 5.375 
C 22.796875 5.375 14.59375 20.359375 14.59375 34.046875 
C 14.59375 48.625 23 63 37.203125 63 
C 43.59375 63 47.796875 61.21875 52.90625 58.046875 
L 54.296875 65.890625 
C 49.5 68.28125 43.40625 69.375 37.296875 69.375 
C 18.09375 69.375 6.203125 51.8125 6.203125 34.046875 
C 6.203125 14.484375 20.296875 -1 36.296875 -1 
C 44.90625 -1 47.90625 -0.296875 55.296875 4.375 
z
" id="CMSS17-67"/>
     <path d="M 44.203125 21.1875 
C 44.203125 34 34.703125 44 23.5 44 
C 12 44 2.703125 33.703125 2.703125 21.1875 
C 2.703125 8.5 12.296875 -1 23.40625 -1 
C 34.796875 -1 44.203125 8.796875 44.203125 21.1875 
z
M 23.5 5.265625 
C 16.40625 5.265625 10.296875 11.078125 10.296875 22 
C 10.296875 33.609375 17.40625 37.921875 23.40625 37.921875 
C 29.90625 37.921875 36.59375 33.21875 36.59375 22 
C 36.59375 10.671875 30.09375 5.265625 23.5 5.265625 
z
" id="CMSS17-111"/>
     <path d="M 67 29.328125 
C 67 36.0625 65.296875 44 54.09375 44 
C 46.59375 44 42.09375 39.3125 40.09375 36.421875 
C 38.296875 41.71875 34.09375 44 28.09375 44 
C 21.296875 44 17 40.125 14.703125 37.328125 
L 14.703125 43.09375 
L 7.40625 43.09375 
L 7.40625 0 
L 15 0 
L 15 24.359375 
C 15 30.296875 17.203125 37.9375 24.296875 37.9375 
C 33.40625 37.9375 33.40625 31.5 33.40625 28.578125 
L 33.40625 0 
L 41 0 
L 41 24.359375 
C 41 30.296875 43.203125 37.9375 50.296875 37.9375 
C 59.40625 37.9375 59.40625 31.5 59.40625 28.578125 
L 59.40625 0 
L 67 0 
z
" id="CMSS17-109"/>
     <path d="M 15.09375 5.203125 
C 18.40625 2.015625 22.90625 -0.078125 27.703125 -0.078125 
C 37 -0.078125 45 9.421875 45 22.0625 
C 45 33.734375 39 44 30.40625 44 
C 25.40625 44 19.40625 42.21875 14.90625 38.625 
L 14.90625 43.203125 
L 7.5 43.203125 
L 7.5 -19 
L 15.09375 -19 
z
M 15.09375 32.8125 
C 15.90625 34 19.296875 37.734375 24.796875 37.734375 
C 31.796875 37.734375 37.40625 30.625 37.40625 22.0625 
C 37.40625 12.296875 30.59375 6 23.90625 6 
C 21.90625 6 19.796875 6.484375 17.796875 8.171875 
C 15.09375 10.53125 15.09375 12 15.09375 13.390625 
z
" id="CMSS17-112"/>
     <path d="M 14.796875 69 
L 7.40625 69 
L 7.40625 0 
L 14.796875 0 
z
" id="CMSS17-108"/>
     <path d="M 39.09375 21.515625 
C 39.09375 24.84375 38.90625 31.296875 35.703125 36.640625 
C 32.203125 42.390625 26.5 44 22.203125 44 
C 11.796875 44 3 34.1875 3 21.484375 
C 3 9.09375 12.09375 -1 23.59375 -1 
C 28.09375 -1 33.59375 0.296875 38.59375 3.875 
C 38.59375 4.28125 38.40625 6.46875 38.296875 6.5625 
C 38.296875 6.765625 38 9.84375 38 10.25 
C 33.203125 6.359375 27.703125 5.078125 23.703125 5.078125 
C 17.296875 5.078125 10.40625 10.421875 10.09375 21.515625 
z
M 10.90625 27 
C 12.203125 32.5625 16.59375 37.828125 22.203125 37.828125 
C 23.703125 37.828125 30.703125 37.828125 32.5 27 
z
" id="CMSS17-101"/>
     <path d="M 24.796875 22.09375 
L 41.5 42.796875 
L 32.796875 42.796875 
L 21.296875 27.765625 
L 9.40625 42.796875 
L 0.5 42.796875 
L 17.796875 22.09375 
L 0 0 
L 8.796875 0 
L 21.296875 17.515625 
L 34.296875 0 
L 43.09375 0 
z
" id="CMSS17-120"/>
     <path d="M 15.296875 65.359375 
L 6.90625 65.359375 
L 6.90625 57 
L 15.296875 57 
z
M 14.796875 42.796875 
L 7.40625 42.796875 
L 7.40625 0 
L 14.796875 0 
z
" id="CMSS17-105"/>
     <path d="M 16.703125 37 
L 29.703125 37 
L 29.703125 42.765625 
L 16.703125 42.765625 
L 16.703125 55 
L 9.59375 55 
L 9.59375 42.765625 
L 1.703125 42.765625 
L 1.703125 37 
L 9.40625 37 
L 9.40625 11.703125 
C 9.40625 6 10.703125 -1 17.296875 -1 
C 22.296875 -1 26.90625 0.390625 31.296875 2.6875 
L 29.703125 8.5625 
C 27.296875 6.46875 24.40625 5.265625 21.296875 5.265625 
C 16.90625 5.265625 16.703125 10.875 16.703125 13.375 
z
" id="CMSS17-116"/>
     <path d="M 41.796875 43 
L 34 43 
C 25.5 20.21875 22.59375 10.96875 22.40625 5.984375 
L 22.296875 5.984375 
C 22 10.875 17.59375 22.8125 14.09375 31.359375 
L 9.40625 43 
L 1.296875 43 
L 19 0.203125 
C 17.90625 -2.78125 16.296875 -7.265625 15.796875 -8.265625 
C 13.59375 -13.828125 12.09375 -13.828125 10.5 -13.828125 
C 10.09375 -13.828125 6.90625 -13.828125 3.296875 -12.640625 
L 3.90625 -19.203125 
C 6.40625 -19.703125 8.90625 -20 10.703125 -20 
C 13.203125 -20 18.203125 -20 22.796875 -7.765625 
z
" id="CMSS17-121"/>
    </defs>
    <g transform="translate(196.764914 19.2)scale(0.12 -0.12)">
     <use transform="scale(0.996264)" xlink:href="#CMSS17-67"/>
     <use transform="translate(59.855772 0)scale(0.996264)" xlink:href="#CMSS17-111"/>
     <use transform="translate(106.699395 0)scale(0.996264)" xlink:href="#CMSS17-109"/>
     <use transform="translate(180.92865 0)scale(0.996264)" xlink:href="#CMSS17-112"/>
     <use transform="translate(229.133593 0)scale(0.996264)" xlink:href="#CMSS17-108"/>
     <use transform="translate(251.314316 0)scale(0.996264)" xlink:href="#CMSS17-101"/>
     <use transform="translate(292.953138 0)scale(0.996264)" xlink:href="#CMSS17-120"/>
     <use transform="translate(335.953279 0)scale(0.996264)" xlink:href="#CMSS17-105"/>
     <use transform="translate(358.134002 0)scale(0.996264)" xlink:href="#CMSS17-116"/>
     <use transform="translate(389.363115 0)scale(0.996264)" xlink:href="#CMSS17-121"/>
     <use transform="translate(463.59237 0)scale(0.996264)" xlink:href="#CMSS17-55"/>
    </g>
   </g>
   <g id="legend_1">
    <g id="patch_23">
     <path d="M 255.425941 329.8 
L 331.4 329.8 
Q 333.4 329.8 333.4 327.8 
L 333.4 304.704947 
Q 333.4 302.704947 331.4 302.704947 
L 255.425941 302.704947 
Q 253.425941 302.704947 253.425941 304.704947 
L 253.425941 327.8 
Q 253.425941 329.8 255.425941 329.8 
z
" style="fill:#ffffff;opacity:0.8;stroke:#cccccc;stroke-linejoin:miter;"/>
    </g>
    <g id="line2d_25">
     <path d="M 257.425941 316.211723 
L 277.425941 316.211723 
" style="fill:none;stroke:#ffa500;stroke-dasharray:5.55,2.4;stroke-dashoffset:0;stroke-width:1.5;"/>
    </g>
    <g id="line2d_26"/>
    <g id="text_25">
     <!-- Zipf's Law -->
     <defs>
      <path d="M 52.203125 64.921875 
L 52.203125 69 
L 6.5 69 
L 6.5 62.734375 
L 25.203125 62.734375 
C 26.40625 62.734375 27.59375 62.734375 28.796875 62.734375 
L 41.59375 62.734375 
L 5.203125 4.28125 
L 5.203125 0 
L 52.703125 0 
L 52.703125 6.46875 
L 43.796875 6.46875 
C 35.5 6.46875 27.09375 6.46875 18.796875 6.46875 
L 15.796875 6.46875 
z
" id="CMSS17-90"/>
      <path d="M 16.796875 37 
L 26.90625 37 
L 26.90625 42.765625 
L 16.59375 42.765625 
L 16.59375 55.609375 
C 16.59375 62.71875 22 63.9375 25.09375 63.9375 
C 26.09375 63.9375 28.90625 63.9375 32.5 62.640625 
L 32.5 69.203125 
C 30.203125 69.703125 27.40625 70 25.203125 70 
C 15.90625 70 9.40625 62.390625 9.40625 52.484375 
L 9.40625 42.765625 
L 2.5 42.765625 
L 2.5 37 
L 9.40625 37 
L 9.40625 0 
L 16.796875 0 
z
" id="CMSS17-102"/>
      <path d="M 17 61.09375 
L 17 68.953125 
L 9 68.953125 
L 9 61 
L 11.5 61 
L 8.90625 48.5 
L 12.90625 48.5 
z
" id="CMSS17-39"/>
      <path d="M 32.203125 41.046875 
C 26.296875 43.859375 21.703125 43.859375 18.703125 43.859375 
C 11.59375 43.859375 3.09375 41.375 3.09375 31.296875 
C 3.09375 21.234375 14.09375 19.03125 17.09375 18.421875 
C 21.703125 17.53125 26.796875 16.53125 26.796875 11.5625 
C 26.796875 5.265625 19.59375 5.265625 18.296875 5.265625 
C 14.296875 5.265625 8.796875 6.359375 3.796875 9.96875 
L 2.59375 3.28125 
C 8.296875 0 13.796875 -1 18.40625 -1 
C 30.703125 -1 33.796875 6.5 33.796875 12.203125 
C 33.796875 17.09375 31 20.390625 29.09375 21.890625 
C 25.796875 24.5 24.59375 24.796875 16.40625 26.5 
C 15 26.703125 10.09375 27.796875 10.09375 32.28125 
C 10.09375 38 16.40625 38 17.796875 38 
C 24.296875 38 28.296875 35.984375 31 34.5 
z
" id="CMSS17-115"/>
      <path d="M 26.09375 6.46875 
C 24.90625 6.46875 23.703125 6.46875 22.5 6.46875 
L 17.203125 6.46875 
L 17.203125 69 
L 8.796875 69 
L 8.796875 0 
L 46.90625 0 
L 46.90625 6.46875 
z
" id="CMSS17-76"/>
      <path d="M 37.59375 27.984375 
C 37.59375 37.375 30.90625 43.875 21.90625 43.875 
C 17.5 43.875 12.703125 43.078125 7.203125 39.890625 
L 7.796875 33.359375 
C 10.296875 35.125 14.59375 38 21.796875 38 
C 26.90625 38 30 34.0625 30 27.84375 
L 30 24 
C 14 24 4 19.34375 4 11.34375 
C 4 7.203125 6.5 -1 14.796875 -1 
C 16.296875 -1 24.40625 -1 30.203125 3.390625 
L 30.203125 -0.296875 
L 37.59375 -0.296875 
z
M 30 12.75 
C 30 10.953125 30 8.5625 27 6.78125 
C 24.40625 5.078125 21.09375 5.078125 19.703125 5.078125 
C 14.703125 5.078125 11.296875 7.984375 11.296875 11.625 
C 11.296875 18.921875 26.90625 18.921875 30 18.921875 
z
" id="CMSS17-97"/>
      <path d="M 62.703125 43 
L 55.09375 43 
L 49.796875 25.015625 
C 48.703125 21.21875 45.59375 10.703125 45.203125 5.796875 
L 45.09375 5.796875 
C 44.90625 8.8125 43.203125 16 40.40625 25.515625 
L 35.296875 43 
L 28.40625 43 
L 23.40625 25.90625 
C 20.90625 17.203125 19 9.796875 18.796875 5.796875 
L 18.703125 5.796875 
C 18.296875 11.703125 14.203125 25.515625 13.59375 27.703125 
L 9.09375 43 
L 1.296875 43 
L 14.296875 0 
L 21.90625 0 
C 27.09375 17.125 31.09375 30.359375 31.40625 37.03125 
C 31.59375 33.75 33.296875 26.671875 34.296875 23.1875 
L 40.90625 0 
L 49.703125 0 
z
" id="CMSS17-119"/>
     </defs>
     <g transform="translate(285.425941 313.623445)scale(0.1 -0.1)">
      <use transform="scale(0.996264)" xlink:href="#CMSS17-90"/>
      <use transform="translate(57.253333 0)scale(0.996264)" xlink:href="#CMSS17-105"/>
      <use transform="translate(79.434056 0)scale(0.996264)" xlink:href="#CMSS17-112"/>
      <use transform="translate(127.638999 0)scale(0.996264)" xlink:href="#CMSS17-102"/>
      <use transform="translate(162.771732 0)scale(0.996264)" xlink:href="#CMSS17-39"/>
      <use transform="translate(188.795937 0)scale(0.996264)" xlink:href="#CMSS17-115"/>
      <use transform="translate(255.938591 0)scale(0.996264)" xlink:href="#CMSS17-76"/>
      <use transform="translate(306.625697 0)scale(0.996264)" xlink:href="#CMSS17-97"/>
      <use transform="translate(348.945164 0)scale(0.996264)" xlink:href="#CMSS17-119"/>
     </g>
     <!-- $\alpha = 0.7$ -->
     <defs>
      <path d="M 46.296875 25.25 
C 46.296875 34.921875 40.796875 43.984375 30.203125 43.984375 
C 17.09375 43.984375 4 29.71875 4 15.5625 
C 4 6.890625 9.40625 -1 19.59375 -1 
C 25.796875 -1 33.203125 1.390625 40.296875 7.375 
C 41.703125 1.796875 44.796875 -1 49.09375 -1 
C 54.5 -1 57.203125 4.59375 57.203125 5.890625 
C 57.203125 6.78125 56.5 6.78125 56.203125 6.78125 
C 55.40625 6.78125 55.296875 6.484375 55 5.6875 
C 54.09375 3.1875 51.796875 1 49.40625 1 
C 46.296875 1 46.296875 7.375 46.296875 13.46875 
C 56.5 25.640625 58.90625 38.21875 58.90625 38.3125 
C 58.90625 39.21875 58.09375 39.21875 57.796875 39.21875 
C 56.90625 39.21875 56.796875 38.921875 56.40625 37.125 
C 55.09375 32.734375 52.5 24.953125 46.296875 16.765625 
z
M 40 9.78125 
C 31.203125 1.890625 23.296875 1 19.796875 1 
C 12.703125 1 10.703125 7.28125 10.703125 11.96875 
C 10.703125 16.25 12.90625 26.4375 16 31.9375 
C 20.09375 38.921875 25.703125 42 30.203125 42 
C 39.90625 42 39.90625 29.328125 39.90625 20.953125 
C 39.90625 18.46875 39.796875 15.875 39.796875 13.375 
C 39.796875 11.375 39.90625 10.875 40 9.78125 
z
" id="CMMI12-11"/>
      <path d="M 64.296875 31.515625 
C 65.796875 31.515625 67.296875 31.515625 67.296875 33.203125 
C 67.296875 35 65.59375 35 63.90625 35 
L 8 35 
C 6.296875 35 4.59375 35 4.59375 33.203125 
C 4.59375 31.515625 6.09375 31.515625 7.59375 31.515625 
z
M 63.90625 14 
C 65.59375 14 67.296875 14 67.296875 15.796875 
C 67.296875 17.484375 65.796875 17.484375 64.296875 17.484375 
L 7.59375 17.484375 
C 6.09375 17.484375 4.59375 17.484375 4.59375 15.796875 
C 4.59375 14 6.296875 14 8 14 
z
" id="CMR17-61"/>
      <path d="M 42 31.640625 
C 42 37.75 41.90625 48.125 37.703125 56.109375 
C 34 63.109375 28.09375 65.59375 22.90625 65.59375 
C 18.09375 65.59375 12 63.40625 8.203125 56.203125 
C 4.203125 48.71875 3.796875 39.4375 3.796875 31.640625 
C 3.796875 25.953125 3.90625 17.28125 7 9.671875 
C 11.296875 -0.609375 19 -2 22.90625 -2 
C 27.5 -2 34.5 -0.109375 38.59375 9.375 
C 41.59375 16.28125 42 24.359375 42 31.640625 
z
M 22.90625 -0.40625 
C 16.5 -0.40625 12.703125 5.078125 11.296875 12.6875 
C 10.203125 18.5625 10.203125 27.15625 10.203125 32.75 
C 10.203125 40.4375 10.203125 46.828125 11.5 52.921875 
C 13.40625 61.390625 19 64 22.90625 64 
C 27 64 32.296875 61.296875 34.203125 53.125 
C 35.5 47.4375 35.59375 40.734375 35.59375 32.75 
C 35.59375 26.25 35.59375 18.265625 34.40625 12.375 
C 32.296875 1.484375 26.40625 -0.40625 22.90625 -0.40625 
z
" id="CMR17-48"/>
      <path d="M 18.40625 4.796875 
C 18.40625 7.6875 16 9.671875 13.59375 9.671875 
C 10.703125 9.671875 8.703125 7.28125 8.703125 4.890625 
C 8.703125 2 11.09375 0 13.5 0 
C 16.40625 0 18.40625 2.390625 18.40625 4.796875 
z
" id="CMMI12-58"/>
      <path d="M 45.09375 61.578125 
L 45.09375 63.765625 
L 21.59375 63.765625 
C 9.90625 63.765625 9.703125 65.078125 9.296875 67 
L 7.5 67 
L 4.59375 48.34375 
L 6.40625 48.34375 
C 6.703125 50.234375 7.40625 55.3125 8.59375 57.203125 
C 9.203125 58 16.59375 58 18.296875 58 
L 40.296875 58 
L 29.203125 41.578125 
C 21.796875 30.53125 16.703125 15.609375 16.703125 2.578125 
C 16.703125 1.390625 16.703125 -2 20.296875 -2 
C 23.90625 -2 23.90625 1.390625 23.90625 2.671875 
L 23.90625 7.265625 
C 23.90625 23.5625 26.703125 34.3125 31.296875 41.1875 
z
" id="CMR17-55"/>
     </defs>
     <g transform="translate(285.425941 323.862822)scale(0.1 -0.1)">
      <use transform="scale(0.996264)" xlink:href="#CMMI12-11"/>
      <use transform="translate(90.355032 0)scale(0.996264)" xlink:href="#CMR17-61"/>
      <use transform="translate(189.743829 0)scale(0.996264)" xlink:href="#CMR17-48"/>
      <use transform="translate(235.434306 0)scale(0.996264)" xlink:href="#CMMI12-58"/>
      <use transform="translate(262.531483 0)scale(0.996264)" xlink:href="#CMR17-55"/>
     </g>
    </g>
   </g>
  </g>
 </g>
 <defs>
  <clipPath id="padd52f78f4">
   <rect height="309.6" width="219.6" x="118.8" y="25.2"/>
  </clipPath>
 </defs>
</svg>
